<svg xmlns="http://www.w3.org/2000/svg" xmlns:xlink="http://www.w3.org/1999/xlink" width="255" height="255" viewBox="0 0 255 255">
  <defs>
    <linearGradient id="linear-gradient" x1="1.396" y1="-0.381" x2="-0.054" y2="1.049" gradientUnits="objectBoundingBox">
      <stop offset="0" stop-color="#e32a40"/>
      <stop offset="0.241" stop-color="#00c4ff"/>
      <stop offset="0.468" stop-color="#d5aaff"/>
      <stop offset="0.744" stop-color="#dd3448"/>
      <stop offset="1" stop-color="#ffe200"/>
    </linearGradient>
  </defs>
  <g id="Group_45530" data-name="Group 45530" transform="translate(-693.5 -1504.5)">
    <g id="Group_45330" data-name="Group 45330">
      <path id="Union_11" data-name="Union 11" d="M-1928-9229h216a19,19,0,0,1,19,19v216a19,19,0,0,1-19,19h-216a19,19,0,0,1-19-19v-216A19,19,0,0,1-1928-9229Z" transform="translate(2641 10734)" stroke="rgba(0,0,0,0)" stroke-width="1" fill="url(#linear-gradient)"/>
      <rect id="Rectangle_8905" data-name="Rectangle 8905" width="224" height="224" rx="10" transform="translate(709 1520)" fill="#fff" stroke="rgba(0,0,0,0)" stroke-width="1"/>
    </g>
    <text id="Android_App_Development" data-name="Android App
Development" transform="translate(821 1693)" font-size="18" font-family="Poppins-Bold, Poppins" font-weight="700"><tspan x="-57.699" y="0">Android App</tspan><tspan x="-62.766" y="27">Development</tspan></text>
    <g id="Group_22812" data-name="Group 22812" transform="translate(791 1549)">
      <path id="Path_27117" data-name="Path 27117" d="M196.034,150.224h17.3a4.107,4.107,0,0,0,4.1-4.1v-1.961a12.753,12.753,0,0,0-5.927-10.765l.788-1.461a1.495,1.495,0,0,0-2.631-1.419l-.852,1.581a12.7,12.7,0,0,0-8.264,0l-.852-1.581a1.494,1.494,0,0,0-2.631,1.419l.788,1.461a12.753,12.753,0,0,0-5.927,10.765v1.961A4.107,4.107,0,0,0,196.034,150.224Zm-1.113-6.063a9.765,9.765,0,0,1,19.531,0v1.961a1.114,1.114,0,0,1-1.113,1.113h-17.3a1.114,1.114,0,0,1-1.113-1.113Z" transform="translate(-174.703 -103.88)"/>
      <path id="Path_27118" data-name="Path 27118" d="M228.263,185a1.5,1.5,0,0,0,1.495-1.495v-1.436a1.494,1.494,0,0,0-2.989,0v1.436A1.5,1.5,0,0,0,228.263,185Z" transform="translate(-202.598 -144.592)"/>
      <path id="Path_27119" data-name="Path 27119" d="M271.6,185a1.5,1.5,0,0,0,1.495-1.495v-1.436a1.495,1.495,0,0,0-2.989,0v1.436A1.5,1.5,0,0,0,271.6,185Z" transform="translate(-237.301 -144.592)"/>
      <path id="Path_27120" data-name="Path 27120" d="M194.908,258.93v5.922a4.222,4.222,0,1,0,8.445,0v-5.833h2.661v5.833a4.222,4.222,0,1,0,8.445,0V258.93a3.8,3.8,0,0,0,2.979-3.7v-.442a1.494,1.494,0,0,0-2.989,0v.442a.8.8,0,0,1-.8.8H195.72a.8.8,0,0,1-.8-.8v-10.5a.8.8,0,0,1,.8-.8h17.927a.8.8,0,0,1,.8.8v3.084a1.494,1.494,0,1,0,2.989,0v-3.084a3.8,3.8,0,0,0-3.791-3.791H195.72a3.8,3.8,0,0,0-3.791,3.791v10.5A3.8,3.8,0,0,0,194.908,258.93Zm14.1.09h2.467v5.833a1.233,1.233,0,0,1-2.467,0v-5.833Zm-11.107,0h2.467v5.833a1.233,1.233,0,0,1-2.467,0v-5.833Z" transform="translate(-174.701 -192.926)"/>
      <path id="Path_27121" data-name="Path 27121" d="M330.041,250.763a4.222,4.222,0,1,0,8.445,0v-5.6a4.222,4.222,0,1,0-8.445,0Zm2.989-5.6a1.233,1.233,0,0,1,2.467,0v5.6a1.233,1.233,0,1,1-2.467,0Z" transform="translate(-285.291 -192.929)"/>
      <path id="Path_27122" data-name="Path 27122" d="M143.678,254.986a4.227,4.227,0,0,0,4.222-4.222v-5.6a4.222,4.222,0,0,0-8.445,0v5.6A4.227,4.227,0,0,0,143.678,254.986Zm-1.234-9.823a1.233,1.233,0,0,1,2.467,0v5.6a1.233,1.233,0,1,1-2.467,0Z" transform="translate(-132.684 -192.929)"/>
      <path id="Path_27123" data-name="Path 27123" d="M159.17,0H124.726a1.495,1.495,0,0,0,0,2.989H159.17a3.281,3.281,0,0,1,3.278,3.278V13.04H108.459V6.267a3.281,3.281,0,0,1,3.278-3.278h6.082a1.495,1.495,0,1,0,0-2.989h-6.082a6.274,6.274,0,0,0-6.267,6.267V95.733A6.274,6.274,0,0,0,111.737,102H159.17a6.274,6.274,0,0,0,6.267-6.267V6.267A6.274,6.274,0,0,0,159.17,0Zm3.278,95.734a3.281,3.281,0,0,1-3.278,3.278H111.737a3.281,3.281,0,0,1-3.278-3.278V88.961h53.989v6.773Zm0-9.762H108.459V16.029h53.989V85.971Z" transform="translate(-105.47 0)"/>
      <path id="Path_27124" data-name="Path 27124" d="M237.845,467.147h4.818a1.495,1.495,0,0,0,0-2.989h-4.818a1.495,1.495,0,0,0,0,2.989Z" transform="translate(-210.27 -371.667)"/>
      <circle id="Ellipse_737" data-name="Ellipse 737" cx="1.982" cy="1.982" r="1.982" transform="translate(21.702 6.033)"/>
      <path id="Path_27125" data-name="Path 27125" d="M258.215,35.708a1.495,1.495,0,1,0,0-2.989h-8.281a1.495,1.495,0,1,0,0,2.989Z" transform="translate(-219.95 -26.199)"/>
      <path id="Path_27126" data-name="Path 27126" d="M321.142,104.025a1.5,1.5,0,0,0,1.495-1.495v-.913a1.495,1.495,0,0,0-2.989,0v.913A1.5,1.5,0,0,0,321.142,104.025Z" transform="translate(-276.969 -80.172)"/>
      <path id="Path_27127" data-name="Path 27127" d="M344.16,100.355a1.5,1.5,0,0,0,1.495-1.495V97.034a1.495,1.495,0,0,0-2.989,0V98.86A1.5,1.5,0,0,0,344.16,100.355Z" transform="translate(-295.4 -76.501)"/>
      <path id="Path_27128" data-name="Path 27128" d="M367.177,96.685a1.5,1.5,0,0,0,1.495-1.495v-2.74a1.495,1.495,0,0,0-2.989,0v2.74A1.5,1.5,0,0,0,367.177,96.685Z" transform="translate(-313.831 -72.831)"/>
    </g>
  </g>
</svg>
