<svg xmlns="http://www.w3.org/2000/svg" width="49.275" height="83.814" viewBox="0 0 49.275 83.814">
    <g data-name="Group 22812">
        <path data-name="Path 27117" d="M17.525 38.081h14.219a3.375 3.375 0 0 0 3.371-3.371v-1.611a10.479 10.479 0 0 0-4.87-8.846l.647-1.2a1.228 1.228 0 0 0-2.162-1.166l-.7 1.3a10.439 10.439 0 0 0-6.79 0l-.7-1.3a1.228 1.228 0 0 0-2.162 1.166l.647 1.2a10.479 10.479 0 0 0-4.87 8.846v1.612a3.374 3.374 0 0 0 3.37 3.37zm-.915-4.982a8.024 8.024 0 0 1 16.049 0v1.612a.916.916 0 0 1-.915.915H17.525a.916.916 0 0 1-.915-.915z"/>
        <path data-name="Path 27118" d="M21.092 33.203a1.228 1.228 0 0 0 1.228-1.228v-1.183a1.228 1.228 0 0 0-2.456 0v1.18a1.228 1.228 0 0 0 1.228 1.231z"/>
        <path data-name="Path 27119" d="M28.186 33.203a1.228 1.228 0 0 0 1.228-1.228v-1.183a1.228 1.228 0 0 0-2.456 0v1.18a1.228 1.228 0 0 0 1.228 1.231z"/>
        <path data-name="Path 27120" d="M16.605 54.236v4.866a3.47 3.47 0 1 0 6.939 0v-4.788h2.184v4.793a3.47 3.47 0 1 0 6.939 0v-4.866a3.119 3.119 0 0 0 2.448-3.041v-.363a1.228 1.228 0 0 0-2.456 0v.363a.66.66 0 0 1-.659.659H17.272a.66.66 0 0 1-.659-.659v-8.629a.66.66 0 0 1 .659-.659h14.731a.66.66 0 0 1 .659.659v2.534a1.228 1.228 0 1 0 2.456 0v-2.534a3.118 3.118 0 0 0-3.115-3.115H17.272a3.119 3.119 0 0 0-3.115 3.115V51.2a3.12 3.12 0 0 0 2.448 3.036zm11.583.074h2.027v4.793a1.014 1.014 0 0 1-2.027 0v-4.789zm-9.127 0h2.027v4.793a1.014 1.014 0 0 1-2.027 0v-4.789z"/>
        <path data-name="Path 27121" d="M36.771 47.523a3.47 3.47 0 0 0 6.939 0v-4.6a3.47 3.47 0 1 0-6.939 0zm2.456-4.6a1.014 1.014 0 1 1 2.027 0v4.6a1.014 1.014 0 1 1-2.027 0z"/>
        <path data-name="Path 27122" d="M9.035 50.993a3.474 3.474 0 0 0 3.47-3.47v-4.6a3.47 3.47 0 0 0-6.939 0v4.6a3.473 3.473 0 0 0 3.469 3.47zm-1.014-8.072a1.014 1.014 0 1 1 2.027 0v4.6a1.014 1.014 0 1 1-2.027 0z"/>
        <path data-name="Path 27123" d="M44.13 0h-28.3a1.228 1.228 0 0 0 0 2.456h28.3a2.7 2.7 0 0 1 2.693 2.693v5.566H2.456V5.149a2.7 2.7 0 0 1 2.693-2.693h5a1.228 1.228 0 1 0 0-2.456h-5A5.155 5.155 0 0 0 0 5.149v73.516a5.155 5.155 0 0 0 5.149 5.149H44.13a5.155 5.155 0 0 0 5.149-5.149V5.149A5.155 5.155 0 0 0 44.13 0zm2.693 78.665a2.7 2.7 0 0 1-2.693 2.693H5.149a2.7 2.7 0 0 1-2.693-2.693V73.1h44.363v5.566zm0-8.022H2.456V13.171h44.363v57.473z"/>
        <path data-name="Path 27124" d="M22.658 78.457h3.959a1.228 1.228 0 1 0 0-2.456h-3.959a1.228 1.228 0 0 0 0 2.456z"/>
        <circle data-name="Ellipse 737" cx="1.628" cy="1.628" transform="translate(17.833 4.957)" r="1.628"/>
        <path data-name="Path 27125" d="M31.442 7.813a1.228 1.228 0 1 0 0-2.456h-6.8a1.228 1.228 0 1 0 0 2.456z"/>
        <path data-name="Path 27126" d="M36.297 19.601a1.228 1.228 0 0 0 1.225-1.23v-.75a1.228 1.228 0 0 0-2.456 0v.75a1.228 1.228 0 0 0 1.231 1.23z"/>
        <path data-name="Path 27127" d="M40.066 19.605a1.228 1.228 0 0 0 1.228-1.228v-1.5a1.228 1.228 0 1 0-2.456 0v1.5a1.228 1.228 0 0 0 1.228 1.228z"/>
        <path data-name="Path 27128" d="M43.835 19.601a1.228 1.228 0 0 0 1.228-1.228v-2.252a1.228 1.228 0 1 0-2.456 0v2.251a1.228 1.228 0 0 0 1.228 1.229z"/>
    </g>
</svg>
