<svg xmlns="http://www.w3.org/2000/svg" xmlns:xlink="http://www.w3.org/1999/xlink" width="255" height="255" viewBox="0 0 255 255">
  <defs>
    <linearGradient id="linear-gradient" x1="1.396" y1="-0.381" x2="-0.054" y2="1.049" gradientUnits="objectBoundingBox">
      <stop offset="0" stop-color="#e32a40"/>
      <stop offset="0.241" stop-color="#00c4ff"/>
      <stop offset="0.468" stop-color="#d5aaff"/>
      <stop offset="0.744" stop-color="#dd3448"/>
      <stop offset="1" stop-color="#ffe200"/>
    </linearGradient>
  </defs>
  <g id="Group_45546" data-name="Group 45546" transform="translate(-415.5 -1474.5)">
    <g id="Group_45333" data-name="Group 45333" transform="translate(4 -30)">
      <path id="Union_10" data-name="Union 10" d="M-1928-9229h216a19,19,0,0,1,19,19v216a19,19,0,0,1-19,19h-216a19,19,0,0,1-19-19v-216A19,19,0,0,1-1928-9229Z" transform="translate(2359 10734)" stroke="rgba(0,0,0,0)" stroke-width="1" fill="url(#linear-gradient)"/>
      <rect id="Rectangle_8903" data-name="Rectangle 8903" width="224" height="224" rx="10" transform="translate(427 1520)" fill="#fff" stroke="rgba(0,0,0,0)" stroke-width="1"/>
    </g>
    <text id="API_customization" data-name="API 
customization" transform="translate(543 1654)" font-size="18" font-family="Poppins-Bold, Poppins" font-weight="700"><tspan x="-17.073" y="0">Api </tspan><tspan x="-68.103" y="27">Customization</tspan></text>
    <path id="Path_54329" data-name="Path 54329" d="M97.986,40.1a11.919,11.919,0,0,0-19.976,5.51,12.492,12.492,0,0,0-.328,2.911v.015a11.9,11.9,0,0,0,20.3,8.391,11.417,11.417,0,0,0,3.475-8.406,12.433,12.433,0,0,0-.312-2.911A11.524,11.524,0,0,0,97.986,40.1ZM32.279,18.6V15.585H29.264m3.016-3v3h3M22.566,48.555a10.39,10.39,0,0,1-3.164,7.62,10.389,10.389,0,0,1-7.619,3.163,10.393,10.393,0,0,1-7.62-3.163,10.759,10.759,0,0,1,0-15.239,10.388,10.388,0,0,1,7.62-3.163A10.384,10.384,0,0,1,19.4,40.936a10.385,10.385,0,0,1,3.164,7.619l8.822-.014h.8a18.344,18.344,0,0,1,5-12.847q.291-.31.594-.608A19.852,19.852,0,0,1,41.74,32l-4.054-7.039a10.837,10.837,0,0,1-13.026-1.738A10.388,10.388,0,0,1,21.511,15.6a11.391,11.391,0,0,1,.312-2.643A10.362,10.362,0,0,1,24.659,7.98a11.208,11.208,0,0,1,2.214-1.723A10.823,10.823,0,0,1,39.913,7.98a10.351,10.351,0,0,1,2.85,4.976,11.259,11.259,0,0,1,.3,2.643,10.346,10.346,0,0,1-3.148,7.619,11.209,11.209,0,0,1-2.228,1.738M11.753,51.541V48.525H8.738m3.016-3v3h3m17.437.1a18.335,18.335,0,0,0,5,12.922c.194-.2.392-.4.594-.594a18.429,18.429,0,0,1,9.372-5.2,20.358,20.358,0,0,1,4.159-.416h.014v-6.8H32.992l-.8.014Zm0-.088h.8m-.8.014-.8-.014m.8,0v.014m19.144-.014V41.887H51.32a20.479,20.479,0,0,1-2.392-.134q-.863-.1-1.693-.282a18.4,18.4,0,0,1-9.446-5.2c-.2-.194-.4-.386-.594-.58M41.74,32a18.569,18.569,0,0,1,9.58-2.509h.014A18.427,18.427,0,0,1,60.871,32h.013l8.408-14.568a9.282,9.282,0,0,1-1.8-1.412,8.476,8.476,0,0,1-2.569-6.223,8.445,8.445,0,0,1,2.569-6.208,8.789,8.789,0,0,1,12.448,0,8.458,8.458,0,0,1,2.583,6.208,8.49,8.49,0,0,1-2.583,6.223,8.846,8.846,0,0,1-10.65,1.412h.014l.015-.045-.03.045M73.718,7.371V9.778h2.406m-2.406,2.4v-2.4H71.311M51.334,29.486v12.4a20.419,20.419,0,0,0,4.085-.4,18.409,18.409,0,0,0,9.431-5.213c.2-.194.4-.386.594-.58q-.289-.31-.594-.608A19.76,19.76,0,0,0,60.884,32M70.45,48.541v.014l.624-.014Zm.624,0h6.609m-26.348,0H70.45a18.34,18.34,0,0,0-5.006-12.847M51.334,55.342a20.042,20.042,0,0,1,4.129.416,18.433,18.433,0,0,1,9.387,5.2c.2.195.4.392.594.594A18.341,18.341,0,0,0,70.45,48.629v-.074l-.772-.014M89.6,52.135v-3.61H85.985M89.6,44.917v3.609H93.2M78,73.922a10.366,10.366,0,0,0-7.606-3.163,10.493,10.493,0,0,0-5.421,1.426,11.283,11.283,0,0,0-2.212,1.737A10.382,10.382,0,0,0,59.9,78.9a11.259,11.259,0,0,0-.3,2.643,10.831,10.831,0,0,0,16.175,9.371A11.187,11.187,0,0,0,78,89.159a10.352,10.352,0,0,0,3.149-7.619,11.326,11.326,0,0,0-.283-2.643A10.4,10.4,0,0,0,78,73.922ZM51.334,55.342v12.4a18.466,18.466,0,0,0,9.6-2.525,19.838,19.838,0,0,0,3.92-3.074q.3-.3.594-.594m-28.249,0q.291.3.594.594A19.649,19.649,0,0,0,41.7,65.2a18.508,18.508,0,0,0,9.624,2.539h.014m13.635,4.441L60.93,65.218m9.431,19.322V81.525H67.345m3.016-3v3h3M29.4,77.768a8.851,8.851,0,0,0-8.54,6.624,9.217,9.217,0,0,0-.239,2.154A8.8,8.8,0,0,0,29.4,95.324a8.824,8.824,0,0,0,8.793-8.777,9.213,9.213,0,0,0-.253-2.154,8.471,8.471,0,0,0-2.331-4.055,9.036,9.036,0,0,0-1.826-1.425A8.426,8.426,0,0,0,29.4,77.768ZM41.7,65.2,33.78,78.912M29.4,88.937V86.531H26.992M29.4,84.125v2.406H31.8" transform="translate(492.188 1518.489)" fill="none" stroke="#231f20" stroke-linecap="round" stroke-linejoin="round" stroke-width="4"/>
  </g>
</svg>
