<svg xmlns="http://www.w3.org/2000/svg" width="103.462" height="97.323" viewBox="0 0 103.462 97.323">
    <path data-name="Path 54329" d="M97.986 40.1a11.919 11.919 0 0 0-19.976 5.51 12.492 12.492 0 0 0-.328 2.911v.015a11.9 11.9 0 0 0 20.3 8.391 11.417 11.417 0 0 0 3.475-8.406 12.433 12.433 0 0 0-.312-2.911 11.524 11.524 0 0 0-3.159-5.51zM32.279 18.6v-3.015h-3.015m3.016-3v3h3m-12.714 32.97a10.39 10.39 0 0 1-3.164 7.62 10.389 10.389 0 0 1-7.619 3.163 10.393 10.393 0 0 1-7.62-3.163 10.759 10.759 0 0 1 0-15.239 10.388 10.388 0 0 1 7.62-3.163 10.384 10.384 0 0 1 7.617 3.163 10.385 10.385 0 0 1 3.164 7.619l8.822-.014h.8a18.344 18.344 0 0 1 5-12.847q.291-.31.594-.608A19.852 19.852 0 0 1 41.74 32l-4.054-7.039a10.837 10.837 0 0 1-13.026-1.738 10.388 10.388 0 0 1-3.149-7.623 11.391 11.391 0 0 1 .312-2.643 10.362 10.362 0 0 1 2.836-4.977 11.208 11.208 0 0 1 2.214-1.723 10.823 10.823 0 0 1 13.04 1.723 10.351 10.351 0 0 1 2.85 4.976 11.259 11.259 0 0 1 .3 2.643 10.346 10.346 0 0 1-3.148 7.619 11.209 11.209 0 0 1-2.228 1.738M11.753 51.541v-3.016H8.738m3.016-3v3h3m17.437.1a18.335 18.335 0 0 0 5 12.922c.194-.2.392-.4.594-.594a18.429 18.429 0 0 1 9.372-5.2 20.358 20.358 0 0 1 4.159-.416h.014v-6.8H32.992l-.8.014zm0-.088h.8m-.8.014-.8-.014m.8 0v.014m19.144-.014v-6.65h-.015a20.479 20.479 0 0 1-2.392-.134q-.863-.1-1.693-.282a18.4 18.4 0 0 1-9.446-5.2c-.2-.194-.4-.386-.594-.58M41.74 32a18.569 18.569 0 0 1 9.58-2.509h.014A18.427 18.427 0 0 1 60.871 32h.013l8.408-14.568a9.282 9.282 0 0 1-1.8-1.412 8.476 8.476 0 0 1-2.569-6.223 8.445 8.445 0 0 1 2.569-6.208 8.789 8.789 0 0 1 12.448 0 8.458 8.458 0 0 1 2.583 6.208 8.49 8.49 0 0 1-2.583 6.223 8.846 8.846 0 0 1-10.65 1.412h.014l.015-.045-.03.045m4.429-10.061v2.407h2.406m-2.406 2.4v-2.4h-2.407M51.334 29.486v12.4a20.419 20.419 0 0 0 4.085-.4 18.409 18.409 0 0 0 9.431-5.213c.2-.194.4-.386.594-.58q-.289-.31-.594-.608A19.76 19.76 0 0 0 60.884 32m9.566 16.541v.014l.624-.014zm.624 0h6.609m-26.348 0H70.45a18.34 18.34 0 0 0-5.006-12.847m-14.11 19.648a20.042 20.042 0 0 1 4.129.416 18.433 18.433 0 0 1 9.387 5.2c.2.195.4.392.594.594a18.341 18.341 0 0 0 5.006-12.923v-.074l-.772-.014M89.6 52.135v-3.61h-3.615m3.615-3.608v3.609h3.6M78 73.922a10.366 10.366 0 0 0-7.606-3.163 10.493 10.493 0 0 0-5.421 1.426 11.283 11.283 0 0 0-2.212 1.737A10.382 10.382 0 0 0 59.9 78.9a11.259 11.259 0 0 0-.3 2.643 10.831 10.831 0 0 0 16.175 9.371A11.187 11.187 0 0 0 78 89.159a10.352 10.352 0 0 0 3.149-7.619 11.326 11.326 0 0 0-.283-2.643A10.4 10.4 0 0 0 78 73.922zm-26.666-18.58v12.4a18.466 18.466 0 0 0 9.6-2.525 19.838 19.838 0 0 0 3.92-3.074l.594-.594m-28.249 0q.291.3.594.594A19.649 19.649 0 0 0 41.7 65.2a18.508 18.508 0 0 0 9.624 2.539h.014m13.635 4.441-4.043-6.962m9.431 19.322v-3.015h-3.016m3.016-3v3h3M29.4 77.768a8.851 8.851 0 0 0-8.54 6.624 9.217 9.217 0 0 0-.239 2.154 8.8 8.8 0 0 0 8.779 8.778 8.824 8.824 0 0 0 8.793-8.777 9.213 9.213 0 0 0-.253-2.154 8.471 8.471 0 0 0-2.331-4.055 9.036 9.036 0 0 0-1.826-1.425 8.426 8.426 0 0 0-4.383-1.145zM41.7 65.2l-7.92 13.712M29.4 88.937v-2.406h-2.408m2.408-2.406v2.406h2.4" transform="translate(.5 .499)" style="fill:none;stroke:#231f20;stroke-linecap:round;stroke-linejoin:round;stroke-width:3px"/>
</svg>
