<svg xmlns="http://www.w3.org/2000/svg" width="408" height="306" viewBox="0 0 408 306">
  <g id="Group_45568" data-name="Group 45568" transform="translate(-93 -244)">
    <g id="Group_45567" data-name="Group 45567">
      <g id="Group_45566" data-name="Group 45566">
        <g id="Group_45222" data-name="Group 45222" transform="translate(-8 -6)">
          <g id="Group_45221" data-name="Group 45221" transform="translate(110 262)">
            <g id="Group_22444" data-name="Group 22444" transform="translate(0 0)">
              <rect id="Rectangle_8845" data-name="Rectangle 8845" width="42.54" height="35.247" rx="13.74" transform="translate(44.479 63.657)" fill="#fff"/>
              <path id="Rectangle_8846" data-name="Rectangle 8846" d="M27.482,0H260.573a27.482,27.482,0,0,1,27.482,27.482V156.047a27.481,27.481,0,0,1-27.481,27.481H27.481A27.481,27.481,0,0,1,0,156.047V27.482A27.482,27.482,0,0,1,27.482,0Z" transform="translate(65.749 61.668)" fill="#fff"/>
              <g id="Group_22443" data-name="Group 22443">
                <path id="Rectangle_8847" data-name="Rectangle 8847" d="M14.117,0H44.552A14.117,14.117,0,0,1,58.669,14.117V27.068A14.118,14.118,0,0,1,44.551,41.186H14.117A14.117,14.117,0,0,1,0,27.069V14.117A14.117,14.117,0,0,1,14.117,0Z" transform="translate(265.565)" fill="#d3aafd"/>
                <path id="Path_25533" data-name="Path 25533" d="M2739.424,455.16l-.2,2.091s-1.68-.155-1.976,2.368-.815,6.035-.815,6.035-4.771,1.429-4.439,2.62,3.065,5.162,3.065,5.162l.641.42s-3.476,11.5,9.7,12.5a16.145,16.145,0,0,1,12.127-11.163s6.418,2.783,8.354-2.662-2.738-8.675-4.453-8.7a21.06,21.06,0,0,0-5,1.1s-5.055-.192-6.44-6.607a38.3,38.3,0,0,1-.825-11.277,8.934,8.934,0,0,0-1.608,4.547,25.615,25.615,0,0,0,.157,4.778Z" transform="translate(-2473.619 -343.172)" fill="#fff"/>
                <path id="Path_25534" data-name="Path 25534" d="M2716.81,432.7s-6.208-7.847-8.99-9.58-5.8-2.362-7.231.578c0,0-2.61-1.719-4.358-.755a4.284,4.284,0,0,0-2.045,2.846s-3.02-.526-4.406,1.211.228,4.582,2.337,7.621,7.122,9.855,8.472,11.179,5.171,5.735,2.71,7.62-4.676-.091-7.4-.179a3.89,3.89,0,0,0-4.31,2.959c-.463,1.573,2.264,3.758,5.994,4.529a35.4,35.4,0,0,1,8.193,3.255l6.826-5.266,8.243-10.606-3.1-6.3-3.244-.367S2714.79,434.841,2716.81,432.7Z" transform="translate(-2451.685 -330.133)" fill="#fff"/>
                <path id="Path_25535" data-name="Path 25535" d="M2597.964,500.874a103.514,103.514,0,0,0,2.78-10.293c.475-3.1,2.4-7.777-1.791-8.272s-4.072,4.413-4.511,5.578-1.259,3.323-3.646,2.851-3.444-4.168-4.74-8.641a121.358,121.358,0,0,0-4.456-12.9c-1.037-2.176-1.75-4.371-4.69-4.067a2.646,2.646,0,0,0-2.7,2.81s-2.428-.932-3.724-.169-1.514,4.122-1.514,4.122a2.837,2.837,0,0,0-2.773.056c-1.788.784-1.6,4.578-1.347,6.242a78.966,78.966,0,0,0,2.023,9.693c1.149,4.017,5.217,15.656,7.467,18.289a23.038,23.038,0,0,1,10.126-5.034C2590.141,500.139,2597.964,500.874,2597.964,500.874Z" transform="translate(-2387.719 -352.442)" fill="#fff"/>
                <path id="Path_25645" data-name="Path 25645" d="M25.25,0H94.926a25.25,25.25,0,0,1,25.25,25.25V53.864A25.249,25.249,0,0,1,94.926,79.113H25.249A25.249,25.249,0,0,1,0,53.864V25.25A25.25,25.25,0,0,1,25.25,0Z" transform="translate(0 154.865)" fill="#d3aafd"/>
                <path id="Path_25536" data-name="Path 25536" d="M2347.4,532.076h-93.572a13.341,13.341,0,0,0-13.3,13.3v6.431h120.176v-6.431A13.341,13.341,0,0,0,2347.4,532.076Z" transform="translate(-2221.261 -386.834)" fill="#1a1a1a"/>
                <path id="Path_25537" data-name="Path 25537" d="M2668.589,542.921a26.674,26.674,0,0,0-19.461,15.677c-6.108,13.907-9.725,28.063-17.036,27.334s-7.344-3.382-11.283-15.417-9.449-28.846-9.449-28.846-4.36-5.19-18.5-3.371-14.93,8.943-14.93,8.943,5.419,32.069,9.685,42.512c0,0,7.732,24.248,22.259,30.484s22.1,4.7,31.925,2.612l.006,2.891s-2,43.257-1.767,45.745l73.4-.055s-4.894-27.5-5.07-39.248c-.212-14.141,2.429-32.363,2.429-32.363a7.742,7.742,0,0,1-7.112-5.689c-2.107-7,0-13.878.105-18.543s1.355-15.154-5.151-18.7-10.5-1.861-17.357-4.871S2668.852,544.674,2668.589,542.921Z" transform="translate(-2394.514 -389.831)" fill="#dc4867"/>
                <path id="Path_25538" data-name="Path 25538" d="M2727.144,498.745s-7.318,4.062-8.44,10.911l10.914,21.131,10.7-7.842s-2.358-3.429-1.729-10.045c0,0-6.46-.215-9.077-4.78a8.518,8.518,0,0,1-.516-8.206Z" transform="translate(-2466.803 -369.719)" fill="#dc4867"/>
                <path id="Path_25539" data-name="Path 25539" d="M2413.472,331.968l-16.662,33.849s2.937,13.5,7.1,17.817H2423.6s6.4-9.637,6.669-17.817Zm0,36.33a5.309,5.309,0,1,1,5.308-5.309A5.309,5.309,0,0,1,2413.472,368.3Z" transform="translate(-2301.51 -284.079)" fill="#d5aaff"/>
                <rect id="Rectangle_8849" data-name="Rectangle 8849" width="23.288" height="7.211" rx="3.605" transform="translate(100.498 102.565)" fill="#1a1a1a"/>
                <path id="Path_25540" data-name="Path 25540" d="M2330.528,331.719a6.494,6.494,0,1,1-6.494-6.494A6.495,6.495,0,0,1,2330.528,331.719Z" transform="translate(-2260.805 -280.616)" fill="#d5aaff"/>
                <path id="Path_25541" data-name="Path 25541" d="M2531.989,331.719a6.494,6.494,0,1,1-6.494-6.494A6.494,6.494,0,0,1,2531.989,331.719Z" transform="translate(-2364.255 -280.616)" fill="#d5aaff"/>
                <path id="Path_25542" data-name="Path 25542" d="M2762.233,467.479s-8.247,1.745-11.238,8.869.055,10.59,3.52,14.686,8.772,6.31,12.216,7.271,15.015,1.408,17.938,5.995,3.39,11.19,2.924,16.917-1.844,11.692-.525,16.125,2.684,8.614,16.253,8.929,14.9-14.8,14.76-18.111a61.655,61.655,0,0,0-7.281-26.624c-6.406-11.446-12.812-12.706-17.327-15.017s-12.707-7.7-13.336-13.861a23.722,23.722,0,0,1,1.54-9.521,86.15,86.15,0,0,0,2.992-10.5s.439-10.494-3.692-13.3a31.551,31.551,0,0,0-9.311-3.994s-7.631-3.151-13.511-3.291-8.821.35-11.691,2.87a15.228,15.228,0,0,0-5.327,11.849l11,1.943s-1.019-7.064,1.731-9.378c0,0-1.591,16.309,6.95,17.569l.84.28a4.364,4.364,0,0,1,4.012-1.049c2.5.559,6.655,3,5.382,7.451S2764.281,469.093,2762.233,467.479Z" transform="translate(-2478.322 -335.46)" fill="#1a1a1a"/>
                <path id="Path_25543" data-name="Path 25543" d="M2771.022,476.118l-.5,4.108,4.463.84s2.573-3.641,6.458-2.345,4.694,3.737,4.694,3.737l4.814.315.49-4.052Z" transform="translate(-2493.412 -358.1)" fill="#fff"/>
                <path id="Path_25544" data-name="Path 25544" d="M2813.376,481.388l1.611.162-.525,4.48-1.505-.35Z" transform="translate(-2515.201 -360.806)" fill="#fff"/>
                <path id="Path_25545" data-name="Path 25545" d="M2407.057,547.6a3.57,3.57,0,1,1-3.57-3.57A3.57,3.57,0,0,1,2407.057,547.6Z" transform="translate(-2303.105 -392.972)" fill="#fff"/>
                <path id="Path_25546" data-name="Path 25546" d="M2432.681,547.784a3.4,3.4,0,1,1-3.4-3.4A3.4,3.4,0,0,1,2432.681,547.784Z" transform="translate(-2316.443 -393.157)" fill="#fff"/>
                <path id="Path_25547" data-name="Path 25547" d="M2458.3,547.784a3.4,3.4,0,1,1-3.4-3.4A3.4,3.4,0,0,1,2458.3,547.784Z" transform="translate(-2329.596 -393.157)" fill="#fff"/>
                <path id="Path_25557" data-name="Path 25557" d="M2787.332,269.75c-1.3-2.217-3.416-2.216-4.71,0l-9.953,17.045c-1.295,2.218-.253,4.033,2.315,4.033h20c2.569,0,3.61-1.814,2.313-4.032Z" transform="translate(-2494.228 -251.276)" fill="#fff"/>
                <path id="Path_25646" data-name="Path 25646" d="M0,0H19.742V19.742H0Z" transform="translate(317.938 121.265)" fill="#d5aaff"/>
                <path id="Path_25558" data-name="Path 25558" d="M2745.726,619.151s-8.07,45.809-38.321,58.754l.877-13.339a57.828,57.828,0,0,0,26.231-20.124C2745.026,629.512,2745.726,619.151,2745.726,619.151Z" transform="translate(-2461.001 -431.547)" fill="#1a1a1a"/>
                <path id="Path_25559" data-name="Path 25559" d="M2747.479,447.939c1.173-17.55,17.556-14.733,18.159-14.614a32.589,32.589,0,0,0-7.483-1.273c-5.881-.14-8.821.35-11.691,2.87a15.228,15.228,0,0,0-5.327,11.849l5.657,1Z" transform="translate(-2478.322 -335.46)" fill="#fff"/>
                <path id="Path_25560" data-name="Path 25560" d="M2763.972,516.656c2.259-9.61,11.88-11.089,11.88-11.089l-.256-.211a5.015,5.015,0,0,1-4.242-.461s-8.247,1.745-11.239,8.869.055,10.59,3.52,14.685,8.772,6.31,12.216,7.271a34.411,34.411,0,0,0,3.424.632C2773.021,534,2761.125,528.767,2763.972,516.656Z" transform="translate(-2487.443 -372.877)" fill="#fff"/>
                <path id="Path_25561" data-name="Path 25561" d="M2681.342,694.859s-10.5,5.031-21.109,4.055-16.646-4.38-16.646-4.38,2.94-11.835,18.877-11.934S2681.342,694.859,2681.342,694.859Z" transform="translate(-2428.23 -464.128)" fill="#1a1a1a"/>
                <g id="Group_22361" data-name="Group 22361" transform="translate(272.187 117.464)">
                  <g id="Group_22360" data-name="Group 22360">
                    <g id="Group_22358" data-name="Group 22358" transform="translate(24.8 2.598)">
                      <path id="Path_25562" data-name="Path 25562" d="M2813.8,485.822c-.064,0-1.931-.225-1.931-.225a.553.553,0,0,1-.486-.615.51.51,0,0,1,.615-.485l1.316.155.359-3.07-1.316-.154a.555.555,0,0,1-.486-.615.517.517,0,0,1,.615-.485l1.867.218a.557.557,0,0,1,.485.615l-.489,4.171a.545.545,0,0,1-.207.37A.557.557,0,0,1,2813.8,485.822Z" transform="translate(-2811.378 -480.318)"/>
                    </g>
                    <g id="Group_22359" data-name="Group 22359">
                      <path id="Path_25563" data-name="Path 25563" d="M2785.759,482.861c-.064,0-5.2-.608-5.2-.608a.554.554,0,0,1-.485-.615.511.511,0,0,1,.615-.485l4.584.539.359-3.075L2765.9,476.1l-3.708,1.328,2.912,1.9,5.125.6a.554.554,0,0,1,.485.615.538.538,0,0,1-.615.485l-5.254-.616a.576.576,0,0,1-.24-.086l-3.957-2.578a.556.556,0,0,1,.117-.987l4.885-1.749a.541.541,0,0,1,.259-.027l20.406,2.6a.553.553,0,0,1,.479.614l-.488,4.17a.556.556,0,0,1-.551.49Z" transform="translate(-2760.402 -474.978)"/>
                    </g>
                  </g>
                </g>
                <g id="Group_22362" data-name="Group 22362" transform="translate(277.326 16.256)">
                  <path id="Path_25564" data-name="Path 25564" d="M2794.393,290.8h-20a2.993,2.993,0,0,1-2.792-4.866l9.952-17.046a3.041,3.041,0,0,1,5.668,0l9.962,17.046a2.993,2.993,0,0,1-2.792,4.866Zm-10-22.742a2.342,2.342,0,0,0-1.876,1.389l-9.952,17.046a1.916,1.916,0,0,0,1.834,3.2h20a1.915,1.915,0,0,0,1.834-3.2l-9.962-17.046A2.346,2.346,0,0,0,2784.388,268.055Z" transform="translate(-2770.965 -266.947)"/>
                </g>
                <g id="Group_22363" data-name="Group 22363" transform="translate(50.472 281.098)">
                  <path id="Path_25565" data-name="Path 25565" d="M2600.535,812.438H2305.219a.555.555,0,0,1,0-1.11h295.316a.555.555,0,0,1,0,1.11Z" transform="translate(-2304.666 -811.328)"/>
                </g>
                <g id="Group_22365" data-name="Group 22365" transform="translate(267.403 113.875)">
                  <path id="Path_25567" data-name="Path 25567" d="M2755.868,470.723a.558.558,0,0,1-.472-.264,3.528,3.528,0,0,0-4.1-1.6.554.554,0,0,1-.356-1.05,4.639,4.639,0,0,1,5.4,2.063.555.555,0,0,1-.182.762A.548.548,0,0,1,2755.868,470.723Z" transform="translate(-2750.568 -467.601)"/>
                </g>
                <path id="Path_25568" data-name="Path 25568" d="M2752.878,476.737c-.433-.118-.748.038-1.049,1.608-.336,1.751.087,2.114.485,2.142s.856-.473.976-1.738S2753.445,476.892,2752.878,476.737Z" transform="translate(-2483.75 -358.402)"/>
                <g id="Group_22366" data-name="Group 22366" transform="translate(281.215 120.028)">
                  <path id="Path_25569" data-name="Path 25569" d="M2784.624,493.435a6.6,6.6,0,0,1-3.782-1.194.554.554,0,0,1,.634-.909,5.484,5.484,0,1,0-1.5-7.406.55.55,0,0,1-.763.173.557.557,0,0,1-.175-.765,6.593,6.593,0,1,1,5.581,10.1Z" transform="translate(-2778.958 -480.249)"/>
                </g>
                <g id="Group_22367" data-name="Group 22367" transform="translate(283.677 122.957)">
                  <path id="Path_25570" data-name="Path 25570" d="M2788.727,493.223a.548.548,0,0,1-.3-.092l-4.155-2.745a.554.554,0,0,1-.026-.907l4.177-3.1a.554.554,0,1,1,.66.89l-3.543,2.629,3.494,2.308a.554.554,0,0,1-.3,1.017Z" transform="translate(-2784.019 -486.269)"/>
                </g>
                <g id="Group_22368" data-name="Group 22368" transform="translate(244.968 232.332)">
                  <path id="Path_25571" data-name="Path 25571" d="M2705.014,760.239a.553.553,0,0,1-.553-.548c-.132-10.52,1.682-46.545,1.76-48.072a.543.543,0,0,1,.583-.525.552.552,0,0,1,.524.58c-.078,1.527-1.889,37.518-1.76,48a.553.553,0,0,1-.547.561Z" transform="translate(-2704.454 -711.09)"/>
                </g>
                <g id="Group_22369" data-name="Group 22369" transform="translate(251.348 128.468)">
                  <path id="Path_25572" data-name="Path 25572" d="M2727.659,528.8a.557.557,0,0,1-.489-.293c-3.287-6.111-5.888-11.544-9.179-18.419l-.372-.778a.559.559,0,0,1-.052-.272c.016-.257.472-6.354,9.085-11.358a.554.554,0,1,1,.556.958c-7.379,4.288-8.4,9.452-8.519,10.336l.3.635c3.281,6.863,5.875,12.285,9.153,18.374a.556.556,0,0,1-.226.751A.568.568,0,0,1,2727.659,528.8Z" transform="translate(-2717.566 -497.598)"/>
                </g>
                <g id="Group_22370" data-name="Group 22370" transform="translate(313.084 209.191)">
                  <path id="Path_25573" data-name="Path 25573" d="M2850.3,735.932a.557.557,0,0,1-.541-.429c-.065-.28-6.487-28.159-5.1-49,.155-2.31.395-4.868.647-7.576.479-5.09.97-10.353.984-14.848a.553.553,0,1,1,1.106,0c-.01,4.544-.5,9.832-.987,14.947-.252,2.7-.492,5.251-.644,7.547-1.378,20.678,5.006,48.4,5.071,48.677a.557.557,0,0,1-.415.667A.584.584,0,0,1,2850.3,735.932Z" transform="translate(-2844.465 -663.524)"/>
                </g>
                <g id="Group_22371" data-name="Group 22371" transform="translate(182.86 147.571)">
                  <path id="Path_25574" data-name="Path 25574" d="M2627.967,624.555c-1.5,0-3.044-.063-4.63-.2l-1.637-.176a36.432,36.432,0,0,1-21.425-10.532c-8.849-9.028-13.213-21.5-16.316-32.5-3.384-12-5.027-21.734-7.108-34.053l-.052-.3a.554.554,0,0,1,.045-.331c.161-.333,4.067-8.2,17.753-9.43,12.327-1.1,16.436,3.539,16.6,3.738a.545.545,0,0,1,.106.186l11.748,35.9c.931,2.883,1.809,5.607,4.429,7.1a7.1,7.1,0,0,0,8.135-.872c2.309-1.927,3.6-4.741,4.83-7.7.6-1.454,1.191-2.919,1.783-4.39a132.612,132.612,0,0,1,6.351-14.187c3.542-6.5,7.907-10.926,12.98-13.167a21.3,21.3,0,0,1,6.371-1.813.535.535,0,0,1,.624.477.558.558,0,0,1-.476.623,20.3,20.3,0,0,0-6.073,1.726c-4.84,2.14-9.034,6.408-12.457,12.684a133.291,133.291,0,0,0-6.293,14.071c-.592,1.472-1.184,2.943-1.789,4.4-1.229,2.97-2.644,6.044-5.141,8.129a8.2,8.2,0,0,1-9.4.984c-2.993-1.708-3.98-4.769-4.934-7.726l-4.08-12.493-7.629-23.285c-.559-.555-4.717-4.263-15.594-3.285-12.007,1.082-16.171,7.6-16.77,8.659,2.094,12.4,3.734,22.109,7.1,34.055,3.064,10.869,7.367,23.174,16.038,32.024a35.319,35.319,0,0,0,20.771,10.206l1.608.175q2.316.193,4.513.191c40.54,0,50.388-47.543,50.486-48.041a.545.545,0,0,1,.65-.436.553.553,0,0,1,.437.65C2679.429,576.128,2669.4,624.555,2627.967,624.555Z" transform="translate(-2576.791 -536.864)"/>
                </g>
                <g id="Group_22372" data-name="Group 22372" transform="translate(257.823 111.435)">
                  <path id="Path_25575" data-name="Path 25575" d="M2744.837,494.886c-4.336-.449-7.376-1.983-9.1-4.565-2.242-3.36-1.514-7.395-1.233-8.582-.9-.862-3.652-3.65-3.629-5.492.015-1.462,3.661-3.132,5.325-3.818.867-.842,1.634-5.074,1.909-7.874l.2-1.492a.548.548,0,0,1,.625-.476.557.557,0,0,1,.476.624l-.2,1.471c-.12,1.205-.8,7.387-2.362,8.653-2.585,1.082-4.791,2.412-4.866,2.928-.013,1.19,2.152,3.63,3.521,4.889a.553.553,0,0,1,.155.566c-.013.045-1.307,4.531,1.006,7.995,1.531,2.289,4.3,3.658,8.231,4.065a.555.555,0,0,1-.059,1.107Z" transform="translate(-2730.877 -462.585)"/>
                </g>
                <g id="Group_22374" data-name="Group 22374" transform="translate(346.472 119.736)">
                  <g id="Group_22373" data-name="Group 22373">
                    <path id="Path_25576" data-name="Path 25576" d="M2979.406,355.323a2.414,2.414,0,1,0-2.415-2.414A2.414,2.414,0,0,0,2979.406,355.323Z" transform="translate(-2976.867 -350.37)" fill="#1a1a1a"/>
                    <path id="Path_25577" data-name="Path 25577" d="M3017.841,355.316a2.539,2.539,0,1,0-2.539-2.539A2.539,2.539,0,0,0,3017.841,355.316Z" transform="translate(-2996.539 -350.238)" fill="#1a1a1a"/>
                    <path id="Path_25578" data-name="Path 25578" d="M3056.606,355.326a2.352,2.352,0,1,0-2.352-2.351A2.352,2.352,0,0,0,3056.606,355.326Z" transform="translate(-3016.541 -350.436)" fill="#1a1a1a"/>
                    <path id="Path_25579" data-name="Path 25579" d="M2979.275,393.883a2.539,2.539,0,1,0-2.54-2.539A2.539,2.539,0,0,0,2979.275,393.883Z" transform="translate(-2976.735 -370.042)" fill="#1a1a1a"/>
                    <path id="Path_25580" data-name="Path 25580" d="M3017.709,393.876a2.664,2.664,0,1,0-2.663-2.664A2.664,2.664,0,0,0,3017.709,393.876Z" transform="translate(-2996.408 -369.911)" fill="#1a1a1a"/>
                    <path id="Path_25581" data-name="Path 25581" d="M3056.474,393.886A2.477,2.477,0,1,0,3054,391.41,2.477,2.477,0,0,0,3056.474,393.886Z" transform="translate(-3016.409 -370.108)" fill="#1a1a1a"/>
                    <path id="Path_25582" data-name="Path 25582" d="M2979.473,432.46a2.352,2.352,0,1,0-2.352-2.352A2.352,2.352,0,0,0,2979.473,432.46Z" transform="translate(-2976.933 -390.044)" fill="#1a1a1a"/>
                    <path id="Path_25583" data-name="Path 25583" d="M3017.907,432.453a2.477,2.477,0,1,0-2.476-2.477A2.476,2.476,0,0,0,3017.907,432.453Z" transform="translate(-2996.605 -389.912)" fill="#1a1a1a"/>
                    <path id="Path_25584" data-name="Path 25584" d="M3056.65,432.462a2.31,2.31,0,1,0-2.31-2.31A2.31,2.31,0,0,0,3056.65,432.462Z" transform="translate(-3016.585 -390.088)" fill="#1a1a1a"/>
                  </g>
                </g>
                <g id="Group_22375" data-name="Group 22375" transform="translate(65.196 61.114)">
                  <path id="Path_25585" data-name="Path 25585" d="M2335.485,438.227a.554.554,0,0,1-.554-.555V373.008a13.871,13.871,0,0,1,13.854-13.855h23.347a.555.555,0,0,1,0,1.11h-23.347a12.762,12.762,0,0,0-12.748,12.746v64.665A.553.553,0,0,1,2335.485,438.227Z" transform="translate(-2334.932 -359.152)"/>
                </g>
                <g id="Group_22376" data-name="Group 22376" transform="translate(65.196 231.768)">
                  <path id="Path_25586" data-name="Path 25586" d="M2515.9,723.5h-167.11c-7.379,0-13.854-6.083-13.854-13.016a.553.553,0,1,1,1.106,0c0,6.343,5.957,11.907,12.748,11.907H2515.9a.555.555,0,0,1,0,1.11Z" transform="translate(-2334.932 -709.93)"/>
                </g>
                <g id="Group_22377" data-name="Group 22377" transform="translate(326.148 170.859)">
                  <path id="Path_25587" data-name="Path 25587" d="M2885.532,659.212h-13.66a.555.555,0,0,1,0-1.11h13.66a12.761,12.761,0,0,0,12.748-12.746V585.288a.553.553,0,1,1,1.107,0v60.069A13.871,13.871,0,0,1,2885.532,659.212Z" transform="translate(-2871.319 -584.733)"/>
                </g>
                <g id="Group_22378" data-name="Group 22378" transform="translate(121.376 61.114)">
                  <path id="Path_25588" data-name="Path 25588" d="M2682.7,402.468a.553.553,0,0,1-.553-.555V373.008a12.761,12.761,0,0,0-12.748-12.746H2450.963a.555.555,0,0,1,0-1.11H2669.4a13.871,13.871,0,0,1,13.854,13.855v28.905A.553.553,0,0,1,2682.7,402.468Z" transform="translate(-2450.41 -359.152)"/>
                </g>
                <g id="Group_22379" data-name="Group 22379" transform="translate(18.716 144.687)">
                  <path id="Path_25589" data-name="Path 25589" d="M2348.413,611.158h-96.758a12.276,12.276,0,0,1-12.262-12.264V543.2a12.276,12.276,0,0,1,12.262-12.264h96.758a12.277,12.277,0,0,1,12.262,12.264v55.7A12.276,12.276,0,0,1,2348.413,611.158Zm-96.758-79.114A11.168,11.168,0,0,0,2240.5,543.2v55.7a11.168,11.168,0,0,0,11.156,11.154h96.758a11.168,11.168,0,0,0,11.156-11.154V543.2a11.168,11.168,0,0,0-11.156-11.154Z" transform="translate(-2239.393 -530.935)"/>
                </g>
                <g id="Group_22380" data-name="Group 22380" transform="translate(261.168 7.254)">
                  <path id="Path_25590" data-name="Path 25590" d="M2784.2,290.3h-38.546a7.915,7.915,0,0,1-7.9-7.906V256.349a7.915,7.915,0,0,1,7.9-7.906h43.684a7.915,7.915,0,0,1,7.9,7.906v21.436a.553.553,0,1,1-1.107,0V256.349a6.8,6.8,0,0,0-6.8-6.8h-43.684a6.8,6.8,0,0,0-6.8,6.8v26.043a6.805,6.805,0,0,0,6.8,6.8H2784.2a.555.555,0,0,1,0,1.11Z" transform="translate(-2737.753 -248.443)"/>
                </g>
                <g id="Group_22400" data-name="Group 22400" transform="translate(26.879 164.419)">
                  <path id="Path_25609" data-name="Path 25609" d="M2357.815,572.605h-101.09a.555.555,0,0,1,0-1.11h101.09a.555.555,0,0,1,0,1.11Z" transform="translate(-2256.171 -571.495)"/>
                </g>
                <g id="Group_22401" data-name="Group 22401" transform="translate(121.531 150.852)">
                  <path id="Path_25610" data-name="Path 25610" d="M2454.5,551.159a3.776,3.776,0,1,1,3.773-3.776A3.778,3.778,0,0,1,2454.5,551.159Zm0-6.442a2.666,2.666,0,1,0,2.666,2.666A2.669,2.669,0,0,0,2454.5,544.717Z" transform="translate(-2450.729 -543.607)"/>
                </g>
                <g id="Group_22402" data-name="Group 22402" transform="translate(109.069 150.852)">
                  <path id="Path_25611" data-name="Path 25611" d="M2428.887,551.159a3.776,3.776,0,1,1,3.773-3.776A3.779,3.779,0,0,1,2428.887,551.159Zm0-6.442a2.666,2.666,0,1,0,2.666,2.666A2.67,2.67,0,0,0,2428.887,544.717Z" transform="translate(-2425.112 -543.607)"/>
                </g>
                <g id="Group_22403" data-name="Group 22403" transform="translate(96.609 150.852)">
                  <path id="Path_25612" data-name="Path 25612" d="M2403.273,551.159a3.776,3.776,0,1,1,3.773-3.776A3.778,3.778,0,0,1,2403.273,551.159Zm0-6.442a2.666,2.666,0,1,0,2.666,2.666A2.67,2.67,0,0,0,2403.273,544.717Z" transform="translate(-2399.501 -543.607)"/>
                </g>
                <g id="Group_22410" data-name="Group 22410" transform="translate(94.744 47.299)">
                  <g id="Group_22404" data-name="Group 22404">
                    <path id="Path_25613" data-name="Path 25613" d="M2403.324,383.566a.548.548,0,0,1-.447-.228c-5.151-7.029-7.117-17.6-7.2-18.046a.567.567,0,0,1,.048-.343l16.646-33.885a.551.551,0,0,1,.744-.253.558.558,0,0,1,.252.741L2396.8,365.271c.281,1.423,2.326,11.075,6.969,17.413a.555.555,0,0,1-.446.882Z" transform="translate(-2395.667 -330.754)"/>
                  </g>
                  <g id="Group_22405" data-name="Group 22405" transform="translate(16.648 0.001)">
                    <path id="Path_25614" data-name="Path 25614" d="M2440.738,383.36a.556.556,0,0,1-.453-.875c4.513-6.348,6.177-15.826,6.4-17.2l-16.737-33.727a.553.553,0,1,1,.99-.492l16.818,33.885a.545.545,0,0,1,.055.325c-.065.438-1.615,10.812-6.616,17.851A.561.561,0,0,1,2440.738,383.36Z" transform="translate(-2429.886 -330.757)"/>
                  </g>
                  <g id="Group_22406" data-name="Group 22406" transform="translate(7.103 51.7)">
                    <path id="Path_25615" data-name="Path 25615" d="M2430.515,438.134h-19.694a.555.555,0,0,1,0-1.11h19.694a.555.555,0,0,1,0,1.11Z" transform="translate(-2410.268 -437.024)"/>
                  </g>
                  <g id="Group_22407" data-name="Group 22407" transform="translate(5.201 54.711)">
                    <path id="Path_25616" data-name="Path 25616" d="M2426.786,451.535h-16.7a3.732,3.732,0,0,1-3.727-3.729v-.864a3.732,3.732,0,0,1,3.727-3.729h16.7a3.732,3.732,0,0,1,3.727,3.729v.864A3.733,3.733,0,0,1,2426.786,451.535Zm-16.7-7.212a2.624,2.624,0,0,0-2.62,2.619v.864a2.624,2.624,0,0,0,2.62,2.619h16.7a2.624,2.624,0,0,0,2.621-2.619v-.864a2.624,2.624,0,0,0-2.621-2.619Z" transform="translate(-2406.357 -443.213)"/>
                  </g>
                  <g id="Group_22408" data-name="Group 22408" transform="translate(11.355 25.748)">
                    <path id="Path_25617" data-name="Path 25617" d="M2424.869,395.407a5.864,5.864,0,1,1,5.863-5.864A5.87,5.87,0,0,1,2424.869,395.407Zm0-10.618a4.754,4.754,0,1,0,4.756,4.755A4.761,4.761,0,0,0,2424.869,384.789Z" transform="translate(-2419.007 -383.679)"/>
                  </g>
                  <g id="Group_22409" data-name="Group 22409" transform="translate(16.664 0.701)">
                    <path id="Path_25618" data-name="Path 25618" d="M2430.473,357.947a.553.553,0,0,1-.553-.555V332.75a.553.553,0,1,1,1.106,0v24.643A.553.553,0,0,1,2430.473,357.947Z" transform="translate(-2429.92 -332.195)"/>
                  </g>
                </g>
                <g id="Group_22411" data-name="Group 22411" transform="translate(104.199 40.631)">
                  <path id="Path_25619" data-name="Path 25619" d="M2427.206,331.494h-.883a.555.555,0,0,1,0-1.11h.883a2.282,2.282,0,0,0,2.281-2.279v-7.666a2.283,2.283,0,0,0-2.281-2.281h-8.716a2.282,2.282,0,0,0-2.281,2.281v7.666a2.282,2.282,0,0,0,2.281,2.279h1.081a.555.555,0,0,1,0,1.11h-1.081a3.393,3.393,0,0,1-3.388-3.389v-7.666a3.394,3.394,0,0,1,3.388-3.391h8.716a3.394,3.394,0,0,1,3.388,3.391v7.666A3.393,3.393,0,0,1,2427.206,331.494Z" transform="translate(-2415.102 -317.048)"/>
                </g>
                <g id="Group_22412" data-name="Group 22412" transform="translate(63.004 18.204)">
                  <path id="Path_25620" data-name="Path 25620" d="M2330.981,299.084a.569.569,0,0,1-.55-.624c2-15.939,12.4-27.509,24.722-27.509,9.988,0,19.011,7.767,22.991,19.783a.555.555,0,0,1-1.054.349c-3.825-11.557-12.437-19.023-21.937-19.023-11.761,0-21.693,11.16-23.622,26.539A.555.555,0,0,1,2330.981,299.084Z" transform="translate(-2330.427 -270.951)"/>
                </g>
                <g id="Group_22413" data-name="Group 22413" transform="translate(131.022 55.691)">
                  <path id="Path_25621" data-name="Path 25621" d="M2475.953,376.316a19.518,19.518,0,0,1-5.313-.741.555.555,0,0,1,.3-1.068,18.3,18.3,0,0,0,5.009.7c11.822,0,21.768-11.231,23.644-26.708a.539.539,0,0,1,.618-.484.554.554,0,0,1,.482.616C2498.752,364.671,2488.344,376.316,2475.953,376.316Z" transform="translate(-2470.237 -348.005)"/>
                </g>
                <g id="Group_22414" data-name="Group 22414" transform="translate(58.097 45.971)">
                  <path id="Path_25622" data-name="Path 25622" d="M2325.472,338.289a5.132,5.132,0,1,1,5.131-5.133A5.137,5.137,0,0,1,2325.472,338.289Zm0-9.154a4.022,4.022,0,1,0,4.025,4.021A4.028,4.028,0,0,0,2325.472,329.135Z" transform="translate(-2320.341 -328.025)"/>
                </g>
                <g id="Group_22415" data-name="Group 22415" transform="translate(156.108 45.971)">
                  <path id="Path_25623" data-name="Path 25623" d="M2526.933,338.289a5.132,5.132,0,1,1,5.131-5.133A5.138,5.138,0,0,1,2526.933,338.289Zm0-9.154a4.022,4.022,0,1,0,4.025,4.021A4.027,4.027,0,0,0,2526.933,329.135Z" transform="translate(-2521.801 -328.025)"/>
                </g>
                <g id="Group_22421" data-name="Group 22421" transform="translate(176.369 111.756)">
                  <g id="Group_22418" data-name="Group 22418" transform="translate(9.699)">
                    <g id="Group_22417" data-name="Group 22417">
                      <g id="Group_22416" data-name="Group 22416">
                        <path id="Path_25624" data-name="Path 25624" d="M2607.773,500.17a.556.556,0,0,1-.5-.794,37.631,37.631,0,0,0,1.547-5.827c.382-1.737.741-3.379,1.054-4.261.64-1.8,1.408-3.967.912-5.674a2.431,2.431,0,0,0-1.181-1.517,2.565,2.565,0,0,0-2.427.275,5.663,5.663,0,0,0-1.818,2.138,7.685,7.685,0,0,0-.482,1.485c-.427,1.627-1.01,3.855-2.948,4.318q-4.213.983-6.2-6.714c-.4-1.537-.938-3.564-1.553-5.611a69.688,69.688,0,0,0-4.086-10.787l-.175-.362a5.159,5.159,0,0,0-1.44-2.087,2.265,2.265,0,0,0-1.449-.39,2.4,2.4,0,0,0-1.877.984,4.507,4.507,0,0,0-.5,3.6c.683,2.723,6.416,19.027,6.474,19.191a.556.556,0,0,1-1.048.369c-.237-.673-5.808-16.519-6.5-19.291a5.559,5.559,0,0,1,.679-4.521,3.5,3.5,0,0,1,2.7-1.435,3.3,3.3,0,0,1,2.181.6,6.084,6.084,0,0,1,1.779,2.5l.172.354a70.578,70.578,0,0,1,4.151,10.955c.621,2.062,1.162,4.1,1.566,5.65,1.142,4.425,2.766,6.4,4.866,5.915,1.291-.309,1.76-2.091,2.135-3.52a8.128,8.128,0,0,1,.583-1.741,6.681,6.681,0,0,1,2.194-2.537,3.633,3.633,0,0,1,3.507-.338,3.511,3.511,0,0,1,1.76,2.2c.6,2.05-.24,4.4-.91,6.29a43.1,43.1,0,0,0-1.038,4.191,37.284,37.284,0,0,1-1.627,6.068A.559.559,0,0,1,2607.773,500.17Z" transform="translate(-2583.385 -463.247)"/>
                      </g>
                    </g>
                  </g>
                  <g id="Group_22419" data-name="Group 22419" transform="translate(4.327 2.544)">
                    <path id="Path_25625" data-name="Path 25625" d="M2579.338,494.365a.556.556,0,0,1-.511-.34c-7.134-16.96-6.895-21.5-6.092-23.432a3.027,3.027,0,0,1,1.728-1.73c2.734-1.116,4.2.526,4.257.6a.554.554,0,0,1-.837.724,2.611,2.611,0,0,0-3-.3,1.957,1.957,0,0,0-1.125,1.127c-1.136,2.749.857,10.133,6.092,22.578a.556.556,0,0,1-.511.77Z" transform="translate(-2572.342 -468.475)"/>
                  </g>
                  <g id="Group_22420" data-name="Group 22420" transform="translate(0 6.914)">
                    <path id="Path_25626" data-name="Path 25626" d="M2573.571,513.071a.558.558,0,0,1-.449-.23c-5.546-7.676-10.9-29.951-9.425-33.2a3.479,3.479,0,0,1,2.1-2.05,3.865,3.865,0,0,1,2.857.406.554.554,0,0,1-.573.948,2.76,2.76,0,0,0-1.964-.293,2.425,2.425,0,0,0-1.411,1.448c-1.22,2.684,3.74,24.38,9.314,32.092a.556.556,0,0,1-.126.774A.541.541,0,0,1,2573.571,513.071Z" transform="translate(-2563.448 -477.459)"/>
                  </g>
                </g>
                <g id="Group_22427" data-name="Group 22427" transform="translate(236.93 90.803)">
                  <g id="Group_22424" data-name="Group 22424" transform="translate(0 4.299)">
                    <g id="Group_22423" data-name="Group 22423">
                      <g id="Group_22422" data-name="Group 22422">
                        <path id="Path_25627" data-name="Path 25627" d="M2705.824,468.318a26.966,26.966,0,0,1-5.257-1.842,34.052,34.052,0,0,0-3.582-1.372c-1.893-.5-4.413-1.155-5.778-2.807a3.51,3.51,0,0,1-.832-2.7,3.643,3.643,0,0,1,2.255-2.71,6.667,6.667,0,0,1,3.333-.383,8.175,8.175,0,0,1,1.763.5c1.394.5,3.122,1.119,4.115.22,1.582-1.438.861-3.913-2.149-7.352-1.539-1.763-2.708-3.143-3.788-4.474a71.1,71.1,0,0,1-6.717-9.6l-.2-.342a6.069,6.069,0,0,1-1.057-2.883,3.3,3.3,0,0,1,.725-2.137,3.5,3.5,0,0,1,2.708-1.424,5.65,5.65,0,0,1,4.119,1.985c1.912,2.146,11.469,17.054,11.874,17.687a.554.554,0,0,1-.932.6c-.1-.155-9.917-15.465-11.771-17.547a4.693,4.693,0,0,0-3.255-1.616,2.406,2.406,0,0,0-1.87,1,2.239,2.239,0,0,0-.492,1.416,5.145,5.145,0,0,0,.909,2.366l.2.349a69.788,69.788,0,0,0,6.613,9.451c1.071,1.32,2.232,2.69,3.763,4.444,3.484,3.982,4.177,6.978,2.058,8.9-1.475,1.341-3.653.566-5.232,0a7.788,7.788,0,0,0-1.495-.438,5.765,5.765,0,0,0-2.8.3,2.551,2.551,0,0,0-1.589,1.849,2.428,2.428,0,0,0,.586,1.831c1.135,1.375,3.365,1.959,5.154,2.428a33.475,33.475,0,0,1,3.782,1.433,28.05,28.05,0,0,0,4.912,1.762.555.555,0,0,1-.084,1.1Z" transform="translate(-2687.931 -429.014)"/>
                      </g>
                    </g>
                  </g>
                  <g id="Group_22425" data-name="Group 22425" transform="translate(5.017 1.19)">
                    <path id="Path_25628" data-name="Path 25628" d="M2718.017,441.7a.557.557,0,0,1-.465-.254c-7.3-11.281-12.256-17.06-15.145-17.663a1.954,1.954,0,0,0-1.583.3c-1.779,1.177-1.459,2.585-1.443,2.645a.562.562,0,0,1-.4.673.546.546,0,0,1-.673-.388c-.025-.091-.57-2.219,1.9-3.855a3.036,3.036,0,0,1,2.424-.461c2.038.426,5.9,2.77,15.851,18.146a.556.556,0,0,1-.166.766A.55.55,0,0,1,2718.017,441.7Z" transform="translate(-2698.242 -422.622)"/>
                  </g>
                  <g id="Group_22426" data-name="Group 22426" transform="translate(11.419)">
                    <path id="Path_25629" data-name="Path 25629" d="M2728.179,432.494a.558.558,0,0,1-.44-.216c-5.665-7.38-10.6-10.621-12.372-10.928a2.452,2.452,0,0,0-1.993.35,2.733,2.733,0,0,0-.864,1.786.554.554,0,0,1-1.106-.06,3.855,3.855,0,0,1,1.271-2.589,3.477,3.477,0,0,1,2.879-.58c2.019.351,7.167,3.66,13.065,11.345a.557.557,0,0,1-.1.778A.544.544,0,0,1,2728.179,432.494Z" transform="translate(-2711.403 -420.177)"/>
                  </g>
                </g>
                <g id="Group_22428" data-name="Group 22428" transform="translate(227.886 79.158)">
                  <path id="Path_25630" data-name="Path 25630" d="M2699.831,412.565a.553.553,0,0,1-.553-.555V410.1a12.762,12.762,0,0,0-12.748-12.746h-16.637a.555.555,0,0,1,0-1.11h16.637a13.87,13.87,0,0,1,13.854,13.856v1.914A.553.553,0,0,1,2699.831,412.565Z" transform="translate(-2669.34 -396.241)"/>
                </g>
                <g id="Group_22429" data-name="Group 22429" transform="translate(158.725 79.158)">
                  <path id="Path_25631" data-name="Path 25631" d="M2545.351,443.056h-4.316a13.873,13.873,0,0,1-13.855-13.857V410.1a13.871,13.871,0,0,1,13.855-13.856h30.445a.555.555,0,0,1,0,1.11h-30.445a12.762,12.762,0,0,0-12.748,12.746v19.1a12.763,12.763,0,0,0,12.748,12.748h4.316a.555.555,0,0,1,0,1.11Z" transform="translate(-2527.181 -396.241)"/>
                </g>
                <g id="Group_22430" data-name="Group 22430" transform="translate(196.561 124.863)">
                  <path id="Path_25632" data-name="Path 25632" d="M2648.041,491.3H2605.5a.555.555,0,0,1,0-1.11h42.536a.555.555,0,0,1,0,1.11Z" transform="translate(-2604.952 -490.188)"/>
                </g>
                <g id="Group_22431" data-name="Group 22431" transform="translate(270.939 131.464)">
                  <path id="Path_25633" data-name="Path 25633" d="M2809.921,583.655a30.449,30.449,0,0,1-4.488-.351c-11.945-1.783-11.159-10.2-10.253-19.953.443-4.769.948-10.172.055-15.478-1.443-8.587-6.406-9.5-13.278-10.754-5.445-1-12.22-2.236-18.545-8.113-6.888-6.4-6.151-12.3-4.316-16.117,2.7-5.615,9.211-9.53,12.113-9.1a.552.552,0,0,1,.466.63.57.57,0,0,1-.627.468c-2.191-.354-8.335,3.033-10.952,8.485-1.673,3.481-2.323,8.88,4.073,14.825,6.086,5.656,12.408,6.814,17.989,7.835,6.759,1.238,12.6,2.307,14.171,11.661.916,5.449.4,10.929-.046,15.765-.925,9.944-1.594,17.127,9.312,18.755,6.47.967,11.544-.13,15.106-3.252,5.014-4.4,5.448-11.313,5.4-14.082-.162-9.541-4.986-31.469-18.875-38.358-15.562-7.72-20.516-13.082-18.924-20.49a.553.553,0,1,1,1.08.233c-1.455,6.786,3.342,11.827,18.335,19.264,15.5,7.687,19.361,31.571,19.49,39.331.049,2.925-.414,10.232-5.778,14.935C2818.5,582.361,2814.635,583.655,2809.921,583.655Z" transform="translate(-2757.837 -503.755)"/>
                </g>
                <g id="Group_22432" data-name="Group 22432" transform="translate(262.264 95.885)">
                  <path id="Path_25634" data-name="Path 25634" d="M2779.552,470.184a.565.565,0,0,1-.55-.613c.352-3.368,1.744-9.074,4.135-16.962.094-.31.151-.5.165-.555.7-4.871-.155-8.875-2.533-11.848-3.762-4.7-10.156-5.256-10.221-5.26a.536.536,0,0,1-.182-.047c-1.669-.734-13.925-4.449-19.341-2.709-9.16,2.951-9.875,11.432-9.914,13.447l10.049,1.814c-.24-2.048-.625-7.538,1.883-9.358a.554.554,0,0,1,.877.509c-.01.086-.925,8.577,1.682,13.652a.554.554,0,1,1-.984.508c-1.992-3.878-2.067-9.4-1.941-12.319-.88,2.268-.576,6.022-.317,7.6a.551.551,0,0,1-.158.485.515.515,0,0,1-.485.151l-11.253-2.031a.554.554,0,0,1-.457-.514c-.006-.113-.5-11.4,10.673-15,5.74-1.849,17.967,1.846,20.044,2.715.874.084,7.044.845,10.9,5.656,2.585,3.224,3.513,7.516,2.766,12.756,0,.023-.072.262-.194.671-2.951,9.74-3.856,14.488-4.1,16.756A.552.552,0,0,1,2779.552,470.184Z" transform="translate(-2740.004 -430.623)"/>
                </g>
                <g id="Group_22433" data-name="Group 22433" transform="translate(261.139 131.463)">
                  <path id="Path_25635" data-name="Path 25635" d="M2740.433,506.205a5.855,5.855,0,0,1-2.427-.527.554.554,0,0,1,.479-1c.113.055,2.822,1.293,4.6-.734a.555.555,0,0,1,.834.731A4.5,4.5,0,0,1,2740.433,506.205Z" transform="translate(-2737.693 -503.754)"/>
                </g>
                <g id="Group_22434" data-name="Group 22434" transform="translate(276.378 117.468)">
                  <path id="Path_25636" data-name="Path 25636" d="M2769.569,480.445a.571.571,0,0,1-.546-.642l.7-4.354a.571.571,0,0,1,.634-.459.554.554,0,0,1,.459.634l-.7,4.354A.553.553,0,0,1,2769.569,480.445Z" transform="translate(-2769.016 -474.986)"/>
                </g>
                <g id="Group_22435" data-name="Group 22435" transform="translate(47.835 164.419)">
                  <path id="Path_25637" data-name="Path 25637" d="M2299.8,624a.553.553,0,0,1-.553-.555v-51.4a.553.553,0,1,1,1.106,0v51.4A.553.553,0,0,1,2299.8,624Z" transform="translate(-2299.246 -571.495)"/>
                </g>
                <g id="Group_22436" data-name="Group 22436" transform="translate(221.137 95.29)">
                  <path id="Path_25638" data-name="Path 25638" d="M2667.212,430.51h-11.191a.555.555,0,0,1,0-1.11h11.191a.555.555,0,0,1,0,1.11Z" transform="translate(-2655.468 -429.4)"/>
                </g>
                <g id="Group_22437" data-name="Group 22437" transform="translate(183.975 95.29)">
                  <path id="Path_25639" data-name="Path 25639" d="M2607.556,430.51h-27.922a.555.555,0,0,1,0-1.11h27.922a.555.555,0,0,1,0,1.11Z" transform="translate(-2579.081 -429.4)"/>
                </g>
                <g id="Group_22438" data-name="Group 22438" transform="translate(183.975 108.731)">
                  <path id="Path_25640" data-name="Path 25640" d="M2610.917,458.139h-31.283a.555.555,0,0,1,0-1.11h31.283a.555.555,0,0,1,0,1.11Z" transform="translate(-2579.081 -457.029)"/>
                </g>
                <g id="Group_22439" data-name="Group 22439" transform="translate(168.221 179.275)">
                  <path id="Path_25641" data-name="Path 25641" d="M2574.809,631.48h-27.556a.553.553,0,0,1-.553-.555V602.586a.553.553,0,0,1,.553-.555h18.94a.555.555,0,0,1,0,1.11h-18.387V630.37h27a.555.555,0,0,1,0,1.11Z" transform="translate(-2546.7 -602.031)"/>
                </g>
                <g id="Group_22440" data-name="Group 22440" transform="translate(311.343 78.356)">
                  <path id="Path_25642" data-name="Path 25642" d="M2861.183,415.444H2841.44a.553.553,0,0,1-.553-.555V395.147a.553.553,0,0,1,.553-.555h19.742a.553.553,0,0,1,.553.555v19.742A.553.553,0,0,1,2861.183,415.444Zm-19.189-1.109h18.636V395.7h-18.636Z" transform="translate(-2840.887 -394.592)"/>
                </g>
                <g id="Group_22441" data-name="Group 22441" transform="translate(311.343 116.194)">
                  <path id="Path_25643" data-name="Path 25643" d="M2861.183,493.22H2841.44a.553.553,0,0,1-.553-.555V472.923a.553.553,0,0,1,.553-.555h19.742a.553.553,0,0,1,.553.555v19.743A.553.553,0,0,1,2861.183,493.22Zm-19.189-1.11h18.636V473.478h-18.636Z" transform="translate(-2840.887 -472.368)"/>
                </g>
                <g id="Group_22442" data-name="Group 22442" transform="translate(214.545 217.914)">
                  <path id="Path_25644" data-name="Path 25644" d="M2680.486,694.825a.557.557,0,0,1-.531-.393c-2.129-6.989-9.759-11.869-18.549-11.869-8.538,0-16.109,4.706-18.409,11.447a.554.554,0,0,1-1.049-.359c2.453-7.181,10.453-12.2,19.458-12.2,9.273,0,17.339,5.2,19.61,12.655a.557.557,0,0,1-.369.692A.584.584,0,0,1,2680.486,694.825Z" transform="translate(-2641.918 -681.453)"/>
                </g>
              </g>
            </g>
          </g>
        </g>
        <rect id="Rectangle_9707" data-name="Rectangle 9707" width="408" height="306" transform="translate(93 244)" fill="none"/>
      </g>
    </g>
  </g>
</svg>
