<svg xmlns="http://www.w3.org/2000/svg" width="408" height="306" viewBox="0 0 408 306">
  <g id="Group_45566" data-name="Group 45566" transform="translate(-756 -3476)">
    <g id="Group_70" data-name="Group 70" transform="translate(528.168 3267.413)">
      <path id="Rectangle_34" data-name="Rectangle 34" d="M16.22,0h4.316a16.22,16.22,0,0,1,16.22,16.22v0A16.221,16.221,0,0,1,20.536,32.441H16.221A16.221,16.221,0,0,1,0,16.22v0A16.22,16.22,0,0,1,16.22,0Z" transform="translate(262.726 371.395)" fill="#1a1a1a"/>
      <rect id="Rectangle_35" data-name="Rectangle 35" width="161.111" height="111.804" rx="30.994" transform="translate(291.455 231.164)" fill="#fff"/>
      <path id="Path_92" data-name="Path 92" d="M27.66,0H103a27.66,27.66,0,0,1,27.66,27.66V77.5A27.66,27.66,0,0,1,103,105.159H27.66A27.66,27.66,0,0,1,0,77.5V27.66A27.66,27.66,0,0,1,27.66,0Z" transform="translate(483.746 337.234)" fill="#d3aafd"/>
      <path id="Path_6" data-name="Path 6" d="M909.191,622.28s-1.165-.51-11-5.609-14.788-6.556-18.43-6.921a28.193,28.193,0,0,0-11.728,1.894c-2.987,1.238-12.748,4.881-17.046,5.463s-9.4-1.239-11.509-2.112-17.784-10.437-17.784-10.437-3.461,38.109-4.781,50.428H895.5a13.881,13.881,0,0,0,13.84-13.84V622.682Z" transform="translate(-310.459 -204.737)" fill="#1a1a1a"/>
      <path id="Path_7" data-name="Path 7" d="M529.8,465.189s-12.334,2.408-20.975,6.369-16.412,8.55-16.412,8.55,8.175-20.57,9.742-24.831a65,65,0,0,1,4.683-9.362s-4.013-5.175-4.083-7.713c0,0-8.217-1.034-13.767-4.984,0,0-4.013-1.685-4.746-3.307,0,0-8.207-6.1-7.639-11.511,0,0-5.756,9.127-12.589,27.389s-10.832,25.657-7.688,45.709,20.4,25.436,24.011,26.29,10.028,2.658,16.541,1.427a66.034,66.034,0,0,0,12.566-3.9l-1.889,14.631-7.055,65h93.515l-3.638-36.576s3.77,9.5,9.831,13.108a21,21,0,0,0,20.826.3c6.98-3.74,10.394-11.018,11.063-16.558s.437-13.109-1.845-23.248-9.506-41.089-9.506-41.089L599.3,480.627s-7.512-11.315-19.053-13.943L568.7,464.056Z" transform="translate(-112.453 -102.822)" fill="#dc4867"/>
      <path id="Path_8" data-name="Path 8" d="M767.5,534.15s.749-7.018-2.568-12.184-5.844-7.957-6.693-9.469-.474-8.181-1.062-10.723-1.389-6.427-5.906-5.674-5.759,6.667-5.049,10.517,3.462,12.878,3.308,14.123-7.353,5.766-11.191,7.2-11.175,4.034-13.081,6.979-1.25,6.815,2.437,7.174c0,0-4.746,2.482-3.779,5.983a3.91,3.91,0,0,0,4.231,3.058s-.807,5.147,4.438,5.8,15.234-2.954,18.685-4.813,9.511-5.021,12.131-8.847S767.611,534.97,767.5,534.15Z" transform="translate(-259.475 -145.308)" fill="#fff"/>
      <path id="Path_9" data-name="Path 9" d="M615.806,429.529s-7.913-1.507-8.139,5.409,6.84,6.865,8.934,5.443c0,0-.135,16.188,15.921,15.934s16.492-13.64,16.492-13.64V440.68s7.267,2.256,8.551-2.518.468-6.678-1.386-7.708-6.577-.716-6.577-.716v-1.655a43.01,43.01,0,0,0-14.216-9.446c-8.716-3.5-13.141-4-13.141-4s-3.506,8.912-5.933,10.826Z" transform="translate(-195.9 -100.762)" fill="#fff"/>
      <path id="Path_10" data-name="Path 10" d="M628.2,492.89v4.517l-8.189,8.562,5.742,31.611,13.962-20.106,14.005,20.106,5.6-32.269-8.069-8.123.058-3.888Z" transform="translate(-202.66 -143.602)" fill="#fff"/>
      <circle id="Ellipse_2" data-name="Ellipse 2" cx="11.538" cy="11.538" r="11.538" transform="translate(547.888 371.633) rotate(-45)" fill="#fff"/>
      <rect id="Rectangle_37" data-name="Rectangle 37" width="174.974" height="53.984" rx="26.992" transform="translate(276.665 431.319)" fill="#fff"/>
      <path id="Path_11" data-name="Path 11" d="M362.761,722.564a9.293,9.293,0,1,1-9.293-9.293A9.293,9.293,0,0,1,362.761,722.564Z" transform="translate(-51.65 -264.253)" fill="#1a1a1a"/>
      <path id="Path_12" data-name="Path 12" d="M486.939,231.861H357.79a16.028,16.028,0,0,0-15.981,15.981v10.767H502.92V247.842A16.028,16.028,0,0,0,486.939,231.861Z" transform="translate(-50.354 -0.697)" fill="#1a1a1a"/>
      <path id="Path_13" data-name="Path 13" d="M619.556,413.815s-1.324-7.565-1.236-9.738,1.673-8.182,3.421-9.056a11.071,11.071,0,0,1,2.349-.983s3.988-6.414,13.276-6.467,16.075,3.62,18.837,8.54,2.2,12.431,2.187,14.649a12.72,12.72,0,0,1-.518,3.711l-2.436.146-.186-1.353s-7.815-7.654-16.492-10.4-10.679-3.045-10.679-3.045-2.76,8.093-5.933,10.826l-.128,3.971Z" transform="translate(-201.732 -85.943)" fill="#1a1a1a"/>
      <path id="Path_14" data-name="Path 14" d="M536.7,400.384s5.535,2.888,7.954,6.629,3.036,12.508-1.807,12.851-7.011-5.278-7.621-6.906-.823-3.619-4.586-4.89-12.155-2.471-13.677-4.973-4.051-3.994-3.934-12.126c0,0-2.613-8.422,1.265-11.992s8.3-3.459,16.225-3.241,13.615-3.728,17.243-5.265,9.3-4.545,12.444-2.864.874,6.058.874,6.058,2.8.977,3.658,3.272-2.368,6.713-2.368,6.713,1.861.5,2.351,3.613-4.037,5.979-8.028,7.063a140.008,140.008,0,0,1-15.9,2.5C538.717,396.986,535.4,398.373,536.7,400.384Z" transform="translate(-143.622 -74.742)" fill="#fff"/>
      <path id="Path_15" data-name="Path 15" d="M319.118,553.123c-.994-1.7-2.621-1.7-3.614,0L307.867,566.2c-.993,1.7-.195,3.094,1.776,3.094h15.342c1.97,0,2.769-1.392,1.775-3.094Z" transform="translate(-31.538 -175.879)" fill="#d3aafd"/>
      <path id="Path_16" data-name="Path 16" d="M656.985,255.1a5.678,5.678,0,1,1-5.678-5.677A5.678,5.678,0,0,1,656.985,255.1Z" transform="translate(-216.686 -10.314)" fill="#d3aafd"/>
      <circle id="Ellipse_3" data-name="Ellipse 3" cx="5.859" cy="5.859" r="5.859" transform="translate(464.22 248.69)" fill="#d3aafd"/>
      <path id="Path_17" data-name="Path 17" d="M1027.892,388.749a5.859,5.859,0,1,1-5.859-5.858A5.859,5.859,0,0,1,1027.892,388.749Z" transform="translate(-419.547 -83.381)" fill="#d3aafd"/>
      <circle id="Ellipse_4" data-name="Ellipse 4" cx="5.678" cy="5.678" r="5.678" transform="translate(407.366 244.79) rotate(-45)" fill="#ccc"/>
      <circle id="Ellipse_5" data-name="Ellipse 5" cx="5.678" cy="5.678" r="5.678" transform="translate(388.809 241.694) rotate(-22.32)" fill="#fff"/>
      <path id="Path_18" data-name="Path 18" d="M506.474,410.187s-3.562.644-4.059,3.717,4.994,9.793,6.4,10.5h.989s-2.765-6.228-1.856-9.615Z" transform="translate(-138.263 -98.325)" fill="#1a1a1a"/>
      <path id="Path_19" data-name="Path 19" d="M537.451,454.408a19.816,19.816,0,0,1,6.11,1.084,23.045,23.045,0,0,1,3.555,1.759A16.491,16.491,0,0,1,537.451,454.408Z" transform="translate(-157.462 -122.535)" fill="#1a1a1a"/>
      <path id="Path_20" data-name="Path 20" d="M568.49,433.5s-2.972.953-2.7,2.612a76.537,76.537,0,0,1,6.176,4.555c.983,1.038,1.694,1.744,1.694,1.744S573.751,437.642,568.49,433.5Z" transform="translate(-172.969 -111.088)" fill="#1a1a1a"/>
      <circle id="Ellipse_6" data-name="Ellipse 6" cx="5.969" cy="5.969" r="5.969" transform="translate(530.183 273.859)" fill="#1a1a1a"/>
      <path id="Path_21" data-name="Path 21" d="M666.439,414.925l2.436-.145a12.721,12.721,0,0,0,.518-3.711c.009-2.218.575-9.729-2.187-14.648-2.325-4.141-7.509-7.389-14.629-8.285,4.8,2.078,9.9,5.33,8.856,9.521-1.53,6.119-23.019,2.04-23.019,2.04l.546.774c.078-.217.121-.342.121-.342s2,.3,10.68,3.045,16.491,10.4,16.491,10.4Z" transform="translate(-212.736 -86.252)" fill="#fff"/>
      <g id="Group_6" data-name="Group 6" transform="translate(510.659 362.776)">
        <g id="Group_4" data-name="Group 4" transform="translate(0 36.469)">
          <path id="Path_22" data-name="Path 22" d="M914.422,622.45a.557.557,0,0,1-.262-.063l-20.075-10.258c-4.783-2.454-12.807-3.044-17.9-1.315l-15.048,5.1c-5.353,1.819-13.662.944-18.524-1.952l-16.13-9.611a.576.576,0,1,1,.59-.99l16.131,9.611c4.612,2.743,12.494,3.572,17.564,1.849l15.048-5.1c5.345-1.812,13.773-1.193,18.793,1.381l20.073,10.258a.576.576,0,0,1-.262,1.089Z" transform="translate(-826.203 -603.284)"/>
        </g>
        <g id="Group_5" data-name="Group 5" transform="translate(37.838)">
          <path id="Path_23" data-name="Path 23" d="M921.936,546.923a12.114,12.114,0,1,1,12.109-12.113A12.13,12.13,0,0,1,921.936,546.923Zm0-23.076a10.962,10.962,0,1,0,10.956,10.962A10.977,10.977,0,0,0,921.936,523.848Z" transform="translate(-909.817 -522.695)"/>
        </g>
      </g>
      <g id="Group_7" data-name="Group 7" transform="translate(416.46 353.009)">
        <path id="Path_24" data-name="Path 24" d="M652.643,542.658a.575.575,0,0,1-.472-.247l-13.532-19.427-13.489,19.427a.556.556,0,0,1-.592.234.575.575,0,0,1-.447-.456l-6.055-31.612a.576.576,0,0,1,.157-.515l8.5-8.561a.569.569,0,0,1,.484-.165.58.58,0,0,1,.424.284l11.015,19.193L649.73,501.4a.58.58,0,0,1,.426-.286.567.567,0,0,1,.486.167l8.01,8.123a.577.577,0,0,1,.158.5l-5.6,32.27a.578.578,0,0,1-.444.465A.592.592,0,0,1,652.643,542.658Zm-33.4-32,5.741,29.966,12.972-18.68L627,502.852Zm20.077,11.284,13,18.657,5.307-30.6-7.268-7.37Z" transform="translate(-618.044 -501.112)"/>
      </g>
      <g id="Group_8" data-name="Group 8" transform="translate(437.448 340.575)">
        <path id="Path_25" data-name="Path 25" d="M667.388,479.579a12.028,12.028,0,0,1-2.52-.262.577.577,0,0,1,.263-1.123c.038.01,3.753.849,6.073-.764a4.48,4.48,0,0,0,1.819-3.289.566.566,0,0,1,.644-.5.575.575,0,0,1,.5.644,5.587,5.587,0,0,1-2.308,4.094A7.88,7.88,0,0,1,667.388,479.579Z" transform="translate(-664.423 -473.636)"/>
      </g>
      <g id="Group_9" data-name="Group 9" transform="translate(341.897 313.736)">
        <path id="Path_26" data-name="Path 26" d="M491.159,517.843a46.915,46.915,0,0,1-13.1-2.016c-14.461-4.1-23.214-16.5-24.65-34.91-1.024-13.116,3.83-25.974,8.714-36.82,1.861-4.14,3.219-7.539,4.532-10.825a122.82,122.82,0,0,1,8.826-18.659.577.577,0,0,1,1,.584,121.6,121.6,0,0,0-8.75,18.5c-1.318,3.3-2.68,6.71-4.553,10.87-4.823,10.716-9.619,23.4-8.615,36.257,1.4,17.9,9.854,29.936,23.815,33.89,7.721,2.189,16.658,3.527,29.692-1.416a.576.576,0,0,1,.41,1.077A48.253,48.253,0,0,1,491.159,517.843Z" transform="translate(-453.275 -414.328)"/>
      </g>
      <g id="Group_10" data-name="Group 10" transform="translate(377.571 342.516)">
        <path id="Path_27" data-name="Path 27" d="M532.684,521.389a.592.592,0,0,1-.57-.66,74.5,74.5,0,0,1,5.847-18.888c.24-.543.429-.975.552-1.283l4.841-12.059a92.682,92.682,0,0,1,4.523-9.248l.545-1.017a.576.576,0,0,1,1.017.542l-.545,1.02a91.173,91.173,0,0,0-4.469,9.134l-4.841,12.059c-.127.314-.322.758-.567,1.316a72.308,72.308,0,0,0-5.763,18.591A.577.577,0,0,1,532.684,521.389Z" transform="translate(-532.107 -477.927)"/>
      </g>
      <g id="Group_12" data-name="Group 12" transform="translate(249.832 279.495)">
        <g id="Group_11" data-name="Group 11" transform="translate(0 0)">
          <path id="Path_28" data-name="Path 28" d="M252.631,343.975a2.512,2.512,0,1,0-2.512-2.512A2.512,2.512,0,0,0,252.631,343.975Z" transform="translate(-249.989 -338.821)" fill="#1a1a1a"/>
          <path id="Path_29" data-name="Path 29" d="M295.615,343.947a2.642,2.642,0,1,0-2.642-2.642A2.642,2.642,0,0,0,295.615,343.947Z" transform="translate(-273.45 -338.663)" fill="#1a1a1a"/>
          <path id="Path_30" data-name="Path 30" d="M338.992,343.988a2.447,2.447,0,1,0-2.447-2.447A2.447,2.447,0,0,0,338.992,343.988Z" transform="translate(-297.304 -338.899)" fill="#1a1a1a"/>
          <path id="Path_31" data-name="Path 31" d="M252.474,387.089a2.642,2.642,0,1,0-2.642-2.642A2.642,2.642,0,0,0,252.474,387.089Z" transform="translate(-249.832 -362.282)" fill="#1a1a1a"/>
          <circle id="Ellipse_7" data-name="Ellipse 7" cx="2.772" cy="2.772" r="2.772" transform="translate(19.393 19.393)" fill="#1a1a1a"/>
          <circle id="Ellipse_8" data-name="Ellipse 8" cx="2.577" cy="2.577" r="2.577" transform="translate(39.111 19.588)" fill="#1a1a1a"/>
          <path id="Path_32" data-name="Path 32" d="M252.709,430.271a2.447,2.447,0,1,0-2.447-2.447A2.447,2.447,0,0,0,252.709,430.271Z" transform="translate(-250.067 -386.136)" fill="#1a1a1a"/>
          <path id="Path_33" data-name="Path 33" d="M295.694,430.244a2.577,2.577,0,1,0-2.577-2.577A2.577,2.577,0,0,0,295.694,430.244Z" transform="translate(-273.529 -385.979)" fill="#1a1a1a"/>
          <path id="Path_34" data-name="Path 34" d="M339.045,430.28a2.4,2.4,0,1,0-2.4-2.4A2.4,2.4,0,0,0,339.045,430.28Z" transform="translate(-297.357 -386.189)" fill="#1a1a1a"/>
        </g>
      </g>
      <g id="Group_13" data-name="Group 13" transform="translate(293.022 491.94)">
        <path id="Path_35" data-name="Path 35" d="M642.253,809.273H345.848a.576.576,0,0,1,0-1.153H642.253a.576.576,0,0,1,0,1.153Z" transform="translate(-345.272 -808.12)"/>
      </g>
      <path id="Path_36" data-name="Path 36" d="M644.8,447.674c.461-.073.769.124.9,1.783.147,1.849-.332,2.176-.747,2.159s-.831-.587-.811-1.909S644.192,447.769,644.8,447.674Z" transform="translate(-215.87 -118.841)"/>
      <g id="Group_14" data-name="Group 14" transform="translate(411.093 327.763)">
        <path id="Path_37" data-name="Path 37" d="M612.77,458.5q-.206,0-.412-.014a6.586,6.586,0,1,1,2.851-12.692.576.576,0,1,1-.424,1.071,5.434,5.434,0,0,0-1.675-.373,5.433,5.433,0,0,0-.68,10.845,5.61,5.61,0,0,0,2.842-.6.576.576,0,0,1,.53,1.024A6.586,6.586,0,0,1,612.77,458.5Z" transform="translate(-606.183 -445.325)"/>
      </g>
      <g id="Group_15" data-name="Group 15" transform="translate(415.357 330.375)">
        <path id="Path_38" data-name="Path 38" d="M616.606,458.7a.577.577,0,0,1-.353-1.033L619.7,455l-3.866-2.86a.577.577,0,1,1,.686-.927l4.48,3.315a.572.572,0,0,1,.234.457.577.577,0,0,1-.224.462l-4.057,3.131A.571.571,0,0,1,616.606,458.7Z" transform="translate(-615.606 -451.097)"/>
      </g>
      <g id="Group_16" data-name="Group 16" transform="translate(453.143 327.764)">
        <path id="Path_39" data-name="Path 39" d="M702.447,458.5a6.584,6.584,0,0,1-3.032-.739.577.577,0,0,1,.533-1.024,5.434,5.434,0,0,0,7.924-5.164,5.484,5.484,0,0,0-5.763-5.083,5.415,5.415,0,0,0-1.783.421.577.577,0,0,1-.451-1.063,6.587,6.587,0,1,1,2.987,12.637C702.722,458.495,702.586,458.5,702.447,458.5Z" transform="translate(-699.104 -445.327)"/>
      </g>
      <g id="Group_17" data-name="Group 17" transform="translate(453.176 330.378)">
        <path id="Path_40" data-name="Path 40" d="M703.811,458.7a.572.572,0,0,1-.352-.121L699.4,455.45a.577.577,0,0,1,.009-.92l4.48-3.315a.577.577,0,1,1,.686.927L700.711,455l3.452,2.664a.577.577,0,0,1-.352,1.033Z" transform="translate(-699.179 -451.104)"/>
      </g>
      <g id="Group_18" data-name="Group 18" transform="translate(477.348 386.246)">
        <path id="Path_41" data-name="Path 41" d="M772.919,660.37c-7.26,0-15.109-3.61-20.283-16.288a.577.577,0,1,1,1.068-.437c5.339,13.087,14.13,17.973,26.129,14.533,20.194-5.795,14.638-31.416,12.811-39.836-2.666-12.3-9.889-42.768-9.961-43.075a.576.576,0,0,1,.429-.694.582.582,0,0,1,.694.429c.072.305,7.3,30.786,9.968,43.1,1.883,8.679,7.611,35.094-13.621,41.186A26.342,26.342,0,0,1,772.919,660.37Z" transform="translate(-752.593 -574.56)"/>
      </g>
      <g id="Group_19" data-name="Group 19" transform="translate(419.708 324.24)">
        <path id="Path_42" data-name="Path 42" d="M643.709,469.429H641.4A15.835,15.835,0,0,1,631.051,466c-2.539-2.176-4.216-5.67-5.134-10.681-.605-3.306-.739-13.784-.687-17.208a.576.576,0,1,1,1.153.018c-.056,3.685.105,13.907.668,16.983.868,4.741,2.421,8.016,4.749,10.012a14.706,14.706,0,0,0,9.6,3.156h2.307a14.7,14.7,0,0,0,9.6-3.156c2.33-2,3.882-5.271,4.751-10.012.608-3.319.625-11.578.579-14.479a.576.576,0,0,1,.568-.586.538.538,0,0,1,.585.567c.045,2.933.027,11.293-.6,14.7-.918,5.011-2.6,8.5-5.134,10.681A15.837,15.837,0,0,1,643.709,469.429Z" transform="translate(-625.22 -437.54)"/>
      </g>
      <g id="Group_20" data-name="Group 20" transform="translate(424.962 351.36)">
        <path id="Path_43" data-name="Path 43" d="M637.408,500.492a.577.577,0,0,1-.576-.582l.018-1.869a.576.576,0,0,1,1.153.012l-.018,1.869A.577.577,0,0,1,637.408,500.492Z" transform="translate(-636.832 -497.47)"/>
      </g>
      <g id="Group_21" data-name="Group 21" transform="translate(448.012 351.358)">
        <path id="Path_44" data-name="Path 44" d="M688.343,500.268a.58.58,0,0,1-.576-.6l.058-1.65a.538.538,0,0,1,.6-.555.576.576,0,0,1,.555.6l-.058,1.649A.575.575,0,0,1,688.343,500.268Z" transform="translate(-687.766 -497.463)"/>
      </g>
      <g id="Group_22" data-name="Group 22" transform="translate(418.998 301.066)">
        <path id="Path_45" data-name="Path 45" d="M660.765,414.193a.594.594,0,0,1-.57-.665c1.279-8.19.063-13.242-1.3-17.1-2.846-8.1-14.735-9.867-22.275-8.553a14.793,14.793,0,0,0-8.908,5.657.585.585,0,0,1-.358.241,5.981,5.981,0,0,0-2.748,1.342.577.577,0,0,1-.761-.867,7.072,7.072,0,0,1,3.047-1.553,15.776,15.776,0,0,1,9.53-5.954c7.93-1.393,20.492.572,23.563,9.306,1.406,4,2.664,9.22,1.347,17.663A.578.578,0,0,1,660.765,414.193Z" transform="translate(-623.652 -386.33)"/>
      </g>
      <g id="Group_23" data-name="Group 23" transform="translate(416.011 317.762)">
        <path id="Path_46" data-name="Path 46" d="M618.972,434.38a.575.575,0,0,1-.555-.421,41.263,41.263,0,0,1-1.365-10.162.576.576,0,0,1,1.153.01,40.847,40.847,0,0,0,1.323,9.843.576.576,0,0,1-.4.71A.542.542,0,0,1,618.972,434.38Z" transform="translate(-617.051 -423.225)"/>
      </g>
      <g id="Group_24" data-name="Group 24" transform="translate(387.471 481.227)">
        <path id="Path_47" data-name="Path 47" d="M554.56,795.921a.587.587,0,0,1-.573-.636l1.079-10.318a.546.546,0,0,1,.634-.513.577.577,0,0,1,.513.634L555.134,795.4A.576.576,0,0,1,554.56,795.921Z" transform="translate(-553.984 -784.447)"/>
      </g>
      <g id="Group_25" data-name="Group 25" transform="translate(394.527 397.291)">
        <path id="Path_48" data-name="Path 48" d="M570.152,629.382a.59.59,0,0,1-.572-.65l3.778-29.261a.577.577,0,0,1,1.144.148l-3.779,29.262A.577.577,0,0,1,570.152,629.382Z" transform="translate(-569.576 -598.967)"/>
      </g>
      <g id="Group_26" data-name="Group 26" transform="translate(472.27 411.588)">
        <path id="Path_49" data-name="Path 49" d="M750.665,711.672a.578.578,0,0,1-.575-.522c-3.93-41.668-6.908-66.47-8.714-79.939a.577.577,0,0,1,.495-.648.569.569,0,0,1,.648.495c1.807,13.48,4.787,38.3,8.72,79.984a.579.579,0,0,1-.521.629Z" transform="translate(-741.371 -630.559)"/>
      </g>
      <g id="Group_27" data-name="Group 27" transform="translate(424.365 322.991)">
        <path id="Path_50" data-name="Path 50" d="M636.088,438.846a.568.568,0,0,1-.2-.034.578.578,0,0,1-.345-.739c1.033-2.846,4.982-3.669,7.324-3.144a.578.578,0,0,1,.437.689.562.562,0,0,1-.689.436c-1.926-.426-5.219.294-5.987,2.412A.574.574,0,0,1,636.088,438.846Z" transform="translate(-635.511 -434.78)"/>
      </g>
      <g id="Group_28" data-name="Group 28" transform="translate(440.9 322.991)">
        <path id="Path_51" data-name="Path 51" d="M679.284,438.846a.574.574,0,0,1-.542-.379c-.771-2.119-4.066-2.84-5.987-2.412a.577.577,0,0,1-.253-1.126c2.346-.526,6.292.3,7.324,3.144a.577.577,0,0,1-.344.739A.571.571,0,0,1,679.284,438.846Z" transform="translate(-672.051 -434.779)"/>
      </g>
      <g id="Group_29" data-name="Group 29" transform="translate(422.226 307.803)">
        <path id="Path_52" data-name="Path 52" d="M633.219,404.991a.576.576,0,0,1-.471-.243l-1.857-2.623a.577.577,0,0,1,.942-.665l1.856,2.623a.576.576,0,0,1-.471.909Z" transform="translate(-630.786 -401.217)"/>
      </g>
      <g id="Group_30" data-name="Group 30" transform="translate(456.08 361.131)">
        <path id="Path_53" data-name="Path 53" d="M736.93,536.312a.576.576,0,0,1-.443-.206c-10.659-12.741-21.825-15.184-30.363-15.892a.578.578,0,0,1-.527-.623.565.565,0,0,1,.623-.527c8.761.725,20.218,3.234,31.152,16.3a.577.577,0,0,1-.443.947Z" transform="translate(-705.596 -519.061)"/>
      </g>
      <g id="Group_31" data-name="Group 31" transform="translate(275.322 375.442)">
        <path id="Path_54" data-name="Path 54" d="M324.283,569.235H308.942a2.444,2.444,0,0,1-2.274-3.961L314.3,552.2a2.514,2.514,0,0,1,4.61,0l7.643,13.078a2.444,2.444,0,0,1-2.274,3.961Zm-7.674-17.447a1.66,1.66,0,0,0-1.309.99l-7.635,13.077a1.327,1.327,0,0,0,1.277,2.227h15.341a1.326,1.326,0,0,0,1.277-2.227l-7.643-13.077A1.66,1.66,0,0,0,316.609,551.788Z" transform="translate(-306.159 -550.686)"/>
      </g>
      <g id="Group_32" data-name="Group 32" transform="translate(463.76 396.213)">
        <path id="Path_55" data-name="Path 55" d="M728.944,606.857a8.48,8.48,0,0,1-4.248-.924,4.109,4.109,0,0,1-2.007-2.654c-.945-3.863,3.86-6.516,4.064-6.627a.577.577,0,1,1,.551,1.014c-.042.023-4.229,2.341-3.5,5.339a2.962,2.962,0,0,0,1.469,1.932c1.907,1.111,5.4,1.031,9.838-.228,6.117-1.735,17.248-7.295,17.359-7.352a.577.577,0,0,1,.518,1.032c-.461.23-11.342,5.666-17.561,7.431A24.325,24.325,0,0,1,728.944,606.857Z" transform="translate(-722.566 -596.585)"/>
      </g>
      <g id="Group_33" data-name="Group 33" transform="translate(463.968 350.17)">
        <path id="Path_56" data-name="Path 56" d="M733.617,556.883a7.137,7.137,0,0,1-4.534-1.165c-3.336-2.807-1.6-5.488-1.584-5.515a.577.577,0,0,1,.962.638c-.063.1-1.138,1.889,1.366,4,2.647,2.228,13,.15,21.735-4.352a37.823,37.823,0,0,0,11.555-8.866c2.844-3.325,3.951-7.957,3.119-13.042a25.44,25.44,0,0,0-5.769-12.392c-.28-.33-.564-.646-.844-.956-1.42-1.577-2.763-3.066-2.951-5.424-.081-1.008-.113-2.134-.144-3.3-.125-4.478-.266-9.555-3.334-10.312a4.908,4.908,0,0,0-4.934,1.165c-2.238,2.279-2.627,6.937-1.068,12.777.537,2.012,1.129,4.007,1.72,6l.656,2.226a2.959,2.959,0,0,1,.084,1.953,2.883,2.883,0,0,1-.912,1.109,40.967,40.967,0,0,1-12.95,7.31c-6.454,2.237-10.259,4.681-11.313,7.26a3.968,3.968,0,0,0,.2,3.429,2.728,2.728,0,0,0,1.747,1.243c3.893,1.226,13.668-.587,24.115-6.338a.577.577,0,1,1,.557,1.011c-9.572,5.267-20.091,7.971-25.016,6.428a3.822,3.822,0,0,1-2.435-1.83,5.132,5.132,0,0,1-.241-4.38c1.2-2.941,5.129-5.529,12-7.914A39.817,39.817,0,0,0,748,520.539a1.937,1.937,0,0,0,.581-.652,2.012,2.012,0,0,0-.12-1.2l-.654-2.22c-.594-2.006-1.189-4.012-1.727-6.032-1.668-6.245-1.171-11.306,1.359-13.883a6.082,6.082,0,0,1,6.034-1.476c3.92.967,4.075,6.51,4.21,11.4.032,1.145.062,2.25.142,3.238.158,1.969,1.316,3.256,2.657,4.746.287.318.579.641.867.978a26.6,26.6,0,0,1,6.028,12.954c.889,5.425-.312,10.389-3.381,13.978a38.983,38.983,0,0,1-11.9,9.143C746.085,554.607,738.614,556.883,733.617,556.883Z" transform="translate(-723.026 -494.84)"/>
      </g>
      <g id="Group_34" data-name="Group 34" transform="translate(401.584 342.391)">
        <path id="Path_57" data-name="Path 57" d="M604.36,478.8H585.747a.576.576,0,0,1,0-1.153H604.36a.576.576,0,1,1,0,1.153Z" transform="translate(-585.171 -477.649)"/>
      </g>
      <g id="Group_35" data-name="Group 35" transform="translate(290.879 230.587)">
        <path id="Path_58" data-name="Path 58" d="M502.224,301.517a.575.575,0,0,1-.577-.576v-53.8a15.422,15.422,0,0,0-15.4-15.406H357.093a15.422,15.422,0,0,0-15.4,15.406v25.068a.576.576,0,1,1-1.153,0V247.145a16.576,16.576,0,0,1,16.556-16.558H486.243A16.576,16.576,0,0,1,502.8,247.145v53.8A.575.575,0,0,1,502.224,301.517Z" transform="translate(-340.537 -230.587)"/>
      </g>
      <g id="Group_36" data-name="Group 36" transform="translate(290.879 326.41)">
        <path id="Path_59" data-name="Path 59" d="M385.6,459.468h-28.5a16.576,16.576,0,0,1-16.556-16.557.576.576,0,0,1,1.153,0,15.421,15.421,0,0,0,15.4,15.4h28.5a.576.576,0,0,1,0,1.153Z" transform="translate(-340.537 -442.335)"/>
      </g>
      <g id="Group_37" data-name="Group 37" transform="translate(519.958 387.533)">
        <path id="Path_60" data-name="Path 60" d="M911.83,640.7h-64.5a.576.576,0,1,1,0-1.153h64.5a13.281,13.281,0,0,0,13.265-13.265v-48.3a.576.576,0,1,1,1.153,0v48.3A14.434,14.434,0,0,1,911.83,640.7Z" transform="translate(-846.751 -577.404)"/>
      </g>
      <g id="Group_38" data-name="Group 38" transform="translate(467.214 344.697)">
        <path id="Path_61" data-name="Path 61" d="M861.863,502.841a.575.575,0,0,1-.576-.577v-5.1A13.279,13.279,0,0,0,848.022,483.9H744.615a13.279,13.279,0,0,0-13.263,13.263v4.749a.576.576,0,0,1-1.153,0v-4.749a14.431,14.431,0,0,1,14.416-14.416H848.022a14.432,14.432,0,0,1,14.417,14.416v5.1A.575.575,0,0,1,861.863,502.841Z" transform="translate(-730.199 -482.746)"/>
      </g>
      <g id="Group_39" data-name="Group 39" transform="translate(272.25 427.245)">
        <path id="Path_62" data-name="Path 62" d="M461.08,720.522H313.787a14.434,14.434,0,0,1-14.417-14.417V679.577a14.434,14.434,0,0,1,14.417-14.418h45.632a.577.577,0,0,1,0,1.153H313.787a13.281,13.281,0,0,0-13.264,13.265v26.529a13.28,13.28,0,0,0,13.264,13.264H461.08a13.28,13.28,0,0,0,13.264-13.264V679.577a13.281,13.281,0,0,0-13.264-13.265H401.92a.577.577,0,1,1,0-1.153h59.16A14.433,14.433,0,0,1,475.5,679.577v26.529A14.433,14.433,0,0,1,461.08,720.522Z" transform="translate(-299.37 -665.159)"/>
      </g>
      <g id="Group_40" data-name="Group 40" transform="translate(367.973 291.868)">
        <path id="Path_63" data-name="Path 63" d="M512.345,390.731a.577.577,0,0,1-.543-.382c-.131-.367-3.141-9.045,2.606-13.544,3.192-2.5,7.069-2.385,11.18-2.28a32.852,32.852,0,0,0,10.818-.981,83.115,83.115,0,0,0,9.151-3.64c6.281-2.785,11.707-5.191,14.74-3.118,1.41.962,1.884,2.8,1.268,4.908-1.553,5.323-9.251,11.241-22.486,11.658a.587.587,0,0,1-.595-.558.577.577,0,0,1,.558-.594c14.574-.459,20.381-7.283,21.414-10.827.477-1.632.181-2.957-.811-3.636-2.5-1.7-7.9.685-13.624,3.221a83.687,83.687,0,0,1-9.283,3.691,33.855,33.855,0,0,1-11.184,1.029c-4.062-.109-7.572-.209-10.438,2.036-5.087,3.984-2.259,12.166-2.23,12.249a.576.576,0,0,1-.351.735A.559.559,0,0,1,512.345,390.731Z" transform="translate(-510.898 -366.005)"/>
      </g>
      <g id="Group_41" data-name="Group 41" transform="translate(395.955 298.7)">
        <path id="Path_64" data-name="Path 64" d="M577.08,396.847q-1.871,0-3.816-.147a.577.577,0,0,1-.531-.619.545.545,0,0,1,.618-.531c11.67.887,21.9-2.538,23.818-7.97.56-1.587.539-2.849-.06-3.75a4.422,4.422,0,0,0-3.1-1.575.58.58,0,0,1-.543-.61.593.593,0,0,1,.61-.543,5.565,5.565,0,0,1,3.995,2.089c.811,1.22.874,2.826.187,4.775C596.359,393.338,587.735,396.846,577.08,396.847Z" transform="translate(-572.731 -381.101)"/>
      </g>
      <g id="Group_42" data-name="Group 42" transform="translate(382.033 309.876)">
        <path id="Path_65" data-name="Path 65" d="M542.546,418.063a.577.577,0,0,1-.03-1.153c10.2-.542,11.446-10.5,11.456-10.6a.6.6,0,0,1,.638-.508.577.577,0,0,1,.509.638c-.012.11-1.375,11.033-12.542,11.628Z" transform="translate(-541.968 -405.798)"/>
      </g>
      <g id="Group_43" data-name="Group 43" transform="translate(368.805 308.332)">
        <path id="Path_66" data-name="Path 66" d="M542.135,439.9a4.207,4.207,0,0,1-1.351-.226c-3.44-1.157-5.61-6.542-6.385-8.8-.628-1.839-3.3-2.844-4.892-3.445a35.619,35.619,0,0,0-4.94-1.336c-1-.22-2-.441-3-.711a10.686,10.686,0,0,1-7.059-5.819,19.161,19.161,0,0,1-1.733-9.525.6.6,0,0,1,.61-.543.578.578,0,0,1,.543.609,18.006,18.006,0,0,0,1.616,8.951,9.451,9.451,0,0,0,6.328,5.214c.975.267,1.959.482,2.941.7a36.682,36.682,0,0,1,5.1,1.383c1.785.672,4.773,1.8,5.578,4.152.56,1.639,2.624,7.064,5.659,8.085a3.422,3.422,0,0,0,3.125-.576,5.445,5.445,0,0,0,2.316-4.38,12.981,12.981,0,0,0-4.473-9.727,31.063,31.063,0,0,0-4.979-3.449,1.922,1.922,0,0,1-1.067-1.112,1.707,1.707,0,0,1,.11-1.05,3.718,3.718,0,0,1,2.436-2.221,9.515,9.515,0,0,1,2.367-.324,70.256,70.256,0,0,0,11.654-1.532,28.073,28.073,0,0,0,9.019-3.343,5.924,5.924,0,0,0,2.633-2.835c.949-3.172-2.124-4.489-2.254-4.543a.577.577,0,0,1-.312-.754.585.585,0,0,1,.754-.312,4.86,4.86,0,0,1,2.916,5.939,6.927,6.927,0,0,1-3.115,3.475,29.082,29.082,0,0,1-9.388,3.5,71.089,71.089,0,0,1-11.74,1.553,9.052,9.052,0,0,0-2.2.279,2.553,2.553,0,0,0-1.7,1.539.611.611,0,0,0-.067.337c.038.143.36.316.5.391a32.312,32.312,0,0,1,5.177,3.581,14.224,14.224,0,0,1,4.88,10.672,6.5,6.5,0,0,1-2.823,5.274A4.973,4.973,0,0,1,542.135,439.9Z" transform="translate(-512.737 -402.386)"/>
      </g>
      <g id="Group_44" data-name="Group 44" transform="translate(266.821 368.444)">
        <path id="Path_67" data-name="Path 67" d="M314.667,568.815H297.989A10.628,10.628,0,0,1,287.373,558.2V545.837a10.628,10.628,0,0,1,10.616-10.616h16.677a10.628,10.628,0,0,1,10.616,10.616V558.2A10.628,10.628,0,0,1,314.667,568.815Zm-16.677-32.441a9.473,9.473,0,0,0-9.463,9.463V558.2a9.474,9.474,0,0,0,9.463,9.464h16.677a9.474,9.474,0,0,0,9.463-9.464V545.837a9.474,9.474,0,0,0-9.463-9.463Z" transform="translate(-287.373 -535.221)"/>
      </g>
      <g id="Group_45" data-name="Group 45" transform="translate(523.012 266.687)">
        <path id="Path_68" data-name="Path 68" d="M875.147,336.9H858.4a4.9,4.9,0,0,1-4.9-4.895V315.256a4.9,4.9,0,0,1,4.9-4.9h16.751a4.9,4.9,0,0,1,4.9,4.9v16.751A4.9,4.9,0,0,1,875.147,336.9ZM858.4,311.514a3.747,3.747,0,0,0-3.742,3.742v16.751a3.747,3.747,0,0,0,3.742,3.742h16.751a3.747,3.747,0,0,0,3.742-3.742V315.256a3.747,3.747,0,0,0-3.742-3.742Z" transform="translate(-853.501 -310.361)"/>
      </g>
      <g id="Group_46" data-name="Group 46" transform="translate(475.361 244.768)">
        <path id="Path_69" data-name="Path 69" d="M806.553,284.356a.576.576,0,0,1-.544-.386c-3.1-8.907-8.371-15.064-15.668-18.3-10.2-4.528-24.106-3.119-41.339,4.182a.577.577,0,0,1-.448-1.063c17.535-7.43,31.751-8.836,42.255-4.174,7.494,3.326,13.126,9.888,16.289,18.978a.576.576,0,0,1-.355.734A.593.593,0,0,1,806.553,284.356Z" transform="translate(-748.202 -261.924)"/>
      </g>
      <g id="Group_47" data-name="Group 47" transform="translate(463.644 248.115)">
        <path id="Path_70" data-name="Path 70" d="M728.745,282.189a6.435,6.435,0,1,1,6.434-6.436A6.444,6.444,0,0,1,728.745,282.189Zm0-11.718a5.283,5.283,0,1,0,5.281,5.282A5.289,5.289,0,0,0,728.745,270.471Z" transform="translate(-722.309 -269.319)"/>
      </g>
      <g id="Group_48" data-name="Group 48" transform="translate(529.847 273.503)">
        <path id="Path_71" data-name="Path 71" d="M875.04,338.291a6.435,6.435,0,1,1,6.435-6.434A6.443,6.443,0,0,1,875.04,338.291Zm0-11.717a5.282,5.282,0,1,0,5.282,5.283A5.289,5.289,0,0,0,875.04,326.574Z" transform="translate(-868.604 -325.421)"/>
      </g>
      <g id="Group_49" data-name="Group 49" transform="translate(538.261 292.678)">
        <path id="Path_72" data-name="Path 72" d="M917.28,390.264a33.6,33.6,0,0,1-13.758-2.692c-7.5-3.333-13.132-9.907-16.292-19.013a.577.577,0,0,1,1.089-.379c3.1,8.923,8.368,15.093,15.67,18.337,10.2,4.531,24.11,3.128,41.349-4.176a.577.577,0,1,1,.448,1.063C935,387.973,925.464,390.264,917.28,390.264Z" transform="translate(-887.198 -367.795)"/>
      </g>
      <g id="Group_50" data-name="Group 50" transform="translate(596.051 298.933)">
        <path id="Path_73" data-name="Path 73" d="M1021.336,394.487a6.435,6.435,0,1,1,6.434-6.436A6.444,6.444,0,0,1,1021.336,394.487Zm0-11.717a5.282,5.282,0,1,0,5.282,5.281A5.289,5.289,0,0,0,1021.336,382.77Z" transform="translate(-1014.9 -381.617)"/>
      </g>
      <g id="Group_51" data-name="Group 51" transform="translate(326.617 447.051)">
        <path id="Path_74" data-name="Path 74" d="M504.779,710.079H420.087a.576.576,0,1,1,0-1.153h84.692a.576.576,0,1,1,0,1.153Z" transform="translate(-419.51 -708.926)"/>
      </g>
      <g id="Group_52" data-name="Group 52" transform="translate(326.617 461.328)">
        <path id="Path_75" data-name="Path 75" d="M504.779,741.628H420.087a.576.576,0,1,1,0-1.153h84.692a.576.576,0,1,1,0,1.153Z" transform="translate(-419.51 -740.475)"/>
      </g>
      <g id="Group_53" data-name="Group 53" transform="translate(287.869 445.057)">
        <path id="Path_76" data-name="Path 76" d="M343.756,724.26a9.87,9.87,0,1,1,9.87-9.87A9.88,9.88,0,0,1,343.756,724.26Zm0-18.587a8.717,8.717,0,1,0,8.717,8.717A8.728,8.728,0,0,0,343.756,705.673Z" transform="translate(-333.886 -704.52)"/>
      </g>
      <g id="Group_54" data-name="Group 54" transform="translate(299.626 257.335)">
        <path id="Path_77" data-name="Path 77" d="M503.936,290.848H360.443a.576.576,0,1,1,0-1.153H503.936a.576.576,0,1,1,0,1.153Z" transform="translate(-359.866 -289.695)"/>
      </g>
      <g id="Group_55" data-name="Group 55" transform="translate(428.317 238.537)">
        <path id="Path_78" data-name="Path 78" d="M650.5,260.662a6.254,6.254,0,1,1,6.254-6.254A6.262,6.262,0,0,1,650.5,260.662Zm0-11.355a5.1,5.1,0,1,0,5.1,5.1A5.107,5.107,0,0,0,650.5,249.307Z" transform="translate(-644.246 -248.154)"/>
      </g>
      <g id="Group_57" data-name="Group 57" transform="translate(407.366 236.76)">
        <circle id="Ellipse_9" data-name="Ellipse 9" cx="5.678" cy="5.678" r="5.678" transform="translate(0 8.029) rotate(-45)" fill="#fff"/>
        <g id="Group_56" data-name="Group 56" transform="translate(1.776 1.776)">
          <path id="Path_79" data-name="Path 79" d="M608.125,260.662a6.254,6.254,0,1,1,6.254-6.254A6.26,6.26,0,0,1,608.125,260.662Zm0-11.355a5.1,5.1,0,1,0,5.1,5.1A5.107,5.107,0,0,0,608.125,249.307Z" transform="translate(-601.871 -248.154)"/>
        </g>
      </g>
      <g id="Group_58" data-name="Group 58" transform="translate(389.963 238.537)">
        <path id="Path_80" data-name="Path 80" d="M565.746,260.662A6.254,6.254,0,1,1,572,254.408,6.262,6.262,0,0,1,565.746,260.662Zm0-11.355a5.1,5.1,0,1,0,5.1,5.1A5.107,5.107,0,0,0,565.746,249.307Z" transform="translate(-559.49 -248.154)"/>
      </g>
      <g id="Group_59" data-name="Group 59" transform="translate(379.496 361.789)">
        <path id="Path_81" data-name="Path 81" d="M536.937,536.218a.576.576,0,0,1-.307-1.064c.17-.108,17.308-10.808,37.163-14.628a.576.576,0,0,1,.217,1.132c-19.643,3.78-36.6,14.364-36.766,14.471A.573.573,0,0,1,536.937,536.218Z" transform="translate(-536.36 -520.515)"/>
      </g>
      <g id="Group_60" data-name="Group 60" transform="translate(380.424 305.843)">
        <path id="Path_82" data-name="Path 82" d="M621.156,484.594H615.15a.576.576,0,0,1,0-1.153h6.006a.576.576,0,0,1,0,1.153Zm-12.01,0h-6.005a.576.576,0,1,1,0-1.153h6.005a.576.576,0,1,1,0,1.153Zm-12.011,0h-6a.576.576,0,0,1,0-1.153h6a.576.576,0,1,1,0,1.153Zm-12.009,0H579.12a.576.576,0,1,1,0-1.153h6.006a.576.576,0,0,1,0,1.153Zm-12.01,0h-6.006a.576.576,0,0,1,0-1.153h6.006a.576.576,0,1,1,0,1.153Zm-12.011,0h-6a.576.576,0,1,1,0-1.153h6a.576.576,0,0,1,0,1.153Zm-12.01,0h-6.005a.576.576,0,1,1,0-1.153H549.1a.576.576,0,1,1,0,1.153Zm-10.107-1.9a.576.576,0,0,1-.577-.576V476.11a.576.576,0,0,1,1.153,0v6.006A.576.576,0,0,1,538.989,482.692Zm0-12.011a.576.576,0,0,1-.577-.576v-6a.576.576,0,1,1,1.153,0v6A.576.576,0,0,1,538.989,470.681Zm0-12.01a.575.575,0,0,1-.577-.576V452.09a.576.576,0,0,1,1.153,0V458.1A.575.575,0,0,1,538.989,458.671Zm0-12.011a.575.575,0,0,1-.577-.576v-6a.576.576,0,1,1,1.153,0v6A.575.575,0,0,1,538.989,446.661Zm110.8-9.874a.575.575,0,0,1-.576-.576V430.2a.576.576,0,0,1,1.153,0v6.006A.575.575,0,0,1,649.784,436.786Zm-110.8-2.135a.576.576,0,0,1-.577-.576V428.07a.576.576,0,1,1,1.153,0v6.005A.576.576,0,0,1,538.989,434.651Zm110.8-9.876a.575.575,0,0,1-.576-.576v-6a.576.576,0,1,1,1.153,0v6A.575.575,0,0,1,649.784,424.775Zm-110.8-2.134a.576.576,0,0,1-.577-.576V416.06a.576.576,0,1,1,1.153,0v6.006A.576.576,0,0,1,538.989,422.641Zm110.8-9.876a.575.575,0,0,1-.576-.576v-6.005a.576.576,0,1,1,1.153,0v6.005A.576.576,0,0,1,649.784,412.766Zm-110.8-2.135a.576.576,0,0,1-.577-.577v-6a.576.576,0,0,1,1.153,0v6A.576.576,0,0,1,538.989,410.631Zm110.8-9.874a.575.575,0,0,1-.576-.576v-2.141H646.5a.576.576,0,1,1,0-1.153h3.288a.576.576,0,0,1,.576.577v2.717A.576.576,0,0,1,649.784,400.756Zm-110.8-2.135a.575.575,0,0,1-.577-.576v-.582a.576.576,0,0,1,.577-.577h5.423a.576.576,0,0,1,0,1.153l-4.847.006A.575.575,0,0,1,538.989,398.621Zm101.5-.582h-6a.576.576,0,0,1,0-1.153h6a.576.576,0,1,1,0,1.153Zm-12.009,0h-6.006a.576.576,0,1,1,0-1.153h6.006a.576.576,0,1,1,0,1.153Zm-12.009,0h-6.006a.576.576,0,0,1,0-1.153h6.006a.576.576,0,0,1,0,1.153Zm-12.011,0h-6a.576.576,0,1,1,0-1.153h6a.576.576,0,1,1,0,1.153Zm-12.009,0h-6.006a.576.576,0,1,1,0-1.153h6.006a.576.576,0,0,1,0,1.153Zm-12.01,0h-6.005a.576.576,0,1,1,0-1.153h6.005a.576.576,0,1,1,0,1.153Zm-12.011,0h-6a.576.576,0,0,1,0-1.153h6a.576.576,0,1,1,0,1.153Zm-12.009,0h-6.006a.576.576,0,0,1,0-1.153h6.006a.576.576,0,1,1,0,1.153Z" transform="translate(-538.412 -396.886)"/>
      </g>
      <g id="Group_61" data-name="Group 61" transform="translate(419.717 313.301)">
        <path id="Path_83" data-name="Path 83" d="M659.227,427.963a.575.575,0,0,1-.394-.155,53.031,53.031,0,0,0-26.572-13.227c-.611,1.727-2.919,7.813-6.049,10.724a.577.577,0,1,1-.786-.846c3.378-3.14,5.873-10.622,5.9-10.7a.583.583,0,0,1,.611-.393,53.849,53.849,0,0,1,27.688,13.6.577.577,0,0,1-.395,1Z" transform="translate(-625.242 -413.366)"/>
      </g>
      <g id="Group_62" data-name="Group 62" transform="translate(431.108 324.672)">
        <path id="Path_84" data-name="Path 84" d="M655.865,455.064a6.823,6.823,0,0,1-4.975-2.276,1.819,1.819,0,0,1-.391-1.761,13.689,13.689,0,0,1,1.182-2.222,21.029,21.029,0,0,0,3.473-9.782.544.544,0,0,1,.624-.525.578.578,0,0,1,.525.625,22.326,22.326,0,0,1-3.636,10.279,12.986,12.986,0,0,0-1.082,2.015c-.08.223.108.52.227.679a5.718,5.718,0,0,0,4.314,1.809.541.541,0,0,1,.612.537.575.575,0,0,1-.537.612C656.089,455.06,655.978,455.064,655.865,455.064Z" transform="translate(-650.411 -438.494)"/>
      </g>
      <g id="Group_63" data-name="Group 63" transform="translate(436.422 378.213)">
        <path id="Path_85" data-name="Path 85" d="M662.733,600.138a.575.575,0,0,1-.577-.576V557.385a.576.576,0,1,1,1.153,0v42.177A.575.575,0,0,1,662.733,600.138Z" transform="translate(-662.156 -556.808)"/>
      </g>
      <g id="Group_64" data-name="Group 64" transform="translate(363.576 311.213)">
        <path id="Path_86" data-name="Path 86" d="M509.876,425.574a.571.571,0,0,1-.346-.116c-6.579-4.951-9.651-10.4-7.829-13.874.853-1.628,2.176-2.47,4.421-2.821a.571.571,0,0,1,.659.482.579.579,0,0,1-.482.659c-1.868.291-2.9.933-3.578,2.217-1.521,2.9,1.492,7.9,7.5,12.417a.576.576,0,0,1-.346,1.037Z" transform="translate(-501.182 -408.753)"/>
      </g>
      <g id="Group_65" data-name="Group 65" transform="translate(376.86 330.205)">
        <path id="Path_87" data-name="Path 87" d="M543.881,456.473a36.822,36.822,0,0,1-12.223-4.23q-.415-.216-.823-.441a.577.577,0,0,1,.557-1.011c.263.146.531.29.8.431a35.828,35.828,0,0,0,11.765,4.1.577.577,0,0,1-.076,1.148Z" transform="translate(-530.536 -450.72)"/>
      </g>
      <g id="Group_66" data-name="Group 66" transform="translate(394.903 321.842)">
        <path id="Path_88" data-name="Path 88" d="M575.875,442.3a.589.589,0,0,1-.573-.639c.256-2.31-1.419-5.3-4.716-8.423a.577.577,0,1,1,.795-.837c3.563,3.377,5.364,6.71,5.068,9.387A.577.577,0,0,1,575.875,442.3Z" transform="translate(-570.407 -432.24)"/>
      </g>
      <g id="Group_67" data-name="Group 67" transform="translate(441.597 339.013)">
        <path id="Path_89" data-name="Path 89" d="M674.447,476.84a.576.576,0,0,1-.562-.45c-.125-.554-1.142-5.431,1.523-6.105a2.251,2.251,0,0,1,2.251.476c.981.962.975,2.831.671,4.138a.576.576,0,0,1-1.122-.262c.254-1.094.214-2.5-.357-3.052-.093-.095-.384-.382-1.16-.181-1.246.315-1,3.324-.68,4.733a.579.579,0,0,1-.436.689A.611.611,0,0,1,674.447,476.84Z" transform="translate(-673.591 -470.185)"/>
      </g>
      <g id="Group_68" data-name="Group 68" transform="translate(333.68 264.479)">
        <path id="Path_90" data-name="Path 90" d="M435.695,360.818a.576.576,0,0,1-.577-.576V306.057a.577.577,0,0,1,1.153,0v54.185A.576.576,0,0,1,435.695,360.818Z" transform="translate(-435.118 -305.48)"/>
      </g>
      <g id="Group_69" data-name="Group 69" transform="translate(441.949 328.246)">
        <path id="Path_91" data-name="Path 91" d="M679.5,451.5c-.139-.017-4.7-1.139-4.7-1.139a.577.577,0,0,1-.191-1.034l4.073-2.833a.577.577,0,0,1,.659.948l-3.026,2.1,3.319.817a.577.577,0,0,1-.138,1.136Z" transform="translate(-674.369 -446.393)"/>
      </g>
    </g>
    <rect id="Rectangle_9707" data-name="Rectangle 9707" width="408" height="306" transform="translate(756 3476)" fill="none"/>
  </g>
</svg>
