<svg xmlns="http://www.w3.org/2000/svg" width="408" height="306" viewBox="0 0 408 306">
  <g id="Group_45566" data-name="Group 45566" transform="translate(-694 -234)">
    <g id="Group_45220" data-name="Group 45220" transform="translate(-33 3)">
      <g id="Group_22533" data-name="Group 22533" transform="translate(751 244)">
        <g id="Group_22532" data-name="Group 22532">
          <path id="Rectangle_8850" data-name="Rectangle 8850" d="M23.734,0H149.9a23.734,23.734,0,0,1,23.734,23.734V90.857A23.734,23.734,0,0,1,149.9,114.591H23.733A23.733,23.733,0,0,1,0,90.858V23.734A23.734,23.734,0,0,1,23.734,0Z" transform="translate(4.858 72.889)" fill="#fff"/>
          <g id="Group_22531" data-name="Group 22531">
            <g id="Group_22445" data-name="Group 22445" transform="translate(170.726 176.905)">
              <path id="Path_25647" data-name="Path 25647" d="M1789.775,1371.843c-2.328-1.458-7.737-3.539-10.967-3.539h-68.294c-6.13,0-11.555,3.283-13.41,8.114l-17.991,46.859a9.792,9.792,0,0,0,1.116,9.182l6.719,4.923s4.513,2.839,7.288,2.839h15.542l67.721-41.076Z" transform="translate(-1678.018 -1367.879)" fill="#fff"/>
              <path id="Path_25648" data-name="Path 25648" d="M1709.248,1440.115h-15.542c-2.866,0-7.328-2.784-7.515-2.9l-6.744-4.941a10.166,10.166,0,0,1-1.263-9.678l17.99-46.861c1.929-5.015,7.479-8.384,13.809-8.384h68.293c3.322,0,8.848,2.134,11.192,3.6a.424.424,0,0,1,.162.536l-12.276,27.3a.408.408,0,0,1-.165.189l-67.72,41.075A.425.425,0,0,1,1709.248,1440.115Zm-29.238-8.485,6.658,4.879c.02.009,4.417,2.754,7.038,2.754h15.423l67.5-40.945,12.066-26.84c-2.408-1.4-7.391-3.28-10.423-3.28h-68.293c-5.981,0-11.212,3.15-13.015,7.84l-17.99,46.862A9.336,9.336,0,0,0,1680.009,1431.63Z" transform="translate(-1677.487 -1367.348)"/>
            </g>
            <rect id="Rectangle_8851" data-name="Rectangle 8851" width="90.641" height="90.641" rx="21.908" transform="translate(243.873 49.053)" fill="#1a1a1a"/>
            <rect id="Rectangle_8852" data-name="Rectangle 8852" width="15.44" height="13.673" rx="5.545" transform="translate(274.611 99.103)" fill="#fff"/>
            <path id="Path_25649" data-name="Path 25649" d="M1491.7,1374.269s-9.378,2.608-18.835,20.455-11.715,28.569-13.167,36.614.162,18.909,2.42,22.392h43.69a6.006,6.006,0,0,1,4.313-2.478c2.985-.333,53.287,0,53.287,0s-.756-8.723,3.273-11.466l-6.38-4.72-6.211.122s-1-15.6-1.951-24.906a55.842,55.842,0,0,0-9.314-25.378c-5.032-7.562-13.022-13.893-22.984-14.4S1491.7,1374.269,1491.7,1374.269Z" transform="translate(-1385.441 -1182.145)" fill="#dc4867"/>
            <path id="Path_25650" data-name="Path 25650" d="M1572.873,1328.851l.149-7.277s4.191.363,5.741-2.726,1.563-9.1,1.506-12.871-.513-10.482-.513-10.482-.468,2.352-4.768,2.381-9.789-.271-11.779,2.311l-1.226,3.668s-4.852-1.655-6.438,3.363,4.249,5.912,6.186,4.954c0,0,4.511,4.386,5.214,8.693s-.47,10.5-2.667,11.855c0,0,4.069,5.978,6.327,5.776S1572.873,1328.851,1572.873,1328.851Z" transform="translate(-1438.856 -1140.491)" fill="#fff"/>
            <path id="Path_25651" data-name="Path 25651" d="M1726.333,1537.93a7.725,7.725,0,0,0-1.773-5.231,34.724,34.724,0,0,0-4.689-4.427h-17.111s-5.586-.961-5.834-1.808c0,0-4.039,2.359-3.273,11.466H1710.6s.515-1.825-1.946-2.551-5.633-1.658-5.633-1.658a3.327,3.327,0,0,1,2.043-.682,9.693,9.693,0,0,1,5.292,1.573,9.88,9.88,0,0,1,2.5,3.318Z" transform="translate(-1515.689 -1268.823)" fill="#fff"/>
            <path id="Path_25652" data-name="Path 25652" d="M1597.431,1518.839s-2.523-6.889-8.525-6.83l5.375,6.3s-4.446.3-5.543-.358l-5.293-5.288a53.35,53.35,0,0,0-6.344,2.627c-2.3,1.247-4.593,1.6-10.16,1.139,0,0-3.873,2.566-4.6,6.741a24.6,24.6,0,0,0,.689,9.2,4.142,4.142,0,0,1,3.748-2.3c2.743,0,23.016-.457,23.016-.457a6.575,6.575,0,0,0,4.463-2.229s2.889-.62,3.65-1.923a5.044,5.044,0,0,0,.787-2.126,2.175,2.175,0,0,0,1.034-2.008C1599.494,1520.127,1597.431,1518.839,1597.431,1518.839Z" transform="translate(-1442.668 -1260.791)" fill="#fff"/>
            <path id="Path_25653" data-name="Path 25653" d="M1345.578,1363.533s8.992-19.624,11.364-25.489,8.052-19.684,10.332-28.536,4.6-16.81,3.3-23.376-8.61-6.141-11.056-4.956-7.986,6.773-7.986,6.773.91-12.419,1.423-21.7.416-19.784-2.723-27.277-9.373-7.741-12.669-4.955-8.138,10.135-9.307,27.88,0,39.754.693,47.669,2.248,22.184,2.248,22.184-3.157-10.438-7.506-16.55-7.479-6.667-10.432-5.542-3.266,8.16-.858,15.254a322.148,322.148,0,0,0,13.822,31.682c3.348,6.154,3.727,6.822,3.727,6.822S1339.484,1364.4,1345.578,1363.533Z" transform="translate(-1303.019 -1105.425)" fill="#d5aaff"/>
            <path id="Path_25654" data-name="Path 25654" d="M1558.531,1285.976s2.731-2,1.3-6.81-6.048-5.506-12.1-6.152-14.249.233-18.058,3.8a11.993,11.993,0,0,0-3.967,7.571s2.371,11.882,2.944,15.936,1.674,7.932-1.673,9.183-9.5,1.646-10.226,7.264.992,6.472.992,6.472l5.863-3.227s8.784,4.325,15.015,2.409,7.245-7.564,7.194-10.63a16.216,16.216,0,0,0-3.377-9.661c-2.212-2.558-2.455-2.414-2.455-2.414s-4.061,1.479-5.782-3.147,3.931-6.1,6.215-5.066l1.315-4.229a7.076,7.076,0,0,1,5.055-1.946c3.388-.054,6.185.108,7.907-.376s3.532-1.347,3.836-2.663Z" transform="translate(-1417.352 -1127.89)" fill="#1a1a1a"/>
            <path id="Path_25655" data-name="Path 25655" d="M1595.256,1353.3l-.379,7.269,4.613.882a6.02,6.02,0,0,0,1.528-3.848c-.031-2.218-1.967-5.019-1.967-5.019S1595.98,1353.679,1595.256,1353.3Z" transform="translate(-1460.86 -1172.213)" fill="#1a1a1a"/>
            <path id="Path_25656" data-name="Path 25656" d="M1293.29,1127.5h173.673v-19.608s-1.353-8.892-9.645-8.892H1303.509s-8.946.029-10.132,8.892Z" transform="translate(-1293.29 -1031.311)" fill="#1a1a1a"/>
            <path id="Path_25657" data-name="Path 25657" d="M1754.018,1442.843h-39.947c-9.519,0-16.291-7.653-13.41-15.156l17.991-46.859c1.855-4.832,7.28-8.115,13.41-8.115h68.294c9.518,0,16.29,7.654,13.41,15.157l-17.991,46.859c-1.855,4.832-7.28,8.114-13.41,8.114h-28.346Z" transform="translate(-1519.265 -1193.424)" fill="#d5aaff"/>
            <path id="Path_25658" data-name="Path 25658" d="M1643.06,1543.739l-1.685-4.569s-1.361,2.621-2.807,2.7Z" transform="translate(-1485.136 -1275.883)" fill="#3552ff"/>
            <path id="Path_25659" data-name="Path 25659" d="M1616.309,1510.474l-12.1-12.877-3.025,2.5,8.551,9.6Z" transform="translate(-1464.364 -1252.784)" fill="#3552ff"/>
            <path id="Path_25660" data-name="Path 25660" d="M1663.35,1561.153h-95.236a3.952,3.952,0,0,1-3.963-4.243c0-4.269,3.748-4.242,3.748-4.242h105.622v2.644h-28.334s17.724.971,18.246,3.453Z" transform="translate(-1443.788 -1283.383)" fill="#d5d5d5"/>
            <path id="Path_25661" data-name="Path 25661" d="M1805.847,1451.661l5-12.855s1.183-2.528-2.743-3.98l-20.761-.107a3.811,3.811,0,0,0-3.254,2.649c-1.13,2.663-5.229,13.07-5.229,13.07a3.788,3.788,0,0,0,3.414,3.983,35.662,35.662,0,0,0,7.753,0s-2.125-7.526-2.055-7.692.151-4.481.151-4.481l13.271-.018S1805.094,1446.713,1805.847,1451.661Z" transform="translate(-1563.086 -1227.876)" fill="#1a1a1a"/>
            <path id="Path_25662" data-name="Path 25662" d="M1742.226,1567.595l11.91,7.752,62.52-.024s1.873-.837,2.3-1.7v3.89s-.439,1.775-1.944,1.863h-62.978l-11.339-7.15a2.364,2.364,0,0,1-.458-1.506C1742.319,1569.917,1742.226,1567.595,1742.226,1567.595Z" transform="translate(-1542.732 -1301.706)" fill="#d5d5d5"/>
            <path id="Path_25663" data-name="Path 25663" d="M1807.454,1558.355l11.083,7.291s1.334,2.082,0,3.362a2.966,2.966,0,0,1-2.383,1.078l-62,.011-11.438-7.446s-1.631-2.972,1.273-4.1l28.5-.193.145,6.123,3.259,2.017,12.8-.041.19-8.31Z" transform="translate(-1542.75 -1296.455)" fill="#1a1a1a"/>
            <path id="Path_25664" data-name="Path 25664" d="M1348.879,1516.4l2.422,4.636s-7.22-.689-7.584-2.018S1348.879,1516.4,1348.879,1516.4Z" transform="translate(-1321.299 -1263.229)" fill="#1a1a1a"/>
            <path id="Path_25665" data-name="Path 25665" d="M1399.031,1516.4l-2.191,4.636s8.8-.528,9.037-2.281S1399.031,1516.4,1399.031,1516.4Z" transform="translate(-1350.825 -1263.229)" fill="#1a1a1a"/>
            <path id="Path_25666" data-name="Path 25666" d="M1343.2,1522.285l1.81,15.711h29.413l1.655-15.583s-4.044,2.489-16.439,2.489S1343.2,1522.285,1343.2,1522.285Z" transform="translate(-1321.022 -1266.501)" fill="#1a1a1a"/>
            <path id="Path_25667" data-name="Path 25667" d="M1647.856,1135.72a4.654,4.654,0,1,1-4.654-4.654A4.654,4.654,0,0,1,1647.856,1135.72Z" transform="translate(-1485.125 -1049.129)" fill="#fff"/>
            <path id="Path_25668" data-name="Path 25668" d="M1607.33,1135.72a4.654,4.654,0,1,1-4.654-4.654A4.654,4.654,0,0,1,1607.33,1135.72Z" transform="translate(-1462.608 -1049.129)" fill="#d5aafd"/>
            <circle id="Ellipse_268" data-name="Ellipse 268" cx="4.654" cy="4.654" r="4.654" transform="translate(117.405 81.937)" fill="#fff"/>
            <path id="Path_25669" data-name="Path 25669" d="M1799.71,1451.641s4.535,2.209,6.826,24.105,1.273,31.562,1.273,31.562l12.8-.04s.183-13.46-.688-26.979-2.673-24.345-6.936-28.666Z" transform="translate(-1574.671 -1237.268)" fill="#fff"/>
            <path id="Path_25670" data-name="Path 25670" d="M1799.71,1451.664v4.481s1.694,4.007,2.743,13.608,1.755,19.283,1.765,24.688.332,10.874.332,10.874l3.259,2.017s.075-13.03-.583-22.6-1.495-18.949-3.267-24.174S1802.049,1453.825,1799.71,1451.664Z" transform="translate(-1574.671 -1227.262)" fill="#1a1a1a"/>
            <path id="Path_25671" data-name="Path 25671" d="M1372.748,1287.948s.91-12.419,1.423-21.7.416-19.785-2.722-27.277-9.373-7.741-12.669-4.955-8.137,10.135-9.307,27.88,0,39.754.693,47.669,2.248,22.184,2.248,22.184l6.366,24.844s.495-10.3.9-16.266a198.929,198.929,0,0,1,4.74-31.229C1367.706,1294.817,1372.748,1287.948,1372.748,1287.948Z" transform="translate(-1324.23 -1105.425)" fill="#d5aafd"/>
            <path id="Path_25672" data-name="Path 25672" d="M1907.074,1185.079l-17.466,35.556s1.972,12.189,7.619,19.052H1917.8a44.361,44.361,0,0,0,7.044-18.819Zm.15,38.41a5.608,5.608,0,1,1,5.607-5.607A5.607,5.607,0,0,1,1907.224,1223.489Z" transform="translate(-1624.621 -1079.14)" fill="#d5aaff"/>
            <path id="Path_25673" data-name="Path 25673" d="M1768.119,1179.885a5.947,5.947,0,1,1-5.947-5.948A5.947,5.947,0,0,1,1768.119,1179.885Z" transform="translate(-1550.51 -1072.95)" fill="#1a1a1a"/>
            <path id="Path_25674" data-name="Path 25674" d="M2085.448,1179.885a5.947,5.947,0,1,1-5.947-5.948A5.947,5.947,0,0,1,2085.448,1179.885Z" transform="translate(-1726.827 -1072.95)" fill="#1a1a1a"/>
            <rect id="Rectangle_8853" data-name="Rectangle 8853" width="24.524" height="7.616" rx="3.808" transform="translate(270.186 163.726)" fill="#1a1a1a"/>
            <path id="Path_25675" data-name="Path 25675" d="M1724.673,1546.161a8.266,8.266,0,0,0-3.4-4.148c-2.541-1.493-5.814-.251-5.814-.251s.086.493,2.788.977,5.257.988,4.6,3.6Z" transform="translate(-1527.859 -1277.054)" fill="#1a1a1a"/>
            <path id="Path_25676" data-name="Path 25676" d="M1590.624,1282.47v3.685s2.731-2,1.3-6.81-6.048-5.506-12.1-6.151c-.189-.02-.386-.034-.579-.052,4.337.547,8.4,5.832,7.972,8.173s-4.679,2.491-8.176,2.921a7.3,7.3,0,0,0-4.71,2.773,7.472,7.472,0,0,1,4.549-1.5c3.388-.054,6.185.107,7.907-.376S1590.319,1283.786,1590.624,1282.47Z" transform="translate(-1449.445 -1128.07)" fill="#fff"/>
            <path id="Path_25677" data-name="Path 25677" d="M1561.455,1345.726a16.215,16.215,0,0,0-3.377-9.661,20.678,20.678,0,0,0-2.067-2.174c1.064,2.885,7.31,21.645-10.042,22.017-.447.01-.858.026-1.25.045,2.925.8,6.531,1.33,9.542.4C1560.49,1354.439,1561.505,1348.792,1561.455,1345.726Z" transform="translate(-1432.99 -1161.824)" fill="#fff"/>
            <path id="Path_25678" data-name="Path 25678" d="M1600.364,1361.008c-.028.026,2.174.448,2.174.448a6.023,6.023,0,0,0,1.528-3.848c-.031-2.218-1.968-5.019-1.968-5.019l-1.734.82S1603.268,1358.542,1600.364,1361.008Z" transform="translate(-1463.909 -1172.213)" fill="#fff"/>
            <g id="Group_22446" data-name="Group 22446" transform="translate(9.864 271.159)">
              <path id="Path_25679" data-name="Path 25679" d="M1425.987,1557.735H1315.912a.426.426,0,0,1,0-.851h110.074a.426.426,0,1,1,0,.851Z" transform="translate(-1315.487 -1556.884)"/>
            </g>
            <g id="Group_22447" data-name="Group 22447" transform="translate(174.593 178.864)">
              <path id="Path_25680" data-name="Path 25680" d="M1768.994,1442.739h-11.762a.426.426,0,0,1,0-.851h11.762c5.984,0,11.212-3.15,13.008-7.843l17.992-46.861a9.34,9.34,0,0,0-1.117-8.86c-2.459-3.579-6.9-5.716-11.892-5.716h-68.3c-5.984,0-11.212,3.151-13.009,7.844l-17.995,46.858a9.347,9.347,0,0,0,1.122,8.863,14.22,14.22,0,0,0,11.891,5.715h39.949a.426.426,0,0,1,0,.851H1700.7a15.069,15.069,0,0,1-12.592-6.085,10.178,10.178,0,0,1-1.215-9.652l17.992-46.858c1.927-5.015,7.474-8.387,13.807-8.387h68.3a15.065,15.065,0,0,1,12.592,6.085,10.176,10.176,0,0,1,1.215,9.649l-17.992,46.861C1780.873,1439.367,1775.326,1442.739,1768.994,1442.739Z" transform="translate(-1686.188 -1371.757)"/>
            </g>
            <g id="Group_22448" data-name="Group 22448" transform="translate(215.351 216.43)">
              <path id="Path_25681" data-name="Path 25681" d="M1789.376,1454.294h-7.084a4.544,4.544,0,0,1-3.794-1.844,3.212,3.212,0,0,1-.375-3l5.059-13.175a4.367,4.367,0,0,1,4.17-2.553h19.2a4.545,4.545,0,0,1,3.795,1.844,3.193,3.193,0,0,1,.369,3l-5.053,13.174a.428.428,0,0,1-.8-.307l5.056-13.174a2.325,2.325,0,0,0-.278-2.208,3.74,3.74,0,0,0-3.091-1.474h-19.2a3.52,3.52,0,0,0-3.375,2.009l-5.057,13.175a2.326,2.326,0,0,0,.281,2.207,3.739,3.739,0,0,0,3.091,1.475h7.084a.425.425,0,1,1,0,.851Z" transform="translate(-1777.91 -1433.725)"/>
            </g>
            <g id="Group_22449" data-name="Group 22449" transform="translate(224.546 223.959)">
              <path id="Path_25682" data-name="Path 25682" d="M1807.194,1507.167a.424.424,0,0,1-.426-.426c0-52.5-7.766-55.213-7.843-55.234a.435.435,0,0,1-.314-.508.428.428,0,0,1,.479-.328c.349.062,8.529,2.119,8.529,56.07A.424.424,0,0,1,1807.194,1507.167Z" transform="translate(-1798.601 -1450.668)"/>
            </g>
            <g id="Group_22450" data-name="Group 22450" transform="translate(224.462 228.459)">
              <path id="Path_25683" data-name="Path 25683" d="M1803.684,1510.778a.425.425,0,0,1-.426-.423c-.21-32.439-3.109-44.612-4.817-48.983a.425.425,0,1,1,.792-.307c1.732,4.421,4.666,16.706,4.876,49.285a.422.422,0,0,1-.423.428Z" transform="translate(-1798.412 -1460.794)"/>
            </g>
            <g id="Group_22451" data-name="Group 22451" transform="translate(229.308 213.93)">
              <path id="Path_25684" data-name="Path 25684" d="M1826.134,1507.167H1812.9a.422.422,0,0,1-.228-.068l-3.159-2.016a.424.424,0,0,1,.455-.715l3.055,1.948h12.682c-.041-52.089-7.764-54.787-7.841-54.808a.434.434,0,0,1-.313-.508.424.424,0,0,1,.479-.328c.349.062,8.526,2.119,8.526,56.07A.424.424,0,0,1,1826.134,1507.167Z" transform="translate(-1809.318 -1450.668)"/>
            </g>
            <g id="Group_22452" data-name="Group 22452" transform="translate(224.536 223.958)">
              <path id="Path_25685" data-name="Path 25685" d="M1799,1456.178a.424.424,0,0,1-.426-.425v-4.663a.424.424,0,0,1,.426-.426h12.988a.426.426,0,1,1,0,.851h-12.563v4.238A.423.423,0,0,1,1799,1456.178Z" transform="translate(-1798.578 -1450.664)"/>
            </g>
            <g id="Group_22453" data-name="Group 22453" transform="translate(199.074 261.475)">
              <path id="Path_25686" data-name="Path 25686" d="M1815.792,1570.254h-61.608a3.169,3.169,0,0,1-1.72-.505l-9.708-6.215a3.187,3.187,0,0,1,1.72-5.872H1771.7a.425.425,0,1,1,0,.851h-27.227a2.337,2.337,0,0,0-1.259,4.306l9.708,6.215a2.319,2.319,0,0,0,1.259.369h61.608a2.339,2.339,0,0,0,1.259-4.309l-9.708-6.215a2.342,2.342,0,0,0-1.259-.367h-17.755a.425.425,0,0,1,0-.851h17.755a3.212,3.212,0,0,1,1.717.5l9.711,6.218a3.189,3.189,0,0,1-1.72,5.875Z" transform="translate(-1741.279 -1557.662)"/>
            </g>
            <g id="Group_22454" data-name="Group 22454" transform="translate(199.155 269.044)">
              <path id="Path_25687" data-name="Path 25687" d="M1815.894,1583.838h-61.608a3.211,3.211,0,0,1-1.717-.5l-9.711-6.218a3.135,3.135,0,0,1-1.383-1.894.428.428,0,0,1,.31-.517.418.418,0,0,1,.517.31,2.294,2.294,0,0,0,1.017,1.386l9.708,6.215a2.339,2.339,0,0,0,1.259.367h61.608a2.284,2.284,0,0,0,2.267-1.776.411.411,0,0,1,.517-.31.427.427,0,0,1,.31.517A3.145,3.145,0,0,1,1815.894,1583.838Z" transform="translate(-1741.463 -1574.695)"/>
            </g>
            <g id="Group_22455" data-name="Group 22455" transform="translate(199.162 265.196)">
              <path id="Path_25688" data-name="Path 25688" d="M1741.9,1570.737a.424.424,0,0,1-.426-.426v-3.85a.425.425,0,1,1,.851,0v3.85A.424.424,0,0,1,1741.9,1570.737Z" transform="translate(-1741.478 -1566.035)"/>
            </g>
            <g id="Group_22456" data-name="Group 22456" transform="translate(275.794 271.496)">
              <path id="Path_25689" data-name="Path 25689" d="M1914.355,1584.794a.424.424,0,0,1-.426-.426v-3.73a.426.426,0,1,1,.851,0v3.73A.424.424,0,0,1,1914.355,1584.794Z" transform="translate(-1913.929 -1580.213)"/>
            </g>
            <g id="Group_22457" data-name="Group 22457" transform="translate(116.183 162.709)">
              <path id="Path_25690" data-name="Path 25690" d="M1559.613,1322.553a5.184,5.184,0,0,1-.638-.042,4.863,4.863,0,1,1,3.854-8.467.426.426,0,1,1-.564.639,3.96,3.96,0,0,0-2.134-.97,4.01,4.01,0,1,0-1.043,7.953,3.889,3.889,0,0,0,2.122-.3.426.426,0,1,1,.343.78A4.805,4.805,0,0,1,1559.613,1322.553Z" transform="translate(-1554.745 -1312.832)"/>
            </g>
            <g id="Group_22458" data-name="Group 22458" transform="translate(119.494 164.549)">
              <path id="Path_25691" data-name="Path 25691" d="M1562.621,1322.6a.426.426,0,0,1-.236-.78l2.677-1.791-2.707-2.3a.427.427,0,0,1,.552-.65l3.136,2.666a.426.426,0,0,1-.04.679l-3.146,2.1A.431.431,0,0,1,1562.621,1322.6Z" transform="translate(-1562.196 -1316.973)"/>
            </g>
            <g id="Group_22459" data-name="Group 22459" transform="translate(185.565 0)">
              <path id="Path_25692" data-name="Path 25692" d="M1717.854,960.595c-.2,0-.411-.009-.618-.027a6.952,6.952,0,1,1,.618.027Zm-.024-13.068a6.123,6.123,0,1,0,.538.023C1718.188,947.534,1718.008,947.527,1717.831,947.527Z" transform="translate(-1710.88 -946.677)"/>
            </g>
            <g id="Group_22460" data-name="Group 22460" transform="translate(98.684 144.524)">
              <path id="Path_25693" data-name="Path 25693" d="M1517.529,1323.162a.432.432,0,0,1-.214-.057c-1.546-.9-2.206-2.937-1.857-5.739s1.466-4.817,3.314-6.005a8.261,8.261,0,0,1,1.355-.691,20.049,20.049,0,0,1,2.5-.771,9.621,9.621,0,0,0,4.33-1.906,4.593,4.593,0,0,0,1.179-4.067,198.263,198.263,0,0,0-3.508-19.939,10.362,10.362,0,0,1,4.813-8.514c7.217-4.856,17.584-3.591,21.711-2.823,2.9.544,6.9,1.631,8.09,4.817a9.12,9.12,0,0,1-.718,8.3.42.42,0,0,1-.592.112.426.426,0,0,1-.114-.591,8.266,8.266,0,0,0,.626-7.518c-1.042-2.781-4.75-3.774-7.448-4.276-4.019-.756-14.123-2-21.078,2.692a9.543,9.543,0,0,0-4.448,7.657c.182.736,1.85,7.645,3.513,19.975a5.432,5.432,0,0,1-1.446,4.8,10.416,10.416,0,0,1-4.693,2.1,19.66,19.66,0,0,0-2.392.733,7.885,7.885,0,0,0-1.216.62c-1.626,1.046-2.611,2.861-2.929,5.4-.176,1.413-.224,3.93,1.441,4.894a.427.427,0,0,1-.214.795Z" transform="translate(-1515.366 -1271.91)"/>
            </g>
            <g id="Group_22461" data-name="Group 22461" transform="translate(85.766 251.655)">
              <path id="Path_25694" data-name="Path 25694" d="M1486.722,1522.068a.427.427,0,0,1-.269-.757c14.983-12.217,44.9-7.385,45.2-7.332a.425.425,0,0,1-.142.839c-.3-.047-29.833-4.823-44.518,7.155A.433.433,0,0,1,1486.722,1522.068Z" transform="translate(-1486.296 -1512.993)"/>
            </g>
            <g id="Group_22462" data-name="Group 22462" transform="translate(73.243 191.696)">
              <path id="Path_25695" data-name="Path 25695" d="M1461.545,1458.377a.424.424,0,0,1-.379-.231c-8.744-16.91,3.134-47.391,12.677-62.631a87.115,87.115,0,0,1,7.357-10.4c2.59-3.041,6.158-5.051,9.891-7.007a.427.427,0,0,1,.4.757c-3.8,1.989-7.144,3.875-9.64,6.8a87.288,87.288,0,0,0-7.283,10.3c-9.442,15.084-21.223,45.195-12.641,61.792a.426.426,0,0,1-.183.573A.417.417,0,0,1,1461.545,1458.377Z" transform="translate(-1458.115 -1378.062)"/>
            </g>
            <g id="Group_22463" data-name="Group 22463" transform="translate(133.944 187.942)">
              <path id="Path_25696" data-name="Path 25696" d="M1629.414,1435.021a.427.427,0,0,1-.426-.4c-.13-2.471-.316-4.968-.5-7.379-.154-2.054-.308-4.108-.43-6.171-.627-10.579-1.824-22.743-8.164-33.214-3.891-6.431-10.8-14.554-21.641-16.76-.882-.18-3.543-.641-3.543-.641l.144-.839s2.679.467,3.569.647c11.138,2.264,18.221,10.577,22.2,17.149,6.438,10.639,7.653,22.924,8.285,33.6.121,2.06.275,4.11.428,6.159.18,2.421.367,4.92.5,7.4a.426.426,0,0,1-.4.449Z" transform="translate(-1594.714 -1369.616)"/>
            </g>
            <g id="Group_22464" data-name="Group 22464" transform="translate(128.095 154.352)">
              <path id="Path_25697" data-name="Path 25697" d="M1588.121,1321.194c-.391,0-.807-.02-1.25-.056-1.426-.124-3.519-.375-4.979-.671a.424.424,0,0,1-.334-.5.419.419,0,0,1,.5-.334c1.426.287,3.48.535,4.882.653a8.584,8.584,0,0,0,3.433-.252,4.922,4.922,0,0,0,3.168-3.508c1.028-3.132.974-6.534.922-9.823l-.019-1.241c-.042-2.858-.127-8.8-.194-11a.425.425,0,0,1,.412-.437.415.415,0,0,1,.439.414c.068,2.2.153,8.151.193,11.011l.019,1.238c.053,3.36.109,6.835-.963,10.1a5.706,5.706,0,0,1-3.721,4.052A8.239,8.239,0,0,1,1588.121,1321.194Z" transform="translate(-1581.55 -1294.026)"/>
            </g>
            <path id="Path_25698" data-name="Path 25698" d="M1588.4,1313.785c.34-.053.567.092.665,1.317.109,1.366-.245,1.606-.551,1.594s-.614-.434-.6-1.409S1587.955,1313.856,1588.4,1313.785Z" transform="translate(-1456.992 -1150.648)"/>
            <path id="Path_25699" data-name="Path 25699" d="M1607.639,1312.528c.338-.065.571.073.71,1.294.155,1.362-.191,1.614-.5,1.612s-.628-.413-.646-1.388S1607.2,1312.614,1607.639,1312.528Z" transform="translate(-1467.708 -1149.947)"/>
            <g id="Group_22465" data-name="Group 22465" transform="translate(137.877 158.652)">
              <path id="Path_25700" data-name="Path 25700" d="M1606.866,1305.174a.421.421,0,0,1-.28-.1,2.448,2.448,0,0,0-2.488-.369.412.412,0,0,1-.52-.3.423.423,0,0,1,.3-.517,3.259,3.259,0,0,1,3.263.547.426.426,0,0,1-.279.747Z" transform="translate(-1603.564 -1303.701)"/>
            </g>
            <g id="Group_22466" data-name="Group 22466" transform="translate(124.828 180.769)">
              <path id="Path_25701" data-name="Path 25701" d="M1581.314,1371.135c-2.366,0-6.222-4.7-7.023-5.71a.427.427,0,0,1,.069-.6.434.434,0,0,1,.6.068c1.989,2.509,5.327,5.8,6.587,5.352,1.439-.559,1.633-5.908,1.415-9.15l.38-7.219a.435.435,0,0,1,.448-.4.427.427,0,0,1,.4.449l-.38,7.167c.1,1.454.477,9-1.959,9.947A1.482,1.482,0,0,1,1581.314,1371.135Z" transform="translate(-1574.199 -1353.474)"/>
            </g>
            <g id="Group_22467" data-name="Group 22467" transform="translate(137.522 179.951)">
              <path id="Path_25702" data-name="Path 25702" d="M1604.173,1360.986a.443.443,0,0,1-.247-.077.426.426,0,0,1-.1-.594c2.828-3.987-.9-7.923-.94-7.962a.425.425,0,1,1,.612-.591c.043.044,4.256,4.489,1.023,9.043A.423.423,0,0,1,1604.173,1360.986Z" transform="translate(-1602.766 -1351.633)"/>
            </g>
            <g id="Group_22468" data-name="Group 22468" transform="translate(122.641 152.814)">
              <path id="Path_25703" data-name="Path 25703" d="M1569.7,1301.8c-.328-.065-.468-.3-.414-.526.26-1.082.917-3.656,1.406-4.129,2.363-2.287,6.021-2.37,9.248-2.441,3.889-.088,7.248-.163,7.731-3.762a.407.407,0,0,1,.479-.367.427.427,0,0,1,.366.479c-.581,4.321-4.635,4.412-8.557,4.5-3.222.071-6.552.145-8.677,2.2a18.562,18.562,0,0,0-1.169,3.718A.425.425,0,0,1,1569.7,1301.8Z" transform="translate(-1569.276 -1290.565)"/>
            </g>
            <g id="Group_22469" data-name="Group 22469" transform="translate(105.991 171.404)">
              <path id="Path_25704" data-name="Path 25704" d="M1543.687,1356.357a30.717,30.717,0,0,1-11.636-2.854.426.426,0,0,1-.2-.567.419.419,0,0,1,.569-.2c.107.053,10.706,5.077,16.919,1.43,2.708-1.587,4.222-4.625,4.495-9.031.356-5.706-3.641-10.526-5.633-11.966a.426.426,0,0,1-.1-.594.434.434,0,0,1,.6-.1c2.115,1.531,6.361,6.649,5.984,12.71-.294,4.708-1.947,7.976-4.917,9.714A11.935,11.935,0,0,1,1543.687,1356.357Z" transform="translate(-1531.81 -1332.399)"/>
            </g>
            <g id="Group_22470" data-name="Group 22470" transform="translate(102.888 212.777)">
              <path id="Path_25705" data-name="Path 25705" d="M1525.426,1466.073a.425.425,0,0,1-.424-.384c-1.473-14.935,6.819-39.645,6.9-39.893a.417.417,0,0,1,.539-.266.423.423,0,0,1,.268.538c-.083.246-8.319,24.783-6.862,39.538a.424.424,0,0,1-.383.464A.188.188,0,0,1,1525.426,1466.073Z" transform="translate(-1524.826 -1425.503)"/>
            </g>
            <g id="Group_22471" data-name="Group 22471" transform="translate(131.083 170.972)">
              <path id="Path_25706" data-name="Path 25706" d="M1591.507,1335.122a3,3,0,0,1-1.743-.514,4.03,4.03,0,0,1-1.487-2.7.425.425,0,0,1,.383-.464.392.392,0,0,1,.465.381,3.2,3.2,0,0,0,1.126,2.09,2.718,2.718,0,0,0,2.315.2.426.426,0,1,1,.225.821A4.893,4.893,0,0,1,1591.507,1335.122Z" transform="translate(-1588.275 -1331.427)"/>
            </g>
            <g id="Group_22472" data-name="Group 22472" transform="translate(119.089 252.617)">
              <path id="Path_25707" data-name="Path 25707" d="M1562.559,1534.552a.426.426,0,0,1-.414-.328,21.428,21.428,0,0,1-.669-8.514c1.115-7.042,6.811-10.677,11.512-10.547a7.826,7.826,0,0,1,4.131,1.318.424.424,0,0,1,.158.579.419.419,0,0,1-.581.16,7.046,7.046,0,0,0-3.736-1.206c-4.394-.124-9.606,3.271-10.643,9.832a20.375,20.375,0,0,0,.655,8.183.424.424,0,0,1-.316.512A.364.364,0,0,1,1562.559,1534.552Z" transform="translate(-1561.285 -1515.158)"/>
            </g>
            <g id="Group_22473" data-name="Group 22473" transform="translate(155.128 252.624)">
              <path id="Path_25708" data-name="Path 25708" d="M1642.809,1518.615a.426.426,0,0,1-.125-.833,67.4,67.4,0,0,1,19.239-2.609.426.426,0,0,1,.006.851,66.551,66.551,0,0,0-18.993,2.574A.454.454,0,0,1,1642.809,1518.615Z" transform="translate(-1642.384 -1515.173)"/>
            </g>
            <g id="Group_22474" data-name="Group 22474" transform="translate(177.363 257.043)">
              <path id="Path_25709" data-name="Path 25709" d="M1693.023,1537.608a.426.426,0,0,1-.423-.369,16.828,16.828,0,0,1,.016-5,12,12,0,0,1,3.379-7,.425.425,0,1,1,.6.6,11.182,11.182,0,0,0-3.137,6.528,15.965,15.965,0,0,0-.013,4.755.426.426,0,0,1-.366.479A.357.357,0,0,1,1693.023,1537.608Z" transform="translate(-1692.422 -1525.117)"/>
            </g>
            <g id="Group_22475" data-name="Group 22475" transform="translate(149.369 210.049)">
              <path id="Path_25710" data-name="Path 25710" d="M1629.851,1461.969c-.34-.077-.473-.313-.411-.538,7.121-25.781,1.492-41.338,1.434-41.492a.427.427,0,0,1,.25-.549.433.433,0,0,1,.548.248c.059.157,5.789,15.946-1.411,42.018A.426.426,0,0,1,1629.851,1461.969Z" transform="translate(-1629.426 -1419.365)"/>
            </g>
            <g id="Group_22476" data-name="Group 22476" transform="translate(119.938 268.86)">
              <path id="Path_25711" data-name="Path 25711" d="M1662.819,1561.045h-94.958a4.668,4.668,0,1,1,0-9.335h104.682a.426.426,0,0,1,0,.851H1567.862a3.817,3.817,0,0,0,0,7.633h94.958a.425.425,0,1,1,0,.851Z" transform="translate(-1563.194 -1551.71)"/>
            </g>
            <g id="Group_22477" data-name="Group 22477" transform="translate(136.676 160.044)">
              <path id="Path_25712" data-name="Path 25712" d="M1602.549,1318.845a.425.425,0,0,1-.218-.792,5.112,5.112,0,0,0,1.575-3.1,15.215,15.215,0,0,0-2.318-.317.425.425,0,0,1-.411-.4l-.316-6.948a.426.426,0,0,1,.851-.041l.3,6.564c.415.029,1.123.088,1.946.215a.907.907,0,0,1,.785.768c.223,1.138-1.16,3.514-1.976,4A.416.416,0,0,1,1602.549,1318.845Z" transform="translate(-1600.861 -1306.835)"/>
            </g>
            <g id="Group_22486" data-name="Group 22486" transform="translate(123.391 244.318)">
              <g id="Group_22480" data-name="Group 22480" transform="translate(13.001)">
                <g id="Group_22478" data-name="Group 22478">
                  <path id="Path_25713" data-name="Path 25713" d="M1615.421,1510.282a.421.421,0,0,1-.316-.141l-11.363-12.634-2.488,2.2,8.187,9.037a.427.427,0,0,1-.632.573l-8.477-9.356a.437.437,0,0,1-.11-.31.43.43,0,0,1,.143-.3l3.128-2.76a.424.424,0,0,1,.6.036l11.645,12.947a.424.424,0,0,1-.316.709Z" transform="translate(-1600.222 -1496.483)"/>
                </g>
                <g id="Group_22479" data-name="Group 22479" transform="translate(16.588 18.074)">
                  <path id="Path_25714" data-name="Path 25714" d="M1642.57,1543.289a.45.45,0,0,1-.175-.035l-4.591-2.051a.427.427,0,0,1-.216-.564.438.438,0,0,1,.563-.216l3.738,1.673-1.337-4.392a.427.427,0,0,1,.283-.532.432.432,0,0,1,.532.284l1.609,5.284a.427.427,0,0,1-.126.443A.422.422,0,0,1,1642.57,1543.289Z" transform="translate(-1637.551 -1537.155)"/>
                </g>
              </g>
              <g id="Group_22481" data-name="Group 22481" transform="translate(18.358 11.076)">
                <path id="Path_25715" data-name="Path 25715" d="M1622.312,1530.009a28.433,28.433,0,0,1-8.822-1.734.427.427,0,0,1,.269-.81c7.87,2.636,11.179,1.54,12.24.952a2.151,2.151,0,0,0,1.14-1.321c.37-1.578-1.995-2.435-2.365-2.559-.866-.033-9.306-.408-12.3-2.344a.425.425,0,1,1,.461-.715c2.9,1.87,11.839,2.208,11.929,2.21.254.062,3.685,1.129,3.107,3.6a2.965,2.965,0,0,1-1.554,1.868A8.37,8.37,0,0,1,1622.312,1530.009Z" transform="translate(-1612.277 -1521.408)"/>
              </g>
              <g id="Group_22482" data-name="Group 22482" transform="translate(17.919 17.634)">
                <path id="Path_25716" data-name="Path 25716" d="M1617.721,1541.616a32.5,32.5,0,0,1-6.1-.618.427.427,0,0,1-.328-.505.419.419,0,0,1,.505-.328c.084.021,8.619,1.785,12.346-.872a3.79,3.79,0,0,0,1.646-2.751.4.4,0,0,1,.476-.369.427.427,0,0,1,.369.476,4.664,4.664,0,0,1-2,3.34C1622.862,1541.256,1620.186,1541.616,1617.721,1541.616Z" transform="translate(-1611.289 -1536.166)"/>
              </g>
              <g id="Group_22483" data-name="Group 22483" transform="translate(22.023 6.429)">
                <path id="Path_25717" data-name="Path 25717" d="M1630.034,1518.961a.425.425,0,0,1-.374-.222c-.02-.038-2.071-3.771-3.854-5.243a10.362,10.362,0,0,0-4.89-1.7.428.428,0,0,1-.391-.458.457.457,0,0,1,.457-.393,11.078,11.078,0,0,1,5.367,1.891c1.908,1.575,3.972,5.331,4.059,5.491a.427.427,0,0,1-.374.63Z" transform="translate(-1620.524 -1510.95)"/>
              </g>
              <g id="Group_22484" data-name="Group 22484" transform="translate(0 7.125)">
                <path id="Path_25718" data-name="Path 25718" d="M1576.514,1517.492a45.967,45.967,0,0,1-5.177-.337.426.426,0,0,1-.369-.476.42.42,0,0,1,.476-.369c2.2.278,8.2.742,9.52-.432a14.772,14.772,0,0,1,7.037-3.355.422.422,0,0,1,.482.361.429.429,0,0,1-.361.484,14.128,14.128,0,0,0-6.591,3.145C1580.674,1517.279,1578.586,1517.492,1576.514,1517.492Z" transform="translate(-1570.964 -1512.518)"/>
              </g>
              <g id="Group_22485" data-name="Group 22485" transform="translate(14.249 21.681)">
                <path id="Path_25719" data-name="Path 25719" d="M1603.455,1548.984a.426.426,0,0,1-.034-.851c.071-.006,1.769-.142,2.89-.168.121,0,.319,0,.575.006,5.7.068,9.2-.745,10.426-2.511a.419.419,0,0,1,.593-.107.424.424,0,0,1,.108.591c-2.1,3.032-8.9,2.92-11.141,2.879-.244-.006-.437,0-.541-.006-1.1.027-2.824.165-2.842.168Z" transform="translate(-1603.03 -1545.273)"/>
              </g>
            </g>
            <g id="Group_22487" data-name="Group 22487" transform="translate(128.488 158.657)">
              <path id="Path_25720" data-name="Path 25720" d="M1582.862,1306.416a.416.416,0,0,1-.238-.074.426.426,0,0,1-.115-.591,4.5,4.5,0,0,1,5.735-1.584.427.427,0,0,1-.384.762,3.6,3.6,0,0,0-4.644,1.3A.428.428,0,0,1,1582.862,1306.416Z" transform="translate(-1582.436 -1303.713)"/>
            </g>
            <g id="Group_22488" data-name="Group 22488" transform="translate(27.432 126.618)">
              <path id="Path_25721" data-name="Path 25721" d="M1359.28,1333.288a.426.426,0,0,1-.422-.369c-.447-3.289-10.763-80.773,4.428-97.943a9.124,9.124,0,0,1,7-3.363,7.555,7.555,0,0,1,5.838,2.728c5.671,6.472,6.775,24.555,3.281,53.741a.426.426,0,1,1-.845-.1c3.415-28.53,2.351-46.885-3.076-53.079a6.6,6.6,0,0,0-5.087-2.438,8.349,8.349,0,0,0-6.469,3.076c-14.935,16.877-4.332,96.462-4.222,97.266a.429.429,0,0,1-.365.479A.358.358,0,0,1,1359.28,1333.288Z" transform="translate(-1355.022 -1231.613)"/>
            </g>
            <g id="Group_22489" data-name="Group 22489" transform="translate(37.43 174.682)">
              <path id="Path_25722" data-name="Path 25722" d="M1385.959,1423.627a.452.452,0,0,1-.186-.041.427.427,0,0,1-.2-.57c.313-.645,31.272-64.492,24.281-79.281a4.644,4.644,0,0,0-3.227-2.751,11.452,11.452,0,0,0-10.126,2.231c-17.084,13.292-18.122,73.154-18.131,73.757a.425.425,0,0,1-.851-.012c.034-2.479,1.054-60.872,18.458-74.419a12.3,12.3,0,0,1,10.848-2.385,5.508,5.508,0,0,1,3.8,3.216c7.163,15.154-23,77.374-24.286,80.016A.426.426,0,0,1,1385.959,1423.627Z" transform="translate(-1377.522 -1339.776)"/>
            </g>
            <g id="Group_22490" data-name="Group 22490" transform="translate(10.61 203.257)">
              <path id="Path_25723" data-name="Path 25723" d="M1345.6,1459.649a.425.425,0,0,1-.419-.355c-.093-.556-9.179-54.367-22.695-54.367a5.151,5.151,0,0,0-.821.065,3.729,3.729,0,0,0-2.969,2.19c-4.943,10.358,18.243,51.016,18.478,51.424a.429.429,0,0,1-.158.583.423.423,0,0,1-.581-.157c-.968-1.687-23.641-41.459-18.509-52.216a4.58,4.58,0,0,1,3.6-2.663c14.84-2.353,24.1,52.659,24.491,55a.426.426,0,0,1-.35.49A.651.651,0,0,1,1345.6,1459.649Z" transform="translate(-1317.167 -1404.079)"/>
            </g>
            <g id="Group_22491" data-name="Group 22491" transform="translate(73.22 186.934)">
              <path id="Path_25724" data-name="Path 25724" d="M1484.721,1368.2h-26.234a.426.426,0,0,1,0-.851h26.234a.426.426,0,1,1,0,.851Z" transform="translate(-1458.062 -1367.348)"/>
            </g>
            <g id="Group_22492" data-name="Group 22492" transform="translate(139.652 151.832)">
              <path id="Path_25725" data-name="Path 25725" d="M1636.2,1324.308h-28.217a.425.425,0,0,1,0-.851H1636.2a9.805,9.805,0,0,0,9.794-9.794V1288.78a.426.426,0,0,1,.851,0v24.883A10.657,10.657,0,0,1,1636.2,1324.308Z" transform="translate(-1607.559 -1288.355)"/>
            </g>
            <g id="Group_22493" data-name="Group 22493" transform="translate(4.414 72.601)">
              <path id="Path_25726" data-name="Path 25726" d="M1325.248,1225.241h-11.38a10.657,10.657,0,0,1-10.644-10.645V1120.7a10.658,10.658,0,0,1,10.644-10.645H1467.1a10.658,10.658,0,0,1,10.645,10.645v29.736a.425.425,0,0,1-.851,0V1120.7a9.805,9.805,0,0,0-9.794-9.794H1313.868a9.805,9.805,0,0,0-9.793,9.794V1214.6a9.806,9.806,0,0,0,9.793,9.794h11.38a.425.425,0,0,1,0,.851Z" transform="translate(-1303.224 -1110.057)"/>
            </g>
            <g id="Group_22494" data-name="Group 22494" transform="translate(16.212 101.12)">
              <path id="Path_25727" data-name="Path 25727" d="M1476.292,1175.085H1330.2a.425.425,0,1,1,0-.851h146.094a.425.425,0,1,1,0,.851Z" transform="translate(-1329.772 -1174.234)"/>
            </g>
            <g id="Group_22495" data-name="Group 22495" transform="translate(152.997 81.512)">
              <path id="Path_25728" data-name="Path 25728" d="M1642.669,1140.269a5.08,5.08,0,1,1,5.08-5.08A5.085,5.085,0,0,1,1642.669,1140.269Zm0-9.309a4.229,4.229,0,1,0,4.229,4.229A4.234,4.234,0,0,0,1642.669,1130.96Z" transform="translate(-1637.589 -1130.109)"/>
            </g>
            <g id="Group_22496" data-name="Group 22496" transform="translate(134.989 81.512)">
              <path id="Path_25729" data-name="Path 25729" d="M1602.143,1140.269a5.08,5.08,0,1,1,5.08-5.08A5.085,5.085,0,0,1,1602.143,1140.269Zm0-9.309a4.229,4.229,0,1,0,4.229,4.229A4.234,4.234,0,0,0,1602.143,1130.96Z" transform="translate(-1597.065 -1130.109)"/>
            </g>
            <g id="Group_22497" data-name="Group 22497" transform="translate(116.979 81.512)">
              <path id="Path_25730" data-name="Path 25730" d="M1561.617,1140.269a5.08,5.08,0,1,1,5.079-5.08A5.085,5.085,0,0,1,1561.617,1140.269Zm0-9.309a4.229,4.229,0,1,0,4.228,4.229A4.234,4.234,0,0,0,1561.617,1130.96Z" transform="translate(-1556.537 -1130.109)"/>
            </g>
            <g id="Group_22498" data-name="Group 22498" transform="translate(46.494 101.12)">
              <path id="Path_25731" data-name="Path 25731" d="M1398.344,1196.9a.425.425,0,0,1-.425-.425V1174.66a.426.426,0,1,1,.851,0v21.812A.425.425,0,0,1,1398.344,1196.9Z" transform="translate(-1397.919 -1174.234)"/>
            </g>
            <g id="Group_22499" data-name="Group 22499" transform="translate(21.755 255.095)">
              <path id="Path_25732" data-name="Path 25732" d="M1344.481,1537.561a.424.424,0,0,1-.423-.378l-1.81-15.973a.424.424,0,0,1,.375-.47.4.4,0,0,1,.47.375l1.81,15.973a.424.424,0,0,1-.376.47A.243.243,0,0,1,1344.481,1537.561Z" transform="translate(-1342.246 -1520.734)"/>
            </g>
            <g id="Group_22500" data-name="Group 22500" transform="translate(52.978 255.094)">
              <path id="Path_25733" data-name="Path 25733" d="M1412.936,1537.56a.434.434,0,0,1-.422-.473l1.81-15.973a.4.4,0,0,1,.47-.375.424.424,0,0,1,.375.47l-1.81,15.973A.425.425,0,0,1,1412.936,1537.56Z" transform="translate(-1412.511 -1520.733)"/>
            </g>
            <g id="Group_22501" data-name="Group 22501" transform="translate(21.754 252.738)">
              <path id="Path_25734" data-name="Path 25734" d="M1359.188,1521.519c-5.86,0-16.943-.692-16.943-3.3,0-1.38,4.082-2.287,5.835-2.612a.427.427,0,0,1,.155.839c-3.415.632-5.034,1.48-5.142,1.794,0,.836,5.529,2.432,16.094,2.432s16.091-1.6,16.091-2.453c0-.405-1.386-1.327-6.63-1.933a.425.425,0,0,1,.1-.845c7.384.851,7.384,2.3,7.384,2.778C1376.13,1520.827,1365.048,1521.519,1359.188,1521.519Z" transform="translate(-1342.245 -1515.43)"/>
            </g>
            <g id="Group_22502" data-name="Group 22502" transform="translate(16.211 211.067)">
              <path id="Path_25735" data-name="Path 25735" d="M1345.915,1463.242a.426.426,0,0,1-.4-.272l-15.717-40.735a.426.426,0,0,1,.795-.308l15.717,40.736a.425.425,0,0,1-.244.55A.4.4,0,0,1,1345.915,1463.242Z" transform="translate(-1329.772 -1421.656)"/>
            </g>
            <g id="Group_22503" data-name="Group 22503" transform="translate(42.902 186.933)">
              <path id="Path_25736" data-name="Path 25736" d="M1390.261,1432.01a.435.435,0,0,1-.422-.476c2.344-20.22,16.868-63.464,17.015-63.9a.426.426,0,1,1,.807.271c-.146.435-14.643,43.593-16.976,63.727A.425.425,0,0,1,1390.261,1432.01Z" transform="translate(-1389.835 -1367.345)"/>
            </g>
            <g id="Group_22504" data-name="Group 22504" transform="translate(37.43 138.35)">
              <path id="Path_25737" data-name="Path 25737" d="M1377.947,1344.474a.43.43,0,0,1-.426-.44l2.782-85.607a.425.425,0,0,1,.426-.411.43.43,0,0,1,.426.44l-2.783,85.608A.424.424,0,0,1,1377.947,1344.474Z" transform="translate(-1377.521 -1258.015)"/>
            </g>
            <g id="Group_22505" data-name="Group 22505" transform="translate(196.389 260.822)">
              <path id="Path_25738" data-name="Path 25738" d="M1742.642,1542.33a.418.418,0,0,1-.387-.26c-.7-1.7-2.344-5.668-6.765-7.633a.432.432,0,0,1-.216-.564.436.436,0,0,1,.565-.216,14.092,14.092,0,0,1,7.2,8.079.432.432,0,0,1-.231.562A.458.458,0,0,1,1742.642,1542.33Z" transform="translate(-1735.238 -1533.622)"/>
            </g>
            <g id="Group_22506" data-name="Group 22506" transform="translate(186.643 263.723)">
              <path id="Path_25739" data-name="Path 25739" d="M1723.832,1545.961a.422.422,0,0,1-.393-.263,6.292,6.292,0,0,0-2.089-2.908l-.3-.251c-1.5-1.315-5.562-2.1-7.075-1.034a.426.426,0,1,1-.49-.7c1.9-1.324,6.327-.485,8.127,1.087l.287.245a7.157,7.157,0,0,1,2.326,3.233.422.422,0,0,1-.231.556A.4.4,0,0,1,1723.832,1545.961Z" transform="translate(-1713.305 -1540.15)"/>
            </g>
            <g id="Group_22507" data-name="Group 22507" transform="translate(186.151 263.616)">
              <path id="Path_25740" data-name="Path 25740" d="M1720.906,1546c-.369-.109-.482-.355-.4-.573a1.224,1.224,0,0,0-.024-1.061c-.553-1.032-2.707-1.537-3.993-1.835-.231-.053-.44-.1-.618-.148-.133-.035-.3-.071-.476-.109-1.158-.251-2.907-.632-3.188-1.844a.424.424,0,0,1,.316-.511.419.419,0,0,1,.511.316c.16.689,1.711,1.026,2.541,1.206.2.041.367.079.508.115.172.047.375.095.6.145,1.522.355,3.818.892,4.551,2.264a2.046,2.046,0,0,1,.071,1.758A.429.429,0,0,1,1720.906,1546Z" transform="translate(-1712.198 -1539.91)"/>
            </g>
            <g id="Group_22508" data-name="Group 22508" transform="translate(200.571 260.266)">
              <path id="Path_25741" data-name="Path 25741" d="M1751.937,1541.638a.429.429,0,0,1-.411-.313c-.623-2.258-3.36-6.909-6.6-8.133a.428.428,0,0,1-.249-.55.436.436,0,0,1,.55-.248c3.4,1.282,6.366,5.96,7.122,8.706a.426.426,0,0,1-.3.523A.492.492,0,0,1,1751.937,1541.638Z" transform="translate(-1744.649 -1532.37)"/>
            </g>
            <g id="Group_22509" data-name="Group 22509" transform="translate(203.373 259.024)">
              <path id="Path_25742" data-name="Path 25742" d="M1758.2,1539.737a.436.436,0,0,1-.42-.491c.177-1.147-.9-3.351-1.289-3.981a12.276,12.276,0,0,0-5.289-4.876.426.426,0,1,1,.354-.774,13.07,13.07,0,0,1,5.656,5.2c.358.576,1.646,3.041,1.407,4.56A.425.425,0,0,1,1758.2,1539.737Z" transform="translate(-1750.954 -1529.576)"/>
            </g>
            <g id="Group_22518" data-name="Group 22518" transform="translate(264.446 98.469)">
              <g id="Group_22516" data-name="Group 22516" transform="translate(0 7.047)">
                <g id="Group_22510" data-name="Group 22510" transform="translate(0 0.001)">
                  <path id="Path_25743" data-name="Path 25743" d="M1896.317,1239.583a.421.421,0,0,1-.343-.174c-5.42-7.394-7.556-18.878-7.577-18.993a.437.437,0,0,1,.038-.266l17.581-35.788a.425.425,0,0,1,.762.378l-17.515,35.658c.254,1.308,2.411,11.705,7.4,18.508a.425.425,0,0,1-.092.594A.421.421,0,0,1,1896.317,1239.583Z" transform="translate(-1888.391 -1184.127)"/>
                </g>
                <g id="Group_22511" data-name="Group 22511" transform="translate(17.582)">
                  <path id="Path_25744" data-name="Path 25744" d="M1939.259,1239.364a.426.426,0,0,1-.346-.671c4.838-6.812,6.59-17.022,6.794-18.287L1928,1184.739a.425.425,0,0,1,.762-.378l17.767,35.788a.433.433,0,0,1,.042.251c-.018.112-1.7,11.381-6.966,18.784A.42.42,0,0,1,1939.259,1239.364Z" transform="translate(-1927.956 -1184.125)"/>
                </g>
                <g id="Group_22512" data-name="Group 22512" transform="translate(7.501 54.606)">
                  <path id="Path_25745" data-name="Path 25745" d="M1926.5,1307.86h-20.8a.425.425,0,1,1,0-.851h20.8a.425.425,0,1,1,0,.851Z" transform="translate(-1905.27 -1307.009)"/>
                </g>
                <g id="Group_22513" data-name="Group 22513" transform="translate(5.491 57.786)">
                  <path id="Path_25746" data-name="Path 25746" d="M1922.883,1322.632h-19.071a3.067,3.067,0,0,1-3.064-3.064v-2.338a3.067,3.067,0,0,1,3.064-3.064h19.071a3.066,3.066,0,0,1,3.061,3.064v2.338A3.066,3.066,0,0,1,1922.883,1322.632Zm-19.071-7.616a2.216,2.216,0,0,0-2.213,2.214v2.338a2.216,2.216,0,0,0,2.213,2.214h19.071a2.216,2.216,0,0,0,2.21-2.214v-2.338a2.216,2.216,0,0,0-2.21-2.214Z" transform="translate(-1900.748 -1314.165)"/>
                </g>
                <g id="Group_22514" data-name="Group 22514" transform="translate(11.993 27.193)">
                  <path id="Path_25747" data-name="Path 25747" d="M1921.41,1257.386a6.033,6.033,0,1,1,6.035-6.035A6.041,6.041,0,0,1,1921.41,1257.386Zm0-11.215a5.182,5.182,0,1,0,5.184,5.18A5.185,5.185,0,0,0,1921.41,1246.171Z" transform="translate(-1915.379 -1245.32)"/>
                </g>
                <g id="Group_22515" data-name="Group 22515" transform="translate(17.599 0.737)">
                  <path id="Path_25748" data-name="Path 25748" d="M1928.42,1212.663a.424.424,0,0,1-.425-.426v-26.027a.426.426,0,1,1,.851,0v26.027A.424.424,0,0,1,1928.42,1212.663Z" transform="translate(-1927.995 -1185.785)"/>
                </g>
              </g>
              <g id="Group_22517" data-name="Group 22517" transform="translate(9.983)">
                <path id="Path_25749" data-name="Path 25749" d="M1923.485,1183.207h-.934a.426.426,0,1,1,0-.851h.934a2.572,2.572,0,0,0,2.568-2.568v-8.1a2.573,2.573,0,0,0-2.568-2.571h-9.206a2.573,2.573,0,0,0-2.571,2.571v8.1a2.572,2.572,0,0,0,2.571,2.568h1.141a.426.426,0,0,1,0,.851h-1.141a3.423,3.423,0,0,1-3.422-3.419v-8.1a3.424,3.424,0,0,1,3.422-3.422h9.206a3.424,3.424,0,0,1,3.419,3.422v8.1A3.423,3.423,0,0,1,1923.485,1183.207Z" transform="translate(-1910.857 -1168.268)"/>
              </g>
            </g>
            <g id="Group_22519" data-name="Group 22519" transform="translate(205.291 100.564)">
              <path id="Path_25750" data-name="Path 25750" d="M1761.642,1185.727a6.371,6.371,0,1,1,6.372-6.371A6.378,6.378,0,0,1,1761.642,1185.727Zm0-11.892a5.52,5.52,0,1,0,5.521,5.52A5.527,5.527,0,0,0,1761.642,1173.835Z" transform="translate(-1755.271 -1172.984)"/>
            </g>
            <g id="Group_22520" data-name="Group 22520" transform="translate(236.422 61.188)">
              <path id="Path_25751" data-name="Path 25751" d="M1906.173,1175.868h-15.82a.425.425,0,0,1,0-.851h15.82a9.806,9.806,0,0,0,9.794-9.794v-70.2a9.806,9.806,0,0,0-9.794-9.794h-70.2a9.806,9.806,0,0,0-9.794,9.794v70.2a9.806,9.806,0,0,0,9.794,9.794H1852.8a.425.425,0,1,1,0,.851h-16.827a10.657,10.657,0,0,1-10.645-10.645v-70.2a10.658,10.658,0,0,1,10.645-10.645h70.2a10.658,10.658,0,0,1,10.644,10.645v70.2A10.657,10.657,0,0,1,1906.173,1175.868Z" transform="translate(-1825.326 -1084.373)"/>
            </g>
            <g id="Group_22521" data-name="Group 22521" transform="translate(217.754 106.51)">
              <path id="Path_25752" data-name="Path 25752" d="M1840.417,1187.215h-56.676a.426.426,0,0,1,0-.851h56.676a.426.426,0,0,1,0,.851Z" transform="translate(-1783.316 -1186.364)"/>
            </g>
            <g id="Group_22522" data-name="Group 22522" transform="translate(346.301 100.564)">
              <path id="Path_25753" data-name="Path 25753" d="M2078.969,1185.727a6.371,6.371,0,1,1,6.371-6.371A6.381,6.381,0,0,1,2078.969,1185.727Zm0-11.892a5.52,5.52,0,1,0,5.52,5.52A5.527,5.527,0,0,0,2078.969,1173.835Z" transform="translate(-2072.594 -1172.984)"/>
            </g>
            <g id="Group_22523" data-name="Group 22523" transform="translate(289.625 106.51)">
              <path id="Path_25754" data-name="Path 25754" d="M2002.154,1187.215h-56.676a.426.426,0,0,1,0-.851h56.676a.426.426,0,1,1,0,.851Z" transform="translate(-1945.053 -1186.364)"/>
            </g>
            <g id="Group_22524" data-name="Group 22524" transform="translate(59.898 110.562)">
              <path id="Path_25755" data-name="Path 25755" d="M1470.459,1196.333h-41.951a.425.425,0,0,1,0-.851h41.951a.425.425,0,1,1,0,.851Z" transform="translate(-1428.082 -1195.482)"/>
            </g>
            <g id="Group_22525" data-name="Group 22525" transform="translate(59.898 119.758)">
              <path id="Path_25756" data-name="Path 25756" d="M1470.459,1217.028h-41.951a.426.426,0,0,1,0-.851h41.951a.426.426,0,1,1,0,.851Z" transform="translate(-1428.082 -1216.177)"/>
            </g>
            <g id="Group_22526" data-name="Group 22526" transform="translate(59.898 140.735)">
              <path id="Path_25757" data-name="Path 25757" d="M1470.459,1264.233h-41.951a.425.425,0,0,1,0-.851h41.951a.425.425,0,1,1,0,.851Z" transform="translate(-1428.082 -1263.382)"/>
            </g>
            <g id="Group_22527" data-name="Group 22527" transform="translate(59.898 149.931)">
              <path id="Path_25758" data-name="Path 25758" d="M1470.459,1284.929h-41.951a.426.426,0,0,1,0-.851h41.951a.426.426,0,0,1,0,.851Z" transform="translate(-1428.082 -1284.078)"/>
            </g>
            <g id="Group_22528" data-name="Group 22528" transform="translate(205.29 7.935)">
              <path id="Path_25759" data-name="Path 25759" d="M1820.341,1012.94a.424.424,0,0,1-.375-.224c-.006-.012-.742-1.369-2.178-3.588a.425.425,0,1,1,.715-.461c1.457,2.249,2.184,3.591,2.214,3.647a.426.426,0,0,1-.175.576A.4.4,0,0,1,1820.341,1012.94Zm-4.974-7.666a.425.425,0,0,1-.346-.177c-.928-1.286-1.918-2.6-2.949-3.9a.425.425,0,1,1,.668-.526c1.037,1.309,2.039,2.63,2.973,3.927a.426.426,0,0,1-.346.674Zm-6.091-7.7a.428.428,0,0,1-.322-.147c-1.07-1.232-2.172-2.453-3.277-3.623a.426.426,0,1,1,.62-.585c1.111,1.182,2.222,2.409,3.3,3.653a.425.425,0,0,1-.322.7Zm-6.732-7.125a.426.426,0,0,1-.3-.121c-1.164-1.128-2.37-2.246-3.585-3.322a.425.425,0,1,1,.562-.638c1.227,1.085,2.444,2.212,3.614,3.348a.425.425,0,0,1,.009.6A.419.419,0,0,1,1802.545,990.454Zm-7.347-6.5a.415.415,0,0,1-.266-.095c-1.271-1.023-2.574-2.02-3.878-2.967a.426.426,0,1,1,.5-.688c1.312.955,2.627,1.962,3.907,2.994a.425.425,0,0,1-.266.756Zm-7.926-5.766a.423.423,0,0,1-.233-.069c-1.348-.881-2.746-1.741-4.152-2.56a.425.425,0,1,1,.425-.735c1.421.824,2.834,1.693,4.193,2.583a.425.425,0,0,1-.233.782Zm-8.479-4.916a.415.415,0,0,1-.192-.046c-1.451-.74-2.935-1.445-4.4-2.094a.427.427,0,0,1-.219-.561.432.432,0,0,1,.562-.219c1.487.656,2.982,1.367,4.445,2.115a.426.426,0,0,1-.192.805Zm-8.957-3.956a.449.449,0,0,1-.151-.026c-1.519-.571-3.071-1.1-4.61-1.578a.427.427,0,0,1-.281-.532.422.422,0,0,1,.535-.281c1.552.482,3.121,1.018,4.658,1.593a.426.426,0,0,1-.151.824Zm-9.357-2.9c-1.687-.4-3.289-.746-4.861-1.037a.428.428,0,0,1-.343-.5.411.411,0,0,1,.5-.341c1.59.293,3.21.641,4.808,1.034a.425.425,0,0,1-.1.839Z" transform="translate(-1755.269 -964.533)"/>
            </g>
            <g id="Group_22529" data-name="Group 22529" transform="translate(109.945 7.03)">
              <path id="Path_25760" data-name="Path 25760" d="M1541.131,1024.55a.435.435,0,0,1-.422-.476,44.363,44.363,0,0,1,.983-4.885.418.418,0,0,1,.517-.31.427.427,0,0,1,.31.517,44.914,44.914,0,0,0-.965,4.779A.425.425,0,0,1,1541.131,1024.55Zm2.335-9.551c-.356-.095-.477-.334-.4-.559.507-1.555,1.073-3.115,1.682-4.637a.426.426,0,1,1,.792.313c-.6,1.507-1.163,3.053-1.664,4.59A.428.428,0,0,1,1543.466,1015Zm3.637-9.108a.4.4,0,0,1-.183-.041.423.423,0,0,1-.2-.567c.7-1.463,1.457-2.938,2.259-4.383a.433.433,0,0,1,.579-.166.427.427,0,0,1,.165.579c-.8,1.43-1.547,2.887-2.236,4.335A.424.424,0,0,1,1547.1,1005.89Zm4.776-8.564a.422.422,0,0,1-.232-.068.426.426,0,0,1-.125-.588c.893-1.38,1.84-2.742,2.815-4.049a.426.426,0,0,1,.683.508c-.964,1.291-1.9,2.639-2.782,4A.424.424,0,0,1,1551.878,997.326Zm5.863-7.846a.418.418,0,0,1-.278-.1.426.426,0,0,1-.046-.6c1.067-1.24,2.191-2.459,3.341-3.623a.425.425,0,1,1,.606.6c-1.136,1.151-2.248,2.357-3.3,3.582A.426.426,0,0,1,1557.741,989.48Zm6.88-6.964a.425.425,0,0,1-.281-.745c1.229-1.082,2.51-2.134,3.808-3.125a.426.426,0,0,1,.517.677c-1.281.98-2.547,2.018-3.764,3.087A.413.413,0,0,1,1564.621,982.516Zm7.777-5.94a.426.426,0,0,1-.235-.78c1.354-.894,2.766-1.76,4.2-2.574a.425.425,0,0,1,.42.739c-1.416.807-2.812,1.662-4.15,2.546A.427.427,0,0,1,1572.4,976.576Zm8.5-4.836a.426.426,0,0,1-.186-.808c1.458-.708,2.969-1.385,4.491-2.011a.425.425,0,1,1,.325.786c-1.506.622-3,1.291-4.443,1.99A.419.419,0,0,1,1580.9,971.74Zm9.046-3.727a.425.425,0,0,1-.139-.827c1.523-.525,3.1-1.019,4.694-1.469a.425.425,0,1,1,.231.819c-1.575.446-3.14.935-4.647,1.454A.415.415,0,0,1,1589.948,968.013Zm9.412-2.669a.426.426,0,0,1-.094-.841c1.579-.359,3.2-.687,4.82-.972a.426.426,0,0,1,.148.839c-1.6.282-3.212.607-4.778.963A.444.444,0,0,1,1599.36,965.344Zm9.642-1.707a.426.426,0,0,1-.055-.848l.28-.034c.74-.095,1.48-.179,2.216-.257a.438.438,0,0,1,.468.38.428.428,0,0,1-.38.468q-1.094.113-2.2.254l-.272.034Z" transform="translate(-1540.706 -962.498)"/>
            </g>
            <g id="Group_22530" data-name="Group 22530" transform="translate(293.875 158.006)">
              <path id="Path_25761" data-name="Path 25761" d="M1955.042,1380.979a.425.425,0,0,1-.065-.845,39.4,39.4,0,0,0,4.723-1.037.425.425,0,1,1,.236.816,39.483,39.483,0,0,1-4.829,1.061A.247.247,0,0,1,1955.042,1380.979Zm9.368-2.728a.426.426,0,0,1-.178-.813,31.728,31.728,0,0,0,4.229-2.323.429.429,0,0,1,.588.121.422.422,0,0,1-.121.588,32.311,32.311,0,0,1-4.341,2.388A.427.427,0,0,1,1964.41,1378.251Zm8.144-5.358a.425.425,0,0,1-.287-.739,32,32,0,0,0,3.3-3.526.413.413,0,0,1,.6-.065.423.423,0,0,1,.065.6,32.276,32.276,0,0,1-3.384,3.62A.409.409,0,0,1,1972.554,1372.893Zm6.129-7.592a.451.451,0,0,1-.219-.059.431.431,0,0,1-.148-.585,41.178,41.178,0,0,0,2.237-4.3.425.425,0,0,1,.561-.213.42.42,0,0,1,.213.562,41.973,41.973,0,0,1-2.278,4.391A.428.428,0,0,1,1978.684,1365.3Zm4.034-8.916c-.358-.095-.479-.337-.405-.559.494-1.483.943-3.059,1.336-4.678a.419.419,0,0,1,.515-.313.427.427,0,0,1,.313.514c-.4,1.643-.855,3.239-1.354,4.743A.427.427,0,0,1,1982.718,1356.385Zm2.317-9.51a.438.438,0,0,1-.419-.5c.257-1.546.475-3.171.653-4.834a.4.4,0,0,1,.467-.379.423.423,0,0,1,.378.467c-.177,1.678-.4,3.325-.659,4.888A.428.428,0,0,1,1985.034,1346.875Zm1.035-9.756a.429.429,0,0,1-.425-.446c.079-1.584.124-3.224.13-4.879a.426.426,0,0,1,.851.006c-.006,1.664-.05,3.318-.13,4.915A.427.427,0,0,1,1986.069,1337.12Zm.039-9.8a.426.426,0,0,1-.426-.408c-.065-1.61-.165-3.25-.3-4.876a.429.429,0,0,1,.393-.458.435.435,0,0,1,.458.393c.13,1.631.231,3.283.3,4.906a.427.427,0,0,1-.408.443Zm-.78-9.773a.427.427,0,0,1-.423-.375c-.192-1.619-.416-3.248-.668-4.834a.423.423,0,0,1,.352-.487.389.389,0,0,1,.488.351c.254,1.6.482,3.239.674,4.87a.426.426,0,0,1-.372.473A.333.333,0,0,1,1985.327,1317.547Zm-1.537-9.675a.426.426,0,0,1-.417-.34c-.351-1.72-.735-3.36-1.111-4.746a.426.426,0,0,1,.822-.224c.381,1.4.768,3.064,1.123,4.8a.425.425,0,0,1-.331.5A.462.462,0,0,1,1983.79,1307.872Z" transform="translate(-1954.616 -1302.249)"/>
            </g>
          </g>
        </g>
      </g>
    </g>
    <rect id="Rectangle_9707" data-name="Rectangle 9707" width="408" height="306" transform="translate(694 234)" fill="none"/>
  </g>
</svg>
