<svg xmlns="http://www.w3.org/2000/svg" width="408" height="306" viewBox="0 0 408 306">
  <g id="Group_45566" data-name="Group 45566" transform="translate(-200 -3476)">
    <rect id="Rectangle_9706" data-name="Rectangle 9706" width="408" height="306" transform="translate(200 3476)" fill="none"/>
    <g id="Group_170" data-name="Group 170" transform="translate(-1017.922 3276.604)">
      <path id="Path_93" data-name="Path 93" d="M2013.35,457.1h-27.738a6.357,6.357,0,0,1-6.357-6.356v-20.8a6.356,6.356,0,0,1,6.357-6.357h27.738" transform="translate(-402.679 -110.262)" fill="#fff"/>
      <path id="Path_94" data-name="Path 94" d="M1859.772,485.9s-9.194-1.308-10.928.426c0,0-1.812,7.991-2.64,8.908,0,0,.458.817-1.34,0s-8.155.339-8.155.339l-1.734,9.824-6.581,9.632s5.208,2.522,9.073,1.936c0,0,1.327-.3.862,1.289s-2.776,10.837-2.776,10.837,4.045,8.09,4.623,8.09a20.97,20.97,0,0,1,4.045,1.734c1.156.578,4.045.578,5.2.578s5.779,0,5.779-1.156,2.312-4.045,1.734-5.2-2.89-8.09-2.89-8.09l-.488-1.271,1.015-4.661s-.182-1.151,1.668-.209,8.6,2.372,10.974-2.692c1.278-2.724-2.767-7.925-2.767-7.925l1.3-4.562,3.318-11.041-.578-7.512s-5.779-3.468-6.357-3.468S1857.986,482.59,1859.772,485.9Z" transform="translate(-321.609 -141.499)" fill="#fff"/>
      <path id="Path_95" data-name="Path 95" d="M1259.715,712.874l-7.811,13.247-.645,1.6.312.778,3.916,2.418,1.5.8.923.2,1.8-2.277,7.184-12.183,1.07-1.345.748-.814s1.951.413,1.757.613,4.8,2.829,4.8,2.829l1.469.563,1.024-.579.286-1.123.861-17.563-11.522-1.263Z" transform="translate(-11.466 -258.146)" fill="#fff"/>
      <rect id="Rectangle_39" data-name="Rectangle 39" width="120.198" height="86.681" transform="translate(1249.823 365.719)" fill="#fff"/>
      <path id="Path_96" data-name="Path 96" d="M1272.621,529.9h116.505l1.76-11.183-4.374-7.472H1284.3s-9.256.492-11.409,9.328Z" transform="translate(-22.946 -157.37)" fill="#1a1a1a"/>
      <path id="Path_97" data-name="Path 97" d="M1385.338,494.68s.451,16.612,5.821,25.973,10.27,16.151,21.37,16.6,18.082-6.649,27.772-5.99l15.628-.033a53.443,53.443,0,0,1,14.952,3.622c8.419,3.276,15.493,2.678,18.721,1.447s7.332-2.042,11.941-8.924a53.622,53.622,0,0,0,7.474-16.781,96.554,96.554,0,0,0,1.99-15.276,37.441,37.441,0,0,0,15.577,2.695c8.941-.347,11.893-.284,14.311-2.528,0,0-1.967,17.987-5,26.588s-8.169,22.7-15.57,30.12-14.318,14.371-26.751,18.618a61.355,61.355,0,0,1-23.023,3.274s-.619,12.972.531,18.869a103.479,103.479,0,0,0,3.116,11.7l9.727,30.258H1414.1s-3.186-23.688-3.646-37.329-.195-25.613-.195-25.613a44.342,44.342,0,0,1-23.861-10.226c-11.676-9.663-16.647-17.95-21.044-27.264a101.868,101.868,0,0,1-7.692-24.618c-.935-5.423-1.962-13.7-1.962-13.7a44.051,44.051,0,0,0,13.571,1.743C1377.236,497.754,1384.653,496.522,1385.338,494.68Z" transform="translate(-67.589 -148.47)" fill="#dc4867"/>
      <path id="Path_98" data-name="Path 98" d="M1396.192,322.257c-.214.044-7.021,2.124-12.429,1.262l-.641-27.958-28.22-.434-.478.4c-1.033,5.471.929,12.258,1.177,13.076a9.882,9.882,0,0,1-19.763,0c.247-.819,2.2-7.6,1.172-13.076l-.478-.4-28.31.192-.035,75.315,55.245.308h3.514l16.514-.361.3-27.873c5.411-.859,12.215,1.214,12.285,1.236a10.844,10.844,0,1,0,.144-21.687Z" transform="translate(-42.058 -41.233)" fill="#d3aafd"/>
      <path id="Path_99" data-name="Path 99" d="M1739.022,311.93l-28.278-.487v.487l-.478-.09c-1.032,5.471.926,12.258,1.172,13.076a9.881,9.881,0,0,1-19.762,0c.247-.819,2.209-7.606,1.176-13.076l-.478.09v-.487l-28.375.334-.486,28.468h.471l-.075.4c5.473,1.032,12.257-.925,13.076-1.172a9.882,9.882,0,0,1,0,19.763c-.819-.248-7.6-2.211-13.076-1.176l-.4.559.344,28.157,29.9.486h45.567V358.63h-.5l.109-.574c-5.472-1.034-12.257.928-13.077,1.176a9.882,9.882,0,0,1,0-19.763c.818.247,7.607,2.207,13.077,1.172l-.142-.753h.539Z" transform="translate(-233.005 -50.002)" fill="#1a1a1a"/>
      <path id="Path_100" data-name="Path 100" d="M1718.566,470.915s4.567-9.216,5.206-15.42h-20.627s5.942-4.638,2.513-8.032-11.847,5.456-12.417,6.17-2.177,4.042-.558,6.973,7.06,10.846,7.06,10.846S1716.11,473.07,1718.566,470.915Z" transform="translate(-248.302 -122.681)" fill="#fff"/>
      <path id="Path_101" data-name="Path 101" d="M1375.409,471.3s6.444-9.338,6.835-10.283,2.312-4.733-.057-7.37-5.619-6.261-7.683-6.932-4.111-.828-5.519,1.064-.161,4.775,2.718,7.481h-19.918s3.571,12.616,5.5,15.711C1357.289,470.971,1371.013,472.9,1375.409,471.3Z" transform="translate(-65.487 -122.447)" fill="#fff"/>
      <path id="Path_102" data-name="Path 102" d="M1542.8,530.048l1.424-14.1s5.991-.319,5.991-5.185-5-5.241-6.383-5.089c0,0-1.359-5.859-3.456-7.762s-5.336-1.7-7.438-2.154a34.3,34.3,0,0,1-8.628-3.334s-4.507,5.213-5.552,10.308c-1.1,5.356,2.108,5.457,1.965,6.71-.563,4.93-1.2,11.87,2.742,13a45.372,45.372,0,0,0,4.676,1.21l-.714,6.144s-4.4,13.215,1.013,13.267S1538.6,538,1540.372,535A28.547,28.547,0,0,0,1542.8,530.048Z" transform="translate(-155.09 -147.26)" fill="#fff"/>
      <path id="Path_103" data-name="Path 103" d="M1516.056,544.255a8.2,8.2,0,0,0-5.412,6.6,9.563,9.563,0,0,0,2.679,8.685s6.345-1.96,9.865-1.453l.616-6.581S1516.1,551.857,1516.056,544.255Z" transform="translate(-150.758 -175.111)" fill="#1a1a1a"/>
      <path id="Path_104" data-name="Path 104" d="M1540.64,515.758a19.265,19.265,0,0,1,9.075,1.345c4.915,1.961,9.39,3.254,9.39,3.254s6.037-3.311,5.577-8.979-5.029-9.233-7.838-9.621a23.5,23.5,0,0,0-5.3-.1s-1.023-3.273,2.208-7.791,4.027-9.225,2.73-12.678-6.277-8.138-12.728-8.792l-1-.541s-5.256-5.551-11.988-5.981-13.359,2.426-15.867,7.2.352,11.815,1.269,13.76c0,0,1.743-2.9,2.217-3.927a11.183,11.183,0,0,1,2.546-2.094l.886-2.684a15.046,15.046,0,0,0,7.794,3.179c4.44.323,7,.772,8.993,3.436s2.206,6.842,2.206,6.842a4.034,4.034,0,0,1,3.779.337c2.09,1.229,3.246,3.007,2.944,5.3a5.558,5.558,0,0,1-6.139,4.292Z" transform="translate(-152.601 -132.969)" fill="#1a1a1a"/>
      <path id="Path_105" data-name="Path 105" d="M1358.2,492.964l1.254,2.946s-2.919-.488-3.1-1.473S1358.2,492.964,1358.2,492.964Z" transform="translate(-67.936 -147.548)" fill="#1a1a1a"/>
      <path id="Path_106" data-name="Path 106" d="M1406.111,489.834l-3.26,4.886s8.292-1.008,7.836-2.919C1410.32,490.265,1406.111,489.834,1406.111,489.834Z" transform="translate(-92.929 -145.866)" fill="#1a1a1a"/>
      <path id="Path_107" data-name="Path 107" d="M1750.712,493.2l-1.574,3.057s3.073-.636,3.187-1.682-1.593-1.583-1.593-1.583Z" transform="translate(-279.018 -147.563)" fill="#3a3a3a"/>
      <path id="Path_108" data-name="Path 108" d="M1699.706,494.848l-3.459-4.622s-4.67.83-4.317,2.06S1699.706,494.848,1699.706,494.848Z" transform="translate(-248.265 -146.077)" fill="#3a3a3a"/>
      <path id="Path_109" data-name="Path 109" d="M1732.186,465.536l-20.432-.161-2.9,2.748a8.9,8.9,0,0,1-1.218.882,9.271,9.271,0,0,0,4.169-.882h19.547Z" transform="translate(-256.717 -132.722)" fill="#ccc"/>
      <path id="Path_110" data-name="Path 110" d="M1480.262,525.645a3.672,3.672,0,1,1-3.672-3.672A3.672,3.672,0,0,1,1480.262,525.645Z" transform="translate(-130.582 -163.137)" fill="#fff"/>
      <path id="Path_111" data-name="Path 111" d="M1507.87,525.645a3.672,3.672,0,1,1-3.672-3.672A3.672,3.672,0,0,1,1507.87,525.645Z" transform="translate(-145.418 -163.137)" fill="#fff"/>
      <path id="Path_112" data-name="Path 112" d="M1862.787,488.522s6.587-5.594,3.99-12.092c-1.814-4.539-6.959-6.48-12.112-8.047s-9.462-1.743-12.807-.733-6.363,4.591-6.363,4.591-4.216-1.139-6.344,1.468a18.532,18.532,0,0,0-4.128,10.284c-.089,3.594,1.365,5.865-.714,8.378s-5.031,6.9-4.293,10.336,4.121,5.129,9.035,6.071,8.926.636,10.946-1.4,2.665-4.258.621-7.448c0,0-3.184,1.332-4.242-3.018,0,0-4.414-2.067-3.074-6.619s6.877-3.422,7.918-2.113a29.643,29.643,0,0,0,2.791-9.758,19.964,19.964,0,0,1,10.6-.346C1860.081,479.535,1864.49,482.928,1862.787,488.522Z" transform="translate(-317.044 -133.606)" fill="#1a1a1a"/>
      <path id="Path_113" data-name="Path 113" d="M1810.909,572.138l-.281,1.225s1.143,12.274-1.492,12.318-8.916-5.056-11.306-8.651-3.5-4.253-3.5-4.253v-.823a35.938,35.938,0,0,0-13.625,1.258c-6.646,2.129-11.623,5.736-19.058,20.708s-8.519,25.336-9.636,29.524-3.514,18.788-2.9,23.256,5.915,25.984,21.422,29.636h69.552l-.808-12.678s10.065,2.082,18.616-11.257,8.709-18.986,8.709-18.986-8.906,1.833-12.413.192-10.2-38.8-10.2-38.8S1840.172,573.973,1810.909,572.138Z" transform="translate(-278.95 -189.901)" fill="#dc4867"/>
      <path id="Path_114" data-name="Path 114" d="M1897.226,640.143l3.653-8.178s.291-4.936-3.974-5.817l-62.271,5.079s-3.5.246-4.977,4.547l-20.646,43.5s-1.72,6.644,4.547,7.439l61.755-5.534a4.584,4.584,0,0,0,3.871-3.134Z" transform="translate(-311.077 -219.119)" fill="#1a1a1a"/>
      <path id="Path_115" data-name="Path 115" d="M1893.476,622.488l-3.466-2.848h-3.3l-53.89,4.895s-6.452.246-7.8,1.413-4.67,7.988-6.575,12.228-16.775,35.332-16.775,35.332-.86,2.642.614,4.24l2.549,2.552a7.616,7.616,0,0,1,.4-4.826c1.106-2.335,22.121-46.332,22.121-46.332a19.792,19.792,0,0,1,6.7-1.536c3.994-.246,57.331-5.119,57.331-5.119Z" transform="translate(-307.112 -215.622)" fill="#fff"/>
      <path id="Path_116" data-name="Path 116" d="M1910.5,689.3c-1.535,2.658-1.361,5.631.389,6.641s4.411-.326,5.945-2.984,1.361-5.631-.388-6.64S1912.039,686.646,1910.5,689.3Z" transform="translate(-365.171 -251.273)" fill="#fff"/>
      <path id="Path_117" data-name="Path 117" d="M1861.454,529.468a2.817,2.817,0,1,1-2.817-2.817A2.817,2.817,0,0,1,1861.454,529.468Z" transform="translate(-336.347 -165.651)" fill="#fff"/>
      <path id="Path_118" data-name="Path 118" d="M1895.479,541.065s5.242,5.76.683,9.293-10.971.469-10.971.469l.578-1.64s4.424.243,6.051-1.49S1895.479,541.065,1895.479,541.065Z" transform="translate(-352.131 -173.397)" fill="#1a1a1a"/>
      <path id="Path_119" data-name="Path 119" d="M1232.978,692.748l22.884-14.164a1.415,1.415,0,0,1,2.158,1.273l-1.317,26.88a1.415,1.415,0,0,1-2.132,1.15l-6.187-3.648a1.415,1.415,0,0,0-1.938.5l-8.995,15.255a1.415,1.415,0,0,1-1.938.5l-4.9-2.887a1.415,1.415,0,0,1-.5-1.938l9-15.256a1.416,1.416,0,0,0-.5-1.937L1233,695.17A1.415,1.415,0,0,1,1232.978,692.748Z" transform="translate(0 -247.182)" fill="#d3aafd"/>
      <rect id="Rectangle_41" data-name="Rectangle 41" width="19.255" height="19.255" transform="translate(1269.077 413.026)" fill="#d3aafd"/>
      <rect id="Rectangle_42" data-name="Rectangle 42" width="19.255" height="19.255" transform="translate(1258.57 381.4)" fill="#1a1a1a"/>
      <path id="Path_120" data-name="Path 120" d="M2034.82,448.6l-8.744-14.962c-1.137-1.946-3-1.946-4.134,0l-8.736,14.961c-1.136,1.947-.222,3.539,2.032,3.539h17.552" transform="translate(-420.661 -114.883)" fill="#3552ff"/>
      <path id="Path_121" data-name="Path 121" d="M1522.105,473.746a7.333,7.333,0,0,1,1.609-6.179c-3.921,1.127-7.211,3.391-8.815,6.445-2.509,4.778.352,11.815,1.269,13.76,0,0,1.742-2.9,2.216-3.927a11.181,11.181,0,0,1,2.547-2.094l.886-2.683a15.045,15.045,0,0,0,7.794,3.178c2.789.2,4.835.457,6.466,1.277l.408-.135S1523.3,480.106,1522.105,473.746Z" transform="translate(-152.601 -133.9)" fill="#fff"/>
      <path id="Path_122" data-name="Path 122" d="M1516.442,546.855a8.654,8.654,0,0,1-.386-2.6,8.2,8.2,0,0,0-5.412,6.6,9.563,9.563,0,0,0,2.679,8.685s2.439-.569,3.811-.9C1512.427,553.531,1514.9,548.442,1516.442,546.855Z" transform="translate(-150.758 -175.111)" fill="#fff"/>
      <path id="Path_123" data-name="Path 123" d="M1902.8,490s6.587-5.594,3.99-12.092c-1.814-4.539-6.958-6.48-12.112-8.047-.109-.033-.211-.056-.319-.088,2.527,1.361,4.737,3.171,5.235,5.464.532,2.455-2.015,3.677-5.195,4.267.074.019.148.032.222.051C1900.095,481.017,1904.5,484.41,1902.8,490Z" transform="translate(-357.058 -135.087)" fill="#fff"/>
      <path id="Path_124" data-name="Path 124" d="M1846.459,537.906a3,3,0,0,1-2.535-.218c.526,2.215.316,9.1-13.155,7.782.483.117,3.6,1.183,4.123,1.283,4.914.943,8.926.636,10.945-1.4S1848.5,541.1,1846.459,537.906Z" transform="translate(-322.885 -171.582)" fill="#fff"/>
      <path id="Path_125" data-name="Path 125" d="M1898,541.065s-.45,1.081-1.092,2.4c.556,2.122,1.24,7.44-7.026,8.113,2.273.6,5.908,1.018,8.8-1.224C1903.241,546.825,1898,541.065,1898,541.065Z" transform="translate(-354.651 -173.397)" fill="#fff"/>
      <path id="Path_126" data-name="Path 126" d="M1985.112,642.333l-3.075,6.508s-3.348.635-6.186.883-6.319-.868-7.6,2.455.747,4.607.747,4.607-4.286,4.434-.552,7.2c0,0-4.331,3.317.324,6.221s13.535,1.571,15.616.831,5.749-3.584,6.261-10.5.451-10.571-.713-12.846S1985.112,642.333,1985.112,642.333Z" transform="translate(-395.887 -227.817)" fill="#fff"/>
      <g id="Group_72" data-name="Group 72" transform="translate(1341.841 401.632)">
        <path id="Path_127" data-name="Path 127" d="M1476.514,699.77a.486.486,0,0,1-.482-.415c-1.789-12.079-2.389-20.65-3.026-29.724-.15-2.148-.3-4.337-.475-6.626-2.287-30.4,1.729-40.777,3.886-46.352.26-.67.495-1.277.691-1.844a.486.486,0,1,1,.92.317c-.2.579-.439,1.2-.7,1.878-2.129,5.5-6.095,15.746-3.824,45.928.172,2.292.326,4.482.477,6.631.635,9.055,1.234,17.609,3.018,29.651a.489.489,0,0,1-.411.552A.6.6,0,0,1,1476.514,699.77Z" transform="translate(-1471.849 -614.482)"/>
      </g>
      <g id="Group_73" data-name="Group 73" transform="translate(1367.844 344.907)">
        <path id="Path_128" data-name="Path 128" d="M1528.543,495.17c-.365-.068-.532-.326-.476-.589.5-2.321.518-2.372.529-2.4a.486.486,0,1,1,.91.341c0,.021-.163.748-.488,2.265A.487.487,0,0,1,1528.543,495.17Z" transform="translate(-1528.057 -491.864)"/>
      </g>
      <g id="Group_74" data-name="Group 74" transform="translate(1364.795 361.7)">
        <path id="Path_129" data-name="Path 129" d="M1532.374,543.355c-.966,0-1.917-.021-2.692-.054a11.315,11.315,0,0,1-4.221-.877,6.523,6.523,0,0,1-3.625-5.131,26.568,26.568,0,0,1-.019-8.706.487.487,0,0,1,.966.123,25.625,25.625,0,0,0,.009,8.4,5.613,5.613,0,0,0,3.078,4.432,10.068,10.068,0,0,0,3.853.787c1.6.068,3.965.081,5.629-.032a.486.486,0,1,1,.068.969C1534.529,543.329,1533.442,543.355,1532.374,543.355Z" transform="translate(-1521.466 -528.165)"/>
      </g>
      <g id="Group_75" data-name="Group 75" transform="translate(1386.547 357.932)">
        <path id="Path_130" data-name="Path 130" d="M1571.863,531.13c-.12,0-.241,0-.365-.011a5.585,5.585,0,0,1-2.8-.978.486.486,0,1,1,.554-.8,4.582,4.582,0,1,0,.3-7.727.486.486,0,1,1-.49-.84,5.557,5.557,0,1,1,2.8,10.356Z" transform="translate(-1568.484 -520.019)"/>
      </g>
      <g id="Group_76" data-name="Group 76" transform="translate(1387.157 360.346)">
        <path id="Path_131" data-name="Path 131" d="M1573.347,531.558a.49.49,0,0,1-.345-.142l-3.056-3.056a.485.485,0,0,1-.137-.413.479.479,0,0,1,.245-.357l4.1-2.292a.486.486,0,0,1,.474.849l-3.543,1.978,2.6,2.6a.486.486,0,0,1-.344.831Z" transform="translate(-1569.804 -525.238)"/>
      </g>
      <g id="Group_77" data-name="Group 77" transform="translate(1369.545 375.905)">
        <path id="Path_132" data-name="Path 132" d="M1536.489,579.2a14,14,0,0,1-1.535-.086,3.244,3.244,0,0,1-2.633-1.64c-1.9-3.381,1.4-10.892,1.82-11.811l.476-6.339a.486.486,0,1,1,.969.074l-.482,6.425a.481.481,0,0,1-.043.168c-.037.079-3.637,7.912-1.892,11.005a2.3,2.3,0,0,0,1.89,1.152c11.2,1.186,14.331-12.357,14.361-12.494a.477.477,0,0,1,.58-.371.487.487,0,0,1,.371.58C1550.34,566,1547.3,579.2,1536.489,579.2Z" transform="translate(-1531.734 -558.87)"/>
      </g>
      <g id="Group_78" data-name="Group 78" transform="translate(1372.226 365.231)">
        <path id="Path_133" data-name="Path 133" d="M1539.772,539.6a5.06,5.06,0,0,1-1.944-.434.487.487,0,0,1-.261-.637.494.494,0,0,1,.637-.261,3.089,3.089,0,0,0,2.656.1,3.632,3.632,0,0,0,1.577-2.2.479.479,0,0,1,.582-.366.485.485,0,0,1,.366.581,4.587,4.587,0,0,1-2.078,2.849A3.284,3.284,0,0,1,1539.772,539.6Z" transform="translate(-1537.529 -535.796)"/>
      </g>
      <g id="Group_79" data-name="Group 79" transform="translate(1387.22 368.204)">
        <path id="Path_134" data-name="Path 134" d="M1570.427,557.295a.494.494,0,0,1-.484-.529l1.27-14.1a.5.5,0,0,1,.528-.441.486.486,0,0,1,.441.528l-1.271,14.1A.486.486,0,0,1,1570.427,557.295Z" transform="translate(-1569.941 -542.224)"/>
      </g>
      <g id="Group_80" data-name="Group 80" transform="translate(1317.263 345.724)">
        <path id="Path_135" data-name="Path 135" d="M1447.79,537.186a21.987,21.987,0,0,1-16.055-6.29,38.3,38.3,0,0,1-7.913-12.319,68.337,68.337,0,0,1-5.1-24.449.484.484,0,0,1,.474-.5.5.5,0,0,1,.5.474,67.365,67.365,0,0,0,5.024,24.093,37.34,37.34,0,0,0,7.707,12.014c8.338,8.37,21.032,6.785,30.137,2.509a27.5,27.5,0,0,1,11.319-2.483.486.486,0,0,1,.015.972,26.581,26.581,0,0,0-10.922,2.39A36.5,36.5,0,0,1,1447.79,537.186Z" transform="translate(-1418.72 -493.63)"/>
      </g>
      <g id="Group_81" data-name="Group 81" transform="translate(1287.621 346.523)">
        <path id="Path_136" data-name="Path 136" d="M1410.033,572.812c-9.745-.717-16.989-4.758-24.877-10.6-16.808-12.456-28.213-37.25-30.509-66.324a.486.486,0,0,1,.446-.523.449.449,0,0,1,.523.446c2.275,28.8,13.534,53.328,30.118,65.619,7.753,5.747,14.858,9.717,24.334,10.415a.486.486,0,0,1-.035.971Z" transform="translate(-1354.645 -495.357)"/>
      </g>
      <g id="Group_82" data-name="Group 82" transform="translate(1302.404 323.08)">
        <path id="Path_137" data-name="Path 137" d="M1394.028,471.089a.486.486,0,0,1-.414-.743c.026-.04,2.564-4.114,5.432-7.938,2.9-3.869,2.932-7.67,1.489-9.281l-.446-.507c-1.71-1.964-6.29-7.192-9.611-6.958a3.344,3.344,0,0,0-2.806,4.03c.875,3.733,7.264,7.471,7.327,7.508a.487.487,0,0,1-.486.843c-.278-.161-6.816-3.987-7.788-8.128a4.311,4.311,0,0,1,3.689-5.224c.089-.006.18-.009.269-.009,3.783,0,8.219,5.094,10.14,7.3l.435.5c2.035,2.27,1.432,6.691-1.434,10.514-2.842,3.787-5.358,7.827-5.383,7.866A.488.488,0,0,1,1394.028,471.089Z" transform="translate(-1386.601 -444.683)"/>
      </g>
      <g id="Group_83" data-name="Group 83" transform="translate(1287.62 343.66)">
        <path id="Path_138" data-name="Path 138" d="M1367.972,495.534a53.524,53.524,0,0,1-8.525-.6c-3.2-.539-4.773-1.323-4.8-2.4-.025-.977.663-1.4,1.939-1.848a.487.487,0,1,1,.32.92c-1.3.452-1.292.681-1.288.9s.736.92,3.991,1.466a57.008,57.008,0,0,0,10.409.56c9.276-.251,14.292-1.983,14.271-2.8,0-.1-.146-1.009-4.29-1.594a.485.485,0,0,1-.414-.549.472.472,0,0,1,.549-.414c3.418.482,5.095,1.31,5.127,2.531.072,2.678-9.922,3.657-15.215,3.8C1369.344,495.525,1368.652,495.534,1367.972,495.534Z" transform="translate(-1354.644 -489.169)"/>
      </g>
      <g id="Group_84" data-name="Group 84" transform="translate(1298.995 332.506)">
        <path id="Path_139" data-name="Path 139" d="M1384.109,477.187a.486.486,0,0,1-.48-.408,34.2,34.2,0,0,0-4.32-10.974.487.487,0,0,1,.821-.523,34.57,34.57,0,0,1,4.458,11.341.486.486,0,0,1-.4.558A.443.443,0,0,1,1384.109,477.187Z" transform="translate(-1379.233 -465.058)"/>
      </g>
      <g id="Group_85" data-name="Group 85" transform="translate(1387.553 345.724)">
        <path id="Path_140" data-name="Path 140" d="M1598.187,537.186A36.509,36.509,0,0,1,1583,533.6a30.773,30.773,0,0,0-11.867-2.418.486.486,0,0,1,.008-.972,31.768,31.768,0,0,1,12.272,2.511c9.1,4.275,21.8,5.858,30.137-2.509a37.323,37.323,0,0,0,7.7-12.014,67.373,67.373,0,0,0,5.026-24.093.5.5,0,0,1,.5-.474.484.484,0,0,1,.474.5,68.31,68.31,0,0,1-5.1,24.449,38.243,38.243,0,0,1-7.911,12.319A21.992,21.992,0,0,1,1598.187,537.186Z" transform="translate(-1570.659 -493.63)"/>
      </g>
      <g id="Group_86" data-name="Group 86" transform="translate(1402.479 346.522)">
        <path id="Path_141" data-name="Path 141" d="M1607.253,575.061q-1.931,0-3.877-.132a.487.487,0,0,1,.068-.971c14.046.969,27.028-3.138,39.706-12.534,16.583-12.289,27.843-36.821,30.116-65.619a.487.487,0,0,1,.972.077c-2.3,29.075-13.7,53.87-30.51,66.324C1632.2,570.746,1619.951,575.061,1607.253,575.061Z" transform="translate(-1602.925 -495.354)"/>
      </g>
      <g id="Group_87" data-name="Group 87" transform="translate(1443.153 323.483)">
        <path id="Path_142" data-name="Path 142" d="M1699.276,471.557a.489.489,0,0,1-.413-.229c-.025-.04-2.541-4.079-5.383-7.866-2.867-3.821-3.471-8.244-1.434-10.514,1.69-1.891,6.615-7.393,10.741-7.393a4.046,4.046,0,0,1,3.193,1.537,2.959,2.959,0,0,1,.658,2.39c-.532,3.924-7.516,8.8-7.813,9.009a.486.486,0,1,1-.554-.8c.069-.047,6.93-4.839,7.4-8.34a2.008,2.008,0,0,0-.44-1.636,3.048,3.048,0,0,0-2.384-1.189c-2.513,0-5.859,2.352-10.014,6.995-1.512,1.687-1.481,5.489,1.422,9.356,2.867,3.824,5.406,7.9,5.43,7.938a.488.488,0,0,1-.154.67A.493.493,0,0,1,1699.276,471.557Z" transform="translate(-1690.846 -445.554)"/>
      </g>
      <g id="Group_88" data-name="Group 88" transform="translate(1443.179 343.664)">
        <path id="Path_143" data-name="Path 143" d="M1708.189,495.538c-.68,0-1.372-.009-2.07-.028-5.3-.143-15.29-1.122-15.217-3.8.032-1.22,1.709-2.048,5.127-2.53a.476.476,0,0,1,.549.414.484.484,0,0,1-.414.549c-4.144.585-4.287,1.491-4.29,1.592-.022.82,4.995,2.552,14.269,2.8a56.9,56.9,0,0,0,10.411-.56c3.255-.546,3.984-1.244,3.99-1.467s.013-.449-1.289-.9a.487.487,0,0,1-.3-.62.494.494,0,0,1,.618-.3c1.28.446,1.969.872,1.941,1.849-.027,1.077-1.6,1.862-4.8,2.4A53.55,53.55,0,0,1,1708.189,495.538Z" transform="translate(-1690.901 -489.176)"/>
      </g>
      <g id="Group_89" data-name="Group 89" transform="translate(1363.075 347.238)">
        <path id="Path_144" data-name="Path 144" d="M1521.579,512.658a3.445,3.445,0,0,1-.783-.1c-2.525-.591-3.7-4.475-2.681-8.844s3.8-7.333,6.318-6.74,3.7,4.473,2.679,8.842l-.1.439a7.017,7.017,0,0,1-1.055,2.761.479.479,0,0,1-.672.143.486.486,0,0,1-.144-.672,6.151,6.151,0,0,0,.923-2.449l.1-.443c.868-3.709-.028-7.222-1.954-7.673s-4.284,2.3-5.149,6.015.028,7.224,1.954,7.675a2.881,2.881,0,0,0,.588.072c.241-.049.489.212.492.48A.49.49,0,0,1,1521.579,512.658Z" transform="translate(-1517.748 -496.902)"/>
      </g>
      <g id="Group_90" data-name="Group 90" transform="translate(1374.704 349.228)">
        <path id="Path_145" data-name="Path 145" d="M1546.576,516.938a2.9,2.9,0,0,1-.649-.075c-1.255-.292-2.215-1.412-2.7-3.15a12.752,12.752,0,0,1,2.523-10.805c1.209-1.344,2.564-1.921,3.821-1.627s2.215,1.412,2.7,3.15a12.749,12.749,0,0,1-2.523,10.8A4.416,4.416,0,0,1,1546.576,516.938Zm2.344-14.76a3.505,3.505,0,0,0-2.45,1.38,11.788,11.788,0,0,0-2.31,9.891c.388,1.381,1.094,2.257,1.989,2.466a3.118,3.118,0,0,0,2.874-1.33,11.794,11.794,0,0,0,2.31-9.891c-.388-1.381-1.092-2.257-1.987-2.466A1.865,1.865,0,0,0,1548.921,502.178Z" transform="translate(-1542.885 -501.205)"/>
      </g>
      <g id="Group_91" data-name="Group 91" transform="translate(1371.432 355.249)">
        <path id="Path_146" data-name="Path 146" d="M1539.783,516.272a.485.485,0,0,1-.366-.165c-1.4-1.6-2.672-.638-2.809-.526a.487.487,0,0,1-.625-.746,2.894,2.894,0,0,1,4.166.629.486.486,0,0,1-.366.808Z" transform="translate(-1535.812 -514.219)"/>
      </g>
      <g id="Group_92" data-name="Group 92" transform="translate(1559.839 443.028)">
        <path id="Path_147" data-name="Path 147" d="M1944.581,735.208c-.351,0-.7-.01-1.046-.029a.489.489,0,0,1-.459-.514.518.518,0,0,1,.514-.458,18.03,18.03,0,0,0,4.882-.392c9.941-2.144,18.186-16.361,21.948-29.5a.482.482,0,0,1,.6-.333.487.487,0,0,1,.332.6c-3.842,13.417-12.346,27.952-22.68,30.181A19.365,19.365,0,0,1,1944.581,735.208Z" transform="translate(-1943.076 -703.963)"/>
      </g>
      <g id="Group_93" data-name="Group 93" transform="translate(1491.097 466.154)">
        <path id="Path_148" data-name="Path 148" d="M1798.9,769.637a18.822,18.822,0,0,1-4.034-.443.485.485,0,0,1-.369-.58.468.468,0,0,1,.578-.37c13.263,2.906,21.961-10.021,24.317-14.05a.485.485,0,1,1,.837.492C1818.033,758.439,1810.5,769.637,1798.9,769.637Z" transform="translate(-1794.483 -753.953)"/>
      </g>
      <g id="Group_94" data-name="Group 94" transform="translate(1469.403 381.366)">
        <path id="Path_149" data-name="Path 149" d="M1748.1,646.594a.484.484,0,0,1-.486-.466,35.788,35.788,0,0,1,.36-6.554c4.095-31.6,11.445-44.654,17.928-56.171,7.679-13.64,23.145-13.037,27.714-12.523a.486.486,0,0,1,.428.537.466.466,0,0,1-.539.429c-4.406-.5-19.367-1.084-26.754,12.034-6.439,11.441-13.74,24.407-17.81,55.82a34.93,34.93,0,0,0-.354,6.388.485.485,0,0,1-.468.507Z" transform="translate(-1747.587 -570.675)"/>
      </g>
      <g id="Group_95" data-name="Group 95" transform="translate(1531.473 381.746)">
        <path id="Path_150" data-name="Path 150" d="M1915.325,595.146a.486.486,0,0,1-.464-.341c-4.6-14.729-15.835-19.018-25.111-21.11-.04-.007-5.089-1.037-7.54-1.223a.488.488,0,0,1-.449-.521.475.475,0,0,1,.523-.448c2.513.191,7.464,1.2,7.673,1.241,9.537,2.151,21.084,6.567,25.834,21.772a.488.488,0,0,1-.32.609A.457.457,0,0,1,1915.325,595.146Z" transform="translate(-1881.759 -571.497)"/>
      </g>
      <g id="Group_96" data-name="Group 96" transform="translate(1526.48 350.32)">
        <path id="Path_151" data-name="Path 151" d="M1879.976,529.7a12.7,12.7,0,0,1-3.224-.48,57.386,57.386,0,0,1-5.473-1.729.485.485,0,0,1-.277-.631.494.494,0,0,1,.627-.277c1.548.6,3.812,1.286,5.369,1.7a10.059,10.059,0,0,0,3.913.388,5.607,5.607,0,0,0,4.249-3.324,23.946,23.946,0,0,0,2.2-6.495c.034-.128,2.753-10.5,2.6-14.781a.486.486,0,0,1,.468-.5.531.531,0,0,1,.5.47c.154,4.419-2.514,14.607-2.628,15.04a24.652,24.652,0,0,1-2.289,6.727,6.5,6.5,0,0,1-4.978,3.83A7.99,7.99,0,0,1,1879.976,529.7Z" transform="translate(-1870.968 -503.565)"/>
      </g>
      <g id="Group_97" data-name="Group 97" transform="translate(1515.424 352.954)">
        <path id="Path_152" data-name="Path 152" d="M1850.974,520.1a.464.464,0,0,1-.157-.026,5.556,5.556,0,1,1,5.9-9.008.487.487,0,0,1-.72.656,4.583,4.583,0,1,0-4.87,7.433.486.486,0,0,1-.157.946Z" transform="translate(-1847.068 -509.259)"/>
      </g>
      <g id="Group_98" data-name="Group 98" transform="translate(1518.954 354.952)">
        <path id="Path_153" data-name="Path 153" d="M1855.185,519.967a.486.486,0,0,1-.228-.917l3.255-1.717-2.8-2.936a.485.485,0,1,1,.7-.671l3.243,3.4a.479.479,0,0,1,.129.414.484.484,0,0,1-.252.353l-3.824,2.016A.484.484,0,0,1,1855.185,519.967Z" transform="translate(-1854.698 -513.577)"/>
      </g>
      <g id="Group_99" data-name="Group 99" transform="translate(1503.2 406.482)">
        <path id="Path_154" data-name="Path 154" d="M1821.131,657.667c-.391-.091-.541-.36-.468-.619,3.572-12.614,3.258-31.4,3.255-31.589a.486.486,0,0,1,.972-.018c0,.189.32,19.121-3.292,31.872A.488.488,0,0,1,1821.131,657.667Z" transform="translate(-1820.645 -624.965)"/>
      </g>
      <g id="Group_100" data-name="Group 100" transform="translate(1532.13 364.42)">
        <path id="Path_155" data-name="Path 155" d="M1887.015,538.733a3.677,3.677,0,0,1-2.606-.923,4.6,4.6,0,0,1-1.228-3.3.486.486,0,0,1,.486-.461.493.493,0,0,1,.486.511,3.659,3.659,0,0,0,.923,2.547,3.086,3.086,0,0,0,2.584.617.5.5,0,0,1,.542.425.485.485,0,0,1-.425.541A6.315,6.315,0,0,1,1887.015,538.733Z" transform="translate(-1883.179 -534.044)"/>
      </g>
      <g id="Group_101" data-name="Group 101" transform="translate(1497.065 439.372)">
        <path id="Path_156" data-name="Path 156" d="M1813.12,724.775a5.75,5.75,0,0,1-5.177-8.207l9.559-20.227a.487.487,0,1,1,.88.415l-9.559,20.227a4.777,4.777,0,0,0,4.747,6.8l60.547-5.431a4.793,4.793,0,0,0,3.891-2.716l7.107-15.04a.487.487,0,1,1,.88.415l-7.107,15.04a5.775,5.775,0,0,1-4.686,3.271l-60.547,5.43C1813.477,724.766,1813.3,724.775,1813.12,724.775Z" transform="translate(-1807.382 -696.062)"/>
      </g>
      <g id="Group_102" data-name="Group 102" transform="translate(1512.198 406.382)">
        <path id="Path_157" data-name="Path 157" d="M1840.582,648a.48.48,0,0,1-.209-.046.487.487,0,0,1-.231-.648l6.537-13.832a5.776,5.776,0,0,1,4.686-3.271l60.551-5.43a5.748,5.748,0,0,1,5.71,8.182l-3.139,6.646a.486.486,0,1,1-.88-.415l3.138-6.646a4.725,4.725,0,0,0-.4-4.776,4.659,4.659,0,0,0-4.341-2.022l-60.55,5.43a4.8,4.8,0,0,0-3.892,2.716l-6.538,13.833A.487.487,0,0,1,1840.582,648Z" transform="translate(-1840.096 -624.75)"/>
      </g>
      <g id="Group_103" data-name="Group 103" transform="translate(1493.932 403.535)">
        <path id="Path_158" data-name="Path 158" d="M1806,681.815a.484.484,0,0,1-.341-.14l-4.206-4.157a5.678,5.678,0,0,1-.292-5.429l21.158-44.772a5.765,5.765,0,0,1,4.683-3.271l60.55-5.432a5.912,5.912,0,0,1,2.461.308.488.488,0,0,1,.142.078l4.4,3.508a.487.487,0,1,1-.609.76l-4.332-3.456a4.686,4.686,0,0,0-1.972-.229l-60.55,5.432a4.792,4.792,0,0,0-3.889,2.716l-21.158,44.773a4.7,4.7,0,0,0,.145,4.369l4.156,4.109a.484.484,0,0,1,0,.687A.474.474,0,0,1,1806,681.815Z" transform="translate(-1800.61 -618.596)"/>
      </g>
      <g id="Group_104" data-name="Group 104" transform="translate(1523.689 343.607)">
        <path id="Path_159" data-name="Path 159" d="M1865.42,500.508a.485.485,0,0,1-.375-.8c1.714-2.075,2.673-9.436,2.683-9.51a.484.484,0,0,1,.359-.409c.148-.041,15.143-3.859,19.564,6.266a.486.486,0,0,1-.892.388c-3.744-8.589-15.992-6.262-18.112-5.786-.216,1.518-1.166,7.628-2.852,9.67A.485.485,0,0,1,1865.42,500.508Z" transform="translate(-1864.933 -489.055)"/>
      </g>
      <g id="Group_105" data-name="Group 105" transform="translate(1502.461 338.148)">
        <path id="Path_160" data-name="Path 160" d="M1833.433,515.243a24.971,24.971,0,0,1-3.452-.263c-4.145-.578-9.085-1.682-10.543-5.109a6.2,6.2,0,0,1-.378-2.71,13.6,13.6,0,0,1,3.209-8.219l.366-.412c1.477-1.662,2.545-2.861,1.914-5.178a15.925,15.925,0,0,1,2.427-13.036,6.944,6.944,0,0,1,5.523-3.062h2.538a.486.486,0,1,1,0,.972H1832.5a6.119,6.119,0,0,0-4.75,2.681,15.1,15.1,0,0,0-2.258,12.19c.766,2.824-.575,4.333-2.129,6.081l-.36.408a12.591,12.591,0,0,0-2.969,7.622,5.356,5.356,0,0,0,.3,2.283c1.268,2.977,5.9,3.983,9.787,4.527,4.677.66,7.821.054,9.362-1.788,2.074-2.472,1.621-5.084.326-6.467a.485.485,0,1,1,.708-.664c1.581,1.684,2.166,4.83-.29,7.756C1838.891,514.443,1836.615,515.243,1833.433,515.243Z" transform="translate(-1819.047 -477.253)"/>
      </g>
      <g id="Group_106" data-name="Group 106" transform="translate(1559.404 462.014)">
        <path id="Path_161" data-name="Path 161" d="M1943.867,769.51a.485.485,0,0,1-.483-.425,200.036,200.036,0,0,1-1.243-23.6.486.486,0,0,1,.486-.48.518.518,0,0,1,.486.492,200.108,200.108,0,0,0,1.237,23.465.487.487,0,0,1-.422.544Z" transform="translate(-1942.136 -745.005)"/>
      </g>
      <g id="Group_107" data-name="Group 107" transform="translate(1532.931 367.181)">
        <path id="Path_162" data-name="Path 162" d="M1891.139,551.586a16.163,16.163,0,0,1-5.932-1.146.487.487,0,1,1,.382-.9c2.938,1.248,9.5,2.093,11.353-1.575,1.833-3.632-1.785-6.97-1.938-7.11a.487.487,0,0,1,.652-.723c.043.04,4.323,3.972,2.154,8.271C1896.609,550.786,1893.889,551.584,1891.139,551.586Z" transform="translate(-1884.911 -540.011)"/>
      </g>
      <g id="Group_108" data-name="Group 108" transform="translate(1570.19 414.029)">
        <path id="Path_163" data-name="Path 163" d="M1976.363,672.108a35.673,35.673,0,0,1-4.058-.24c-2.981-.345-7.215-2.491-6.83-6a3.594,3.594,0,0,1,1.886-2.788.487.487,0,0,1,.468.855,2.625,2.625,0,0,0-1.388,2.038c-.323,2.954,3.732,4.666,5.975,4.926,7.5.866,12.417-.755,13.968-2.741a15.727,15.727,0,0,0,2.673-5.978,34.492,34.492,0,0,0,.785-12.059c-.483-4.141-5.593-7.927-5.643-7.965a.486.486,0,1,1,.572-.785c.225.165,5.5,4.078,6.036,8.636a34.871,34.871,0,0,1-.809,12.41,16.663,16.663,0,0,1-2.845,6.341C1985.479,670.9,1981.436,672.108,1976.363,672.108Z" transform="translate(-1965.45 -641.28)"/>
      </g>
      <g id="Group_109" data-name="Group 109" transform="translate(1571.494 419.39)">
        <path id="Path_164" data-name="Path 164" d="M1974.143,663.883a9.454,9.454,0,0,1-1.28-.065l-.348-.048c-1.086-.143-2.726-.359-3.439-1.512a4.865,4.865,0,0,1-.548-4.218,5.142,5.142,0,0,1,2.541-2.734,6.009,6.009,0,0,1,3.372-.464c.252.015.5.031.757.037,9.485.231,11.233-1.8,11.248-1.826a.5.5,0,0,1,.677-.091.483.483,0,0,1,.114.661c-.178.254-2.027,2.475-12.063,2.227-.261-.006-.526-.021-.787-.037a5.2,5.2,0,0,0-2.855.348,4.187,4.187,0,0,0-2.086,2.208,3.884,3.884,0,0,0,.455,3.375c.474.763,1.84.943,2.742,1.062l.363.049c2.1.309,11.362-.691,12.174-1.008a.49.49,0,0,1,.628.277.485.485,0,0,1-.277.631A71.586,71.586,0,0,1,1974.143,663.883Z" transform="translate(-1968.27 -652.867)"/>
      </g>
      <g id="Group_110" data-name="Group 110" transform="translate(1554.573 403.959)">
        <path id="Path_165" data-name="Path 165" d="M1932.178,622.4a.486.486,0,0,1-.486-.486V620a.486.486,0,0,1,.972,0v1.915A.486.486,0,0,1,1932.178,622.4Z" transform="translate(-1931.692 -619.511)"/>
      </g>
      <g id="Group_111" data-name="Group 111" transform="translate(1570.567 428.67)">
        <path id="Path_166" data-name="Path 166" d="M1974.811,682.143c-1.292,0-2.581-.048-3.778-.169-2.473-.251-5.015-1.914-4.747-4.974a5.747,5.747,0,0,1,2.519-3.987.486.486,0,1,1,.548.8,4.81,4.81,0,0,0-2.1,3.271c-.209,2.4,1.862,3.715,3.877,3.918a67.444,67.444,0,0,0,13.371-.519.486.486,0,1,1,.135.963A80.728,80.728,0,0,1,1974.811,682.143Z" transform="translate(-1966.266 -672.927)"/>
      </g>
      <g id="Group_112" data-name="Group 112" transform="translate(1542.807 431.376)">
        <path id="Path_167" data-name="Path 167" d="M1909.476,690.044a3.063,3.063,0,0,1-1.547-.4c-1.978-1.14-2.234-4.418-.57-7.305s4.628-4.307,6.612-3.163,2.234,4.421.566,7.305a7.719,7.719,0,0,1-3.1,3.06A4.4,4.4,0,0,1,1909.476,690.044Zm-1.274-7.223c-1.4,2.422-1.3,5.1.212,5.976a2.692,2.692,0,0,0,2.59-.129,6.717,6.717,0,0,0,2.689-2.677c1.375-2.38,1.28-5.116-.209-5.976-1.511-.871-3.883.383-5.283,2.806Z" transform="translate(-1906.26 -678.776)"/>
      </g>
      <g id="Group_113" data-name="Group 113" transform="translate(1514.89 375.123)">
        <path id="Path_168" data-name="Path 168" d="M1860.692,578.4c-4.433,0-13.595-11.765-14.675-13.173a.482.482,0,0,1-.089-.405l1.658-7.266a.486.486,0,1,1,.948.215l-1.606,7.044c4.172,5.406,11.586,13.466,14.125,12.559,1.7-.589,1.652-7.019,1.076-11.4a.552.552,0,0,1,.01-.173l1.83-7.99a.486.486,0,0,1,.948.219l-1.812,7.9c.268,2.078,1.277,11.311-1.732,12.357A2.1,2.1,0,0,1,1860.692,578.4Z" transform="translate(-1845.914 -557.179)"/>
      </g>
      <g id="Group_114" data-name="Group 114" transform="translate(1519.377 339.13)">
        <path id="Path_169" data-name="Path 169" d="M1859.5,482.009a.479.479,0,0,1-.212-.049l-3.4-1.66a.486.486,0,1,1,.424-.874l3.4,1.66a.486.486,0,0,1-.213.923Z" transform="translate(-1855.612 -479.377)"/>
      </g>
      <g id="Group_115" data-name="Group 115" transform="translate(1491.096 485.948)">
        <path id="Path_170" data-name="Path 170" d="M1898.67,797.713h-103.7a.486.486,0,1,1,0-.972h103.7a.486.486,0,1,1,0,.972Z" transform="translate(-1794.481 -796.741)"/>
      </g>
      <g id="Group_116" data-name="Group 116" transform="translate(1240.537 485.948)">
        <path id="Path_171" data-name="Path 171" d="M1515.438,797.713H1253.764c-.5,0-.9-.216-.9-.486s.4-.486.9-.486h261.673c.5,0,.9.217.9.486S1515.934,797.713,1515.438,797.713Z" transform="translate(-1252.867 -796.741)"/>
      </g>
      <path id="Path_172" data-name="Path 172" d="M1906.674,515.2c-.381-.1-.656.042-.9,1.423-.275,1.541.1,1.854.45,1.874s.746-.425.837-1.536S1907.172,515.329,1906.674,515.2Z" transform="translate(-363.139 -159.484)"/>
      <path id="Path_173" data-name="Path 173" d="M1885.2,511.38c-.383-.089-.655.059-.866,1.447-.234,1.547.149,1.85.5,1.861s.734-.445.8-1.558S1885.7,511.5,1885.2,511.38Z" transform="translate(-351.631 -157.433)"/>
      <g id="Group_117" data-name="Group 117" transform="translate(1239.02 430.703)">
        <path id="Path_174" data-name="Path 174" d="M1256.384,720.613a1.884,1.884,0,0,1-.962-.263l-4.9-2.887a1.9,1.9,0,0,1-.671-2.6l8.995-15.255a.93.93,0,0,0-.329-1.272l-5.609-3.308a1.9,1.9,0,0,1-.035-3.255l22.885-14.163a1.9,1.9,0,0,1,2.9,1.709l-1.317,26.88a1.9,1.9,0,0,1-2.865,1.546l-6.188-3.649a.93.93,0,0,0-1.27.329l-9,15.257A1.9,1.9,0,0,1,1256.384,720.613ZM1253.39,692.6a.931.931,0,0,0,.015,1.591l5.611,3.307a1.906,1.906,0,0,1,.67,2.6l-8.994,15.255a.918.918,0,0,0-.1.7.927.927,0,0,0,.43.569l4.895,2.888a.934.934,0,0,0,1.272-.329l9-15.255a1.9,1.9,0,0,1,2.6-.672l6.187,3.649a.928.928,0,0,0,1.4-.757l1.317-26.878a.929.929,0,0,0-1.417-.836L1253.388,692.6Z" transform="translate(-1249.589 -677.322)"/>
      </g>
      <g id="Group_118" data-name="Group 118" transform="translate(1585.141 319.241)">
        <path id="Path_175" data-name="Path 175" d="M2018.331,457.316h-17.552a2.627,2.627,0,0,1-2.452-4.272l8.734-14.958a2.669,2.669,0,0,1,4.974,0s8.747,14.963,8.747,14.963a2.627,2.627,0,0,1-2.452,4.27Zm-8.781-19.959a2.045,2.045,0,0,0-1.646,1.218l-8.735,14.96a1.683,1.683,0,0,0,1.609,2.809h17.552a1.682,1.682,0,0,0,1.612-2.806l-8.747-14.963A2.053,2.053,0,0,0,2009.55,437.357Z" transform="translate(-1997.77 -436.383)"/>
      </g>
      <g id="Group_125" data-name="Group 125" transform="translate(1262.065 257.486)">
        <g id="Group_120" data-name="Group 120" transform="translate(26.916 0)">
          <g id="Group_119" data-name="Group 119">
            <path id="Path_176" data-name="Path 176" d="M1368.438,327.147a10.866,10.866,0,0,1-10.854-10.853c.043-.216,2.22-7.358,1.189-12.825a.487.487,0,0,1,.957-.182c1.031,5.472-.926,12.258-1.174,13.077a9.881,9.881,0,0,0,19.762,0c-.248-.82-2.207-7.607-1.177-13.079a.487.487,0,0,1,.957.182c-1.032,5.472,1.149,12.609,1.171,12.68A10.866,10.866,0,0,1,1368.438,327.147Z" transform="translate(-1357.584 -302.894)"/>
          </g>
        </g>
        <g id="Group_124" data-name="Group 124" transform="translate(0 0)">
          <g id="Group_121" data-name="Group 121" transform="translate(46.466)">
            <path id="Path_177" data-name="Path 177" d="M1428.706,378.706h-19.844a.486.486,0,0,1,0-.972h19.358V350.063a.486.486,0,0,1,.4-.478c5.484-1.026,12.259.928,13.077,1.174a9.882,9.882,0,0,0,0-19.764c-.822.247-7.6,2.213-13.079,1.178a.487.487,0,0,1-.4-.479V303.865H1400.33a.486.486,0,1,1,0-.972h28.375a.485.485,0,0,1,.486.486v27.906c5.424.865,12.219-1.219,12.285-1.242a10.844,10.844,0,1,1,.145,21.687c-.216-.044-7.029-2.12-12.429-1.258V378.22A.485.485,0,0,1,1428.706,378.706Z" transform="translate(-1399.844 -302.893)"/>
          </g>
          <g id="Group_122" data-name="Group 122" transform="translate(0 46.626)">
            <path id="Path_178" data-name="Path 178" d="M1343.377,432.867h-43.487a.485.485,0,0,1-.486-.486V404.166a.486.486,0,0,1,.972,0V431.9h43a.486.486,0,1,1,0,.972Z" transform="translate(-1299.403 -403.68)"/>
          </g>
          <g id="Group_123" data-name="Group 123">
            <path id="Path_179" data-name="Path 179" d="M1299.889,325.143a.485.485,0,0,1-.486-.486V303.379a.485.485,0,0,1,.486-.486h28.1a.486.486,0,0,1,0,.972h-27.611v20.791A.485.485,0,0,1,1299.889,325.143Z" transform="translate(-1299.403 -302.893)"/>
          </g>
        </g>
      </g>
      <g id="Group_138" data-name="Group 138" transform="translate(1424.594 257.486)">
        <g id="Group_127" data-name="Group 127" transform="translate(27.193 0.002)">
          <g id="Group_126" data-name="Group 126">
            <path id="Path_180" data-name="Path 180" d="M1720.36,327.15a10.864,10.864,0,0,1-10.851-10.853c.044-.216,2.222-7.358,1.194-12.826a.484.484,0,0,1,.388-.568.5.5,0,0,1,.566.387c1.031,5.472-.929,12.259-1.175,13.077a9.881,9.881,0,0,0,19.761,0c-.247-.82-2.2-7.607-1.172-13.079a.485.485,0,1,1,.953.18c-1.027,5.473,1.148,12.611,1.169,12.683A10.866,10.866,0,0,1,1720.36,327.15Z" transform="translate(-1709.509 -302.898)"/>
          </g>
        </g>
        <g id="Group_129" data-name="Group 129" transform="translate(0 27.076)">
          <g id="Group_128" data-name="Group 128">
            <path id="Path_181" data-name="Path 181" d="M1664.131,383.105c-.217-.045-7.367-2.232-12.825-1.192a.487.487,0,0,1-.182-.957c5.478-1.029,12.257.929,13.078,1.176a9.881,9.881,0,0,0,0-19.762c-.82.244-7.608,2.2-13.078,1.172a.487.487,0,0,1,.182-.957c5.476,1.034,12.61-1.145,12.681-1.166a10.843,10.843,0,1,1,.143,21.685Z" transform="translate(-1650.729 -361.42)"/>
          </g>
        </g>
        <g id="Group_131" data-name="Group 131" transform="translate(51.56 27.054)">
          <g id="Group_130" data-name="Group 130">
            <path id="Path_182" data-name="Path 182" d="M1773.035,383.08a10.853,10.853,0,1,1,0-21.707c.212.043,7.362,2.228,12.827,1.188a.491.491,0,0,1,.566.388.485.485,0,0,1-.388.569c-5.464,1.033-12.26-.927-13.075-1.172a9.881,9.881,0,0,0,0,19.762c.822-.249,7.611-2.209,13.075-1.176a.485.485,0,0,1,.388.569.5.5,0,0,1-.566.388c-5.48-1.035-12.608,1.146-12.682,1.171A.506.506,0,0,1,1773.035,383.08Z" transform="translate(-1762.181 -361.373)"/>
          </g>
        </g>
        <g id="Group_137" data-name="Group 137" transform="translate(0.001 0)">
          <g id="Group_132" data-name="Group 132">
            <path id="Path_183" data-name="Path 183" d="M1651.216,332.18a.485.485,0,0,1-.486-.486V303.379a.485.485,0,0,1,.486-.486h28.377a.486.486,0,0,1,0,.972H1651.7v27.829A.485.485,0,0,1,1651.216,332.18Z" transform="translate(-1650.73 -302.893)"/>
          </g>
          <g id="Group_133" data-name="Group 133" transform="translate(0 46.684)">
            <path id="Path_184" data-name="Path 184" d="M1670,432.935h-18.789a.485.485,0,0,1-.486-.486V404.292a.486.486,0,1,1,.972,0v27.671H1670a.486.486,0,0,1,0,.972Z" transform="translate(-1650.73 -403.806)"/>
          </g>
          <g id="Group_134" data-name="Group 134" transform="translate(29.761 74.841)">
            <path id="Path_185" data-name="Path 185" d="M1748.139,465.642h-32.591a.486.486,0,1,1,0-.972h32.591a.486.486,0,0,1,0,.972Z" transform="translate(-1715.062 -464.67)"/>
          </g>
          <g id="Group_135" data-name="Group 135" transform="translate(74.843 46.699)">
            <path id="Path_186" data-name="Path 186" d="M1813,426.581a.486.486,0,0,1-.486-.486v-21.77a.486.486,0,1,1,.972,0V426.1A.486.486,0,0,1,1813,426.581Z" transform="translate(-1812.511 -403.839)"/>
          </g>
          <g id="Group_136" data-name="Group 136" transform="translate(46.744)">
            <path id="Path_187" data-name="Path 187" d="M1780.357,331.824a.486.486,0,0,1-.486-.486V303.865h-27.613a.486.486,0,0,1,0-.972h28.1a.486.486,0,0,1,.486.486v27.958A.486.486,0,0,1,1780.357,331.824Z" transform="translate(-1751.773 -302.893)"/>
          </g>
        </g>
      </g>
      <g id="Group_139" data-name="Group 139" transform="translate(1286.181 332.329)">
        <path id="Path_188" data-name="Path 188" d="M1357.368,481.686a.483.483,0,0,1-.4-.211c-3.031-4.393-5.33-15.74-5.427-16.221a.486.486,0,1,1,.954-.191c.023.116,2.358,11.631,5.273,15.861a.485.485,0,0,1-.125.675A.478.478,0,0,1,1357.368,481.686Z" transform="translate(-1351.532 -464.675)"/>
      </g>
      <g id="Group_140" data-name="Group 140" transform="translate(1457.777 332.328)">
        <path id="Path_189" data-name="Path 189" d="M1722.944,476.979a.5.5,0,0,1-.48-.564c.954-5.8,5.347-11.329,5.535-11.562a.486.486,0,1,1,.757.609c-.043.056-4.418,5.564-5.332,11.11A.488.488,0,0,1,1722.944,476.979Z" transform="translate(-1722.457 -464.673)"/>
      </g>
      <g id="Group_141" data-name="Group 141" transform="translate(1469.634 332.327)">
        <path id="Path_190" data-name="Path 190" d="M1748.573,481.285a.489.489,0,0,1-.277-.087.483.483,0,0,1-.123-.675c2.913-4.231,5.251-15.354,5.273-15.465a.487.487,0,0,1,.954.2c-.1.464-2.4,11.428-5.427,15.818A.483.483,0,0,1,1748.573,481.285Z" transform="translate(-1748.087 -464.671)"/>
      </g>
      <g id="Group_142" data-name="Group 142" transform="translate(1402.282 406.866)">
        <path id="Path_191" data-name="Path 191" d="M1607.11,676.215a.486.486,0,0,1-.442-.28c-8.242-17.684-1.735-49.436-1.669-49.754a.5.5,0,0,1,.577-.377.488.488,0,0,1,.376.577c-.066.315-6.508,31.754,1.6,49.143a.486.486,0,0,1-.441.692Z" transform="translate(-1602.498 -625.796)"/>
      </g>
      <g id="Group_144" data-name="Group 144" transform="translate(1270.276 451.863)">
        <path id="Path_193" data-name="Path 193" d="M1390.116,724.033h-72.477a.486.486,0,0,1,0-.972h72.477a.486.486,0,1,1,0,.972Z" transform="translate(-1317.153 -723.061)"/>
      </g>
      <g id="Group_145" data-name="Group 145" transform="translate(1249.189 353.503)">
        <path id="Path_194" data-name="Path 194" d="M1272.057,595.53a.485.485,0,0,1-.486-.486V522.605a12.174,12.174,0,0,1,12.16-12.16h27.129a.486.486,0,0,1,0,.972h-27.129a11.2,11.2,0,0,0-11.188,11.188v72.438A.485.485,0,0,1,1272.057,595.53Z" transform="translate(-1271.571 -510.445)"/>
      </g>
      <g id="Group_146" data-name="Group 146" transform="translate(1318.024 353.503)">
        <path id="Path_195" data-name="Path 195" d="M1465.962,511.417H1420.85a.486.486,0,0,1,0-.972h45.112a.486.486,0,0,1,0,.972Z" transform="translate(-1420.364 -510.445)"/>
      </g>
      <g id="Group_147" data-name="Group 147" transform="translate(1360.658 332.3)">
        <path id="Path_196" data-name="Path 196" d="M1550.489,501.324a.487.487,0,0,1-.486-.468c-.131-3.306,1.411-5.9,2.9-8.4,1.774-2.983,3.609-6.067,2.732-10.509-1.573-7.97-13.12-9.805-13.237-9.822a.493.493,0,0,1-.272-.136c-4.323-4.323-9.582-6.609-14.791-6.389a16.318,16.318,0,0,0-11.869,5.807c-3.776,4.416-1.192,11.385.686,15.147a.486.486,0,0,1-.871.434c-2.425-4.858-4.489-11.615-.554-16.216a17.29,17.29,0,0,1,12.571-6.145c5.411-.2,10.91,2.117,15.4,6.561,1.511.257,12.267,2.362,13.886,10.571.949,4.807-.981,8.055-2.849,11.194-1.483,2.494-2.883,4.847-2.764,7.867a.487.487,0,0,1-.467.5Z" transform="translate(-1512.524 -464.614)"/>
      </g>
      <g id="Group_148" data-name="Group 148" transform="translate(1395.433 367.913)">
        <path id="Path_197" data-name="Path 197" d="M1598.269,561.556a.486.486,0,0,1-.175-.94,9.2,9.2,0,0,0,5.624-6.788,9.621,9.621,0,0,0-4.395-9.593,11.994,11.994,0,0,0-10.962-.664.486.486,0,1,1-.363-.9,12.948,12.948,0,0,1,11.854.751A10.6,10.6,0,0,1,1604.675,554a10.189,10.189,0,0,1-6.23,7.521A.5.5,0,0,1,1598.269,561.556Z" transform="translate(-1587.693 -541.595)"/>
      </g>
      <g id="Group_149" data-name="Group 149" transform="translate(1359.236 368.616)">
        <path id="Path_198" data-name="Path 198" d="M1513.059,559.58a.481.481,0,0,1-.231-.058c-3.261-1.763-4.089-7.218-2.793-11.011a9.223,9.223,0,0,1,5.432-5.37.481.481,0,0,1,.615.306.487.487,0,0,1-.3.617,8.39,8.39,0,0,0-4.823,4.761c-1.293,3.79-.18,8.481,2.335,9.842a.486.486,0,0,1-.231.914Z" transform="translate(-1509.45 -543.114)"/>
      </g>
      <g id="Group_150" data-name="Group 150" transform="translate(1366.707 343.269)">
        <path id="Path_199" data-name="Path 199" d="M1547.386,504.164a.485.485,0,0,1-.464-.337c-.125-.388-.242-.875-.372-1.428a15.28,15.28,0,0,0-1.938-5.121,6.876,6.876,0,0,0-5.741-3.007,24.167,24.167,0,0,1-13.1-5.092.484.484,0,0,1-.06-.684.492.492,0,0,1,.685-.062,23.6,23.6,0,0,0,12.52,4.866,7.885,7.885,0,0,1,6.5,3.432,16.017,16.017,0,0,1,2.081,5.444c.124.523.234.986.352,1.354a.487.487,0,0,1-.314.612A.523.523,0,0,1,1547.386,504.164Z" transform="translate(-1525.599 -488.323)"/>
      </g>
      <g id="Group_151" data-name="Group 151" transform="translate(1366.701 353.054)">
        <path id="Path_200" data-name="Path 200" d="M1527.526,521.83a.486.486,0,0,1-.359-.157c-.069-.075-1.708-1.881-1.573-3.729.091-1.256.96-1.485,1.8-1.7a5.008,5.008,0,0,0,2.173-1.028c1.7-1.443,1.545-5.191,1.543-5.229a.487.487,0,0,1,.972-.046c.007.174.174,4.269-1.885,6.016a5.969,5.969,0,0,1-2.557,1.226c-.881.232-1.041.315-1.08.836a5.025,5.025,0,0,0,1.321,3,.486.486,0,0,1-.358.815Z" transform="translate(-1525.586 -509.474)"/>
      </g>
      <g id="Group_152" data-name="Group 152" transform="translate(1323.284 372.041)">
        <path id="Path_201" data-name="Path 201" d="M1469.128,551.489h-36.905a.486.486,0,1,1,0-.972h36.905a.486.486,0,0,1,0,.972Z" transform="translate(-1431.736 -550.517)"/>
      </g>
      <g id="Group_153" data-name="Group 153" transform="translate(1252.588 372.041)">
        <path id="Path_202" data-name="Path 202" d="M1319.114,551.489H1279.4a.486.486,0,0,1,0-.972h39.711a.486.486,0,1,1,0,.972Z" transform="translate(-1278.917 -550.517)"/>
      </g>
      <g id="Group_154" data-name="Group 154" transform="translate(1354.509 358.381)">
        <path id="Path_203" data-name="Path 203" d="M1503.5,529.531a4.271,4.271,0,1,1,4.272-4.27A4.275,4.275,0,0,1,1503.5,529.531Zm0-7.57a3.3,3.3,0,1,0,3.3,3.3A3.3,3.3,0,0,0,1503.5,521.961Z" transform="translate(-1499.231 -520.989)"/>
      </g>
      <g id="Group_155" data-name="Group 155" transform="translate(1341.736 358.381)">
        <path id="Path_204" data-name="Path 204" d="M1475.894,529.531a4.271,4.271,0,1,1,4.271-4.27A4.276,4.276,0,0,1,1475.894,529.531Zm0-7.57a3.3,3.3,0,1,0,3.3,3.3A3.3,3.3,0,0,0,1475.894,521.961Z" transform="translate(-1471.622 -520.989)"/>
      </g>
      <g id="Group_156" data-name="Group 156" transform="translate(1318.023 218.396)">
        <path id="Path_205" data-name="Path 205" d="M1541.881,254.951l-.52-.822.247.418-.469.13a24.831,24.831,0,0,0-.9-2.4.487.487,0,0,1,.9-.381C1542.306,254.665,1542.2,254.737,1541.881,254.951Zm-121.032-1.76a.5.5,0,0,1-.167-.029.488.488,0,0,1-.289-.625,33,33,0,0,1,2.591-5.087.486.486,0,1,1,.834.5,32.683,32.683,0,0,0-2.511,4.921A.486.486,0,0,1,1420.849,253.191Zm117.315-5.629a.485.485,0,0,1-.421-.243,51.628,51.628,0,0,0-3.029-4.649.486.486,0,0,1,.784-.576,52.5,52.5,0,0,1,3.088,4.738.488.488,0,0,1-.178.664A.479.479,0,0,1,1538.164,247.562Zm-111.6-4a.485.485,0,0,1-.386-.781,54.006,54.006,0,0,1,3.667-4.3.486.486,0,0,1,.708.668,53.54,53.54,0,0,0-3.6,4.221A.481.481,0,0,1,1426.562,243.562Zm105.008-5.036a.483.483,0,0,1-.36-.16,54.436,54.436,0,0,0-3.93-3.913.486.486,0,0,1,.65-.723,54.713,54.713,0,0,1,4,3.984.486.486,0,0,1-.36.812Zm-97.331-3.1a.486.486,0,0,1-.318-.854c1.4-1.215,2.9-2.389,4.435-3.489a.488.488,0,1,1,.566.794c-1.516,1.08-2.984,2.234-4.364,3.43A.483.483,0,0,1,1434.24,235.43Zm89.012-4.367a.482.482,0,0,1-.286-.092,54.994,54.994,0,0,0-4.646-3.028.486.486,0,0,1,.489-.84,55.931,55.931,0,0,1,4.729,3.08.486.486,0,0,1-.286.88Zm-79.9-2.116a.487.487,0,0,1-.245-.908c1.612-.935,3.3-1.812,5-2.606a.487.487,0,0,1,.413.883c-1.678.782-3.335,1.645-4.921,2.566A.487.487,0,0,1,1443.347,228.946Zm70.252-3.506a.478.478,0,0,1-.2-.045c-1.651-.757-3.381-1.455-5.146-2.073a.486.486,0,1,1,.323-.917c1.792.627,3.551,1.337,5.229,2.108a.486.486,0,0,1-.2.928Zm-60.13-1.231a.487.487,0,0,1-.167-.943c1.739-.64,3.543-1.225,5.355-1.735a.486.486,0,1,1,.265.935c-1.789.5-3.566,1.081-5.284,1.714A.5.5,0,0,1,1453.469,224.21Zm49.592-2.48c-1.872-.466-3.7-.858-5.55-1.181a.487.487,0,0,1,.169-.96c1.875.329,3.726.727,5.5,1.184a.486.486,0,0,1-.122.957Zm-38.837-.566a.487.487,0,0,1-.1-.963c1.8-.369,3.66-.688,5.544-.946a.486.486,0,1,1,.132.963c-1.863.255-3.706.57-5.48.936A.518.518,0,0,1,1464.223,221.164Zm27.832-1.373q-2.776-.279-5.6-.383a.486.486,0,0,1,.019-.972c1.917.069,3.8.2,5.627.384a.487.487,0,0,1-.049.971Zm-16.76-.158a.486.486,0,0,1-.037-.971c1.826-.138,3.714-.228,5.615-.266a.486.486,0,1,1,.019.972c-1.881.038-3.752.126-5.559.263A.254.254,0,0,1,1475.3,219.633Z" transform="translate(-1420.363 -218.396)"/>
      </g>
      <g id="Group_157" data-name="Group 157" transform="translate(1261.816 384.766)">
        <path id="Path_206" data-name="Path 206" d="M1318.607,598.25H1299.35a.486.486,0,0,1-.486-.486V578.509a.486.486,0,0,1,.486-.486h19.256a.485.485,0,0,1,.486.486v19.255A.485.485,0,0,1,1318.607,598.25Zm-18.77-.972h18.284V579h-18.284Z" transform="translate(-1298.864 -578.023)"/>
      </g>
      <g id="Group_158" data-name="Group 158" transform="translate(1261.816 416.745)">
        <path id="Path_207" data-name="Path 207" d="M1318.607,667.377H1307.2a.486.486,0,1,1,0-.972h10.924V648.122h-18.284v12.64a.486.486,0,0,1-.972,0V647.636a.486.486,0,0,1,.486-.486h19.256a.485.485,0,0,1,.486.486v19.255A.485.485,0,0,1,1318.607,667.377Z" transform="translate(-1298.864 -647.15)"/>
      </g>
      <g id="Group_159" data-name="Group 159" transform="translate(1280.115 410.138)">
        <path id="Path_208" data-name="Path 208" d="M1373.863,633.84h-34.956a.486.486,0,0,1,0-.972h34.956a.486.486,0,1,1,0,.972Z" transform="translate(-1338.421 -632.868)"/>
      </g>
      <g id="Group_160" data-name="Group 160" transform="translate(1517.856 332.907)">
        <path id="Path_209" data-name="Path 209" d="M1879.963,489.3a.486.486,0,0,1-.317-.855c2.541-2.181,5.129-6.8,4.781-9.945-.594-5.365-6.036-9.027-16.638-11.189-10.049-2.06-14.393,4.083-14.574,4.344a.489.489,0,0,1-.677.128.485.485,0,0,1-.13-.674c.046-.072,4.837-6.946,15.577-4.752,11.067,2.26,16.761,6.2,17.407,12.035.387,3.5-2.332,8.4-5.113,10.791A.486.486,0,0,1,1879.963,489.3Z" transform="translate(-1852.325 -465.924)"/>
      </g>
      <g id="Group_161" data-name="Group 161" transform="translate(1518.986 360.514)">
        <path id="Path_210" data-name="Path 210" d="M1858.072,532.207a3.3,3.3,0,1,1,3.3-3.3A3.308,3.308,0,0,1,1858.072,532.207Zm0-5.633a2.33,2.33,0,1,0,2.329,2.33A2.334,2.334,0,0,0,1858.072,526.573Z" transform="translate(-1854.767 -525.601)"/>
      </g>
      <g id="Group_162" data-name="Group 162" transform="translate(1529.732 350.044)">
        <path id="Path_211" data-name="Path 211" d="M1878.483,505.384a.486.486,0,0,1-.348-.826,5.978,5.978,0,0,1,6.861-.881.487.487,0,0,1-.437.87,4.917,4.917,0,0,0-5.728.691A.489.489,0,0,1,1878.483,505.384Z" transform="translate(-1877.997 -502.969)"/>
      </g>
      <g id="Group_163" data-name="Group 163" transform="translate(1542.204 352.026)">
        <path id="Path_212" data-name="Path 212" d="M1908.369,510.085a.484.484,0,0,1-.453-.311,2.564,2.564,0,0,0-2.452-1.547.475.475,0,0,1-.507-.463.486.486,0,0,1,.464-.509,3.588,3.588,0,0,1,3.4,2.169.483.483,0,0,1-.277.629A.5.5,0,0,1,1908.369,510.085Z" transform="translate(-1904.957 -507.252)"/>
      </g>
      <g id="Group_164" data-name="Group 164" transform="translate(1529.913 398.861)">
        <path id="Path_213" data-name="Path 213" d="M1880.435,618.549c-.24.057-.489-.22-.486-.49.034-3.03-1.529-8.894-1.544-8.953a.489.489,0,0,1,.345-.6.476.476,0,0,1,.6.343c.065.246,1.609,6.053,1.575,9.214A.484.484,0,0,1,1880.435,618.549Z" transform="translate(-1878.388 -608.491)"/>
      </g>
      <g id="Group_165" data-name="Group 165" transform="translate(1574.751 352.013)">
        <path id="Path_214" data-name="Path 214" d="M1975.8,549.27a.487.487,0,0,1-.394-.773l.127-.177a.486.486,0,1,1,.8.554l-.139.2A.488.488,0,0,1,1975.8,549.27Zm3.16-4.91a.484.484,0,0,1-.415-.737c.945-1.566,1.877-3.2,2.775-4.843a.487.487,0,1,1,.855.464c-.9,1.66-1.846,3.3-2.8,4.879A.482.482,0,0,1,1978.957,544.361Zm5.369-9.838a.508.508,0,0,1-.216-.049.488.488,0,0,1-.222-.651c.837-1.7,1.631-3.407,2.357-5.06a.488.488,0,0,1,.892.394c-.735,1.663-1.533,3.376-2.375,5.093A.486.486,0,0,1,1984.326,534.523Zm4.513-10.251a.5.5,0,0,1-.175-.032.484.484,0,0,1-.277-.629c.68-1.76,1.314-3.526,1.886-5.249a.486.486,0,0,1,.923.308c-.575,1.736-1.215,3.516-1.9,5.291A.484.484,0,0,1,1988.839,524.272Zm3.52-10.63c-.388-.088-.541-.355-.468-.615.492-1.8.935-3.623,1.311-5.414a.5.5,0,0,1,.575-.376.486.486,0,0,1,.378.576c-.382,1.81-.828,3.651-1.329,5.471A.484.484,0,0,1,1992.359,513.642Z" transform="translate(-1975.311 -507.226)"/>
      </g>
      <g id="Group_166" data-name="Group 166" transform="translate(1506.481 262.591)">
        <path id="Path_215" data-name="Path 215" d="M1909.379,361.816a.488.488,0,0,1-.425-.248q-.623-1.107-1.32-2.206a.487.487,0,0,1,.824-.52c.471.746.923,1.5,1.345,2.249a.487.487,0,0,1-.425.724Zm-4.578-6.787a.488.488,0,0,1-.381-.183c-1.142-1.432-2.375-2.834-3.667-4.163a.485.485,0,1,1,.7-.677c1.314,1.35,2.572,2.775,3.735,4.233a.486.486,0,0,1-.382.789Zm-37.063-.415a6.493,6.493,0,0,1-.677-.034.488.488,0,0,1-.434-.535.5.5,0,0,1,.532-.434,7.64,7.64,0,0,0,4.954-1.423.486.486,0,0,1,.554.8A8.978,8.978,0,0,1,1867.738,354.614Zm-3.67-3.842a.5.5,0,0,1-.48-.568,9.526,9.526,0,0,1,1.483-3.456,13.344,13.344,0,0,1,1.261-1.655.479.479,0,0,1,.687-.04.486.486,0,0,1,.04.686,12.461,12.461,0,0,0-1.169,1.535,8.62,8.62,0,0,0-1.341,3.094A.487.487,0,0,1,1864.067,350.771Zm11.768-2.018a.486.486,0,0,1-.436-.7,19.269,19.269,0,0,0,1.639-5.19.476.476,0,0,1,.56-.4.489.489,0,0,1,.4.562,20.137,20.137,0,0,1-1.726,5.451A.482.482,0,0,1,1875.835,348.753ZM1897.014,347a.49.49,0,0,1-.317-.117c-1.333-1.142-2.766-2.271-4.261-3.357-.323-.229-.375-.532-.219-.752a.489.489,0,0,1,.677-.115c1.63,1.182,3.083,2.327,4.437,3.485a.486.486,0,0,1-.317.855Zm-25.865-4.438a.482.482,0,0,1-.434-.268.487.487,0,0,1,.216-.654,20.955,20.955,0,0,1,5.424-1.8.5.5,0,0,1,.569.386.485.485,0,0,1-.384.571,19.934,19.934,0,0,0-5.171,1.714A.484.484,0,0,1,1871.149,342.566Zm16.392-1.332A24.526,24.526,0,0,0,1882,340.4a.486.486,0,1,1,.037-.972,24.281,24.281,0,0,1,5.636.855.487.487,0,0,1-.132.956Zm-9.811-3.383a.49.49,0,0,1-.486-.445,21.944,21.944,0,0,0-1.142-5.342.485.485,0,1,1,.917-.32,23.089,23.089,0,0,1,1.2,5.579.488.488,0,0,1-.443.526Zm-3.667-10.456a.486.486,0,0,1-.406-.218,24.8,24.8,0,0,0-3.52-4.2.485.485,0,1,1,.671-.7,25.481,25.481,0,0,1,3.661,4.362.486.486,0,0,1-.406.754Zm-8.011-7.7a.482.482,0,0,1-.256-.072,27.785,27.785,0,0,0-4.932-2.421.486.486,0,0,1,.338-.91,28.633,28.633,0,0,1,5.1,2.5.486.486,0,0,1-.255.9Zm-37.827-1.28a.486.486,0,0,1-.246-.9,21.618,21.618,0,0,1,5.295-2.141.487.487,0,1,1,.259.938,20.731,20.731,0,0,0-5.061,2.04A.477.477,0,0,1,1828.225,318.416Zm27.409-2.634a54.917,54.917,0,0,0-5.59-.715.486.486,0,1,1,.074-.969,52.834,52.834,0,0,1,5.605.72.487.487,0,0,1-.089.965Zm-16.737-.506a.486.486,0,0,1-.058-.969,54.53,54.53,0,0,1,5.636-.378.486.486,0,0,1,.019.972,54.036,54.036,0,0,0-5.538.372C1838.937,315.275,1838.916,315.277,1838.9,315.277Z" transform="translate(-1827.738 -313.929)"/>
      </g>
      <path id="Path_218" data-name="Path 218" d="M2012.4,457.046h-28.409a6.7,6.7,0,0,1-6.692-6.692v-20.77a6.7,6.7,0,0,1,6.692-6.691H2012.4" transform="translate(-401.628 -109.893)"/>
      <path id="Path_219" data-name="Path 219" d="M2013.531,424.994h-28.409a5.726,5.726,0,0,0-5.72,5.719v20.77a5.726,5.726,0,0,0,5.72,5.719h28.409" transform="translate(-402.758 -111.022)"/>
      <g id="Group_169" data-name="Group 169" transform="translate(1537.689 352.955)">
        <path id="Path_220" data-name="Path 220" d="M1895.681,522.076a.486.486,0,1,1,0-.972,4.612,4.612,0,0,0,3.719-2.374c-1.114-.774-2.609-1.967-2.609-2.792s1.114-5.741,1.244-6.3a.486.486,0,1,1,.947.215c-.471,2.064-1.218,5.539-1.218,6.082a8.773,8.773,0,0,0,2.55,2.237.486.486,0,0,1,.169.611C1900.422,518.921,1898.9,522.076,1895.681,522.076Z" transform="translate(-1895.195 -509.26)"/>
      </g>
    </g>
  </g>
</svg>
