<svg xmlns="http://www.w3.org/2000/svg" width="408" height="306" viewBox="0 0 408 306">
  <g id="Group_45566" data-name="Group 45566" transform="translate(-1290 -3476)">
    <rect id="Rectangle_9707" data-name="Rectangle 9707" width="408" height="306" transform="translate(1290 3476)" fill="none"/>
    <g id="Group_234" data-name="Group 234" transform="translate(-946.128 2506.884)">
      <path id="Path_221" data-name="Path 221" d="M2558.314,1416.149l23.412,36.992a9.12,9.12,0,0,1-7.706,14h-63.2a9.12,9.12,0,0,1-7.706-4.242l-26.574-41.986a9.121,9.121,0,0,1,7.707-14h63.2a9.118,9.118,0,0,1,7.706,4.243l3.162,4.995Z" transform="translate(-130.229 -233.633)" fill="#d3aafd"/>
      <path id="Path_222" data-name="Path 222" d="M2574.514,1431.013s2.451-4.076,7.142-.621l26.332,23.723s2.484,3.523-2.608,3.974h-34.84s-7.521.377-5.713-5.155Z" transform="translate(-181.095 -246.197)" fill="#fff"/>
      <path id="Path_223" data-name="Path 223" d="M2679.913,1174.953l57.044,90.131a22.221,22.221,0,0,1-18.776,34.1h-154a22.221,22.221,0,0,1-18.776-10.337l-64.747-102.3a22.221,22.221,0,0,1,18.777-34.1h154a22.221,22.221,0,0,1,18.776,10.337l7.7,12.17Z" transform="translate(-131.408 -88.91)" fill="#fff"/>
      <path id="Path_224" data-name="Path 224" d="M2777.224,1299.727l-10.261-16.212-1.386-2.191a4.472,4.472,0,0,0-3.8-2.089h-27.7a4.492,4.492,0,0,0-3.8,6.895l11.646,18.4a4.47,4.47,0,0,0,3.8,2.09h27.7a4.493,4.493,0,0,0,3.8-6.895Z" transform="translate(-274.954 -161.019)" fill="#d3aafd"/>
      <path id="Path_225" data-name="Path 225" d="M2927.248,1199.237a9.533,9.533,0,0,1,5.256,0c2.907.818,3.876,2.783,4.108,5.753s-2.3,6.915-8.168,5.473c0,0-9.024,1.214-11.3,5.633s-2.289,5.14-2.289,5.14-1.711,6.7.8,10.025c0,0-10.2,1.419-11.824,5.16,0,0-5.732-1.915-7.79-2.509s-4.686-3.657-6.651-5.767-5.62-5.386-5.648-6.513.3-2.927,1.639-3.256,4.039-.178,6.9,3.165,4.722,4.244,4.828,3.607-3.852-5.288-7.417-8.1-8.855-6.942-9.632-7.847.355-3.417,1.465-3.93,2.816-.9,5.858,1.327,5.461,4.163,5.461,4.163,4.124-3.391,8.757-.665a4.525,4.525,0,0,1,4.385-.414l.324-1.744s-4.286-3.852-4.109-5.3,7.193-6.416,7.193-6.416l1.472-11a22.928,22.928,0,0,0,8.282,10.528C2925.119,1199.631,2927.248,1199.237,2927.248,1199.237Z" transform="translate(-360.392 -107.552)" fill="#fff"/>
      <path id="Path_226" data-name="Path 226" d="M2727.38,1320.853s-3.548,2.228-2.343,6.154c0,0-3.475,2-1.878,7.844s3.685,10.647,7.643,14.58,10.011,7.136,10.418,8.536a64.022,64.022,0,0,1,8.169-7.168,58.411,58.411,0,0,1,8.844-5.549s-7.645-12.254-9.075-15.58-3.7-8.132-7.05-7.255-2.743,4.485-1.745,7.191,3.846,8.011.857,8.594-5.151-5.065-5.151-5.065-1.127-.452-3.514-4.59a55.6,55.6,0,0,0-5.175-7.4Z" transform="translate(-271.064 -184.689)" fill="#fff"/>
      <path id="Path_227" data-name="Path 227" d="M2954.866,1158.942c5.443-5.19,12.851-3.388,16.875-1.8s7.082,2.818,8.767,4.968a61.517,61.517,0,0,1,9.513,4.058c3.1,1.911,5.319,5.868,4.369,11.263a28.305,28.305,0,0,1-4.352,10.132s-1.636,3.152.6,4.661a18.249,18.249,0,0,1,8.833,15.244c.4,9.63-6.014,14.878-12.673,15.083s-14.993-2.112-15.5-3.394c0,0-8.833,4.023-14.287-3.121s.035-17.508,3.317-19.24a14.982,14.982,0,0,1,6.771-1.6,14.152,14.152,0,0,0,3.112-5.057c.637-1.8-1.1-5.164-3.439-6.26a10.9,10.9,0,0,0-3.529-.848s-7.6-1.84-11.53-11.99C2951.722,1171.046,2949.424,1164.133,2954.866,1158.942Z" transform="translate(-401.021 -90.648)"/>
      <path id="Path_228" data-name="Path 228" d="M2885.568,1297.777s3.938,3.576,6.388,12.248c0,0,9.81,17.281,13.416,27.545s9.789,24.687,4.257,34.42a16.287,16.287,0,0,1-17.719,8.227,84.073,84.073,0,0,0-.218,15.164c.662,7.884,2.5,19.776,2.5,19.776h-78.154s1.842-8.187,2.347-11.491,1.165-8.955,1.165-8.955-6.686,4.31-20.7-2.394-26.77-26.731-29.675-31.826-8.485-16.506-8.485-16.506,12.875-13.94,24.735-17.81L2807.4,1350.6s5.919-13.06,10.26-22.775,10.233-24.04,16.612-29.026,8.938-6.248,13.633-6.826c0,0,2.679,5.134,7.241,5.823a13.577,13.577,0,0,0,7.788-1.017s7.279,3.762,13.38,3.5S2885.568,1297.777,2885.568,1297.777Z" transform="translate(-292.651 -168.264)" fill="#dc4867"/>
      <path id="Path_229" data-name="Path 229" d="M2797.417,1032.5l10.261,16.213a4,4,0,0,1-3.377,6.134h-27.7a4,4,0,0,1-3.377-1.86l-11.647-18.4a4,4,0,0,1,3.377-6.134h27.7a4,4,0,0,1,3.377,1.859l1.386,2.189Z" transform="translate(-292.796 -18.391)" fill="#1a1a1a"/>
      <path id="Path_230" data-name="Path 230" d="M2454.68,1127.195l27.291,43.12a10.631,10.631,0,0,1-8.983,16.316h-73.675a10.631,10.631,0,0,1-8.983-4.945l-30.976-48.942a10.631,10.631,0,0,1,8.983-16.316h73.675a10.631,10.631,0,0,1,8.983,4.945l3.685,5.823Z" transform="translate(-63.449 -68.425)" fill="#d3aafd"/>
      <path id="Path_231" data-name="Path 231" d="M2879.291,1239.849s-1.725,2.759,2.094,4.509l2.174-.688S2879,1240.38,2879.291,1239.849Z" transform="translate(-359.88 -138.619)" fill="#ccc"/>
      <path id="Path_232" data-name="Path 232" d="M2379.859,1114.937H2478l-6.449-9.778s-1.556-2.04-6.083-3.256-76.252.045-76.252.045S2378,1103.017,2379.859,1114.937Z" transform="translate(-75.939 -59.864)" fill="#1a1a1a"/>
      <path id="Path_233" data-name="Path 233" d="M2573.054,1113.125c-1.2.992-3.3.425-4.7-1.265s-1.573-3.866-.378-4.857,3.3-.426,4.705,1.265S2574.249,1112.133,2573.054,1113.125Z" transform="translate(-182.59 -62.787)" fill="#3a3a3a"/>
      <path id="Path_234" data-name="Path 234" d="M2547.3,1113.125c-1.195.992-3.3.425-4.705-1.265s-1.573-3.866-.378-4.857,3.3-.426,4.7,1.265S2548.5,1112.133,2547.3,1113.125Z" transform="translate(-167.945 -62.787)" fill="#fff"/>
      <path id="Path_235" data-name="Path 235" d="M2522.168,1113.125c-1.195.992-3.3.425-4.7-1.265s-1.573-3.866-.378-4.857,3.3-.426,4.7,1.265S2523.363,1112.133,2522.168,1113.125Z" transform="translate(-153.65 -62.787)" fill="#fff"/>
      <path id="Path_236" data-name="Path 236" d="M2262.306,1219.265c-3.024,2.511-8.356,1.076-11.909-3.2s-3.981-9.785-.957-12.295,8.356-1.076,11.909,3.2S2265.331,1216.754,2262.306,1219.265Z" transform="translate(-0.738 -117.395)" fill="#d3aafd"/>
      <path id="Path_237" data-name="Path 237" d="M2954.867,1158.944c-5.443,5.19-3.144,12.1-3.144,12.1,3.926,10.15,11.53,11.99,11.53,11.99a11.807,11.807,0,0,1,1.409.192c-2.888-2.263-8.428-7.922-6.437-16.921,1.6-7.242,6.338-9.584,9.838-10.3C2964.043,1155.094,2958.913,1155.086,2954.867,1158.944Z" transform="translate(-401.021 -90.65)" fill="#fff"/>
      <path id="Path_238" data-name="Path 238" d="M2969.371,1272.683c-12.939-7.655-3.776-22.067,1-25a14.728,14.728,0,0,0-5.459,1.547c-3.282,1.732-8.771,12.1-3.317,19.24A10.359,10.359,0,0,0,2969.371,1272.683Z" transform="translate(-405.597 -143.074)" fill="#fff"/>
      <path id="Path_239" data-name="Path 239" d="M2837.945,1503.185s13.238,10.212,25.543,5.244c0,0,7.636-3.129,10.183-6.1,0,0-4.173-10.752-17.33-10.4S2839.708,1499.232,2837.945,1503.185Z" transform="translate(-336.586 -281.981)" fill="#dc4867"/>
      <g id="Group_174" data-name="Group 174" transform="translate(2467.482 1157.274)">
        <path id="Path_240" data-name="Path 240" d="M2811.377,1440.75c-20,0-40.692-26.484-51.938-52.277a.565.565,0,0,1,.068-.565,52.866,52.866,0,0,1,11.014-10.15c8.874-6.035,13.695-7.847,13.9-7.922a.566.566,0,0,1,.591.13c.258.258,25.976,26.105,33.9,41.98a.561.561,0,1,1-1,.5c-7.414-14.857-30.7-38.662-33.428-41.427a80.587,80.587,0,0,0-13.325,7.664,52.306,52.306,0,0,0-10.552,9.651c11.682,26.616,33.393,53.845,53.628,51.106,21.5-2.945,30.608-30.786,40.276-66.878a.571.571,0,0,1,.689-.4.561.561,0,0,1,.4.688c-9.78,36.5-19.024,64.658-41.212,67.693A21.9,21.9,0,0,1,2811.377,1440.75Z" transform="translate(-2759.393 -1369.802)"/>
      </g>
      <g id="Group_175" data-name="Group 175" transform="translate(2514.499 1123.381)">
        <path id="Path_241" data-name="Path 241" d="M2868.972,1351.2a.538.538,0,0,1-.229-.049.558.558,0,0,1-.281-.74c2.424-5.375,4.655-10.684,6.812-15.815,9.858-23.458,17.648-41.986,33.353-43.374a.542.542,0,0,1,.606.508.555.555,0,0,1-.508.6c-15.034,1.332-22.7,19.587-32.418,42.7-2.159,5.139-4.394,10.454-6.823,15.84A.559.559,0,0,1,2868.972,1351.2Z" transform="translate(-2868.412 -1291.211)"/>
      </g>
      <g id="Group_180" data-name="Group 180" transform="translate(2451 1135.889)">
        <g id="Group_176" data-name="Group 176" transform="translate(13.444 1.051)">
          <path id="Path_242" data-name="Path 242" d="M2775.073,1346.45a.564.564,0,0,1-.436-.207c-.029-.037-.76-.952-4.368-6.241a43.431,43.431,0,0,1-3.556-6.161c-.442-.943-.829-1.916-1.213-2.885a36.754,36.754,0,0,0-1.821-4.081c-.218-.4-.45-.789-.706-1.164a5.149,5.149,0,0,0-1.486-1.581,2.679,2.679,0,0,0-2.355-.169,3.157,3.157,0,0,0-1.922,1.927c-.419,1.342.072,2.965.565,4.382.267.766.577,1.512.886,2.26.347.843.705,1.713,1,2.6.031.1.077.206.126.33.387.952,1.288,3.187-1.7,4.626-2.354,1.124-3.963-2.022-5.036-4.1-.23-.445-.434-.846-.62-1.15a.56.56,0,0,1,.958-.58c.2.321.416.746.657,1.216,1.107,2.154,2.291,4.207,3.557,3.605,2.044-.987,1.548-2.212,1.149-3.2-.06-.146-.112-.281-.148-.4-.284-.849-.637-1.7-.975-2.527-.319-.766-.635-1.534-.906-2.32-.554-1.586-1.1-3.416-.577-5.082a4.234,4.234,0,0,1,2.6-2.644,3.806,3.806,0,0,1,3.339.269,6.332,6.332,0,0,1,1.821,1.9c.272.4.522.823.757,1.25a37.251,37.251,0,0,1,1.879,4.2c.379.952.758,1.905,1.19,2.828a42.6,42.6,0,0,0,3.465,6c3.551,5.206,4.288,6.132,4.316,6.169a.559.559,0,0,1-.436.909Z" transform="translate(-2752.348 -1322.651)"/>
        </g>
        <g id="Group_177" data-name="Group 177" transform="translate(2.411 0)">
          <path id="Path_243" data-name="Path 243" d="M2727.979,1328.375a.554.554,0,0,1-.493-.3,7.482,7.482,0,0,1-.531-4.867,3.553,3.553,0,0,1,2.55-2.971.557.557,0,0,1,.7.373.564.564,0,0,1-.372.7c-.852.261-1.449.711-1.787,2.157a6.4,6.4,0,0,0,.427,4.081.557.557,0,0,1-.229.757A.551.551,0,0,1,2727.979,1328.375Z" transform="translate(-2726.766 -1320.214)"/>
        </g>
        <g id="Group_178" data-name="Group 178" transform="translate(3.065 7.036)">
          <path id="Path_244" data-name="Path 244" d="M2735.86,1349.619a.557.557,0,0,1-.445-.218,75.722,75.722,0,0,1-7.081-12.072.558.558,0,0,1,.272-.743.546.546,0,0,1,.743.273,74.579,74.579,0,0,0,6.955,11.859.559.559,0,0,1-.445.9Z" transform="translate(-2728.283 -1336.528)"/>
        </g>
        <g id="Group_179" data-name="Group 179" transform="translate(0 6.091)">
          <path id="Path_245" data-name="Path 245" d="M2740.33,1366.2a.56.56,0,0,1-.413-.181,11.5,11.5,0,0,0-3.243-2.455,22.116,22.116,0,0,1-5.573-4.3,41.472,41.472,0,0,1-9.668-17.779c-1.311-5.814,2.8-7.1,2.848-7.115a.548.548,0,0,1,.694.379.558.558,0,0,1-.373.694c-.132.04-3.149,1.038-2.08,5.8a40.229,40.229,0,0,0,9.376,17.24,21.138,21.138,0,0,0,5.329,4.11,12.58,12.58,0,0,1,3.516,2.673.559.559,0,0,1-.413.938Z" transform="translate(-2721.175 -1334.337)"/>
        </g>
      </g>
      <g id="Group_181" data-name="Group 181" transform="translate(2557.629 1092.117)">
        <path id="Path_246" data-name="Path 246" d="M2974,1232.044a6.655,6.655,0,0,1-5.481-2.885.561.561,0,1,1,.924-.637,5.542,5.542,0,1,0,1.2-7.54.56.56,0,0,1-.683-.889,6.662,6.662,0,1,1,4.038,11.951Z" transform="translate(-2968.42 -1218.719)"/>
      </g>
      <g id="Group_182" data-name="Group 182" transform="translate(2560.15 1095.818)">
        <path id="Path_247" data-name="Path 247" d="M2977.792,1233.944a.563.563,0,0,1-.453-.229l-2.966-4.067a.562.562,0,0,1,.3-.869l5.051-1.46a.568.568,0,0,1,.694.384.562.562,0,0,1-.384.694l-4.282,1.236,2.5,3.421a.559.559,0,0,1-.453.889Z" transform="translate(-2974.267 -1227.299)"/>
      </g>
      <g id="Group_183" data-name="Group 183" transform="translate(2545.737 1082.548)">
        <path id="Path_248" data-name="Path 248" d="M2949.054,1228.523c-3.333-.3-5.664-1.523-6.984-3.623-2.458-3.909-.464-9.39-.378-9.622l4.477-18.322a.576.576,0,0,1,.677-.413.564.564,0,0,1,.413.677l-4.5,18.384c-.04.115-1.9,5.266.258,8.705,1.127,1.784,3.172,2.828,6.086,3.1a.559.559,0,0,1-.052,1.116Z" transform="translate(-2940.847 -1196.532)"/>
      </g>
      <g id="Group_184" data-name="Group 184" transform="translate(2543.991 1084.112)">
        <path id="Path_249" data-name="Path 249" d="M2939.213,1214.9a2.414,2.414,0,0,1-2.326-3.071l2.782-9.909a2.421,2.421,0,0,1,2.98-1.672,1.887,1.887,0,0,1,1.44,2.567.552.552,0,0,1-.691.387.56.56,0,0,1-.387-.691.8.8,0,0,0-.665-1.185,1.318,1.318,0,0,0-1.6.9l-2.782,9.909a1.3,1.3,0,0,0,1.885,1.48,1.285,1.285,0,0,0,.614-.78.554.554,0,0,1,.691-.387.562.562,0,0,1,.388.691,2.43,2.43,0,0,1-2.329,1.763Z" transform="translate(-2936.798 -1200.157)"/>
      </g>
      <g id="Group_185" data-name="Group 185" transform="translate(2522.831 1226.463)">
        <path id="Path_250" data-name="Path 250" d="M2888.292,1551.223a.545.545,0,0,1-.178-.028.561.561,0,0,1-.353-.709c1.032-3.078,2.811-13.609,3.488-19.752a.56.56,0,1,1,1.113.121c-.625,5.661-2.386,16.549-3.539,19.988A.556.556,0,0,1,2888.292,1551.223Z" transform="translate(-2887.732 -1530.233)"/>
      </g>
      <g id="Group_186" data-name="Group 186" transform="translate(2598.439 1141.203)">
        <path id="Path_251" data-name="Path 251" d="M3067.2,1404.455a8.588,8.588,0,0,1-3.857-.794.56.56,0,0,1,.528-.987c.289.149,7.176,3.605,16.443-6.852,8.429-9.519-3.829-39.591-16.887-62.45a.561.561,0,1,1,.975-.556c4.793,8.392,28.127,50.9,16.75,63.746C3075.4,1403.059,3070.423,1404.455,3067.2,1404.455Z" transform="translate(-3063.049 -1332.537)"/>
      </g>
      <g id="Group_187" data-name="Group 187" transform="translate(2592.692 1129.11)">
        <path id="Path_252" data-name="Path 252" d="M3058.576,1422.839a.561.561,0,0,1-.548-.436,143.653,143.653,0,0,1-2.143-40.54c4.5-43.968,2.648-67.536-6.005-76.415a.56.56,0,0,1,.8-.78c9.023,9.261,10.913,32.383,6.316,77.309a142.283,142.283,0,0,0,2.125,40.179.564.564,0,0,1-.425.671A.629.629,0,0,1,3058.576,1422.839Z" transform="translate(-3049.722 -1304.496)"/>
      </g>
      <g id="Group_188" data-name="Group 188" transform="translate(2494.933 1063.399)">
        <path id="Path_253" data-name="Path 253" d="M2875.909,1174.2a.556.556,0,0,1-.473-.261l-6.734-10.643a21.5,21.5,0,0,0-18.25-10.047H2823.6a.559.559,0,1,1,0-1.118h26.849a22.612,22.612,0,0,1,19.2,10.569l6.735,10.643a.559.559,0,0,1-.474.857Z" transform="translate(-2823.044 -1152.128)"/>
      </g>
      <g id="Group_189" data-name="Group 189" transform="translate(2413.327 1063.399)">
        <path id="Path_254" data-name="Path 254" d="M2685.5,1153.246H2634.38a.559.559,0,0,1,0-1.118H2685.5a.559.559,0,1,1,0,1.118Z" transform="translate(-2633.821 -1152.128)"/>
      </g>
      <g id="Group_190" data-name="Group 190" transform="translate(2362.359 1117.716)">
        <path id="Path_255" data-name="Path 255" d="M2642.853,1371.2h-56.223a22.6,22.6,0,0,1-19.2-10.566l-51.706-81.7a.555.555,0,0,1,.175-.771.564.564,0,0,1,.771.175l51.706,81.7a21.489,21.489,0,0,0,18.25,10.044h56.223a.559.559,0,0,1,0,1.119Z" transform="translate(-2515.64 -1278.077)"/>
      </g>
      <g id="Group_191" data-name="Group 191" transform="translate(2303.075 1041.481)">
        <path id="Path_256" data-name="Path 256" d="M2494.037,1172.627h-73.673a11.124,11.124,0,0,1-9.456-5.206l-30.975-48.941a11.19,11.19,0,0,1,9.456-17.174h73.673a11.13,11.13,0,0,1,9.456,5.205l3.686,5.822,27.29,43.119a11.19,11.19,0,0,1-9.456,17.174Zm-104.648-70.2a10.072,10.072,0,0,0-8.51,15.459l30.976,48.941a10.021,10.021,0,0,0,8.51,4.684h73.673a10.072,10.072,0,0,0,8.509-15.459l-30.975-48.941a10.023,10.023,0,0,0-8.51-4.684Z" transform="translate(-2378.175 -1101.306)"/>
      </g>
      <g id="Group_192" data-name="Group 192" transform="translate(2344.315 1166.455)">
        <path id="Path_257" data-name="Path 257" d="M2482.49,1416.736a.557.557,0,0,1-.474-.26l-6.7-10.593a9.64,9.64,0,0,1,8.146-14.793h39.792a.559.559,0,0,1,0,1.119h-39.792a8.521,8.521,0,0,0-7.2,13.078l6.7,10.592a.557.557,0,0,1-.175.771A.563.563,0,0,1,2482.49,1416.736Z" transform="translate(-2473.8 -1391.09)"/>
      </g>
      <g id="Group_193" data-name="Group 193" transform="translate(2366.702 1209.716)">
        <path id="Path_258" data-name="Path 258" d="M2602.374,1509.225h-62.932a9.591,9.591,0,0,1-8.148-4.486l-5.5-8.684a.556.556,0,0,1,.175-.771.566.566,0,0,1,.771.175l5.5,8.684a8.486,8.486,0,0,0,7.2,3.964h62.932a8.521,8.521,0,0,0,7.2-13.079l-1.749-2.767a.56.56,0,0,1,.947-.6l1.749,2.768a9.639,9.639,0,0,1-8.146,14.793Z" transform="translate(-2525.708 -1491.402)"/>
      </g>
      <g id="Group_194" data-name="Group 194" transform="translate(2457.572 1015.086)">
        <path id="Path_259" data-name="Path 259" d="M2780.325,1067.616h-27.7a4.522,4.522,0,0,1-3.849-2.122l-11.647-18.4a4.555,4.555,0,0,1,3.849-6.99h27.7a4.528,4.528,0,0,1,3.849,2.119l1.385,2.189,10.262,16.214a4.556,4.556,0,0,1-3.852,6.992Zm-39.347-26.4a3.437,3.437,0,0,0-2.9,5.275l11.647,18.4a3.42,3.42,0,0,0,2.9,1.6h27.7a3.438,3.438,0,0,0,2.906-5.277l-11.647-18.4a3.414,3.414,0,0,0-2.9-1.6Z" transform="translate(-2736.413 -1040.102)"/>
      </g>
      <g id="Group_195" data-name="Group 195" transform="translate(2457.572 1015.086)">
        <path id="Path_260" data-name="Path 260" d="M2780.325,1067.616h-27.7a4.522,4.522,0,0,1-3.849-2.122l-11.647-18.4a4.555,4.555,0,0,1,3.849-6.99h27.7a4.528,4.528,0,0,1,3.849,2.119l1.385,2.189,10.262,16.214a4.556,4.556,0,0,1-3.852,6.992Zm-39.347-26.4a3.437,3.437,0,0,0-2.9,5.275l11.647,18.4a3.42,3.42,0,0,0,2.9,1.6h27.7a3.438,3.438,0,0,0,2.906-5.277l-11.647-18.4a3.414,3.414,0,0,0-2.9-1.6Z" transform="translate(-2736.413 -1040.102)"/>
      </g>
      <g id="Group_196" data-name="Group 196" transform="translate(2450.502 1121.882)">
        <path id="Path_261" data-name="Path 261" d="M2740.477,1315.249h-4.245a4.525,4.525,0,0,1-3.849-2.12l-11.647-18.4a4.556,4.556,0,0,1,3.849-6.993h27.7a4.531,4.531,0,0,1,3.849,2.119l1.385,2.191a.559.559,0,0,1-.175.772.552.552,0,0,1-.772-.175l-1.385-2.191a3.423,3.423,0,0,0-2.9-1.6h-27.7a3.438,3.438,0,0,0-2.9,5.277l11.648,18.4a3.413,3.413,0,0,0,2.9,1.6h4.245a.559.559,0,1,1,0,1.118Z" transform="translate(-2720.02 -1287.736)"/>
      </g>
      <g id="Group_197" data-name="Group 197" transform="translate(2479.497 1125.935)">
        <path id="Path_262" data-name="Path 262" d="M2802.169,1320.594h-14.358a.559.559,0,1,1,0-1.118h14.358a3.438,3.438,0,0,0,2.905-5.277l-10.262-16.211a.556.556,0,0,1,.175-.771.566.566,0,0,1,.771.175l10.262,16.211a4.556,4.556,0,0,1-3.852,6.992Z" transform="translate(-2787.252 -1297.133)"/>
      </g>
      <g id="Group_198" data-name="Group 198" transform="translate(2469.178 1081.35)">
        <path id="Path_263" data-name="Path 263" d="M2818.309,1218.47h-41.894a7.676,7.676,0,0,1-6.513-3.582l-5.375-9.324a7.708,7.708,0,0,1,6.522-11.811h49.53a7.656,7.656,0,0,1,6.511,3.588l5.378,9.321a7.569,7.569,0,0,1,.5,7.282.558.558,0,0,1-.743.278.564.564,0,0,1-.278-.743,6.466,6.466,0,0,0-.433-6.238l-5.377-9.321a6.541,6.541,0,0,0-5.553-3.049h-49.53a6.589,6.589,0,0,0-5.563,10.113l5.375,9.321a6.555,6.555,0,0,0,5.555,3.046h41.894a.559.559,0,1,1,0,1.119Z" transform="translate(-2763.326 -1193.753)"/>
      </g>
      <g id="Group_202" data-name="Group 202" transform="translate(2518.943 1096.579)">
        <g id="Group_199" data-name="Group 199" transform="translate(0 0)">
          <path id="Path_264" data-name="Path 264" d="M2903,1261.845a.532.532,0,0,1-.235-.051,35.414,35.414,0,0,0-4.122-1.219c-5.507-1.44-7.867-4.241-10.147-6.952l-.76-.895a26.257,26.257,0,0,0-1.979-1.97c-1.7-1.578-3.3-3.066-3.284-4.838a3.644,3.644,0,0,1,1.425-2.676,3.325,3.325,0,0,1,2.372-.82c2.61.149,5.412,3.014,6.5,4.242a25.461,25.461,0,0,0,2.561,2.561c-.938-1.21-2.848-3.129-4.233-4.52l-1.208-1.216a63.653,63.653,0,0,0-6.015-4.844,40.576,40.576,0,0,1-4.58-3.691,3.342,3.342,0,0,1,.089-3.878,3.723,3.723,0,0,1,3.978-1.922c2.753.666,6.209,3.671,8.067,5.289.3.255.537.467.714.614a5.057,5.057,0,0,1,2.768-1.474c3.287-.574,5.111.275,5.837.76a4.468,4.468,0,0,1,3.1-.637,15.3,15.3,0,0,1,2.7.812.56.56,0,1,1-.448,1.027,14.452,14.452,0,0,0-2.447-.738,3.565,3.565,0,0,0-2.575.663.57.57,0,0,1-.749-.046c-.011-.009-1.486-1.374-5.228-.74a3.833,3.833,0,0,0-2.123,1.124c-.292.273-.74.683-1.233.35-.172-.112-.545-.43-1.05-.872-1.658-1.443-5.108-4.443-7.6-5.042a2.587,2.587,0,0,0-2.756,1.411,2.336,2.336,0,0,0-.2,2.558,41.513,41.513,0,0,0,4.408,3.534,64.021,64.021,0,0,1,6.141,4.956l1.2,1.213c3.095,3.106,4.985,5.065,5.117,6.109a.8.8,0,0,1-.425.9c-.267.123-1.1.5-4.649-3.519-2.065-2.332-4.205-3.777-5.722-3.863a2.01,2.01,0,0,0-1.557.534,2.616,2.616,0,0,0-1.059,1.856c-.008,1.276,1.416,2.6,2.929,4.006a26.4,26.4,0,0,1,2.065,2.062l.769.9c2.268,2.693,4.411,5.237,9.571,6.588a33.952,33.952,0,0,1,4.314,1.288.559.559,0,0,1-.239,1.066Z" transform="translate(-2878.718 -1229.065)"/>
        </g>
        <g id="Group_200" data-name="Group 200" transform="translate(12.775 6.068)">
          <path id="Path_265" data-name="Path 265" d="M2916.245,1251.208a.559.559,0,0,1-.467-.25c-1.741-2.622-7.162-6.774-7.217-6.817a.559.559,0,1,1,.677-.889c.229.175,5.63,4.311,7.473,7.087a.558.558,0,0,1-.467.869Z" transform="translate(-2908.34 -1243.136)"/>
        </g>
        <g id="Group_201" data-name="Group 201" transform="translate(21.448 5.406)">
          <path id="Path_266" data-name="Path 266" d="M2934.257,1247.249a.567.567,0,0,1-.41-.178,43.156,43.156,0,0,0-5.165-4.457.561.561,0,0,1,.66-.906,43.661,43.661,0,0,1,5.326,4.6.561.561,0,0,1-.029.792A.551.551,0,0,1,2934.257,1247.249Z" transform="translate(-2928.452 -1241.601)"/>
        </g>
      </g>
      <g id="Group_203" data-name="Group 203" transform="translate(2359.708 1246.334)">
        <path id="Path_267" data-name="Path 267" d="M2784.221,1577.428h-274.17a.559.559,0,0,1,0-1.119h274.17a.559.559,0,1,1,0,1.119Z" transform="translate(-2509.492 -1576.309)"/>
      </g>
      <g id="Group_204" data-name="Group 204" transform="translate(2482.434 1087.545)">
        <path id="Path_268" data-name="Path 268" d="M2836.105,1209.236h-41.484a.559.559,0,0,1,0-1.119h41.484a.559.559,0,0,1,0,1.119Z" transform="translate(-2794.062 -1208.117)"/>
      </g>
      <g id="Group_205" data-name="Group 205" transform="translate(2486.609 1095.12)">
        <path id="Path_269" data-name="Path 269" d="M2845.786,1226.8H2804.3a.559.559,0,1,1,0-1.119h41.481a.559.559,0,0,1,0,1.119Z" transform="translate(-2803.745 -1225.681)"/>
      </g>
      <g id="Group_206" data-name="Group 206" transform="translate(2386.195 1133.148)">
        <path id="Path_270" data-name="Path 270" d="M2612.951,1314.977h-41.484a.559.559,0,1,1,0-1.118h41.484a.559.559,0,1,1,0,1.118Z" transform="translate(-2570.908 -1313.859)"/>
      </g>
      <g id="Group_207" data-name="Group 207" transform="translate(2390.371 1140.722)">
        <path id="Path_271" data-name="Path 271" d="M2622.635,1332.541h-41.484a.559.559,0,1,1,0-1.119h41.484a.559.559,0,0,1,0,1.119Z" transform="translate(-2580.591 -1331.422)"/>
      </g>
      <g id="Group_208" data-name="Group 208" transform="translate(2406.197 1166.455)">
        <path id="Path_272" data-name="Path 272" d="M2659.332,1392.209h-41.484a.559.559,0,1,1,0-1.119h41.484a.559.559,0,0,1,0,1.119Z" transform="translate(-2617.288 -1391.09)"/>
      </g>
      <g id="Group_209" data-name="Group 209" transform="translate(2410.373 1174.029)">
        <path id="Path_273" data-name="Path 273" d="M2669.014,1409.772h-41.484a.559.559,0,1,1,0-1.119h41.484a.559.559,0,0,1,0,1.119Z" transform="translate(-2626.971 -1408.653)"/>
      </g>
      <g id="Group_210" data-name="Group 210" transform="translate(2312.72 1054.513)">
        <path id="Path_274" data-name="Path 274" d="M2483.435,1132.643H2401.1a.559.559,0,0,1,0-1.118h82.337a.559.559,0,1,1,0,1.118Z" transform="translate(-2400.539 -1131.525)"/>
      </g>
      <g id="Group_211" data-name="Group 211" transform="translate(2368.616 1068.989)">
        <path id="Path_275" data-name="Path 275" d="M2566.16,1166.208h-35.453a.559.559,0,0,1,0-1.118h35.453a.559.559,0,1,1,0,1.118Z" transform="translate(-2530.148 -1165.09)"/>
      </g>
      <g id="Group_212" data-name="Group 212" transform="translate(2376.136 1080.553)">
        <path id="Path_276" data-name="Path 276" d="M2583.6,1193.022h-35.452a.559.559,0,1,1,0-1.118H2583.6a.559.559,0,1,1,0,1.118Z" transform="translate(-2547.585 -1191.904)"/>
      </g>
      <g id="Group_213" data-name="Group 213" transform="translate(2383.243 1092.12)">
        <path id="Path_277" data-name="Path 277" d="M2600.076,1219.843h-35.452a.559.559,0,1,1,0-1.118h35.452a.559.559,0,1,1,0,1.118Z" transform="translate(-2564.064 -1218.725)"/>
      </g>
      <g id="Group_214" data-name="Group 214" transform="translate(2553.382 1104.322)">
        <path id="Path_278" data-name="Path 278" d="M2970.8,1273.023a15.1,15.1,0,0,1-2.461-.212c-4.867-.818-9.984-4.684-9.754-13.087a14.748,14.748,0,0,1,7.776-12.651.56.56,0,0,1,.473,1.015,13.379,13.379,0,0,0-7.13,11.665c-.264,9.674,6.685,11.6,8.819,11.951,6.477,1.093,8.906-2.65,9-2.81a.56.56,0,0,1,.952.588C2978.375,1269.645,2976.229,1273.023,2970.8,1273.023Z" transform="translate(-2958.575 -1247.02)"/>
      </g>
      <g id="Group_215" data-name="Group 215" transform="translate(2549.889 1064.537)">
        <path id="Path_279" data-name="Path 279" d="M2984.044,1223.186c-5.119,0-10.055-1.635-12.651-4.21a.56.56,0,0,1,.786-.8c2.458,2.441,7.268,4.029,12.218,3.886,4.429-.069,8.211-1.42,10.374-3.7,2.478-2.618,3.76-7.03,3.522-12.1a18.191,18.191,0,0,0-1.893-7.655,13.749,13.749,0,0,0-3.961-4.2,26.1,26.1,0,0,1-2.716-2.4,4.209,4.209,0,0,1-1.331-2.518,7.971,7.971,0,0,1,1.288-3.818c.117-.221.233-.433.333-.628l.43-.844a33.545,33.545,0,0,0,1.595-3.4,17.619,17.619,0,0,0,1.112-9.474c-1.184-6.562-13.262-9.27-13.385-9.3a.571.571,0,0,1-.252-.129c-5.753-5.111-15.853-8.117-22.808-4.3-6.656,3.665-4.967,11.406-4.893,11.733.011.47.04,8.383,12.344,13.05a.561.561,0,1,1-.4,1.05c-13.09-4.965-13.061-13.618-13.053-13.985-.017,0-1.927-8.761,5.458-12.829,7.333-4.038,17.914-.969,23.983,4.345,1.491.345,12.846,3.192,14.1,10.156a18.734,18.734,0,0,1-1.167,10.073,34.38,34.38,0,0,1-1.643,3.516l-.431.838c-.1.206-.221.425-.344.654a7.224,7.224,0,0,0-1.156,3.224,3.2,3.2,0,0,0,1.027,1.813,25.446,25.446,0,0,0,2.6,2.295,14.823,14.823,0,0,1,4.253,4.552,19.341,19.341,0,0,1,2.019,8.125c.15,3.158-.152,9.034-3.826,12.92-2.372,2.5-6.441,3.981-11.171,4.053C2984.291,1223.186,2984.167,1223.186,2984.044,1223.186Z" transform="translate(-2950.474 -1154.768)"/>
      </g>
      <path id="Path_280" data-name="Path 280" d="M2573.054,1113.125c-1.2.992-3.3.425-4.7-1.265s-1.573-3.866-.378-4.857,3.3-.426,4.705,1.265S2574.249,1112.133,2573.054,1113.125Z" transform="translate(-182.59 -62.787)" fill="#3552ff"/>
      <g id="Group_216" data-name="Group 216" transform="translate(2372.929 1043.16)">
        <path id="Path_281" data-name="Path 281" d="M2545.139,1113.427c-.106,0-.215-.005-.327-.014a5.221,5.221,0,0,1-3.37-1.942c-1.6-1.924-1.735-4.46-.306-5.647,1.454-1.2,3.869-.62,5.495,1.339a5.47,5.47,0,0,1,1.291,3.005,3.01,3.01,0,0,1-.986,2.639A2.758,2.758,0,0,1,2545.139,1113.427Zm-2.211-7.1a1.66,1.66,0,0,0-1.079.353c-.934.78-.728,2.644.453,4.07a4.09,4.09,0,0,0,2.613,1.543,1.778,1.778,0,0,0,1.3-.35,1.928,1.928,0,0,0,.588-1.692,4.341,4.341,0,0,0-1.035-2.375A3.974,3.974,0,0,0,2542.928,1106.331Z" transform="translate(-2540.148 -1105.2)"/>
      </g>
      <g id="Group_217" data-name="Group 217" transform="translate(2461.105 1093.934)">
        <path id="Path_282" data-name="Path 282" d="M2749.618,1231.144a5.041,5.041,0,0,1-3.706-1.947,5.465,5.465,0,0,1-1.293-3.006,2.836,2.836,0,0,1,3.763-3.126,5.782,5.782,0,0,1,4.01,4.827,3,3,0,0,1-.986,2.641A2.757,2.757,0,0,1,2749.618,1231.144Zm-2.214-7.093a1.655,1.655,0,0,0-1.081.359,1.923,1.923,0,0,0-.586,1.692,4.324,4.324,0,0,0,1.036,2.378c1.187,1.425,2.983,1.967,3.915,1.193a1.924,1.924,0,0,0,.585-1.692,4.661,4.661,0,0,0-3.18-3.834A2.713,2.713,0,0,0,2747.4,1224.052Z" transform="translate(-2744.606 -1222.932)"/>
      </g>
      <g id="Group_218" data-name="Group 218" transform="translate(2304.456 1087.366)">
        <path id="Path_283" data-name="Path 283" d="M2386.371,1215.932a3.882,3.882,0,0,1-.984-.135,5.474,5.474,0,0,1-2.716-1.822c-1.6-1.927-1.735-4.46-.307-5.647,1.454-1.21,3.869-.617,5.5,1.339a5.47,5.47,0,0,1,1.291,3.006,3.01,3.01,0,0,1-.987,2.639A2.751,2.751,0,0,1,2386.371,1215.932Zm-2.214-7.1a1.648,1.648,0,0,0-1.076.355c-.938.78-.731,2.644.45,4.07a4.351,4.351,0,0,0,2.145,1.457,1.729,1.729,0,0,0,2.358-1.956,4.342,4.342,0,0,0-1.035-2.375A3.972,3.972,0,0,0,2384.157,1208.833Z" transform="translate(-2381.377 -1207.702)"/>
      </g>
      <g id="Group_219" data-name="Group 219" transform="translate(2246.128 1084.572)">
        <path id="Path_284" data-name="Path 284" d="M2257.936,1220.308c-2.911,0-6.235-1.652-8.707-4.629a12.977,12.977,0,0,1-3.072-7.127,6.322,6.322,0,0,1,8.447-7.012,12.979,12.979,0,0,1,6.439,4.331c3.742,4.511,4.139,10.38.883,13.084A6.135,6.135,0,0,1,2257.936,1220.308Zm-5.59-17.963a5.033,5.033,0,0,0-3.284,1.11,5.7,5.7,0,0,0-1.789,5.01,11.87,11.87,0,0,0,2.817,6.5c3.353,4.038,8.343,5.44,11.12,3.132s2.32-7.472-1.027-11.507a11.868,11.868,0,0,0-5.868-3.966A7.59,7.59,0,0,0,2252.346,1202.344Z" transform="translate(-2246.128 -1201.225)"/>
      </g>
      <g id="Group_220" data-name="Group 220" transform="translate(2406.358 996.116)">
        <path id="Path_285" data-name="Path 285" d="M2629.461,1015.186c-2.914,0-6.238-1.652-8.71-4.629-3.743-4.513-4.139-10.382-.884-13.084s8.952-1.238,12.7,3.277,4.141,10.381.886,13.083A6.138,6.138,0,0,1,2629.461,1015.186Zm-5.581-17.964a5.061,5.061,0,0,0-3.3,1.111c-2.782,2.309-2.32,7.471,1.027,11.507s8.343,5.432,11.122,3.132,2.32-7.471-1.03-11.508C2629.447,998.746,2626.447,997.222,2623.88,997.222Z" transform="translate(-2617.663 -996.116)"/>
      </g>
      <g id="Group_221" data-name="Group 221" transform="translate(2343.49 1201.317)">
        <path id="Path_286" data-name="Path 286" d="M2476.89,1480.14c-.105,0-.215-.006-.327-.014a5.222,5.222,0,0,1-3.37-1.942,5.466,5.466,0,0,1-1.293-3.006,3,3,0,0,1,.986-2.641c1.438-1.19,3.9-.585,5.493,1.339a5.226,5.226,0,0,1,1.291,3.668,2.835,2.835,0,0,1-.984,1.976A2.757,2.757,0,0,1,2476.89,1480.14Zm-2.211-7.1a1.657,1.657,0,0,0-1.078.353,1.926,1.926,0,0,0-.582,1.692,4.319,4.319,0,0,0,1.035,2.377,4.086,4.086,0,0,0,2.613,1.543,1.748,1.748,0,0,0,1.3-.35,1.769,1.769,0,0,0,.585-1.219,4.089,4.089,0,0,0-1.035-2.848A3.968,3.968,0,0,0,2474.679,1473.044Z" transform="translate(-2471.887 -1471.927)"/>
      </g>
      <g id="Group_222" data-name="Group 222" transform="translate(2440.452 1135.853)">
        <path id="Path_287" data-name="Path 287" d="M2701.7,1328.368a5.007,5.007,0,0,1-3.683-1.965,5.473,5.473,0,0,1-1.29-3.006,3,3,0,0,1,.984-2.638c1.454-1.21,3.872-.62,5.5,1.336a5.474,5.474,0,0,1,1.291,3.006,3,3,0,0,1-.984,2.638A2.791,2.791,0,0,1,2701.7,1328.368Zm-2.194-7.1a1.657,1.657,0,0,0-1.078.355,1.93,1.93,0,0,0-.585,1.692,4.34,4.34,0,0,0,1.036,2.375c1.187,1.428,2.986,1.971,3.918,1.193a1.928,1.928,0,0,0,.585-1.692,4.337,4.337,0,0,0-1.036-2.375A3.97,3.97,0,0,0,2699.509,1321.264Z" transform="translate(-2696.717 -1320.131)"/>
      </g>
      <g id="Group_223" data-name="Group 223" transform="translate(2362.079 1043.165)">
        <path id="Path_288" data-name="Path 288" d="M2519.992,1113.433a3.751,3.751,0,0,1-.983-.135,5.46,5.46,0,0,1-2.713-1.821,5.225,5.225,0,0,1-1.291-3.671,2.831,2.831,0,0,1,.984-1.976,3,3,0,0,1,2.776-.482,5.455,5.455,0,0,1,2.716,1.821,5.223,5.223,0,0,1,1.291,3.668,2.832,2.832,0,0,1-.984,1.976A2.766,2.766,0,0,1,2519.992,1113.433Zm-2.206-7.1a1.648,1.648,0,0,0-1.081.359,1.77,1.77,0,0,0-.585,1.219,4.089,4.089,0,0,0,1.036,2.851,4.333,4.333,0,0,0,2.145,1.457,1.925,1.925,0,0,0,1.77-.264,1.771,1.771,0,0,0,.585-1.219,4.089,4.089,0,0,0-1.036-2.848,4.329,4.329,0,0,0-2.145-1.457A2.618,2.618,0,0,0,2517.787,1106.331Z" transform="translate(-2514.99 -1105.21)"/>
      </g>
      <g id="Group_224" data-name="Group 224" transform="translate(2433.534 1097.982)">
        <path id="Path_289" data-name="Path 289" d="M2687.578,1269.974a.558.558,0,0,1-.462-.244,37.73,37.73,0,0,1-3.176-5.719.56.56,0,0,1,1.021-.459,36.991,36.991,0,0,0,3.078,5.547.559.559,0,0,1-.461.875Zm-5.266-11.711a.56.56,0,0,1-.542-.418,38.089,38.089,0,0,1-1.092-6.442.564.564,0,0,1,.513-.605.553.553,0,0,1,.6.514,36.484,36.484,0,0,0,1.058,6.252.562.562,0,0,1-.4.683A.606.606,0,0,1,2682.313,1258.263Zm-.938-12.766a.581.581,0,0,1-.548-.677,10.858,10.858,0,0,1,3.359-5.748.56.56,0,1,1,.763.82,9.745,9.745,0,0,0-3.026,5.16A.561.561,0,0,1,2681.375,1245.5Zm8.65-8.819a.56.56,0,0,1-.218-1.075,36.482,36.482,0,0,1,6.258-1.933.561.561,0,0,1,.242,1.1,35.252,35.252,0,0,0-6.064,1.87A.589.589,0,0,1,2690.025,1236.678Zm12.537-2.905a.559.559,0,0,1-.058-1.116c2.977-.307,5.312-.338,6.177-.338h.336a.559.559,0,1,1,0,1.118h-.336c-.849,0-3.137.034-6.063.333A.4.4,0,0,1,2702.562,1233.773Z" transform="translate(-2680.676 -1232.319)"/>
      </g>
      <g id="Group_225" data-name="Group 225" transform="translate(2262.427 1092.12)">
        <path id="Path_290" data-name="Path 290" d="M2323.741,1219.843H2317.3a.559.559,0,0,1,0-1.118h6.445a.559.559,0,1,1,0,1.118Zm-12.889,0H2304.4a.559.559,0,1,1,0-1.118h6.448a.559.559,0,1,1,0,1.118Zm-12.892,0h-6.444a.559.559,0,0,1,0-1.118h6.444a.559.559,0,1,1,0,1.118Zm-12.889,0h-.588a.559.559,0,1,1,0-1.118h.588a.559.559,0,1,1,0,1.118Z" transform="translate(-2283.923 -1218.725)"/>
      </g>
      <g id="Group_226" data-name="Group 226" transform="translate(2322.414 1204.862)">
        <path id="Path_291" data-name="Path 291" d="M2441.47,1481.264h-6.445a.559.559,0,0,1,0-1.119h6.445a.559.559,0,0,1,0,1.119Zm-12.889,0h-5.005a.559.559,0,1,1,0-1.119h5.005a.559.559,0,0,1,0,1.119Z" transform="translate(-2423.016 -1480.145)"/>
      </g>
      <g id="Group_227" data-name="Group 227" transform="translate(2258.236 1103.465)">
        <path id="Path_292" data-name="Path 292" d="M2338.942,1347.547a.555.555,0,0,1-.474-.261l-2.134-3.37a.559.559,0,0,1,.947-.6l2.134,3.37a.557.557,0,0,1-.175.771A.563.563,0,0,1,2338.942,1347.547Zm-5.579-8.816a.557.557,0,0,1-.474-.261l-3.447-5.443a.556.556,0,0,1,.175-.772.562.562,0,0,1,.771.175l3.448,5.444a.557.557,0,0,1-.175.771A.563.563,0,0,1,2333.363,1338.73Zm-6.9-10.89a.555.555,0,0,1-.473-.261l-3.448-5.446a.557.557,0,0,1,.175-.771.563.563,0,0,1,.771.175l3.448,5.447a.556.556,0,0,1-.175.771A.564.564,0,0,1,2326.468,1327.84Zm-6.9-10.893a.555.555,0,0,1-.473-.261l-3.445-5.447a.559.559,0,1,1,.946-.6l3.445,5.447a.559.559,0,0,1-.175.772A.565.565,0,0,1,2319.573,1316.947Zm-6.892-10.893a.557.557,0,0,1-.473-.261l-3.448-5.447a.557.557,0,0,1,.175-.771.564.564,0,0,1,.772.175l3.448,5.447a.556.556,0,0,1-.175.771A.562.562,0,0,1,2312.681,1306.054Zm-6.9-10.891a.554.554,0,0,1-.473-.261l-3.448-5.446a.56.56,0,0,1,.947-.6l3.448,5.447a.556.556,0,0,1-.175.771A.565.565,0,0,1,2305.786,1295.164Zm-6.892-10.893a.556.556,0,0,1-.473-.261l-3.447-5.447a.557.557,0,0,1,.175-.771.567.567,0,0,1,.771.175l3.448,5.447a.557.557,0,0,1-.175.772A.563.563,0,0,1,2298.894,1284.271ZM2292,1273.378a.556.556,0,0,1-.474-.261l-3.447-5.447a.556.556,0,0,1,.175-.771.564.564,0,0,1,.772.175l3.447,5.447a.56.56,0,0,1-.473.858Zm-6.9-10.89a.554.554,0,0,1-.473-.261l-3.445-5.446a.56.56,0,0,1,.947-.6l3.445,5.447a.559.559,0,0,1-.473.857Zm-6.892-10.893a.555.555,0,0,1-.473-.261l-3.448-5.446a.556.556,0,0,1,.175-.771.563.563,0,0,1,.772.175l3.448,5.447a.56.56,0,0,1-.473.858Z" transform="translate(-2274.204 -1245.031)"/>
      </g>
      <g id="Group_228" data-name="Group 228" transform="translate(2379.875 1174.87)">
        <path id="Path_293" data-name="Path 293" d="M2562.487,1440.815c-1.015,0-4.135-.155-5.541-2a4.059,4.059,0,0,1-.384-3.9l9.708-21.975a5.108,5.108,0,0,1,3.181-2.257,6.114,6.114,0,0,1,4.807,1.414l5.536,4.982a.561.561,0,0,1-.751.832l-5.492-4.948a4.986,4.986,0,0,0-3.881-1.181,3.98,3.98,0,0,0-2.406,1.675l-9.654,21.86a2.983,2.983,0,0,0,.227,2.817c1.087,1.417,3.918,1.615,4.944,1.552h32.045a.559.559,0,1,1,0,1.119h-32.017C2562.786,1440.812,2562.671,1440.815,2562.487,1440.815Z" transform="translate(-2556.254 -1410.603)"/>
      </g>
      <g id="Group_229" data-name="Group 229" transform="translate(2335.663 1060.713)">
        <path id="Path_294" data-name="Path 294" d="M2477.889,1184.288a.554.554,0,0,1-.473-.261l-23.59-37.271a.556.556,0,0,1,.175-.771.564.564,0,0,1,.772.175l23.59,37.271a.556.556,0,0,1-.175.771A.563.563,0,0,1,2477.889,1184.288Z" transform="translate(-2453.738 -1145.9)"/>
      </g>
      <g id="Group_230" data-name="Group 230" transform="translate(2421.273 1013.271)">
        <path id="Path_295" data-name="Path 295" d="M2685.46,1052.835c-12.2,0-23.289-5.36-33.067-16a.56.56,0,0,1,.826-.757c11.748,12.789,25.4,17.774,40.624,14.808a.577.577,0,0,1,.657.445.563.563,0,0,1-.445.657A45,45,0,0,1,2685.46,1052.835Z" transform="translate(-2652.245 -1035.894)"/>
      </g>
      <g id="Group_231" data-name="Group 231" transform="translate(2539.237 1043.05)">
        <path id="Path_296" data-name="Path 296" d="M2933.478,1117.458a7.751,7.751,0,0,1-5.687-3.009,8.436,8.436,0,0,1-2-4.638,4.216,4.216,0,0,1,5.618-4.663,8.446,8.446,0,0,1,4.188,2.816c2.449,2.949,2.69,6.8.536,8.59A4.084,4.084,0,0,1,2933.478,1117.458Zm-3.551-11.4a3,3,0,0,0-1.954.657,3.416,3.416,0,0,0-1.061,3.006,7.3,7.3,0,0,0,1.738,4.006c2.054,2.475,5.091,3.353,6.769,1.962s1.374-4.54-.68-7.012a7.315,7.315,0,0,0-3.62-2.452A4.582,4.582,0,0,0,2929.927,1106.063Z" transform="translate(-2925.775 -1104.945)"/>
      </g>
      <g id="Group_232" data-name="Group 232" transform="translate(2499.73 1026.953)">
        <path id="Path_297" data-name="Path 297" d="M2875.713,1084.861a.557.557,0,0,1-.415-.184c-11.863-13.147-25.088-18.083-40.463-15.086a.568.568,0,0,1-.656-.445.561.561,0,0,1,.444-.656c15.783-3.072,29.36,1.976,41.507,15.436a.559.559,0,0,1-.416.935Z" transform="translate(-2834.168 -1067.62)"/>
      </g>
      <g id="Group_233" data-name="Group 233" transform="translate(2501.126 1209.175)">
        <path id="Path_298" data-name="Path 298" d="M2837.966,1502.219a.549.549,0,0,1-.212-.04.563.563,0,0,1-.307-.732c2.877-6.973,9.893-11.3,18.316-11.3,8.12,0,15.078,4.2,18.158,10.962a.561.561,0,1,1-1.021.464c-2.894-6.358-9.462-10.308-17.137-10.308-7.959,0-14.581,4.064-17.278,10.606A.56.56,0,0,1,2837.966,1502.219Z" transform="translate(-2837.405 -1490.147)"/>
      </g>
    </g>
  </g>
</svg>
