<svg xmlns="http://www.w3.org/2000/svg" xmlns:xlink="http://www.w3.org/1999/xlink" width="255" height="255" viewBox="0 0 255 255">
  <defs>
    <linearGradient id="linear-gradient" x1="1.396" y1="-0.381" x2="-0.054" y2="1.049" gradientUnits="objectBoundingBox">
      <stop offset="0" stop-color="#e32a40"/>
      <stop offset="0.241" stop-color="#00c4ff"/>
      <stop offset="0.468" stop-color="#d5aaff"/>
      <stop offset="0.744" stop-color="#dd3448"/>
      <stop offset="1" stop-color="#ffe200"/>
    </linearGradient>
    <clipPath id="clip-path">
      <rect id="Rectangle_9691" data-name="Rectangle 9691" width="96.737" height="96.7" fill="none" stroke="#707070" stroke-width="4"/>
    </clipPath>
  </defs>
  <g id="Group_45541" data-name="Group 45541" transform="translate(-1388.5 -1474.5)">
    <g id="Group_45368" data-name="Group 45368" transform="translate(136 -30)">
      <path id="Union_12" data-name="Union 12" d="M-1928-9229h216a19,19,0,0,1,19,19v216a19,19,0,0,1-19,19h-216a19,19,0,0,1-19-19v-216A19,19,0,0,1-1928-9229Z" transform="translate(3200 10734)" stroke="rgba(0,0,0,0)" stroke-width="1" fill="url(#linear-gradient)"/>
      <rect id="Rectangle_8907" data-name="Rectangle 8907" width="224" height="224" rx="10" transform="translate(1268 1520)" fill="#fff" stroke="rgba(0,0,0,0)" stroke-width="1"/>
    </g>
    <text id="Blockchain" transform="translate(1516 1654)" font-size="18" font-family="Poppins-Bold, Poppins" font-weight="700"><tspan x="-51.606" y="0">Blockchain</tspan></text>
    <g id="Group_45373" data-name="Group 45373" transform="translate(1468 1518.301)">
      <g id="Group_45372" data-name="Group 45372" transform="translate(0 0)" clip-path="url(#clip-path)">
        <path id="Path_54307" data-name="Path 54307" d="M15.436,15.435c-.076.076-.152.147-.233.216a5.039,5.039,0,0,1-3.48,1.309,5.03,5.03,0,0,1-3.2-1.078q-.255-.207-.5-.447a5.174,5.174,0,0,1-.2-7.16c.062-.085.127-.168.2-.248a5.033,5.033,0,0,1,3.7-1.509,5.045,5.045,0,0,1,3.714,1.525,4.853,4.853,0,0,1,.43.481,4.955,4.955,0,0,1,1.078,3.215,4.959,4.959,0,0,1-1.507,3.7L32.7,32.687l6.978-6.977-7.027-7.027.017-7.242a5.071,5.071,0,0,1-3.714-1.525,5.035,5.035,0,0,1-1.525-3.7,5.065,5.065,0,0,1,1.525-3.711,5.3,5.3,0,0,1,7.409,0A5.065,5.065,0,0,1,37.892,6.22a5.035,5.035,0,0,1-1.525,3.7,5.032,5.032,0,0,1-3.7,1.525m7.01,14.269,2-2.006a9,9,0,0,1,12.7,0l2,2.006,7.043-7.027-.016-7.242a5.035,5.035,0,0,1-3.7-1.525,5.028,5.028,0,0,1-1.523-3.7,5.059,5.059,0,0,1,1.523-3.711,5.282,5.282,0,0,1,7.393,0A5.059,5.059,0,0,1,68.634,6.22a5.028,5.028,0,0,1-1.523,3.7,5.035,5.035,0,0,1-3.7,1.525M11.474,63.379A5.06,5.06,0,0,1,9.95,67.09a5.06,5.06,0,0,1-3.712,1.525,5.024,5.024,0,0,1-3.7-1.525,5.264,5.264,0,0,1,0-7.408,5.035,5.035,0,0,1,3.7-1.525A5.068,5.068,0,0,1,9.95,59.682a5.027,5.027,0,0,1,1.525,3.7l7.243.016,7.026-7.027-2-2a8.961,8.961,0,0,1,0-12.7l1.989-2L18.7,32.636l-7.259.017a5.029,5.029,0,0,1-1.525,3.7,5.035,5.035,0,0,1-3.7,1.525,5.065,5.065,0,0,1-3.711-1.525,5.3,5.3,0,0,1,0-7.408A5.06,5.06,0,0,1,6.22,27.416a5.029,5.029,0,0,1,3.7,1.525,5.068,5.068,0,0,1,1.525,3.712m14.286,7.01L32.7,32.687M48.017,43.011a4.718,4.718,0,0,1,3.5,1.425,4.827,4.827,0,0,1,1.458,3.529A4.814,4.814,0,0,1,48.068,52.9a4.958,4.958,0,0,1-3.531-8.468A4.706,4.706,0,0,1,48.017,43.011Zm12.215-2.088V55.059l-12.248,7.06L35.77,55.059V40.905l12.214-7.059Zm27.81-32.9a5,5,0,0,0-3.679-1.509,5.064,5.064,0,0,0-3.73,1.509,4.578,4.578,0,0,0-.43.5,4.942,4.942,0,0,0-1.062,3.215,4.945,4.945,0,0,0,1.492,3.7c.081.076.163.147.249.216a5.283,5.283,0,0,0,6.678.231c.164-.138.324-.286.481-.447a5.2,5.2,0,0,0,.215-7.16C88.189,8.19,88.118,8.107,88.042,8.027Zm-7.409,7.408L63.381,32.687l6.977,6.977,7.028-7.027,7.242.017a5.206,5.206,0,1,1,1.525,3.7,5.061,5.061,0,0,1-1.525-3.7m-14.27,7.01,1.989,2a9,9,0,0,1,0,12.7l-2.022,2,7.044,7.027h7.242a5.206,5.206,0,1,1,1.525,3.7,5.068,5.068,0,0,1-1.525-3.7M56.387,25.71l6.994,6.977m6.943,23.681-6.961,6.977L80.617,80.613a4.971,4.971,0,0,1,3.7-1.525,4.91,4.91,0,0,1,3.2,1.077,5.386,5.386,0,0,1,.514.448,5.284,5.284,0,0,1,0,7.392c-.081.076-.164.147-.249.215a5.2,5.2,0,0,1-7.16-.215c-.16-.158-.309-.317-.448-.481a5.285,5.285,0,0,1,.232-6.678,2.966,2.966,0,0,1,.216-.232M63.364,63.344l-6.993,6.978L63.4,77.365v7.242a5.206,5.206,0,1,1-3.7,1.525,5.035,5.035,0,0,1,3.7-1.525M56.372,70.322l-1.989,1.989a8.966,8.966,0,0,1-12.7,0l-1.972-1.989-7.043,7.043.016,7.242A5.07,5.07,0,0,1,36.4,86.132a5.284,5.284,0,0,1,0,7.392,5.232,5.232,0,1,1-3.712-8.916m-17.22-3.993a2.965,2.965,0,0,1,.216.232,5.285,5.285,0,0,1,.232,6.678c-.139.164-.288.324-.448.481a5.134,5.134,0,0,1-3.711,1.541A5.046,5.046,0,0,1,8.309,88.22c-.086-.068-.17-.139-.249-.215a5.241,5.241,0,0,1,0-7.392,5.058,5.058,0,0,1,.5-.448,4.91,4.91,0,0,1,3.2-1.077,5.006,5.006,0,0,1,3.711,1.525L32.721,63.344l-6.978-6.977M39.715,70.322l-6.994-6.978" transform="translate(0.326 0.326)" fill="none" stroke="#231f20" stroke-linecap="round" stroke-linejoin="round" stroke-width="4"/>
      </g>
    </g>
  </g>
</svg>
