<svg data-name="Group 45373" xmlns="http://www.w3.org/2000/svg" width="77.74" height="77.71" viewBox="0 0 77.74 77.71">
    <defs>
        <clipPath id="4wehv3r75a">
            <path data-name="Rectangle 9691" style="stroke:#707070;fill:none;stroke-width:3px" d="M0 0h77.74v77.71H0z"/>
        </clipPath>
    </defs>
    <g data-name="Group 45372" style="clip-path:url(#4wehv3r75a)">
        <path data-name="Path 54307" d="M12.6 12.6a3.426 3.426 0 0 1-.188.174 4.049 4.049 0 0 1-2.8 1.052 4.042 4.042 0 0 1-2.57-.866q-.2-.166-.4-.359a4.158 4.158 0 0 1-.16-5.754c.05-.068.1-.135.16-.2a4.045 4.045 0 0 1 2.97-1.213A4.054 4.054 0 0 1 12.6 6.66a3.9 3.9 0 0 1 .345.387 3.982 3.982 0 0 1 .866 2.584A3.985 3.985 0 0 1 12.6 12.6l13.878 13.864 5.608-5.607-5.648-5.647.014-5.82a4.184 4.184 0 0 1-4.21-4.2 4.07 4.07 0 0 1 1.225-2.982 4.261 4.261 0 0 1 5.954 0 4.07 4.07 0 0 1 1.225 2.982 4.046 4.046 0 0 1-1.225 2.971 4.044 4.044 0 0 1-2.97 1.225m5.633 11.467 1.616-1.608a7.236 7.236 0 0 1 10.2 0l1.611 1.612 5.66-5.647-.013-5.82a4.046 4.046 0 0 1-2.971-1.225 4.041 4.041 0 0 1-1.224-2.971 4.065 4.065 0 0 1 1.224-2.982 4.245 4.245 0 0 1 5.941 0 4.065 4.065 0 0 1 1.224 2.982 4.041 4.041 0 0 1-1.224 2.971 4.046 4.046 0 0 1-2.971 1.225M9.417 51.129a4.066 4.066 0 0 1-1.225 2.982 4.066 4.066 0 0 1-2.983 1.225 4.038 4.038 0 0 1-2.971-1.225 4.23 4.23 0 0 1 0-5.953 4.046 4.046 0 0 1 2.971-1.225 4.073 4.073 0 0 1 2.983 1.225 4.04 4.04 0 0 1 1.225 2.971l5.821.013 5.646-5.647-1.611-1.611a7.2 7.2 0 0 1 0-10.2l1.6-1.611-5.647-5.647-5.834.014a4.042 4.042 0 0 1-1.225 2.97 4.046 4.046 0 0 1-2.971 1.225 4.07 4.07 0 0 1-2.982-1.225 4.259 4.259 0 0 1 0-5.953 4.066 4.066 0 0 1 2.982-1.225 4.184 4.184 0 0 1 4.2 4.209m11.481 5.633 5.607-5.607m12.306 8.3a3.791 3.791 0 0 1 2.811 1.145 3.879 3.879 0 0 1 1.172 2.836 3.869 3.869 0 0 1-3.942 3.969 3.984 3.984 0 0 1-2.837-6.805 3.782 3.782 0 0 1 2.79-1.151zm9.81-1.684v11.36l-9.843 5.674-9.815-5.674V33.069l9.816-5.669zM70.949 6.647a4.016 4.016 0 0 0-2.957-1.213 4.07 4.07 0 0 0-3 1.213 3.678 3.678 0 0 0-.345.4A3.972 3.972 0 0 0 63.8 9.63 3.974 3.974 0 0 0 65 12.6c.065.061.131.118.2.174a4.245 4.245 0 0 0 5.367.185c.132-.111.26-.23.387-.359a4.175 4.175 0 0 0 .173-5.754c-.06-.068-.117-.135-.178-.199zM65 12.6 51.131 26.464l5.607 5.607 5.648-5.647 5.82.014a4.184 4.184 0 1 1 1.225 2.97 4.067 4.067 0 0 1-1.225-2.97m-11.468 5.633 1.6 1.611a7.235 7.235 0 0 1 0 10.2l-1.625 1.611 5.661 5.647h5.82a4.184 4.184 0 1 1 1.225 2.97 4.073 4.073 0 0 1-1.225-2.97M45.511 20.857l5.62 5.607m5.58 19.031L51.117 51.1l13.865 13.879a4 4 0 0 1 2.97-1.225 3.946 3.946 0 0 1 2.571.865 4.329 4.329 0 0 1 .413.36 4.246 4.246 0 0 1 0 5.94 3.587 3.587 0 0 1-.2.173 4.175 4.175 0 0 1-5.754-.173 5.877 5.877 0 0 1-.36-.387 4.247 4.247 0 0 1 .186-5.367 2.384 2.384 0 0 1 .174-.186M51.117 51.1 45.5 56.709l5.646 5.66v5.82a4.184 4.184 0 1 1-2.97 1.225 4.046 4.046 0 0 1 2.97-1.225M45.5 56.709l-1.6 1.6a7.205 7.205 0 0 1-10.2 0l-1.584-1.6-5.66 5.66.013 5.82a4.075 4.075 0 0 1 2.983 1.225 4.246 4.246 0 0 1 0 5.94 4.2 4.2 0 1 1-2.983-7.165m-13.842-3.21a2.383 2.383 0 0 1 .174.186 4.247 4.247 0 0 1 .186 5.367c-.112.132-.231.26-.36.387a4.126 4.126 0 0 1-2.982 1.238 4.055 4.055 0 0 1-2.77-1.065 2.723 2.723 0 0 1-.2-.173 4.212 4.212 0 0 1 0-5.94 4.065 4.065 0 0 1 .4-.36 3.946 3.946 0 0 1 2.571-.865 4.023 4.023 0 0 1 2.982 1.225L26.492 51.1l-5.608-5.607m11.228 11.216-5.62-5.609" transform="translate(.065 .066)" style="stroke:#231f20;stroke-linecap:round;stroke-linejoin:round;fill:none;stroke-width:3px"/>
    </g>
</svg>
