<svg xmlns="http://www.w3.org/2000/svg" width="81.854" height="80.71" viewBox="0 0 81.854 80.71">
    <g data-name="Group 45371">
        <path data-name="Path 54306" d="M1 33.8v7.518h7.087V28.233a10.077 10.077 0 0 1 3.071-7.405 10.108 10.108 0 0 1 7.42-3.07h2.556L18.9 9.1a4.017 4.017 0 0 1-.834.084 3.919 3.919 0 0 1-2.876-1.2 3.955 3.955 0 0 1-1.195-2.9 3.929 3.929 0 0 1 1.195-2.89 4.059 4.059 0 0 1 5.753 0 3.933 3.933 0 0 1 1.195 2.89 3.959 3.959 0 0 1-1.195 2.9A3.908 3.908 0 0 1 18.9 9.1m58.731 39.738v-7.516h-7.073v9.127H54.58a15.988 15.988 0 0 1-3.751 5.751 15.68 15.68 0 0 1-11.506 4.752A15.642 15.642 0 0 1 27.832 56.2a15.985 15.985 0 0 1-3.766-5.753H8.087v-9.125M1 48.838v-7.516m7.087 15.187v1.251a10.11 10.11 0 0 0 3.071 7.419 10.13 10.13 0 0 0 7.42 3.085h41.767a10.514 10.514 0 0 0 10.213-10.5v-1.255M59.748 9.1a3.867 3.867 0 0 1-2.029-1.112 3.954 3.954 0 0 1-1.194-2.9 3.928 3.928 0 0 1 1.194-2.89 4.043 4.043 0 0 1 5.739 0 3.932 3.932 0 0 1 1.194 2.89 3.958 3.958 0 0 1-1.194 2.9 3.9 3.9 0 0 1-2.863 1.2 4.17 4.17 0 0 1-.847-.084l-2.238 8.653h2.557a10.482 10.482 0 0 1 10.491 10.476v13.089m-39.087-4.7a5.169 5.169 0 0 1-5.171 5.171 5.178 5.178 0 0 1-3.668-8.837 5.071 5.071 0 0 1 2.111-1.292 5.312 5.312 0 0 1 1.557-.222 5.169 5.169 0 0 1 5.168 5.183zm17.189-3.666a5.178 5.178 0 0 1 7.322 7.323 5.178 5.178 0 0 1-7.322-7.323zm-27.527-15.2H57.51M23.7 74.2v2.291h31.059V74.2m-.179-23.751H24.066M77.631 33.8v7.518" transform="translate(1.611 1.611)" style="stroke:#231f20;stroke-linecap:round;stroke-linejoin:round;fill:none;stroke-width:3px"/>
        <path data-name="Rectangle 9690" transform="translate(1.5 1.5)" style="stroke:transparent;fill:none;stroke-width:3px" d="M0 0h78.853v77.71H0z"/>
    </g>
</svg>
