<svg xmlns="http://www.w3.org/2000/svg" xmlns:xlink="http://www.w3.org/1999/xlink" width="255" height="255" viewBox="0 0 255 255">
  <defs>
    <linearGradient id="linear-gradient" x1="1.396" y1="-0.381" x2="-0.054" y2="1.049" gradientUnits="objectBoundingBox">
      <stop offset="0" stop-color="#e32a40"/>
      <stop offset="0.241" stop-color="#00c4ff"/>
      <stop offset="0.468" stop-color="#d5aaff"/>
      <stop offset="0.744" stop-color="#dd3448"/>
      <stop offset="1" stop-color="#ffe200"/>
    </linearGradient>
  </defs>
  <g id="Group_45540" data-name="Group 45540" transform="translate(-1110.5 -1474.5)">
    <g id="Group_45336" data-name="Group 45336" transform="translate(-142 -30)">
      <path id="Union_12" data-name="Union 12" d="M-1928-9229h216a19,19,0,0,1,19,19v216a19,19,0,0,1-19,19h-216a19,19,0,0,1-19-19v-216A19,19,0,0,1-1928-9229Z" transform="translate(3200 10734)" stroke="rgba(0,0,0,0)" stroke-width="1" fill="url(#linear-gradient)"/>
      <rect id="Rectangle_8907" data-name="Rectangle 8907" width="224" height="224" rx="10" transform="translate(1268 1520)" fill="#fff" stroke="rgba(0,0,0,0)" stroke-width="1"/>
    </g>
    <text id="Chatbot_Capabilities" data-name="Chatbot
Capabilities" transform="translate(1238 1654)" font-size="18" font-family="Poppins-Bold, Poppins" font-weight="700"><tspan x="-38.268" y="0">Chatbot</tspan><tspan x="-55.899" y="27">Capabilities</tspan></text>
    <g id="Group_45371" data-name="Group 45371" transform="translate(747.408)">
      <path id="Path_54306" data-name="Path 54306" d="M1,41.821v9.355H9.818V34.888a12.539,12.539,0,0,1,3.822-9.215,12.578,12.578,0,0,1,9.233-3.82h3.18L23.27,11.08a5,5,0,0,1-1.037.105A4.876,4.876,0,0,1,18.655,9.7a4.921,4.921,0,0,1-1.487-3.613,4.889,4.889,0,0,1,1.487-3.6,5.051,5.051,0,0,1,7.158,0,4.894,4.894,0,0,1,1.487,3.6A4.927,4.927,0,0,1,25.813,9.7,4.862,4.862,0,0,1,23.27,11.08M96.358,60.527V51.175h-8.8V62.533H67.674a19.9,19.9,0,0,1-4.668,7.158A19.512,19.512,0,0,1,48.687,75.6a19.464,19.464,0,0,1-14.3-5.913A19.892,19.892,0,0,1,29.7,62.533H9.818V51.175M1,60.527V51.175m8.819,18.9v1.556a12.581,12.581,0,0,0,3.822,9.232A12.605,12.605,0,0,0,22.873,84.7H74.847a13.084,13.084,0,0,0,12.709-13.07V70.073M74.1,11.08A4.812,4.812,0,0,1,71.58,9.7a4.92,4.92,0,0,1-1.486-3.613,4.887,4.887,0,0,1,1.486-3.6,5.031,5.031,0,0,1,7.142,0,4.893,4.893,0,0,1,1.486,3.6A4.925,4.925,0,0,1,78.721,9.7a4.847,4.847,0,0,1-3.563,1.488A5.189,5.189,0,0,1,74.1,11.08L71.32,21.852H74.5A13.044,13.044,0,0,1,87.556,34.888V51.175M38.918,45.331a6.432,6.432,0,0,1-6.431,6.431,6.443,6.443,0,0,1-4.565-11,6.311,6.311,0,0,1,2.627-1.607,6.61,6.61,0,0,1,1.938-.277,6.432,6.432,0,0,1,6.431,6.45Zm21.389-4.566a6.443,6.443,0,0,1,9.111,9.113,6.443,6.443,0,0,1-9.111-9.113ZM26.053,21.852H71.32M29.253,92.083v2.851H67.9V92.083m-.223-29.55H29.7M96.358,41.821v9.355" transform="translate(441.914 1518.684)" fill="none" stroke="#231f20" stroke-linecap="round" stroke-linejoin="round" stroke-width="4"/>
      <rect id="Rectangle_9690" data-name="Rectangle 9690" width="98.122" height="96.699" transform="translate(441.531 1518.301)" fill="none" stroke="rgba(0,0,0,0)" stroke-width="4"/>
    </g>
  </g>
</svg>
