<svg xmlns="http://www.w3.org/2000/svg" width="335" height="335" viewBox="0 0 335 335">
    <defs>
        <clipPath id="n6h968m3da">
            <path data-name="Rectangle 9793" style="fill:#fff" d="M0 0h188.805v96.933H0z"/>
        </clipPath>
    </defs>
    <g data-name="Group 45812">
        <g data-name="Group 45811" transform="translate(-1066.5 -986.5)">
            <rect data-name="Rectangle 9850" width="334" height="334" rx="167" transform="translate(1067 987)" style="fill:#004a87;stroke:transparent"/>
            <g data-name="Group 45810">
                <path data-name="Path 54338" d="M128.411 0 113.5 9.852l14.91-5.858v75.894h4.261V33.19l7.988-6.39V7.988z" transform="translate(1175.583 1105.534)" style="fill:#fff"/>
                <path data-name="Path 54339" d="M135.672 74.117h10.118v-47.8L135.672 19.7z" transform="translate(1182.612 1111.778)" style="fill:#fff"/>
                <path data-name="Path 54340" d="M128.411 0 113.5 9.852l14.91-5.858v75.894h4.261V33.19l7.988-6.39V7.988z" transform="translate(1175.583 1105.534)" style="fill:#fff"/>
                <path data-name="Path 54341" d="M135.672 74.117h10.118v-47.8L135.672 19.7z" transform="translate(1182.612 1111.778)" style="fill:#fff"/>
                <g data-name="Group 45641">
                    <g data-name="Group 45640" transform="translate(1139.598 1105.533)" style="clip-path:url(#n6h968m3da)">
                        <path data-name="Path 54342" d="M64.045 33.351V76.61h71.462V13.325zm20.925 37.08h-4.886V40.737h-3.867v-3.921h8.753zm19.008 0h-14.82v-3.759l8.216-15.465a13.578 13.578 0 0 0 1.5-6.443v-2.469a1.87 1.87 0 0 0-.3-1.262 1.978 1.978 0 0 0-1.316-.3h-1.711a1.985 1.985 0 0 0-1.288.3 1.751 1.751 0 0 0-.323 1.262v5.476H89.1v-6.23q0-4.724 4.994-4.726h4.618q5.046 0 5.047 4.726v3.383a15.721 15.721 0 0 1-1.878 7.357l-7.245 14.23h9.342zm18.74-4.726q0 4.728-5.048 4.726h-5.155q-4.992 0-4.993-4.726v-5.96h4.886v5.209a1.756 1.756 0 0 0 .321 1.262 2 2 0 0 0 1.289.3h2.2a2 2 0 0 0 1.289-.3 1.755 1.755 0 0 0 .323-1.262V54.913a1.292 1.292 0 0 0-1.61-1.613h-8.591V36.816h14.981v3.921h-10.148v8.7h5.208q5.048 0 5.048 4.726z" transform="translate(20.305 4.225)" style="fill:#fff"/>
                        <text transform="translate(0 75.411)" style="font-size:53px;font-family:Teko-Regular,Teko;fill:#fff"><tspan x="0" y="0">CLUB</tspan></text>
                    </g>
                </g>
            </g>
        </g>
    </g>
</svg>
