<svg xmlns="http://www.w3.org/2000/svg" width="335" height="335" viewBox="0 0 335 335">
    <g data-name="Group 45806" transform="translate(21188.5 -1293.5)">
        <rect data-name="Rectangle 9850" width="334" height="334" rx="167" transform="translate(-21188 1294)" style="fill:#1e7fc4;stroke:transparent"/>
        <g data-name="Group 45804">
            <g data-name="Group 45803">
                <g data-name="Group 249" transform="translate(-21036.163 1509.218)">
                    <circle data-name="Ellipse 10" cx="5.772" cy="5.772" r="5.772" style="fill:#fff"/>
                </g>
                <g data-name="Group 256">
                    <g data-name="Group 250" transform="translate(-21064.573 1509.218)">
                        <circle data-name="Ellipse 11" cx="5.772" cy="5.772" r="5.772" style="fill:#fff"/>
                    </g>
                    <g data-name="Group 253">
                        <g data-name="Group 251">
                            <path data-name="Path 338" d="M418.983 347.325a2.4 2.4 0 0 1-.71-4.684 53.594 53.594 0 0 0 31.965-27.048l-23.371.052a34.554 34.554 0 0 1-58.145-16.136h-19.507a53.627 53.627 0 0 0 36.824 43.042 2.4 2.4 0 0 1-1.448 4.566 58.41 58.41 0 0 1-40.476-49.76l-.269-2.638h28.819l.356 1.969a29.762 29.762 0 0 0 51.072 14.933l.708-.762 32.807-.073-1.41 3.337a58.406 58.406 0 0 1-36.5 33.094 2.42 2.42 0 0 1-.715.108z" transform="translate(-21448.844 1170.061)" style="fill:#fff"/>
                        </g>
                        <g data-name="Group 252">
                            <path data-name="Path 339" d="m343.845 284.521.269-2.638a58.409 58.409 0 0 1 40.476-49.76 2.395 2.395 0 1 1 1.448 4.565 53.625 53.625 0 0 0-36.824 43.044h19.508a34.554 34.554 0 0 1 58.145-16.136l23.371.052a53.6 53.6 0 0 0-31.966-27.05 2.395 2.395 0 1 1 1.424-4.573 58.407 58.407 0 0 1 36.5 33.094l1.41 3.336-32.807-.073-.708-.761a29.762 29.762 0 0 0-51.072 14.932l-.356 1.97z" transform="translate(-21448.844 1172.699)" style="fill:#fff"/>
                        </g>
                    </g>
                    <g data-name="Group 254" transform="translate(-21064.573 1401.236)">
                        <circle data-name="Ellipse 12" cx="5.772" cy="5.772" r="5.772" style="fill:#fff"/>
                    </g>
                    <g data-name="Group 255" transform="translate(-21036.165 1401.236)">
                        <circle data-name="Ellipse 13" cx="5.772" cy="5.772" r="5.772" style="fill:#fff"/>
                    </g>
                </g>
                <g data-name="Group 257">
                    <path data-name="Path 340" d="M416.489 290.089a50.437 50.437 0 0 1 .31-7.041 8.336 8.336 0 0 1 1.015-2.879 10.688 10.688 0 0 1 9.465-5.426 10.56 10.56 0 0 1 6.006 1.7 10.135 10.135 0 0 1 3.437 3.728 6.936 6.936 0 0 1 1.057 2.879 91.695 91.695 0 0 1 0 14.041 6.984 6.984 0 0 1-1.057 2.92 9.839 9.839 0 0 1-3.437 3.686 10.786 10.786 0 0 1-6.006 1.74 10.6 10.6 0 0 1-5.944-1.74 10.108 10.108 0 0 1-3.521-3.686q-.332-.683-.6-1.3a8.44 8.44 0 0 1-.415-1.615 50.538 50.538 0 0 1-.31-7.007zm4.6 0a35.328 35.328 0 0 0 .33 6.027 5.033 5.033 0 0 0 1.181 2.547 6.21 6.21 0 0 0 4.681 2.2 5.638 5.638 0 0 0 2.837-.684 5.066 5.066 0 0 0 1.823-1.512 5.311 5.311 0 0 0 1.221-2.547 37.583 37.583 0 0 0 .31-6.027 38.461 38.461 0 0 0-.31-6.068 5.283 5.283 0 0 0-1.221-2.506 5.463 5.463 0 0 0-1.823-1.553 6.661 6.661 0 0 0-2.837-.642 6.337 6.337 0 0 0-2.776.642 5.773 5.773 0 0 0-1.9 1.553 5 5 0 0 0-1.181 2.506 36.152 36.152 0 0 0-.337 6.064z" transform="translate(-21451.892 1170.9)" style="fill:#fff"/>
                    <path data-name="Path 341" d="M454.322 288.556h10.728v6.151a10.828 10.828 0 0 1-16.714 8.988 10.113 10.113 0 0 1-3.52-3.686q-.332-.683-.6-1.3a8.44 8.44 0 0 1-.415-1.615 79.546 79.546 0 0 1 0-14.041 8.335 8.335 0 0 1 1.015-2.879 10.685 10.685 0 0 1 9.465-5.426 10.226 10.226 0 0 1 7.124 2.589 11.392 11.392 0 0 1 3.479 6.358h-4.846a6.64 6.64 0 0 0-2.029-3.107 5.986 5.986 0 0 0-3.728-1.263 6.338 6.338 0 0 0-2.776.642 5.773 5.773 0 0 0-1.9 1.553 5 5 0 0 0-1.181 2.506 36.15 36.15 0 0 0-.331 6.068 35.326 35.326 0 0 0 .331 6.027 5.032 5.032 0 0 0 1.181 2.547 6.21 6.21 0 0 0 4.681 2.2 5.837 5.837 0 0 0 4.411-1.823 6.325 6.325 0 0 0 1.781-4.576v-1.574h-6.15z" transform="translate(-21453.026 1170.9)" style="fill:#fff"/>
                    <path data-name="Path 342" d="M480.4 300.859q5.883-.083 5.965-4.2.042-3.375-3.935-4.059-1.824-.249-4-.559a9.87 9.87 0 0 1-5.923-2.879 8.008 8.008 0 0 1-2.091-5.592 8.261 8.261 0 0 1 2.631-6.378q2.546-2.4 7.228-2.444a16.958 16.958 0 0 1 9.8 3.127l-2.547 3.77a13.836 13.836 0 0 0-7.476-2.319 5.7 5.7 0 0 0-3.521 1.056 3.92 3.92 0 0 0-1.512 3.273 3.328 3.328 0 0 0 1.014 2.361 5.822 5.822 0 0 0 3.252 1.492q1.243.207 3.4.476a9.4 9.4 0 0 1 6.274 3.044 8.561 8.561 0 0 1 2.009 5.633q-.227 8.658-10.6 8.781a17.121 17.121 0 0 1-11.535-4.142l3-3.437a13.258 13.258 0 0 0 8.567 2.996z" transform="translate(-21454.091 1170.9)" style="fill:#fff"/>
                    <path data-name="Path 343" d="M495.893 290.089a50.593 50.593 0 0 1 .31-7.041 8.335 8.335 0 0 1 1.015-2.879 10.688 10.688 0 0 1 9.465-5.426 10.556 10.556 0 0 1 6.006 1.7 10.127 10.127 0 0 1 3.437 3.728 6.911 6.911 0 0 1 1.057 2.879 91.674 91.674 0 0 1 0 14.041 6.959 6.959 0 0 1-1.057 2.92 9.831 9.831 0 0 1-3.437 3.686 10.781 10.781 0 0 1-6.006 1.74 10.6 10.6 0 0 1-5.944-1.74 10.116 10.116 0 0 1-3.521-3.686q-.331-.683-.6-1.3a8.518 8.518 0 0 1-.415-1.615 50.7 50.7 0 0 1-.31-7.007zm4.6 0a35.188 35.188 0 0 0 .331 6.027 5.024 5.024 0 0 0 1.18 2.547 6.21 6.21 0 0 0 4.681 2.2 5.642 5.642 0 0 0 2.838-.684 5.055 5.055 0 0 0 1.822-1.512 5.319 5.319 0 0 0 1.222-2.547 37.7 37.7 0 0 0 .31-6.027 38.576 38.576 0 0 0-.31-6.068 5.292 5.292 0 0 0-1.222-2.506 5.451 5.451 0 0 0-1.822-1.553 6.666 6.666 0 0 0-2.838-.642 6.338 6.338 0 0 0-2.776.642 5.774 5.774 0 0 0-1.9 1.553 4.989 4.989 0 0 0-1.18 2.506 36.009 36.009 0 0 0-.338 6.064z" transform="translate(-21455.227 1170.9)" style="fill:#fff"/>
                </g>
            </g>
        </g>
    </g>
</svg>
