<svg xmlns="http://www.w3.org/2000/svg" width="104.819" height="96.699" viewBox="0 0 104.819 96.699">
    <defs>
        <clipPath id="7bnyqwhx1a">
            <path data-name="Rectangle 9696" style="stroke-width:3px;stroke:#707070;fill:none" d="M0 0h104.819v96.699H0z"/>
        </clipPath>
    </defs>
    <g data-name="Group 45398">
        <path data-name="Path 54312" d="M52.631 54.572h-1.907v.017h3.226v-.017z" transform="translate(15.396 16.564)" style="fill:#333;stroke-width:3px;stroke:#707070"/>
        <path data-name="Path 54313" d="M53.951 54.572v.017h-3.226v-.017h3.226z" transform="translate(15.396 16.564)" style="stroke-miterlimit:10;stroke:#231f20;stroke-width:3px;fill:none"/>
        <g data-name="Group 45397">
            <g data-name="Group 45396" style="clip-path:url(#7bnyqwhx1a)">
                <path data-name="Path 54314" d="M40.269 15.4a3.861 3.861 0 0 1 1.173 2.835 3.821 3.821 0 0 1-1.173 2.818A4 4 0 1 1 34.6 15.4a3.975 3.975 0 0 1 5.67 0zM52.1 14.214a4.032 4.032 0 0 1 4.008 4.024 3.821 3.821 0 0 1-1.173 2.818 4 4 0 1 1-5.67-5.653 3.881 3.881 0 0 1 2.835-1.189zm-26.235-8.18a16.7 16.7 0 0 0-5.019 12.2 16.582 16.582 0 0 0 5.036 12.171 16.619 16.619 0 0 0 12.2 5.067H66.16a16.531 16.531 0 0 0 12.171-5.05l.017-.017A16.53 16.53 0 0 0 83.4 18.238a16.63 16.63 0 0 0-5.068-12.2A16.586 16.586 0 0 0 66.16 1H38.085a16.7 16.7 0 0 0-12.2 5.019zm-1.793 70.615h7.317L24.1 89.308l-7.327-12.675 7.3.016V57.1h13.72l14.355-14.34.016.017v-7.3M16.821 70.832h-7.1L1 95.076l.033.016h46.1v-.016l-8.7-24.244h-7.094m48.817 5.816h7.317l-7.284 12.66-7.332-12.675 7.3.016V57.1H66.5L52.148 71.451 37.792 57.1m28.026 13.749L57.1 95.076l.034.016h37.394l8.684-24.26H87.423M69.63 15.4a3.866 3.866 0 0 1 1.17 2.838 3.826 3.826 0 0 1-1.173 2.818 3.972 3.972 0 0 1-5.67 0 3.836 3.836 0 0 1-1.189-2.818A4.01 4.01 0 0 1 69.63 15.4zM66.5 57.1h-.016L52.163 42.777m16.881 28.055h-3.226v.017m3.226-.017H72.9" transform="translate(.304 .303)" style="stroke-linecap:round;stroke-linejoin:round;stroke:#231f20;stroke-width:3px;fill:none"/>
            </g>
        </g>
    </g>
</svg>
