<svg xmlns="http://www.w3.org/2000/svg" width="69.694" height="69.694" viewBox="0 0 69.694 69.694">
    <g data-name="Group 45787">
        <path data-name="Path 54651" d="M57.347 24H36.826A12.825 12.825 0 0 0 24 36.826v20.521" transform="translate(-22.5 -22.5)" style="fill:none;stroke:#1c1c1c;stroke-linecap:round;stroke-linejoin:round;stroke-width:3px"/>
        <path data-name="Path 54652" d="M161.347 128v20.521a12.826 12.826 0 0 1-12.826 12.826H128" transform="translate(-93.153 -93.154)" style="fill:none;stroke:#1c1c1c;stroke-linecap:round;stroke-linejoin:round;stroke-width:3px"/>
        <path data-name="Path 54653" d="M57.347 161.347H36.826A12.826 12.826 0 0 1 24 148.521V128" transform="translate(-22.5 -93.154)" style="fill:none;stroke:#1c1c1c;stroke-linecap:round;stroke-linejoin:round;stroke-width:3px"/>
        <path data-name="Line 482" transform="translate(34.847 34.846)" style="fill:none;stroke:#1c1c1c;stroke-linecap:round;stroke-linejoin:round;stroke-width:3px" d="M0 10.016V0"/>
        <path data-name="Line 483" transform="translate(34.847 24.831)" style="fill:none;stroke:#1c1c1c;stroke-linecap:round;stroke-linejoin:round;stroke-width:3px" d="M0 10.016V0"/>
        <path data-name="Line 484" transform="translate(34.847 58.178)" style="fill:none;stroke:#1c1c1c;stroke-linecap:round;stroke-linejoin:round;stroke-width:3px" d="M0 10.016V0"/>
        <path data-name="Line 485" transform="translate(34.847 1.5)" style="fill:none;stroke:#1c1c1c;stroke-linecap:round;stroke-linejoin:round;stroke-width:3px" d="M0 0v10.016"/>
        <path data-name="Line 486" transform="translate(24.831 34.846)" style="fill:none;stroke:#1c1c1c;stroke-linecap:round;stroke-linejoin:round;stroke-width:3px" d="M10.016 0H0"/>
        <path data-name="Line 487" transform="translate(1.501 34.846)" style="fill:none;stroke:#1c1c1c;stroke-linecap:round;stroke-linejoin:round;stroke-width:3px" d="M10.016 0H0"/>
        <path data-name="Line 488" transform="translate(58.178 34.846)" style="fill:none;stroke:#1c1c1c;stroke-linecap:round;stroke-linejoin:round;stroke-width:3px" d="M0 0h10.016"/>
        <path data-name="Line 489" transform="translate(34.847 34.846)" style="fill:none;stroke:#1c1c1c;stroke-linecap:round;stroke-linejoin:round;stroke-width:3px" d="M0 0h10.016"/>
        <path data-name="Path 54654" d="M103.543 157.038a7.7 7.7 0 1 0 0 13.315" transform="translate(-68.696 -112.176)" style="fill:none;stroke:#1c1c1c;stroke-linecap:round;stroke-linejoin:round;stroke-width:3px"/>
        <path data-name="Path 54655" d="M157.038 128a7.7 7.7 0 1 0 13.315 0" transform="translate(-112.175 -93.154)" style="fill:none;stroke:#1c1c1c;stroke-linecap:round;stroke-linejoin:round;stroke-width:3px"/>
        <path data-name="Path 54656" d="M128 66.353a7.7 7.7 0 1 0 0-13.315" transform="translate(-93.153 -41.522)" style="fill:none;stroke:#1c1c1c;stroke-linecap:round;stroke-linejoin:round;stroke-width:3px"/>
        <path data-name="Path 54657" d="M66.353 103.543a7.7 7.7 0 1 0-13.315 0" transform="translate(-41.522 -68.696)" style="fill:none;stroke:#1c1c1c;stroke-linecap:round;stroke-linejoin:round;stroke-width:3px"/>
        <path data-name="Line 490" transform="translate(38.164 1.923)" style="fill:none;stroke:#1c1c1c;stroke-linecap:round;stroke-linejoin:round;stroke-width:3px" d="M2.836 0H0"/>
        <path data-name="Path 54658" d="M163.831 24h9.032a12.826 12.826 0 0 1 12.826 12.826v8.545" transform="translate(-117.495 -22.5)" style="stroke-dasharray:4 6;fill:none;stroke:#1c1c1c;stroke-linecap:round;stroke-linejoin:round;stroke-width:3px"/>
        <path data-name="Line 491" transform="translate(67.729 25.868)" style="fill:none;stroke:#1c1c1c;stroke-linecap:round;stroke-linejoin:round;stroke-width:3px" d="M0 0v4.223"/>
    </g>
</svg>
