<svg xmlns="http://www.w3.org/2000/svg" xmlns:xlink="http://www.w3.org/1999/xlink" width="255" height="255" viewBox="0 0 255 255">
  <defs>
    <linearGradient id="linear-gradient" x1="1.396" y1="-0.381" x2="-0.054" y2="1.049" gradientUnits="objectBoundingBox">
      <stop offset="0" stop-color="#e32a40"/>
      <stop offset="0.241" stop-color="#00c4ff"/>
      <stop offset="0.468" stop-color="#d5aaff"/>
      <stop offset="0.744" stop-color="#dd3448"/>
      <stop offset="1" stop-color="#ffe200"/>
    </linearGradient>
    <clipPath id="clip-path">
      <rect id="Rectangle_9693" data-name="Rectangle 9693" width="93.066" height="101.758" fill="none" stroke="#707070" stroke-width="4"/>
    </clipPath>
  </defs>
  <g id="Group_45539" data-name="Group 45539" transform="translate(-832.5 -1474.5)">
    <g id="Group_45335" data-name="Group 45335" transform="translate(-138 -30)">
      <path id="Union_13" data-name="Union 13" d="M-1928-9229h216a19,19,0,0,1,19,19v216a19,19,0,0,1-19,19h-216a19,19,0,0,1-19-19v-216A19,19,0,0,1-1928-9229Z" transform="translate(2918 10734)" stroke="rgba(0,0,0,0)" stroke-width="1" fill="url(#linear-gradient)"/>
      <rect id="Rectangle_8909" data-name="Rectangle 8909" width="224" height="224" rx="10" transform="translate(986 1520)" fill="#fff" stroke="rgba(0,0,0,0)" stroke-width="1"/>
    </g>
    <text id="Cutting-edge_Insights_Analytics" data-name="Cutting-edge
Insights &amp; Analytics" transform="translate(960 1654)" font-size="18" font-family="Poppins-Bold, Poppins" font-weight="700"><tspan x="-63.306" y="0">Cutting-edge</tspan><tspan x="-90.9" y="27">Insights &amp; Analytics</tspan></text>
    <g id="Group_45377" data-name="Group 45377" transform="translate(913 1513.242)">
      <g id="Group_45376" data-name="Group 45376" transform="translate(0 0)" clip-path="url(#clip-path)">
        <path id="Path_54309" data-name="Path 54309" d="M75.42,43.335a13.77,13.77,0,0,0,1.611-1.365,13.343,13.343,0,0,0,4.048-9.787,13.874,13.874,0,0,0-11.826-13.7,8.562,8.562,0,0,0,.307-2.362A8.354,8.354,0,0,0,61.2,7.764a7.979,7.979,0,0,0-5.154,1.779,17.467,17.467,0,0,0-2.822-3.651A16.109,16.109,0,0,0,41.4,1,16.1,16.1,0,0,0,29.571,5.893a16.118,16.118,0,0,0-4.909,11.826c0,.221.007.441.015.66a13.258,13.258,0,0,0-9.157,4.034,13.306,13.306,0,0,0-4.05,9.771,13.34,13.34,0,0,0,4.05,9.787,14.5,14.5,0,0,0,1.549,1.35m68.307.536a20.691,20.691,0,0,1,3.483,4.525,20.041,20.041,0,0,1-7.347,27.442A20.691,20.691,0,0,1,76.2,78.016M7.237,43.856a20.729,20.729,0,0,0-3.483,4.525A20.041,20.041,0,0,0,11.1,75.823a20.681,20.681,0,0,0,5.309,2.193m6.58-31.153h5.369v-.89a9.218,9.218,0,0,1,9.2-9.2h.89V31.4m16,18.606V59.44l-8.161,4.725-8.162-4.709V50.008l8.162-4.71ZM54.16,31.4v5.368h.89a9.218,9.218,0,0,1,9.2,9.2v.89h5.369M46.306,31.4v5.368H54.16m-7.854,0H38.452m25.4,47.642a3.98,3.98,0,1,1,1.166,2.822,3.847,3.847,0,0,1-1.166-2.822H54.16V72.663H46.306V92.327a3.98,3.98,0,1,1-2.822,1.166,3.845,3.845,0,0,1,2.822-1.166M69.622,62.569H64.253v.89a9.218,9.218,0,0,1-9.2,9.2h-.89M69.622,54.716H64.253v7.854m-41.263,0h5.369V54.716H22.99m5.768,29.7a3.992,3.992,0,0,1-6.811,2.822,3.992,3.992,0,0,1,5.645-5.645,3.847,3.847,0,0,1,1.166,2.822h9.695V72.663h-.89a9.218,9.218,0,0,1-9.2-9.2v-.89M46.306,72.663H38.452m-24.8-22.134a11.407,11.407,0,0,0-1.918,2.485,10.9,10.9,0,0,0,3.988,14.879,11.428,11.428,0,0,0,2.9,1.2M78.964,50.528a11.4,11.4,0,0,1,1.917,2.485,10.9,10.9,0,0,1-3.988,14.879,11.417,11.417,0,0,1-2.9,1.2M28.359,54.716V46.863m35.895,0v7.853" transform="translate(0.227 0.227)" fill="none" stroke="#231f20" stroke-linecap="round" stroke-linejoin="round" stroke-width="4"/>
      </g>
    </g>
  </g>
</svg>
