<svg xmlns="http://www.w3.org/2000/svg" width="91.716" height="96.699" viewBox="0 0 91.716 96.699">
    <defs>
        <clipPath id="rky4zk0zja">
            <path data-name="Rectangle 9695" style="stroke:#707070;fill:none;stroke-width:3px" d="M0 0h91.716v96.699H0z"/>
        </clipPath>
    </defs>
    <g data-name="Group 45395">
        <g data-name="Group 45394" style="clip-path:url(#rky4zk0zja)">
            <path data-name="Path 54311" d="m61.033 49.666-1.514 9.028h12.96A17.7 17.7 0 0 0 90.19 40.968a17.769 17.769 0 0 0-15.138-17.553 10.9 10.9 0 0 0 .394-3.014A10.7 10.7 0 0 0 64.728 9.682a10.252 10.252 0 0 0-6.615 2.272 22.138 22.138 0 0 0-3.6-4.671A20.684 20.684 0 0 0 39.343 1a20.65 20.65 0 0 0-15.154 6.283 20.632 20.632 0 0 0-6.265 15.153q-.008.421 0 .837A16.987 16.987 0 0 0 6.193 28.45 17.055 17.055 0 0 0 1 40.968 17.088 17.088 0 0 0 6.193 53.5a17.03 17.03 0 0 0 12.06 5.193h.568q.222-.006.443-.015h7.861l1.515-9.061m-5.14-9.233v-3.836h-3.84m3.84-3.836v3.837h3.835M50.378 26.13a9.68 9.68 0 0 1 0 13.7 9.68 9.68 0 0 1-13.7 0 9.68 9.68 0 0 1 0-13.7 9.68 9.68 0 0 1 13.7 0zm13.338 6.582v3.837h3.837m-3.837 3.835v-3.836h-3.835m6.6 40.093a5.347 5.347 0 0 0-1.642 3.915 5.61 5.61 0 0 0 5.525 5.525c.117 0 .232-.006.347-.016a5.546 5.546 0 0 0 5.178-5.509 5.487 5.487 0 0 0-5.178-5.51 3.992 3.992 0 0 0-.347-.015 5.292 5.292 0 0 0-3.884 1.611zm-27.454 7.547a5.285 5.285 0 0 1 2.984 1.546 5.347 5.347 0 0 1 1.643 3.915 5.61 5.61 0 0 1-5.525 5.525q-.176 0-.349-.015a5.847 5.847 0 0 1-.585-.063 5.563 5.563 0 0 1-4.595-5.448 5.484 5.484 0 0 1 5.178-5.509 4.02 4.02 0 0 1 .349-.016 6.12 6.12 0 0 1 .9.064l4.3-25.509h-16.2l-2.163 12.88h-9a5.245 5.245 0 0 1-1.642 3.883 5.24 5.24 0 0 1-3.883 1.642 4.01 4.01 0 0 1-.347-.015 5.31 5.31 0 0 1-3.568-1.627 5.3 5.3 0 0 1-1.61-3.883 5.484 5.484 0 0 1 5.178-5.509 4.01 4.01 0 0 1 .347-.015 5.549 5.549 0 0 1 5.525 5.524m28.874-21.909-1.515 9.029 16.2.015-3.683 21.864h9" transform="translate(.263 .262)" style="stroke:#231f20;stroke-linecap:round;stroke-linejoin:round;fill:none;stroke-width:3px"/>
        </g>
    </g>
</svg>
