<svg xmlns="http://www.w3.org/2000/svg" width="98.908" height="95.303" viewBox="0 0 98.908 95.303">
    <g data-name="Group 45818" transform="translate(1.819 1.5)">
        <path data-name="Path 54675" d="M92 47.711V28s13.141 6.57 23 6.815V51c-9.855 0-23 6.57-23 6.57z" transform="translate(-59.148 -28)" style="fill:none;stroke:#1c1c1c;stroke-linecap:round;stroke-linejoin:round;stroke-width:3px"/>
        <path data-name="Line 509" transform="translate(19.711 14.783)" style="fill:none;stroke:#1c1c1c;stroke-linecap:round;stroke-linejoin:round;stroke-width:3px" d="M5.005 0H0"/>
        <path data-name="Line 510" transform="translate(21.946 20.532)" style="fill:none;stroke:#1c1c1c;stroke-linecap:round;stroke-linejoin:round;stroke-width:3px" d="M4.335 0 0 2.464"/>
        <path data-name="Line 511" transform="translate(19.711 14.783)" style="fill:none;stroke:#1c1c1c;stroke-linecap:round;stroke-linejoin:round;stroke-width:3px" d="M5.005 0H0"/>
        <path data-name="Line 512" transform="translate(21.946 6.57)" style="fill:none;stroke:#1c1c1c;stroke-linecap:round;stroke-linejoin:round;stroke-width:3px" d="M4.335 2.464 0 0"/>
        <path data-name="Path 54676" d="M148 44.6h8.458a4.683 4.683 0 0 1 4.683 4.683v6.815a4.683 4.683 0 0 1-4.683 4.683H148" transform="translate(-92.152 -37.781)" style="fill:none;stroke:#1c1c1c;stroke-linecap:round;stroke-linejoin:round;stroke-width:3px"/>
        <path data-name="Path 54677" d="M153.643 84 152 93.855h6.57L160.213 84" transform="translate(-94.51 -61.004)" style="fill:none;stroke:#1c1c1c;stroke-linecap:round;stroke-linejoin:round;stroke-width:3px"/>
        <ellipse data-name="Ellipse 777" cx="7.877" cy="8.341" rx="7.877" ry="8.341" transform="translate(11.708 44.484)" style="fill:none;stroke:#1c1c1c;stroke-linecap:round;stroke-linejoin:round;stroke-width:3px"/>
        <path data-name="Path 54678" d="m28.426 187.5 3.316 8.842a6.626 6.626 0 0 0 6.2 4.3h11.63a3.49 3.49 0 0 0 .433-6.952l-8.98-1.123a1.629 1.629 0 0 1-1.38-1.193 56.726 56.726 0 0 0-3.009-8.8C35 179.285 33.354 176 27.6 176c-7.392 0-9.034 4.928-10.677 11.5L12 207.209" transform="translate(-12 -115.225)" style="fill:none;stroke:#1c1c1c;stroke-linecap:round;stroke-linejoin:round;stroke-width:3px"/>
        <path data-name="Line 513" transform="translate(18.077 82.129)" style="fill:none;stroke:#1c1c1c;stroke-linecap:round;stroke-linejoin:round;stroke-width:3px" d="M1.634 0 0 9.855"/>
        <path data-name="Line 514" transform="translate(75.184 82.129)" style="fill:none;stroke:#1c1c1c;stroke-linecap:round;stroke-linejoin:round;stroke-width:3px" d="m0 0 2.017 9.855"/>
        <path data-name="Line 515" transform="translate(31.17 85.262)" style="fill:none;stroke:#1c1c1c;stroke-linecap:round;stroke-linejoin:round;stroke-width:3px" d="M0 0h16.682"/>
        <circle data-name="Ellipse 778" cx="8.341" cy="8.341" transform="translate(67.313 44.484)" style="fill:none;stroke:#1c1c1c;stroke-linecap:round;stroke-linejoin:round;stroke-width:3px" r="8.341"/>
        <circle data-name="Ellipse 779" cx="8.341" cy="8.341" transform="translate(39.51 44.484)" style="fill:none;stroke:#1c1c1c;stroke-linecap:round;stroke-linejoin:round;stroke-width:3px" r="8.341"/>
        <path data-name="Path 54679" d="m168.639 187.5-3.316 8.842a6.626 6.626 0 0 1-6.2 4.3H147.49a3.49 3.49 0 0 1-.433-6.952l8.98-1.123a1.629 1.629 0 0 0 1.38-1.193 56.728 56.728 0 0 1 3.009-8.8c1.643-3.285 3.285-6.57 9.034-6.57 7.392 0 9.034 4.928 10.677 11.5l4.928 19.711" transform="translate(-89.795 -115.225)" style="fill:none;stroke:#1c1c1c;stroke-linecap:round;stroke-linejoin:round;stroke-width:3px"/>
        <path data-name="Line 516" transform="translate(47.851 85.262)" style="fill:none;stroke:#1c1c1c;stroke-linecap:round;stroke-linejoin:round;stroke-width:3px" d="M15.755 0H0"/>
        <path data-name="Path 54680" d="M96 192.426V187.5c0-6.35 5.883-11.5 13.141-11.5s13.141 5.148 13.141 11.5v4.928" transform="translate(-61.506 -115.225)" style="fill:none;stroke:#1c1c1c;stroke-linecap:round;stroke-linejoin:round;stroke-width:3px"/>
    </g>
</svg>
