<svg xmlns="http://www.w3.org/2000/svg" width="93.476" height="94.984" viewBox="0 0 93.476 94.984">
    <g data-name="Group 45821" transform="translate(1.5 1.5)">
        <path data-name="Path 54696" d="M24.08 39.54A7.577 7.577 0 1 0 31.657 32a7.559 7.559 0 0 0-7.577 7.54z" transform="translate(-18.018 -21.444)" style="fill:none;stroke:#1c1c1c;stroke-linecap:round;stroke-linejoin:round;stroke-width:3px"/>
        <path data-name="Path 54697" d="M158.856 37.807a9.894 9.894 0 0 0-10.147 9.622c-.064 2.792 1.093 4.814 2.645 6.894 1.362 1.825 2.357 2.012 2.914 4.74" transform="translate(-95.662 -25.062)" style="fill:none;stroke:#1c1c1c;stroke-linecap:round;stroke-linejoin:round;stroke-width:3px"/>
        <path data-name="Path 54698" d="M175.629 37.807a9.894 9.894 0 0 1 10.147 9.622c.064 2.792-1.093 4.814-2.645 6.894-1.362 1.825-2.56 2.012-3.117 4.739" transform="translate(-112.435 -25.062)" style="fill:none;stroke:#1c1c1c;stroke-linecap:round;stroke-linejoin:round;stroke-width:3px"/>
        <path data-name="Path 54699" d="M172.676 94.193h-8.826" transform="translate(-105.097 -60.192)" style="fill:none;stroke:#1c1c1c;stroke-linecap:round;stroke-linejoin:round;stroke-width:3px"/>
        <path data-name="Path 54700" d="M175.629 100.906h2.354l2.032-3.356v-3.357" transform="translate(-112.436 -60.192)" style="fill:none;stroke:#1c1c1c;stroke-linecap:round;stroke-linejoin:round;stroke-width:3px"/>
        <path data-name="Path 54701" d="M163.46 94.193v3.357l2.234 3.357h2.252" transform="translate(-104.854 -60.192)" style="fill:none;stroke:#1c1c1c;stroke-linecap:round;stroke-linejoin:round;stroke-width:3px"/>
        <path data-name="Line 531" transform="translate(63.198 6.032)" style="fill:none;stroke:#1c1c1c;stroke-linecap:round;stroke-linejoin:round;stroke-width:3px" d="M0 0v1.508"/>
        <path data-name="Line 532" transform="translate(73.914 10.89)" style="fill:none;stroke:#1c1c1c;stroke-linecap:round;stroke-linejoin:round;stroke-width:3px" d="M1.071 0 0 1.066"/>
        <path data-name="Line 533" transform="translate(78.353 22.619)" style="fill:none;stroke:#1c1c1c;stroke-linecap:round;stroke-linejoin:round;stroke-width:3px" d="M1.515 0H0"/>
        <path data-name="Line 534" transform="translate(73.914 33.282)" style="fill:none;stroke:#1c1c1c;stroke-linecap:round;stroke-linejoin:round;stroke-width:3px" d="M1.071 1.066 0 0"/>
        <path data-name="Line 535" transform="translate(51.411 33.282)" style="fill:none;stroke:#1c1c1c;stroke-linecap:round;stroke-linejoin:round;stroke-width:3px" d="M0 1.066 1.071 0"/>
        <path data-name="Line 536" transform="translate(46.528 22.619)" style="fill:none;stroke:#1c1c1c;stroke-linecap:round;stroke-linejoin:round;stroke-width:3px" d="M0 0h1.515"/>
        <path data-name="Line 537" transform="translate(51.411 10.89)" style="fill:none;stroke:#1c1c1c;stroke-linecap:round;stroke-linejoin:round;stroke-width:3px" d="m0 0 1.071 1.066"/>
        <path data-name="Path 54702" d="M29.216 127.794V81.048L49.143 78.4a3.215 3.215 0 0 0-.427-6.4H21.639C14.943 72 8 75.016 8 84.063v6.83a12.6 12.6 0 0 0 3.719 8.935l2.343 2.331v25.635" transform="translate(-8 -46.365)" style="fill:none;stroke:#1c1c1c;stroke-linecap:round;stroke-linejoin:round;stroke-width:3px"/>
        <path data-name="Line 538" transform="translate(13.639 57.302)" style="fill:none;stroke:#1c1c1c;stroke-linecap:round;stroke-linejoin:round;stroke-width:3px" d="M0 0v24.127"/>
        <path data-name="Path 54703" d="M104 28.127V4h54.286v49.762H104V43.206" transform="translate(-67.809 -4)" style="fill:none;stroke:#1c1c1c;stroke-linecap:round;stroke-linejoin:round;stroke-width:3px"/>
        <circle data-name="Ellipse 780" cx="7.54" cy="7.54" transform="translate(39.206 59.52)" style="fill:none;stroke:#1c1c1c;stroke-linecap:round;stroke-linejoin:round;stroke-width:3px" r="7.54"/>
        <path data-name="Path 54704" d="M100 219.268v-5.322c0-9.048 5.527-12.064 10.857-12.064h2.413c5.33 0 10.857 3.016 10.857 12.064v5.322" transform="translate(-65.317 -127.284)" style="fill:none;stroke:#1c1c1c;stroke-linecap:round;stroke-linejoin:round;stroke-width:3px"/>
        <path data-name="Path 54705" d="M195.741 169.423a7.577 7.577 0 1 0 7.577-7.54 7.559 7.559 0 0 0-7.577 7.54z" transform="translate(-124.966 -102.363)" style="fill:none;stroke:#1c1c1c;stroke-linecap:round;stroke-linejoin:round;stroke-width:3px"/>
        <path data-name="Path 54706" d="M183.681 219.268v-5.322c0-9.048 5.554-12.064 10.911-12.064h2.425c5.357 0 10.911 3.016 10.911 12.064v5.322" transform="translate(-117.452 -127.284)" style="fill:none;stroke:#1c1c1c;stroke-linecap:round;stroke-linejoin:round;stroke-width:3px"/>
    </g>
</svg>
