<svg xmlns="http://www.w3.org/2000/svg" xmlns:xlink="http://www.w3.org/1999/xlink" width="255" height="255" viewBox="0 0 255 255">
  <defs>
    <linearGradient id="linear-gradient" x1="1.396" y1="-0.381" x2="-0.054" y2="1.049" gradientUnits="objectBoundingBox">
      <stop offset="0" stop-color="#e32a40"/>
      <stop offset="0.241" stop-color="#00c4ff"/>
      <stop offset="0.468" stop-color="#d5aaff"/>
      <stop offset="0.744" stop-color="#dd3448"/>
      <stop offset="1" stop-color="#ffe200"/>
    </linearGradient>
  </defs>
  <g id="Group_45525" data-name="Group 45525" transform="translate(-411.5 -1504.5)">
    <g id="Group_45325" data-name="Group 45325">
      <path id="Union_10" data-name="Union 10" d="M-1928-9229h216a19,19,0,0,1,19,19v216a19,19,0,0,1-19,19h-216a19,19,0,0,1-19-19v-216A19,19,0,0,1-1928-9229Z" transform="translate(2359 10734)" stroke="rgba(0,0,0,0)" stroke-width="1" fill="url(#linear-gradient)"/>
      <rect id="Rectangle_8903" data-name="Rectangle 8903" width="224" height="224" rx="10" transform="translate(427 1520)" fill="#fff" stroke="rgba(0,0,0,0)" stroke-width="1"/>
    </g>
    <text id="eCom_Mobile_App_Development" data-name="eCom Mobile App 
Development" transform="translate(543 1692)" font-size="18" font-family="Poppins-Bold, Poppins" font-weight="700"><tspan x="-82.674" y="0">eCom Mobile App </tspan><tspan x="-62.766" y="27">Development</tspan></text>
    <g id="Online_Shopping-Ecommerce-Online_Shop-Shopping_Cart-Smartphone" data-name="Online Shopping-Ecommerce-Online Shop-Shopping Cart-Smartphone" transform="translate(477 1548)">
      <path id="Path_25953" data-name="Path 25953" d="M19,25h3.567v3.567H19Z" transform="translate(10.183 18.017)"/>
      <path id="Path_25954" data-name="Path 25954" d="M90.333,12.7V98.3a10.7,10.7,0,0,1-10.7,10.7H29.7A10.7,10.7,0,0,1,19,98.3V71.55h3.567V98.3a7.133,7.133,0,0,0,7.133,7.133H79.633A7.133,7.133,0,0,0,86.767,98.3V12.7a7.133,7.133,0,0,0-7.133-7.133H29.7A7.133,7.133,0,0,0,22.567,12.7V25.183H19V12.7A10.7,10.7,0,0,1,29.7,2H79.633a10.7,10.7,0,0,1,10.7,10.7Z" transform="translate(10.183 0)"/>
      <path id="Path_25955" data-name="Path 25955" d="M39.35,52a5.35,5.35,0,0,0,0,10.7h7.133a5.35,5.35,0,0,0,0-10.7Zm8.917,5.35a1.783,1.783,0,0,1-1.783,1.783H39.35a1.783,1.783,0,0,1,0-3.567h7.133A1.783,1.783,0,0,1,48.267,57.35Z" transform="translate(21.933 39.167)"/>
      <path id="Path_25956" data-name="Path 25956" d="M32,6h3.567V9.567H32Z" transform="translate(20.367 3.133)"/>
      <path id="Path_25957" data-name="Path 25957" d="M36,6H46.7V9.567H36Z" transform="translate(23.5 3.133)"/>
      <path id="Path_25958" data-name="Path 25958" d="M68.15,52.667H41.4V49.1H68.15a1.8,1.8,0,0,0,1.783-1.641l1.783-21.4a1.881,1.881,0,0,0-.464-1.355,1.835,1.835,0,0,0-1.32-.571H40.348l-3.032-3.05a1.842,1.842,0,0,0-1.266-.517h-2.1A5.368,5.368,0,0,0,28.917,17H25.35a5.35,5.35,0,1,0,0,10.7h3.567a5.368,5.368,0,0,0,5.029-3.567h1.373l2.515,2.514v27.8a1.783,1.783,0,0,0,1.783,1.783h2.1a5.35,5.35,0,1,0,10.058,0h4.209a5.35,5.35,0,1,0,10.058,0h2.1a1.783,1.783,0,0,1,1.783,1.783H73.5a5.366,5.366,0,0,0-5.35-5.35ZM62.8,27.7H67.99L67.7,31.267H62.8Zm0,7.133h4.6L67.1,38.4H62.8Zm0,7.133h4.012l-.3,3.567H62.8ZM55.667,27.7h3.567v3.567H55.667Zm0,7.133h3.567V38.4H55.667Zm0,7.133h3.567v3.567H55.667ZM48.533,27.7H52.1v3.567H48.533Zm0,7.133H52.1V38.4H48.533Zm0,7.133H52.1v3.567H48.533ZM41.4,27.7h3.567v3.567H41.4Zm0,7.133h3.567V38.4H41.4Zm0,7.133h3.567v3.567H41.4ZM28.917,24.133H25.35a1.783,1.783,0,0,1,0-3.567h3.567a1.783,1.783,0,0,1,0,3.567ZM46.75,59.8a1.783,1.783,0,1,1,1.783-1.783A1.783,1.783,0,0,1,46.75,59.8Zm14.267,0A1.783,1.783,0,1,1,62.8,58.017,1.783,1.783,0,0,1,61.017,59.8Z" transform="translate(10.967 11.75)"/>
      <path id="Path_25959" data-name="Path 25959" d="M6,37H9.567v3.567H6Z" transform="translate(0 27.417)"/>
      <path id="Path_25960" data-name="Path 25960" d="M10,37h7.133v3.567H10Z" transform="translate(3.133 27.417)"/>
      <path id="Path_25961" data-name="Path 25961" d="M16,37H37.4v3.567H16Z" transform="translate(7.833 27.417)"/>
      <path id="Path_25962" data-name="Path 25962" d="M13,33H30.833v3.567H13Z" transform="translate(5.483 24.283)"/>
      <path id="Path_25963" data-name="Path 25963" d="M18,29H32.267v3.567H18Z" transform="translate(9.4 21.15)"/>
      <path id="Path_25964" data-name="Path 25964" d="M14,29h3.567v3.567H14Z" transform="translate(6.267 21.15)"/>
      <path id="Path_25965" data-name="Path 25965" d="M9,33h3.567v3.567H9Z" transform="translate(2.35 24.283)"/>
    </g>
  </g>
</svg>
