<svg data-name="Online Shopping-Ecommerce-Online Shop-Shopping Cart-Smartphone" xmlns="http://www.w3.org/2000/svg" width="73.513" height="83.222" viewBox="0 0 73.513 83.222">
    <path data-name="Path 25953" d="M18.031 31.902h2.774v2.774h-2.774z"/>
    <path data-name="Path 25954" d="M73.512 8.322V74.9a8.322 8.322 0 0 1-8.322 8.322H26.353a8.322 8.322 0 0 1-8.322-8.322V54.094h2.774V74.9a5.548 5.548 0 0 0 5.548 5.548H65.19a5.548 5.548 0 0 0 5.548-5.548V8.322a5.548 5.548 0 0 0-5.548-5.548H26.353a5.548 5.548 0 0 0-5.548 5.548v9.709h-2.774V8.322A8.322 8.322 0 0 1 26.353 0H65.19a8.322 8.322 0 0 1 8.322 8.322z"/>
    <path data-name="Path 25955" d="M42.998 69.352a4.161 4.161 0 1 0 0 8.322h5.548a4.161 4.161 0 1 0 0-8.322zm6.939 4.161A1.387 1.387 0 0 1 48.55 74.9h-5.552a1.387 1.387 0 0 1 0-2.774h5.548a1.387 1.387 0 0 1 1.391 1.387z"/>
    <path data-name="Path 25956" d="M36.063 5.548h2.774v2.774h-2.774z"/>
    <path data-name="Path 25957" d="M41.611 5.548h8.322v2.774h-8.322z"/>
    <path data-name="Path 25958" d="M56.869 48.547H36.063v-2.774h20.806a1.4 1.4 0 0 0 1.387-1.276l1.387-16.644a1.463 1.463 0 0 0-.361-1.054 1.427 1.427 0 0 0-1.026-.444H35.245l-2.358-2.372a1.433 1.433 0 0 0-.985-.4h-1.636a4.175 4.175 0 0 0-3.912-2.777H23.58a4.161 4.161 0 1 0 0 8.322h2.774a4.175 4.175 0 0 0 3.911-2.774h1.068l1.956 1.952v21.628a1.387 1.387 0 0 0 1.387 1.387h1.637a4.161 4.161 0 1 0 7.823 0h3.273a4.161 4.161 0 1 0 7.823 0h1.637a1.387 1.387 0 0 1 1.387 1.385h2.774a4.174 4.174 0 0 0-4.161-4.161zm-4.161-19.419h4.036l-.225 2.778h-3.811zm0 5.548h3.579l-.236 2.774h-3.343zm0 5.548h3.121l-.236 2.774h-2.885zm-5.548-11.1h2.774v2.782H47.16zm0 5.548h2.774v2.774H47.16zm0 5.548h2.774v2.774H47.16zm-5.548-11.1h2.774v2.786h-2.774zm0 5.548h2.774v2.774h-2.774zm0 5.548h2.774v2.774h-2.774zm-5.548-11.1h2.774v2.79h-2.775zm0 5.548h2.774v2.774h-2.775zm0 5.548h2.774v2.774h-2.775zm-9.709-13.87H23.58a1.387 1.387 0 1 1 0-2.774h2.774a1.387 1.387 0 1 1 0 2.774zm13.87 27.741a1.387 1.387 0 1 1 1.387-1.377 1.387 1.387 0 0 1-1.387 1.389zm11.1 0a1.387 1.387 0 1 1 1.383-1.377 1.387 1.387 0 0 1-1.389 1.389z"/>
    <path data-name="Path 25959" d="M0 48.546h2.774v2.774H0z"/>
    <path data-name="Path 25960" d="M5.548 48.546h5.548v2.774H5.548z"/>
    <path data-name="Path 25961" d="M13.87 48.546h16.644v2.774H13.87z"/>
    <path data-name="Path 25962" d="M9.709 42.998h13.87v2.774H9.709z"/>
    <path data-name="Path 25963" d="M16.644 37.45h11.1v2.774h-11.1z"/>
    <path data-name="Path 25964" d="M11.096 37.45h2.774v2.774h-2.774z"/>
    <path data-name="Path 25965" d="M4.161 42.998h2.774v2.774H4.161z"/>
</svg>
