<svg xmlns="http://www.w3.org/2000/svg" xmlns:xlink="http://www.w3.org/1999/xlink" width="255" height="255" viewBox="0 0 255 255">
  <defs>
    <linearGradient id="linear-gradient" x1="1.396" y1="-0.381" x2="-0.054" y2="1.049" gradientUnits="objectBoundingBox">
      <stop offset="0" stop-color="#e32a40"/>
      <stop offset="0.241" stop-color="#00c4ff"/>
      <stop offset="0.468" stop-color="#d5aaff"/>
      <stop offset="0.744" stop-color="#dd3448"/>
      <stop offset="1" stop-color="#ffe200"/>
    </linearGradient>
    <clipPath id="clip-path">
      <rect id="Rectangle_9697" data-name="Rectangle 9697" width="96.883" height="96.699" fill="none" stroke="#707070" stroke-linecap="round" stroke-linejoin="bevel" stroke-width="4"/>
    </clipPath>
  </defs>
  <g id="Group_45548" data-name="Group 45548" transform="translate(-693.5 -1474.5)">
    <g id="Group_45547" data-name="Group 45547">
      <g id="Group_45334" data-name="Group 45334" transform="translate(0 -30)">
        <path id="Union_11" data-name="Union 11" d="M-1928-9229h216a19,19,0,0,1,19,19v216a19,19,0,0,1-19,19h-216a19,19,0,0,1-19-19v-216A19,19,0,0,1-1928-9229Z" transform="translate(2641 10734)" stroke="rgba(0,0,0,0)" stroke-width="1" fill="url(#linear-gradient)"/>
        <rect id="Rectangle_8905" data-name="Rectangle 8905" width="224" height="224" rx="10" transform="translate(709 1520)" fill="#fff" stroke="rgba(0,0,0,0)" stroke-width="1"/>
      </g>
      <text id="Expansible_platform" data-name="Expansible
platform" transform="translate(821 1654)" font-size="18" font-family="Poppins-Bold, Poppins" font-weight="700"><tspan x="-50.436" y="0">Expansible</tspan><tspan x="-40.482" y="27">Platform</tspan></text>
      <g id="Group_45401" data-name="Group 45401" transform="translate(773 1518.301)">
        <path id="Path_54315" data-name="Path 54315" d="M37.635,10.937h.036l.071.036ZM31.85,79.356h.036l.071.036Z" transform="translate(13.645 4.686)" fill="#333" stroke="#707070" stroke-linecap="round" stroke-linejoin="bevel" stroke-width="4" fill-rule="evenodd"/>
        <path id="Path_54316" data-name="Path 54316" d="M37.635,10.937h.036l.071.036ZM31.85,79.356h.036l.071.036Z" transform="translate(13.645 4.686)" fill="none" stroke="#231f20" stroke-linecap="round" stroke-linejoin="bevel" stroke-miterlimit="10" stroke-width="4"/>
        <g id="Group_45400" data-name="Group 45400" transform="translate(0 0)">
          <g id="Group_45399" data-name="Group 45399" clip-path="url(#clip-path)">
            <path id="Path_54317" data-name="Path 54317" d="M92.829,3.178A7.159,7.159,0,0,0,87.563,1h-28.8V14.48q-.084,1.416-1.68,1.571A5.918,5.918,0,0,1,53.191,14.6l-.071-.053a6.794,6.794,0,0,0-3.91-1.411,6.139,6.139,0,0,0-1.857.269,6.044,6.044,0,0,0-3.84,3.838,6.072,6.072,0,0,0-.3,1.857v.019a6,6,0,0,0,6,5.981A6.76,6.76,0,0,0,53.1,23.675l.089-.053a5.908,5.908,0,0,1,3.892-1.447q1.6.148,1.68,1.554v13.5h13.48q1.416-.073,1.571-1.66a5.956,5.956,0,0,0-1.447-3.911l-.053-.07a6.779,6.779,0,0,1-1.41-3.911,5.943,5.943,0,0,1,5.962-5.981h.019a6.02,6.02,0,0,1,1.857.267,5.93,5.93,0,0,1,2.393,1.483A5.749,5.749,0,0,1,82.6,25.8a6.259,6.259,0,0,1,.269,1.874,6.8,6.8,0,0,1-1.411,3.911l-.054.07a5.946,5.946,0,0,0-1.446,3.911q.146,1.588,1.553,1.66H95.026L95.009,8.464A7.2,7.2,0,0,0,92.829,3.178Zm-61.154,32.8A5.872,5.872,0,0,0,35.568,37.4q1.6-.146,1.678-1.553v-13.5H8.464A7.16,7.16,0,0,0,3.2,24.532,7.181,7.181,0,0,0,1,29.8V58.58H14.5q1.406.092,1.553,1.7a5.875,5.875,0,0,1-1.428,3.894l-.053.07a6.808,6.808,0,0,0-1.428,3.911,6.053,6.053,0,0,0,.286,1.857,6.129,6.129,0,0,0,3.838,3.857,6.066,6.066,0,0,0,1.858.267,5.825,5.825,0,0,0,4.267-1.75,5.761,5.761,0,0,0,1.731-4.231,6.808,6.808,0,0,0-1.428-3.911l-.053-.07a5.917,5.917,0,0,1-1.428-3.911q.137-1.6,1.536-1.678h13.5V45.1q-.081-1.406-1.678-1.553a5.872,5.872,0,0,0-3.892,1.428l-.09.053a6.785,6.785,0,0,1-3.892,1.447,6.036,6.036,0,0,1-6-6,6.067,6.067,0,0,1,.287-1.857,5.911,5.911,0,0,1,1.481-2.393,5.84,5.84,0,0,1,2.374-1.464,6.111,6.111,0,0,1,1.857-.286A6.844,6.844,0,0,1,31.6,35.924ZM49.369,49.028a6.836,6.836,0,0,0,1.447,3.91l.053.073A5.912,5.912,0,0,1,52.3,56.92q-.146,1.588-1.553,1.66h-13.5v13.5q.081,1.408,1.678,1.553a5.95,5.95,0,0,0,3.91-1.446l.054-.036a6.855,6.855,0,0,1,3.928-1.428,5.731,5.731,0,0,1,4.214,1.731A5.844,5.844,0,0,1,52.8,76.72a5.868,5.868,0,0,1-1.767,4.232,5.768,5.768,0,0,1-2.357,1.464,6.1,6.1,0,0,1-1.857.286,6.866,6.866,0,0,1-3.928-1.428l-.054-.053a5.9,5.9,0,0,0-3.91-1.428q-1.6.146-1.678,1.553v13.5l28.783-.017a7.469,7.469,0,0,0,7.464-7.445V58.58h-13.5q-1.408-.073-1.554-1.66a5.919,5.919,0,0,1,1.428-3.91l.054-.054a6.9,6.9,0,0,0,1.446-3.928,6.155,6.155,0,0,0-.284-1.857A5.885,5.885,0,0,0,59.6,44.8a5.812,5.812,0,0,0-2.375-1.464,6.051,6.051,0,0,0-1.856-.286,5.974,5.974,0,0,0-6,5.981ZM1,58.58v28.8a7.18,7.18,0,0,0,2.2,5.267,7.16,7.16,0,0,0,5.268,2.178l28.783.017" transform="translate(0.428 0.428)" fill="none" stroke="#231f20" stroke-linecap="round" stroke-linejoin="bevel" stroke-width="4"/>
          </g>
        </g>
      </g>
    </g>
  </g>
</svg>
