<svg xmlns="http://www.w3.org/2000/svg" width="78.837" height="80.15" viewBox="0 0 78.837 80.15">
    <g data-name="Group 45788">
        <g data-name="Group 45785">
            <path data-name="Path 54659" d="M62.329 127.248A7.284 7.284 0 1 1 55.045 120a7.266 7.266 0 0 1 7.284 7.248z" transform="translate(-35.744 -83.709)" style="stroke:#1c1c1c;stroke-linejoin:round;fill:none;stroke-linecap:round;stroke-width:3px"/>
            <path data-name="Path 54660" d="m34.19 170.147 2.941 7.8a5.876 5.876 0 0 0 5.5 3.794h10.317a3.079 3.079 0 0 0 .384-6.135l-7.965-.991a1.442 1.442 0 0 1-1.223-1.053 49.952 49.952 0 0 0-2.669-7.766c-1.457-2.9-2.914-5.8-8.013-5.8-6.556 0-8.013 4.349-9.469 10.147l-4.371 17.4" transform="translate(-17.802 -109.213)" style="stroke:#1c1c1c;stroke-linejoin:round;fill:none;stroke-linecap:round;stroke-width:3px"/>
            <path data-name="Line 492" transform="translate(19.352 71.081)" style="stroke:#1c1c1c;stroke-linejoin:round;fill:none;stroke-linecap:round;stroke-width:3px" d="M1.406 0 0 7.248"/>
            <path data-name="Line 493" transform="translate(29.695 72.451)" style="stroke:#1c1c1c;stroke-linejoin:round;fill:none;stroke-linecap:round;stroke-width:3px" d="M0 0h46.542"/>
            <path data-name="Path 54662" d="M76 41.4V28.349A4.349 4.349 0 0 1 80.349 24h18.845" transform="translate(-53.749 -22.5)" style="stroke:#1c1c1c;stroke-linejoin:round;fill:none;stroke-linecap:round;stroke-width:3px"/>
            <path data-name="Path 54663" d="M76 41.4v8.7a4.349 4.349 0 0 0 4.349 4.349h27.543l8.7 8.7v-8.7h5.8a4.349 4.349 0 0 0 4.349-4.349V28.349A4.349 4.349 0 0 0 122.388 24H99.194" transform="translate(-53.749 -22.5)" style="stroke:#1c1c1c;stroke-linejoin:round;fill:none;stroke-linecap:round;stroke-width:3px"/>
            <path data-name="Path 54664" d="M132 166.845 139.248 148h27.543l-7.248 18.845H132" transform="translate(-89.454 -101.562)" style="stroke:#1c1c1c;stroke-linejoin:round;fill:none;stroke-linecap:round;stroke-width:3px"/>
            <path data-name="Line 494" transform="translate(55.95 65.29)" style="stroke:#1c1c1c;stroke-linejoin:round;fill:none;stroke-linecap:round;stroke-width:3px" d="M0 7.16V0"/>
        </g>
        <text data-name="$" transform="translate(59.82 22.567)" style="font-size:18px;font-family:Poppins-Medium,Poppins;font-weight:500"><tspan x="-5.373" y="0">$</tspan></text>
        <path data-name="Line 506" transform="translate(30.32 11.067)" style="stroke:#000;fill:none;stroke-linecap:round;stroke-width:3px" d="M0 0h16"/>
        <path data-name="Line 507" transform="translate(30.32 17.067)" style="stroke:#000;fill:none;stroke-linecap:round;stroke-width:3px" d="M0 0h16"/>
        <path data-name="Line 508" transform="translate(30.32 23.067)" style="stroke:#000;fill:none;stroke-linecap:round;stroke-width:3px" d="M0 0h9"/>
    </g>
</svg>
