<svg xmlns="http://www.w3.org/2000/svg" width="1367" height="675.5" viewBox="0 0 1367 675.5">
    <defs>
        <linearGradient id="j1157w8vja" x1="1.396" y1="-.381" x2="-.054" y2="1.049" gradientUnits="objectBoundingBox">
            <stop offset="0" stop-color="#e32a40"/>
            <stop offset=".241" stop-color="#00c4ff"/>
            <stop offset=".468" stop-color="#d5aaff"/>
            <stop offset=".744" stop-color="#dd3448"/>
            <stop offset="1" stop-color="#ffe200"/>
        </linearGradient>
    </defs>
    <g data-name="Group 45416" transform="translate(-276.5 -4732.5)">
        <g data-name="Component 16 – 10" transform="translate(277 4733)">
            <rect data-name="Rectangle 9319" width="254" height="254" rx="19" style="fill:url(#j1157w8vja);stroke:transparent"/>
            <rect data-name="Rectangle 9330" width="236" height="236" rx="10" transform="translate(9 9)" style="fill:#fff;stroke:transparent"/>
        </g>
        <g data-name="Component 16 – 11" transform="translate(833 4733)">
            <rect data-name="Rectangle 9319" width="254" height="254" rx="19" style="fill:url(#j1157w8vja);stroke:transparent"/>
            <rect data-name="Rectangle 9330" width="236" height="236" rx="10" transform="translate(9 9)" style="fill:#fff;stroke:transparent"/>
        </g>
        <g data-name="Component 16 – 13" transform="translate(555 5098)">
            <rect data-name="Rectangle 9319" width="254" height="254" rx="19" style="fill:url(#j1157w8vja);stroke:transparent"/>
            <rect data-name="Rectangle 9330" width="236" height="236" rx="10" transform="translate(9 9)" style="fill:#fff;stroke:transparent"/>
        </g>
        <g data-name="Component 16 – 14" transform="translate(1111 5098)">
            <rect data-name="Rectangle 9319" width="254" height="254" rx="19" style="fill:url(#j1157w8vja);stroke:transparent"/>
            <rect data-name="Rectangle 9330" width="236" height="236" rx="10" transform="translate(9 9)" style="fill:#fff;stroke:transparent"/>
        </g>
        <g data-name="Component 16 – 12" transform="translate(1389 4733)">
            <rect data-name="Rectangle 9319" width="254" height="254" rx="19" style="fill:url(#j1157w8vja);stroke:transparent"/>
            <rect data-name="Rectangle 9330" width="236" height="236" rx="10" transform="translate(9 9)" style="fill:#fff;stroke:transparent"/>
        </g>
        <path data-name="Path 29527" d="m3159.894 9869.774 13.585 1.1s14.688-33.886-8.179-49.285c-.7 2.18-5.406 48.185-5.406 48.185z" transform="translate(-1626.521 -4985.26)" style="fill:url(#j1157w8vja);stroke:transparent"/>
        <path data-name="Path 29528" d="m3178.122 9869.774-13.585 1.1s-14.687-33.886 8.179-49.285c.7 2.18 5.406 48.185 5.406 48.185z" transform="translate(-1683.044 -4985.26)" style="fill:url(#j1157w8vja);stroke:transparent"/>
        <g data-name="Group 23477">
            <g data-name="Group 23085">
                <path data-name="Path 28692" d="M230.731 318.152a49.86 49.86 0 1 0 35.305 14.6 49.6 49.6 0 0 0-35.305-14.6z" transform="rotate(90 -1907.68 2680.215)" style="fill:#fff"/>
                <path data-name="Path 28693" d="M231.327 421.114a52.447 52.447 0 1 1 37.121-15.362 52.181 52.181 0 0 1-37.125 15.362zm.026-99.8a47.322 47.322 0 1 0-.03 94.645 47.322 47.322 0 1 0 .026-94.645z" transform="rotate(90 -1907.101 2680.215)" style="fill:#282d33"/>
            </g>
            <path data-name="Path 28694" d="M267.916 365.618a39.442 39.442 0 1 1-11.557-27.869 39.269 39.269 0 0 1 11.557 27.869z" transform="rotate(90 -1910.015 2680.217)" style="fill:url(#j1157w8vja);stroke:transparent"/>
            <g data-name="Group 23086">
                <path data-name="Path 28695" d="M204.012 384.7a32.2 32.2 0 0 1-.012-45.489l3.649 3.647a27.047 27.047 0 0 0 .014 38.192z" transform="rotate(90 -1912.726 2679.159)" style="fill:#fff"/>
            </g>
            <path data-name="Path 29720" d="M0 0h57.6v25.549H0z" transform="rotate(90 -2232.632 2649.885)" style="fill:#d5aaff"/>
            <g data-name="Group 23087">
                <path data-name="Line 461" transform="rotate(90 -2245.379 2654.553)" style="fill:#fff" d="M31.912.001 0 0"/>
                <path data-name="Rectangle 9104" style="fill:#fff" d="M0 0h31.912v5.159H0z" transform="rotate(90 -2244.089 2655.843)"/>
            </g>
            <g data-name="Group 23088">
                <path data-name="Rectangle 9105" transform="rotate(90 -2233.921 2648.595)" style="fill:#fff" d="M0 0h9.985v20.389H0z"/>
                <path data-name="Path 28696" d="M282.205 372.489h-15.149l.005-25.55H282.2zm-9.989-5.159h4.829V352.1h-4.825z" transform="rotate(90 -1924.342 2688.536)" style="fill:#282d33"/>
            </g>
            <g data-name="Group 23089">
                <path data-name="Path 28697" d="M318.617 348.939a14.423 14.423 0 0 1 0 20.391h-4.893v-20.389z" transform="rotate(90 -1931.392 2695.007)" style="fill:#fff"/>
                <path data-name="Path 28698" d="m315.932 372.49-4.211-.005v-25.538h8.546l.756.756a17.019 17.019 0 0 1 0 24.038l-.756.756zm.951-20.392v15.233h1.183a11.861 11.861 0 0 0 0-15.232z" transform="rotate(90 -1930.813 2695.006)" style="fill:#282d33"/>
            </g>
            <g data-name="Group 23092">
                <g data-name="Group 23090">
                    <path data-name="Rectangle 9106" style="fill:#282d33" d="M0 0h8.541v5.159H0z" transform="rotate(90 -2236.325 2638.108)"/>
                </g>
                <g data-name="Group 23091">
                    <path data-name="Rectangle 9107" style="fill:#282d33" d="M0 0h11.055v5.159H0z" transform="rotate(90 -2228.284 2640.62)"/>
                </g>
            </g>
        </g>
        <g data-name="Group 23508">
            <g data-name="Group 23208">
                <path data-name="Path 28935" d="M835.374 229.241a20.461 20.461 0 0 0-5-3.686l-7.527 16.218 16.209-7.535a20.378 20.378 0 0 0-3.682-4.997z" transform="translate(356.465 5042.565)" style="fill:#fff"/>
                <path data-name="Path 28936" d="m818.728 247.88 11.632-25.066 2.394 1.246a23.3 23.3 0 0 1 9.783 9.783l1.243 2.394zm13.95-17.8-3.331 7.177 7.174-3.334a18.455 18.455 0 0 0-3.842-3.843z" transform="translate(355.272 5041.771)" style="fill:#282d33"/>
            </g>
            <path data-name="Path 28937" d="m841.042 241.7 24.711-24.712-13.246-13.246-24.707 24.713" transform="translate(357.899 5036.246)" style="fill:url(#j1157w8vja);stroke:transparent"/>
            <g data-name="Group 23209">
                <path data-name="Path 28938" d="M899.388 170.15a36.831 36.831 0 0 0-5.012-3.032l.294-5.187-11.175-3.066-2.332 4.5a37.417 37.417 0 0 0-6.269-.035l-2.162-4.278-11.212 2.926.222 4.922a36.734 36.734 0 0 0-5.444 3.239l-4-2.626-8.243 8.143 2.76 4.319a36.7 36.7 0 0 0-2.9 5.379l-5.088-.286-3.062 11.173 5.055 2.621a37.612 37.612 0 0 0 .2 5.577L835.935 207l2.933 11.214 6.376-.285a37.35 37.35 0 0 0 2.661 4.174l-3.5 5.34 8.143 8.241 5.956-3.8a36.852 36.852 0 0 0 3.846 2.052l-.395 6.983 11.174 3.061 3.467-6.68a37.943 37.943 0 0 0 3.98-.07l3.317 6.571 11.207-2.941-.342-7.6a37.937 37.937 0 0 0 3.4-1.978l6.179 4.047 8.239-8.145-3.979-6.224a37.384 37.384 0 0 0 2.12-3.584l7.084.4 3.063-11.176-6.118-3.171a37.475 37.475 0 0 0 .089-4.63l5.854-2.955-2.932-11.212-6.222.28a37.436 37.436 0 0 0-2.5-4.65" transform="translate(360.207 5023.244)" style="fill:#fff"/>
                <path data-name="Path 28939" d="m875.144 247.691-15.2-4.161.418-7.354q-.563-.288-1.114-.6l-6.385 4.078-11.074-11.204 3.685-5.623a39.281 39.281 0 0 1-1-1.572l-6.888.307-3.987-15.25 5.378-2.711a41.474 41.474 0 0 1-.084-2.506l-5.493-2.845 4.165-15.2 5.425.306q.685-1.391 1.451-2.688l-3.008-4.706 11.21-11.074 4.306 2.822q1.387-.905 2.822-1.679l-.241-5.346 15.245-3.98 2.34 4.63a40.57 40.57 0 0 1 3.215.018l2.516-4.848 15.2 4.168-.32 5.617a39.76 39.76 0 0 1 3.849 2.444l-3.01 4.189a34.392 34.392 0 0 0-4.661-2.819l-1.518-.76.273-4.8-7.153-1.962-2.168 4.177-1.722-.152a34.89 34.89 0 0 0-5.837-.032l-1.726.137-2-3.965-7.177 1.874.205 4.537-1.536.739a34.291 34.291 0 0 0-5.06 3.012l-1.437 1.029-3.742-2.452-5.276 5.214 2.537 3.97-.917 1.4a34.222 34.222 0 0 0-2.7 5l-.72 1.639-4.794-.271-1.959 7.15 4.658 2.412-.061 1.632a35.251 35.251 0 0 0 .187 5.2l.2 1.782-4.82 2.429 1.878 7.18 5.9-.264.77 1.419a34.811 34.811 0 0 0 2.479 3.885l1.05 1.441-3.334 5.088 5.213 5.275 5.556-3.549 1.376.842a34.859 34.859 0 0 0 3.579 1.909l1.6.735-.377 6.655 7.153 1.958 3.254-6.272 1.624.053a35.178 35.178 0 0 0 3.709-.065l1.715-.125 3.153 6.246 7.174-1.877-.324-7.173 1.472-.756a35.587 35.587 0 0 0 3.164-1.844l1.414-.925 5.846 3.832 5.274-5.213-3.766-5.894.944-1.4a34.607 34.607 0 0 0 1.972-3.337l.771-1.477 6.664.374 1.962-7.153-5.8-3 .146-1.717a34.324 34.324 0 0 0 .081-4.312l-.064-1.655 5.475-2.763-1.878-7.179-5.876.264-.724-1.581a34.909 34.909 0 0 0-2.324-4.331l4.343-2.783a36.724 36.724 0 0 1 1.917 3.387l6.6-.3 3.987 15.247-6.264 3.161q0 .785-.026 1.54l6.482 3.361-4.167 15.2-7.538-.424q-.267.466-.54.917l4.214 6.592-11.205 11.077-6.543-4.286c-.236.141-.475.28-.713.415l.364 8.072-15.239 3.987-3.5-6.936c-.288.008-.58.012-.876.013z" transform="translate(359.524 5022.561)" style="fill:#282d33"/>
            </g>
            <g data-name="Group 23210">
                <path data-name="Path 28940" d="M873.152 214.219a18.469 18.469 0 1 1 6.945-35.582l-1.94 4.781a13.308 13.308 0 1 0 7.875 8.975l4.994-1.295a18.553 18.553 0 0 1-4.816 17.712 18.342 18.342 0 0 1-13.058 5.409z" transform="translate(365.689 5028.577)" style="fill:#282d33"/>
            </g>
            <g data-name="Group 23214">
                <g data-name="Group 23211">
                    <path data-name="Path 28941" d="m912.275 142.766-6.69 6.689 9.606 9.6 6.688-6.689a1.342 1.342 0 0 0-.26-1.851l-7.491-7.489a1.345 1.345 0 0 0-1.853-.26z" transform="translate(380.437 5018.501)" style="fill:url(#j1157w8vja);stroke:transparent"/>
                </g>
                <g data-name="Group 23213">
                    <g data-name="Group 23212">
                        <path data-name="Rectangle 9137" transform="rotate(-45.004 6886.521 1046.06)" style="fill:#fff" d="M0 0h12.114v13.764H0z"/>
                        <path data-name="Path 28942" d="m909.629 170.47-13.38-13.378 12.213-12.218 13.38 13.384zm-6.085-13.378 6.085 6.082 4.916-4.916-6.084-6.086z" transform="translate(377.732 5019.19)" style="fill:#282d33"/>
                    </g>
                </g>
            </g>
            <path data-name="Path 28943" d="m870.3 218.487 50.822-50.822-13.246-13.246-51.61 51.611" transform="translate(366.147 5021.955)" style="fill:url(#j1157w8vja);stroke:transparent"/>
            <g data-name="Group 23215">
                <path data-name="Path 28944" d="M873.152 213a18.469 18.469 0 0 1-13.06-31.528l3.65 3.647a13.309 13.309 0 1 0 18.821 18.822l3.647 3.649a18.342 18.342 0 0 1-13.058 5.41z" transform="translate(365.689 5029.794)" style="fill:#282d33"/>
            </g>
        </g>
        <g data-name="Group 23513">
            <g data-name="Group 23250">
                <path data-name="Path 28965" d="M801.9 451.757h-18.6l-1.326-6.182a48.472 48.472 0 0 1-4.709-1.169l-4.4 4.866-16.111-9.312 1.957-6.053a49.6 49.6 0 0 1-3.37-3.37l-6.379 2.058-9.3-16.115 5.115-4.622a50.244 50.244 0 0 1-1.04-4.116l-7.136-1.531V387.6l7.519-1.608a46.617 46.617 0 0 1 1-3.362l-6.036-5.452 9.31-16.115 8.207 2.652a48.704 48.704 0 0 1 1.922-1.88l-2.768-8.553 16.116-9.307 6.229 6.892a43.83 43.83 0 0 1 2.025-.535l2.018-9.419h18.607l2.021 9.416c.584.139 1.165.29 1.741.449l6.668-7.383 16.113 9.307-2.939 9.108q.669.619 1.343 1.287l9.385-3.032 9.311 16.117-6.737 6.085q.371 1.109.691 2.236l9.1 1.954-.005 18.606-8.1 1.736a48.149 48.149 0 0 1-.651 3.023l6.278 5.672-9.313 16.106-7.055-2.28q-1.246 1.461-2.638 2.854l2.331 7.21-16.111 9.316-4.483-4.96a48.958 48.958 0 0 1-4.365 1.331zm-14.439-5.16h10.268l1.249-5.836 1.631-.35a43.7 43.7 0 0 0 6.873-2.1l1.664-.659 4.063 4.493 8.89-5.136-2.044-6.322 1.19-1.119a44.514 44.514 0 0 0 4.45-4.835l1.11-1.407 6.467 2.091 5.14-8.9-5.554-5.017.45-1.553a43.274 43.274 0 0 0 1.224-5.694l.266-1.764 7.484-1.6v-10.266l-8.154-1.749-.384-1.568a42.275 42.275 0 0 0-1.518-4.887l-.623-1.648 6.228-5.625-5.138-8.891-8.485 2.741-1.118-1.179a44.224 44.224 0 0 0-3.388-3.235l-1.309-1.117 2.7-8.383-8.89-5.134-6.068 6.717-1.579-.5a44.739 44.739 0 0 0-4.482-1.152l-1.656-.335-1.848-8.613h-10.257l-1.847 8.617-1.66.334a43.616 43.616 0 0 0-4.735 1.243l-1.585.509-5.648-6.249-8.893 5.136 2.533 7.827-1.312 1.117a44.093 44.093 0 0 0-3.905 3.806l-1.118 1.223-7.369-2.381-5.137 8.893 5.507 4.973-.6 1.637a43.019 43.019 0 0 0-1.758 5.952l-.347 1.637-6.676 1.428v10.275l6.442 1.38.294 1.723a43.706 43.706 0 0 0 1.686 6.681l.547 1.608-4.515 4.078 5.132 8.893 5.666-1.829 1.116 1.318a44.651 44.651 0 0 0 5.222 5.218l1.323 1.117-1.728 5.349 8.889 5.138 3.859-4.27 1.604.554a43.529 43.529 0 0 0 7.232 1.791l1.745.277z" transform="translate(168.397 4463.093)" style="fill:#282d33"/>
            </g>
            <path data-name="Path 28966" d="M811.4 389.72a25.991 25.991 0 1 1-25.991-25.991A25.992 25.992 0 0 1 811.4 389.72z" transform="translate(175.008 4469.705)" style="fill:url(#j1157w8vja);stroke:transparent"/>
            <g data-name="Group 23255">
                <g data-name="Group 23251">
                    <path data-name="Path 28967" d="M787.622 427.744a35.818 35.818 0 1 1 35.818-35.817 35.858 35.858 0 0 1-35.818 35.817zm0-66.477a30.659 30.659 0 1 0 30.659 30.66 30.694 30.694 0 0 0-30.659-30.66z" transform="translate(172.801 4467.497)" style="fill:#282d33"/>
                </g>
                <g data-name="Group 23252">
                    <path data-name="Path 28968" d="M784.474 427.744c-12.229 0-21.81-15.732-21.81-35.817s9.58-35.818 21.81-35.818 21.8 15.733 21.8 35.818-9.574 35.817-21.8 35.817zm0-66.477c-9.026 0-16.651 14.04-16.651 30.66s7.625 30.658 16.651 30.658 16.64-14.039 16.64-30.658-7.62-30.66-16.64-30.66z" transform="translate(175.948 4467.497)" style="fill:#282d33"/>
                </g>
                <g data-name="Group 23253">
                    <path data-name="Path 28969" d="M780.155 427.744a2.579 2.579 0 0 1-2.579-2.579v-66.478a2.58 2.58 0 0 1 2.579-2.579 35.818 35.818 0 1 1 0 71.636zm2.579-66.37v61.1a30.661 30.661 0 0 0 0-61.1z" transform="translate(180.268 4467.497)" style="fill:#282d33"/>
                </g>
                <g data-name="Group 23254">
                    <path data-name="Path 28970" d="M818.7 401.386h-62.157a2.582 2.582 0 0 1-2.414-1.67 35.411 35.411 0 0 1 0-25.252 2.58 2.58 0 0 1 2.413-1.67H818.7a2.579 2.579 0 0 1 2.413 1.669 35.359 35.359 0 0 1 0 25.256 2.58 2.58 0 0 1-2.413 1.667zm-60.316-5.159h58.48a30.081 30.081 0 0 0 0-18.274h-58.482a30.131 30.131 0 0 0 0 18.274z" transform="translate(172.801 4472.332)" style="fill:#282d33"/>
                </g>
            </g>
        </g>
        <g data-name="Group 23514">
            <g data-name="Group 23259">
                <g data-name="Group 23257">
                    <path data-name="Path 28971" d="M607.755 399.152v4.575a1.024 1.024 0 0 0 1.038 1.016h7.379a1.028 1.028 0 0 0 1.043-1.016v-4.575" transform="translate(50.142 4841.673)" style="fill:#fff"/>
                    <path data-name="Path 28972" d="M616.751 407.323h-7.379a3.612 3.612 0 0 1-3.618-3.6v-4.575h5.159v3.012h4.3v-3.012h5.159v4.575a3.615 3.615 0 0 1-3.621 3.6z" transform="translate(49.563 4841.673)" style="fill:#282d33"/>
                </g>
                <g data-name="Group 23258">
                    <path data-name="Path 28973" d="M620.359 350.484H615.2v-1.427l-2.143-4.728-2.143 4.728v1.427h-5.159v-2.541l7.3-16.112 7.3 16.112z" transform="translate(49.564 4822.168)" style="fill:#282d33"/>
                </g>
                <path data-name="Rectangle 9155" transform="translate(655.254 5176.297)" style="fill:#5eb4e7" d="M0 0h14.748v60.833H0z"/>
            </g>
            <g data-name="Group 23270">
                <g data-name="Group 23260">
                    <path data-name="Rectangle 9156" transform="translate(679.028 5157.271)" style="fill:#fff" d="M0 0h21.991v91.298H0z"/>
                    <path data-name="Path 28974" d="M649.288 428.825h-27.149v-96.457h27.149zm-21.99-5.159h16.831v-86.139H627.3z" transform="translate(54.31 4822.323)" style="fill:#282d33"/>
                </g>
                <g data-name="Group 23261">
                    <path data-name="Rectangle 9157" style="fill:#282d33" d="M0 0h10.572v5.159H0z" transform="translate(690.447 5164.02)"/>
                </g>
                <g data-name="Group 23262">
                    <path data-name="Rectangle 9158" style="fill:#282d33" d="M0 0h5.693v5.159H0z" transform="translate(695.326 5173.351)"/>
                </g>
                <g data-name="Group 23263">
                    <path data-name="Rectangle 9159" style="fill:#282d33" d="M0 0h10.572v5.159H0z" transform="translate(690.447 5182.68)"/>
                </g>
                <g data-name="Group 23264">
                    <path data-name="Rectangle 9160" style="fill:#282d33" d="M0 0h5.693v5.159H0z" transform="translate(695.326 5192.01)"/>
                </g>
                <g data-name="Group 23265">
                    <path data-name="Rectangle 9161" style="fill:#282d33" d="M0 0h10.572v5.159H0z" transform="translate(690.447 5201.339)"/>
                </g>
                <g data-name="Group 23266">
                    <path data-name="Rectangle 9162" style="fill:#282d33" d="M0 0h5.693v5.159H0z" transform="translate(695.326 5210.67)"/>
                </g>
                <g data-name="Group 23267">
                    <path data-name="Rectangle 9163" style="fill:#282d33" d="M0 0h10.572v5.159H0z" transform="translate(690.447 5219.999)"/>
                </g>
                <g data-name="Group 23268">
                    <path data-name="Rectangle 9164" style="fill:#282d33" d="M0 0h5.693v5.159H0z" transform="translate(695.326 5229.328)"/>
                </g>
                <g data-name="Group 23269">
                    <path data-name="Rectangle 9165" style="fill:#282d33" d="M0 0h10.572v5.159H0z" transform="translate(690.447 5238.659)"/>
                </g>
            </g>
            <g data-name="Group 23271">
                <path data-name="Path 28975" d="M598.2 377.846v40.428c0 23.035 15.383 33.133 36.43 39.28 21.048-6.147 36.43-16.246 36.43-39.28v-40.428z" transform="translate(47.375 4835.499)" style="fill:url(#j1157w8vja);stroke:transparent"/>
                <path data-name="Path 28976" d="m635.213 460.821-.722-.211c-17.827-5.21-38.291-14.658-38.291-41.757v-43.007h78.019v43.007c0 27.1-20.46 36.55-38.286 41.756zM601.363 381v37.849c0 18.532 10.133 29.505 33.85 36.591 23.717-7.086 33.85-18.059 33.85-36.591V381z" transform="translate(46.796 4834.92)" style="fill:#282d33"/>
            </g>
            <g data-name="Group 23276">
                <g data-name="Group 23272">
                    <path data-name="Rectangle 9166" style="fill:#282d33" d="M0 0h5.159v5.159H0z" transform="translate(650.996 5218.763)"/>
                </g>
                <g data-name="Group 23273">
                    <path data-name="Path 28977" d="M652.355 387.2h-4.7v-5.159h4.7zm-9.4 0h-4.7v-5.159h4.7zm-9.4 0h-4.7v-5.159h4.7zm-9.4 0h-4.7v-5.159h4.7zm-9.4 0h-4.7v-5.159h4.7z" transform="translate(50.807 4836.717)" style="fill:#282d33"/>
                </g>
                <g data-name="Group 23274">
                    <path data-name="Rectangle 9167" style="fill:#282d33" d="M0 0h5.159v5.159H0z" transform="translate(707.863 5218.763)"/>
                </g>
                <g data-name="Group 23275">
                    <path data-name="Path 28978" d="M630.151 447.3c-1.77-.6-3.46-1.243-5.026-1.893l1.978-4.764a78.264 78.264 0 0 0 4.719 1.776zm6.62-.032-1.673-4.879a79.443 79.443 0 0 0 4.714-1.781l1.986 4.76a83.88 83.88 0 0 1-5.026 1.897zm-16.571-4.156a46.54 46.54 0 0 1-4.732-2.825l2.919-4.255a41.054 41.054 0 0 0 4.2 2.507zm26.522-.045-2.4-4.57a40.779 40.779 0 0 0 4.2-2.514l2.928 4.247a45.847 45.847 0 0 1-4.729 2.837zm-35.626-6.308a28.239 28.239 0 0 1-3.721-4.34l4.243-2.934a23.093 23.093 0 0 0 3.044 3.547zm44.718-.067-3.576-3.718a22.976 22.976 0 0 0 3.028-3.555l4.255 2.917a28.181 28.181 0 0 1-3.709 4.356zm-51.172-9.341a29.1 29.1 0 0 1-1.6-5.474l5.067-.967a23.908 23.908 0 0 0 1.313 4.5zm57.593-.1-4.789-1.919a24.119 24.119 0 0 0 1.3-4.509l5.07.952a29.243 29.243 0 0 1-1.582 5.48zm-59.8-10.939q-.027-.782-.028-1.588v-3.714h5.159v3.714c0 .475.009.943.024 1.4zm61.973-.1-5.156-.177c.016-.433.022-.872.022-1.316v-3.8h5.159v3.8c-.003.513-.011 1.01-.028 1.501zM607.563 405.8H602.4v-5.2h5.159zm56.867-.092h-5.159V400.5h5.159zm-56.867-10.327H602.4v-5.209h5.159zm56.867-.092h-5.159v-5.209h5.159z" transform="translate(48.592 4839.046)" style="fill:#282d33"/>
                </g>
            </g>
        </g>
        <text transform="translate(404 5034)" style="font-size:24px;font-family:Poppins-Bold,Poppins;font-weight:700"><tspan x="-57.984" y="0">Research</tspan></text>
        <text transform="translate(666.774 5400)" style="font-size:24px;font-family:Poppins-Bold,Poppins;font-weight:700"><tspan x="-42.6" y="0">Design</tspan></text>
        <text transform="translate(959.774 5034)" style="font-size:24px;font-family:Poppins-Bold,Poppins;font-weight:700"><tspan x="-83.688" y="0">Development</tspan></text>
        <text transform="translate(1238.774 5400)" style="font-size:24px;font-family:Poppins-Bold,Poppins;font-weight:700"><tspan x="-45.708" y="0">Testing</tspan></text>
        <text transform="translate(1516 5034)" style="font-size:24px;font-family:Poppins-Bold,Poppins;font-weight:700"><tspan x="-45.54" y="0">Launch</tspan></text>
        <g data-name="Group 23517">
            <path data-name="Path 28981" d="M2344.317 10633.029s-24.327 17.1-8.8 50.256c.32-.029 13.555 0 13.555 0l-5.633-71.407-.371-4.7s-4.968-30.771 26.336-51.135" transform="translate(-853.311 -5797.725)" style="stroke:#000;stroke-width:5px;fill:none"/>
            <path data-name="Path 28982" d="M2355.423 10633.029s24.327 17.1 8.8 50.256c-.32-.029-13.555 0-13.555 0l5.632-71.407.371-4.7s4.969-30.771-26.336-51.135" transform="translate(-816.63 -5797.725)" style="stroke:#000;stroke-width:5px;fill:none"/>
        </g>
        <path data-name="Path 29548" d="M3112.831 9796.577s22.156-14.724 49.274 0" transform="translate(-1622.868 -5001.366)" style="stroke:#000;stroke-width:5px;fill:none"/>
        <circle data-name="Ellipse 752" cx="12.389" cy="12.389" transform="translate(1506.354 4805.676)" style="fill:url(#j1157w8vja);stroke:transparent" r="12.389"/>
        <g data-name="Ellipse 753" transform="translate(1502.483 4801.029)" style="stroke:#000;stroke-width:5px;fill:#fff">
            <circle cx="12.389" cy="12.389" style="stroke:none" r="12.389"/>
            <circle cx="12.389" cy="12.389" style="fill:none" r="9.889"/>
        </g>
        <path data-name="Line 465" transform="translate(1492.804 4858.715)" style="stroke:#000;stroke-width:5px;fill:none" d="M0 0h44.135"/>
        <path data-name="Line 466" transform="translate(1493.579 4874.201)" style="stroke:#000;stroke-width:5px;fill:none" d="M0 0h42.586"/>
        <path data-name="Path 29549" d="M3.6 4.785C-.856 10-1.168 13.068 2.622 18.938s.98 13.15.98 13.15S10.051 21.6 9.27 15.783s3.5-2 4.988 0 7.006 6.334-.151 19.291 17.056 31.508 17.056 31.508 16.8-22.967 4.654-35.728-10.368-20.4-4.585-18.5 4.454 6.923 6.294 9.8 6.12 4.39 6.12 4.39 3.447-16.937-7.829-19.336S27.8 0 27.8 0" transform="rotate(11 -24624.625 10229.516)" style="stroke-linecap:round;stroke:#000;stroke-width:5px;fill:none"/>
        <path data-name="Path 29550" d="M3134.659 9941.171c3.733-3.3-8.831-3.639-6.094 5.09a61.427 61.427 0 0 0 8.451 16.288s-6.09-18.075-2.357-21.378z" transform="translate(-1619.361 -5011.766)" style="fill:url(#j1157w8vja);stroke:transparent"/>
        <path data-name="Path 29721" d="M2212.332 9823.715H2099v210.371" transform="translate(-1416.991 -4962.738)" style="stroke:#707070;stroke-width:3px;stroke-dasharray:6;fill:none"/>
        <path data-name="Path 29723" d="M2099 9823.715h113.332v210.371" transform="translate(-973.991 -4962.738)" style="stroke:#707070;stroke-width:3px;stroke-dasharray:6;fill:none"/>
        <path data-name="Path 29722" d="M2221.646 9985.87H2099v-162.156" transform="translate(-1695 -4761)" style="stroke:#707070;stroke-width:3px;stroke-dasharray:6;fill:none"/>
        <path data-name="Path 29724" d="M2099 9985.87h122.646v-162.156" transform="translate(-703 -4761)" style="stroke:#707070;stroke-width:3px;stroke-dasharray:6;fill:none"/>
    </g>
</svg>
