<svg xmlns="http://www.w3.org/2000/svg" xmlns:xlink="http://www.w3.org/1999/xlink" width="255" height="255" viewBox="0 0 255 255">
  <defs>
    <linearGradient id="linear-gradient" x1="1.396" y1="-0.381" x2="-0.054" y2="1.049" gradientUnits="objectBoundingBox">
      <stop offset="0" stop-color="#e32a40"/>
      <stop offset="0.241" stop-color="#00c4ff"/>
      <stop offset="0.468" stop-color="#d5aaff"/>
      <stop offset="0.744" stop-color="#dd3448"/>
      <stop offset="1" stop-color="#ffe200"/>
    </linearGradient>
  </defs>
  <g id="Group_45531" data-name="Group 45531" transform="translate(-970.5 -1504.5)">
    <g id="Group_45331" data-name="Group 45331">
      <path id="Union_13" data-name="Union 13" d="M-1928-9229h216a19,19,0,0,1,19,19v216a19,19,0,0,1-19,19h-216a19,19,0,0,1-19-19v-216A19,19,0,0,1-1928-9229Z" transform="translate(2918 10734)" stroke="rgba(0,0,0,0)" stroke-width="1" fill="url(#linear-gradient)"/>
      <rect id="Rectangle_8909" data-name="Rectangle 8909" width="224" height="224" rx="10" transform="translate(986 1520)" fill="#fff" stroke="rgba(0,0,0,0)" stroke-width="1"/>
    </g>
    <text id="Hybrid_App_Development" data-name="Hybrid App
Development" transform="translate(1098 1692)" font-size="18" font-family="Poppins-Bold, Poppins" font-weight="700"><tspan x="-51.561" y="0">Hybrid App</tspan><tspan x="-62.766" y="27">Development</tspan></text>
    <g id="application" transform="translate(1047 1549)">
      <path id="Path_27129" data-name="Path 27129" d="M93.4,13.6H158v6.8h3.4V8.5A8.51,8.51,0,0,0,152.9,0H98.5A8.51,8.51,0,0,0,90,8.5V20.4h3.4ZM98.5,3.4h54.4A5.1,5.1,0,0,1,158,8.5v1.7H93.4V8.5A5.1,5.1,0,0,1,98.5,3.4Zm0,0" transform="translate(-74.7)"/>
      <path id="Path_27130" data-name="Path 27130" d="M450,100h3.4v3.4H450Zm0,0" transform="translate(-373.5 -83)"/>
      <path id="Path_27131" data-name="Path 27131" d="M410,100h3.4v3.4H410Zm0,0" transform="translate(-340.3 -83)"/>
      <path id="Path_27132" data-name="Path 27132" d="M370,100h3.4v3.4H370Zm0,0" transform="translate(-307.1 -83)"/>
      <path id="Path_27133" data-name="Path 27133" d="M130,100h3.4v3.4H130Zm0,0" transform="translate(-107.9 -83)"/>
      <path id="Path_27134" data-name="Path 27134" d="M278.5,550h-6.8a1.7,1.7,0,1,0,0,3.4h6.8a1.7,1.7,0,1,0,0-3.4Zm0,0" transform="translate(-224.1 -456.5)"/>
      <path id="Path_27135" data-name="Path 27135" d="M231.7,450.2h20.4a1.7,1.7,0,0,0,1.7-1.7v-6.8a1.7,1.7,0,0,0-1.7-1.7H231.7a1.7,1.7,0,0,0-1.7,1.7v6.8A1.7,1.7,0,0,0,231.7,450.2Zm1.7-6.8h17v3.4h-17Zm0,0" transform="translate(-190.9 -365.2)"/>
      <path id="Path_27136" data-name="Path 27136" d="M100.3,440H79.9a1.7,1.7,0,0,0-1.7,1.7v6.8a1.7,1.7,0,0,0,1.7,1.7h3.4v3.4H18.7v-3.4h3.4a1.7,1.7,0,0,0,1.7-1.7v-6.8a1.7,1.7,0,0,0-1.7-1.7H1.7A1.7,1.7,0,0,0,0,441.7v6.8a1.7,1.7,0,0,0,1.7,1.7H15.3v8.5a8.51,8.51,0,0,0,8.5,8.5H78.2a8.51,8.51,0,0,0,8.5-8.5v-8.5h13.6a1.7,1.7,0,0,0,1.7-1.7v-6.8A1.7,1.7,0,0,0,100.3,440ZM3.4,443.4h17v3.4H3.4Zm74.8,20.4H23.8a5.1,5.1,0,0,1-5.1-5.1V457H83.3v1.7A5.1,5.1,0,0,1,78.2,463.8Zm20.4-17h-17v-3.4h17Zm0,0" transform="translate(0 -365.2)"/>
      <path id="Path_27137" data-name="Path 27137" d="M290,380h3.4v8.5H290Zm0,0" transform="translate(-240.7 -315.4)"/>
      <path id="Path_27138" data-name="Path 27138" d="M365.7,388.5v-3.4a1.7,1.7,0,0,0-1.7-1.7H333.4V380H330v5.1a1.7,1.7,0,0,0,1.7,1.7h30.6v1.7Zm0,0" transform="translate(-273.9 -315.4)"/>
      <path id="Path_27139" data-name="Path 27139" d="M61.7,175.932a1.7,1.7,0,0,0-1.7,1.7v3.4h3.4v-1.7H94a1.7,1.7,0,0,0,1.7-1.7v-5.1H92.47a15.367,15.367,0,0,0,2.635-1.7H117.8a1.546,1.546,0,0,0,.777-.213,15.288,15.288,0,0,0-1.088-30.313,18.7,18.7,0,0,0-34.748,3.571A15.3,15.3,0,1,0,92.3,172.613v3.319Zm11.9-17a11.853,11.853,0,0,1,10.7-11.839,1.7,1.7,0,0,0,1.5-1.36,15.3,15.3,0,0,1,29.026-3.107,1.7,1.7,0,0,0,1.53,1.019,11.887,11.887,0,0,1,1.24,23.68,1.5,1.5,0,0,0-.39.106H94.474a1.7,1.7,0,0,0-1.124.425A11.885,11.885,0,0,1,73.6,158.932Zm0,0" transform="translate(-49.8 -107.932)"/>
      <path id="Path_27140" data-name="Path 27140" d="M0,180H3.4v3.4H0Zm0,0" transform="translate(0 -149.4)"/>
      <path id="Path_27141" data-name="Path 27141" d="M30,180H43.6v3.4H30Zm0,0" transform="translate(-24.9 -149.4)"/>
      <path id="Path_27142" data-name="Path 27142" d="M0,220H3.4v3.4H0Zm0,0" transform="translate(0 -182.6)"/>
      <path id="Path_27143" data-name="Path 27143" d="M30,220H43.6v3.4H30Zm0,0" transform="translate(-24.9 -182.6)"/>
      <path id="Path_27144" data-name="Path 27144" d="M490,180h3.4v3.4H490Zm0,0" transform="translate(-406.7 -149.4)"/>
      <path id="Path_27145" data-name="Path 27145" d="M520,180h13.6v3.4H520Zm0,0" transform="translate(-431.6 -149.4)"/>
      <path id="Path_27146" data-name="Path 27146" d="M490,220h3.4v3.4H490Zm0,0" transform="translate(-406.7 -182.6)"/>
      <path id="Path_27147" data-name="Path 27147" d="M520,220h13.6v3.4H520Zm0,0" transform="translate(-431.6 -182.6)"/>
    </g>
  </g>
</svg>
