<svg xmlns="http://www.w3.org/2000/svg" width="83.815" height="83.814" viewBox="0 0 83.815 83.814">
    <path data-name="Path 27129" d="M15.366 11.175h53.083v5.588h2.794V6.985A6.993 6.993 0 0 0 64.258 0h-44.7a6.993 6.993 0 0 0-6.986 6.985v9.778h2.794zm4.191-8.381h44.7a4.191 4.191 0 0 1 4.191 4.191v1.4H15.366v-1.4a4.191 4.191 0 0 1 4.191-4.191zm0 0"/>
    <path data-name="Path 27130" d="M62.861 13.969h2.794v2.794h-2.794zm0 0"/>
    <path data-name="Path 27131" d="M57.273 13.969h2.794v2.794h-2.794zm0 0"/>
    <path data-name="Path 27132" d="M51.686 13.969h2.794v2.794h-2.794zm0 0"/>
    <path data-name="Path 27133" d="M18.16 13.969h2.794v2.794H18.16zm0 0"/>
    <path data-name="Path 27134" d="M44.702 76.83h-5.585a1.4 1.4 0 0 0 0 2.794h5.588a1.4 1.4 0 0 0 0-2.794zm0 0"/>
    <path data-name="Path 27135" d="M33.529 69.845h16.76a1.4 1.4 0 0 0 1.4-1.4v-5.581a1.4 1.4 0 0 0-1.4-1.4h-16.76a1.4 1.4 0 0 0-1.4 1.4v5.588a1.4 1.4 0 0 0 1.4 1.393zm1.4-5.588h13.969v2.794H34.923zm0 0"/>
    <path data-name="Path 27136" d="M82.418 61.464H65.655a1.4 1.4 0 0 0-1.4 1.4v5.588a1.4 1.4 0 0 0 1.4 1.4h2.794v2.794H15.366v-2.794h2.794a1.4 1.4 0 0 0 1.4-1.4v-5.588a1.4 1.4 0 0 0-1.4-1.4H1.4a1.4 1.4 0 0 0-1.4 1.4v5.588a1.4 1.4 0 0 0 1.4 1.4h11.172v6.985a6.993 6.993 0 0 0 6.985 6.985h44.7a6.993 6.993 0 0 0 6.985-6.985v-6.985h11.176a1.4 1.4 0 0 0 1.4-1.4v-5.588a1.4 1.4 0 0 0-1.4-1.4zM2.794 64.258h13.969v2.794H2.794zm61.464 16.763h-44.7a4.191 4.191 0 0 1-4.191-4.191v-1.4h53.082v1.4a4.191 4.191 0 0 1-4.191 4.191zm16.763-13.969H67.052v-2.794h13.969zm0 0"/>
    <path data-name="Path 27137" d="M40.511 53.082h2.794v6.985h-2.794zm0 0"/>
    <path data-name="Path 27138" d="M75.433 60.067v-2.794a1.4 1.4 0 0 0-1.4-1.4H48.892v-2.791h-2.794v4.191a1.4 1.4 0 0 0 1.4 1.4h25.144v1.4zm0 0"/>
    <path data-name="Path 27139" d="M9.782 55.876a1.4 1.4 0 0 0-1.4 1.4v2.794h2.794v-1.4H36.32a1.4 1.4 0 0 0 1.4-1.4v-4.191h-2.657a12.627 12.627 0 0 0 2.165-1.4h18.649a1.27 1.27 0 0 0 .638-.175 12.563 12.563 0 0 0-.894-24.909 15.366 15.366 0 0 0-28.553 2.934 12.572 12.572 0 1 0 7.855 23.613v2.727zm9.778-13.969a9.74 9.74 0 0 1 8.792-9.728 1.4 1.4 0 0 0 1.232-1.118 12.572 12.572 0 0 1 23.851-2.553 1.4 1.4 0 0 0 1.257.838 9.767 9.767 0 0 1 1.019 19.458 1.236 1.236 0 0 0-.321.087H36.71a1.394 1.394 0 0 0-.923.349 9.766 9.766 0 0 1-16.229-7.333zm0 0"/>
    <path data-name="Path 27140" d="M0 25.144h2.794v2.794H0zm0 0"/>
    <path data-name="Path 27141" d="M4.191 25.144h11.175v2.794H4.191zm0 0"/>
    <path data-name="Path 27142" d="M0 30.732h2.794v2.794H0zm0 0"/>
    <path data-name="Path 27143" d="M4.191 30.732h11.175v2.794H4.191zm0 0"/>
    <path data-name="Path 27144" d="M68.449 25.144h2.794v2.794h-2.794zm0 0"/>
    <path data-name="Path 27145" d="M72.639 25.144h11.175v2.794H72.639zm0 0"/>
    <path data-name="Path 27146" d="M68.449 30.732h2.794v2.794h-2.794zm0 0"/>
    <path data-name="Path 27147" d="M72.639 30.732h11.175v2.794H72.639zm0 0"/>
</svg>
