<svg xmlns="http://www.w3.org/2000/svg" xmlns:xlink="http://www.w3.org/1999/xlink" width="255" height="255" viewBox="0 0 255 255">
  <defs>
    <linearGradient id="linear-gradient" x1="1.396" y1="-0.381" x2="-0.054" y2="1.049" gradientUnits="objectBoundingBox">
      <stop offset="0" stop-color="#e32a40"/>
      <stop offset="0.241" stop-color="#00c4ff"/>
      <stop offset="0.468" stop-color="#d5aaff"/>
      <stop offset="0.744" stop-color="#dd3448"/>
      <stop offset="1" stop-color="#ffe200"/>
    </linearGradient>
  </defs>
  <g id="Group_45523" data-name="Group 45523" transform="translate(-970.5 -1504.5)">
    <g id="Group_45323" data-name="Group 45323">
      <path id="Union_13" data-name="Union 13" d="M-1928-9229h216a19,19,0,0,1,19,19v216a19,19,0,0,1-19,19h-216a19,19,0,0,1-19-19v-216A19,19,0,0,1-1928-9229Z" transform="translate(2918 10734)" stroke="rgba(0,0,0,0)" stroke-width="1" fill="url(#linear-gradient)"/>
      <rect id="Rectangle_8909" data-name="Rectangle 8909" width="224" height="224" rx="10" transform="translate(986 1520)" fill="#fff" stroke="rgba(0,0,0,0)" stroke-width="1"/>
    </g>
    <text id="Intuitive_" data-name="Intuitive " transform="translate(1099 1715)" font-size="18" font-family="Poppins-Bold, Poppins" font-weight="700"><tspan x="-40.419" y="0">Intuitive </tspan></text>
    <g id="flow-chart" transform="translate(1044.721 1559)">
      <path id="Path_25797" data-name="Path 25797" d="M59.323,89.9H49.065V80.592l15.194-9.5L49.065,61.6V50.581H59.323V36.9H49.065V24.935H62.742V1H31.968V24.935H45.645V36.9H35.387v5.129H20v3.419H35.387v5.129H45.645V61.6L30.451,71.1l15.194,9.5V89.9H35.387a5.135,5.135,0,0,0-5.129,5.129v6.839A5.135,5.135,0,0,0,35.387,107H59.323a5.135,5.135,0,0,0,5.129-5.129V95.032A5.135,5.135,0,0,0,59.323,89.9ZM35.387,4.419H59.323v17.1H35.387Zm3.419,35.9H55.9v6.839h-17.1Zm8.548,24.242L57.806,71.1,47.355,77.629,36.9,71.1Zm13.677,37.307a1.712,1.712,0,0,1-1.71,1.71H35.387a1.712,1.712,0,0,1-1.71-1.71V95.032a1.713,1.713,0,0,1,1.71-1.71H59.323a1.713,1.713,0,0,1,1.71,1.71Z" transform="translate(13.996)" stroke="#000" stroke-width="0.5"/>
      <path id="Path_25798" data-name="Path 25798" d="M27.017,69.4l3.92,3.92H15.943a5.124,5.124,0,0,0-3.1-3.1V34H9.419V70.218a5.117,5.117,0,1,0,6.524,6.524H30.937l-3.92,3.92,2.417,2.417,8.047-8.047-8.047-8.047Zm-15.888,7.34a1.71,1.71,0,1,1,1.71-1.71A1.713,1.713,0,0,1,11.129,76.742Z" transform="translate(4.06 23.419)" stroke="#000" stroke-width="0.5"/>
      <path id="Path_25799" data-name="Path 25799" d="M71.229,63.444v-48.5a5.117,5.117,0,1,0-6.524-6.524H47.294v3.419H64.705a5.124,5.124,0,0,0,3.1,3.1v48.5a5.124,5.124,0,0,0-3.1,3.1H53.131l3.92-3.92-2.417-2.417-8.047,8.046,8.047,8.047,2.417-2.417-3.92-3.92H64.705a5.117,5.117,0,1,0,6.524-6.524ZM69.52,8.419a1.71,1.71,0,1,1-1.71,1.71A1.712,1.712,0,0,1,69.52,8.419Zm0,61.548a1.71,1.71,0,1,1,1.71-1.71A1.713,1.713,0,0,1,69.52,69.968Z" transform="translate(32.863 2.839)" stroke="#000" stroke-width="0.5"/>
      <path id="Path_25800" data-name="Path 25800" d="M30.1,30.421l-14.91-10.65L.279,30.421l14.91,10.65Zm-14.91-6.447,9.025,6.447-9.025,6.447L6.164,30.421Z" transform="translate(0 13.321)" stroke="#000" stroke-width="0.5"/>
      <path id="Path_25801" data-name="Path 25801" d="M31,5H48.1V8.419H31Z" transform="translate(21.802 2.839)" stroke="#000" stroke-width="0.5"/>
      <path id="Path_25802" data-name="Path 25802" d="M31,9H41.258v3.419H31Z" transform="translate(21.802 5.677)" stroke="#000" stroke-width="0.5"/>
      <path id="Path_25803" data-name="Path 25803" d="M39,9h3.419v3.419H39Z" transform="translate(27.479 5.677)" stroke="#000" stroke-width="0.5"/>
      <path id="Path_25804" data-name="Path 25804" d="M56,57h3.419v3.419H56Z" transform="translate(39.544 39.742)" stroke="#000" stroke-width="0.5"/>
      <path id="Path_25805" data-name="Path 25805" d="M52,57h3.419v3.419H52Z" transform="translate(36.705 39.742)" stroke="#000" stroke-width="0.5"/>
      <path id="Path_25806" data-name="Path 25806" d="M48,57h3.419v3.419H48Z" transform="translate(33.867 39.742)" stroke="#000" stroke-width="0.5"/>
      <path id="Path_25807" data-name="Path 25807" d="M19,9h3.419v3.419H19Z" transform="translate(13.286 5.677)" stroke="#000" stroke-width="0.5"/>
      <path id="Path_25808" data-name="Path 25808" d="M23,9h3.419v3.419H23Z" transform="translate(16.125 5.677)" stroke="#000" stroke-width="0.5"/>
      <path id="Path_25809" data-name="Path 25809" d="M15,9h3.419v3.419H15Z" transform="translate(10.447 5.677)" stroke="#000" stroke-width="0.5"/>
    </g>
  </g>
</svg>
