<svg xmlns="http://www.w3.org/2000/svg" width="85.469" height="84.314" viewBox="0 0 85.469 84.314">
    <path data-name="Path 25797" d="M51.092 71.3h-8.111v-7.367L55 56.425l-12.019-7.508V40.2h8.111V29.389h-8.111v-9.463H53.8V1H29.463v18.926h10.815v9.463h-8.111v4.056H20v2.7h12.167V40.2h8.111v8.714l-12.014 7.511 12.014 7.508V71.3h-8.111a4.06 4.06 0 0 0-4.056 4.056v5.407a4.06 4.06 0 0 0 4.056 4.056h18.925a4.06 4.06 0 0 0 4.056-4.056v-5.412a4.06 4.06 0 0 0-4.056-4.051zM32.167 3.7h18.925v13.522H32.167zm2.7 28.389h13.522V37.5H34.87zm6.762 19.171 8.264 5.165-8.264 5.165-8.264-5.165zm10.815 29.5a1.354 1.354 0 0 1-1.352 1.352H32.167a1.354 1.354 0 0 1-1.352-1.352v-5.409A1.354 1.354 0 0 1 32.167 74h18.925a1.354 1.354 0 0 1 1.352 1.352z" transform="translate(7.09 -.75)" style="stroke:#000;stroke-width:.5px"/>
    <path data-name="Path 25798" d="m22.618 61.993 3.1 3.1H13.862a4.051 4.051 0 0 0-2.455-2.455V34H8.7v28.637a4.046 4.046 0 1 0 5.162 5.163h11.856l-3.1 3.1 1.911 1.911 6.363-6.363-6.362-6.367zM10.056 67.8a1.352 1.352 0 1 1 1.352-1.352 1.354 1.354 0 0 1-1.352 1.352z" transform="translate(2.164 10.861)" style="stroke:#000;stroke-width:.5px"/>
    <path data-name="Path 25799" d="M66.071 51.211V12.862A4.046 4.046 0 1 0 60.913 7.7H47.146v2.7h13.767a4.052 4.052 0 0 0 2.455 2.455v38.35a4.052 4.052 0 0 0-2.455 2.455h-9.152l3.1-3.1-1.911-1.911-6.363 6.362 6.363 6.363 1.911-1.912-3.1-3.1h9.152a4.046 4.046 0 1 0 5.159-5.159zM64.72 7.7a1.352 1.352 0 1 1-1.352 1.352A1.354 1.354 0 0 1 64.72 7.7zm0 48.666a1.352 1.352 0 1 1 1.352-1.352 1.354 1.354 0 0 1-1.352 1.356z" transform="translate(16.444 .657)" style="stroke:#000;stroke-width:.5px"/>
    <path data-name="Path 25800" d="m23.858 28.192-11.79-8.421L.279 28.192l11.789 8.421zm-11.789-5.1 7.136 5.1-7.136 5.1-7.136-5.1z" transform="translate(.151 5.854)" style="stroke:#000;stroke-width:.5px"/>
    <path data-name="Path 25801" d="M31 5h13.518v2.7H31z" transform="translate(10.96 .657)" style="stroke:#000;stroke-width:.5px"/>
    <path data-name="Path 25802" d="M31 9h8.111v2.7H31z" transform="translate(10.96 2.065)" style="stroke:#000;stroke-width:.5px"/>
    <path data-name="Path 25803" d="M39 9h2.7v2.7H39z" transform="translate(13.775 2.065)" style="stroke:#000;stroke-width:.5px"/>
    <path data-name="Path 25804" d="M56 57h2.7v2.7H56z" transform="translate(19.756 18.953)" style="stroke:#000;stroke-width:.5px"/>
    <path data-name="Path 25805" d="M52 57h2.7v2.7H52z" transform="translate(18.348 18.953)" style="stroke:#000;stroke-width:.5px"/>
    <path data-name="Path 25806" d="M48 57h2.7v2.7H48z" transform="translate(16.941 18.953)" style="stroke:#000;stroke-width:.5px"/>
    <path data-name="Path 25807" d="M19 9h2.7v2.7H19z" transform="translate(6.738 2.065)" style="stroke:#000;stroke-width:.5px"/>
    <path data-name="Path 25808" d="M23 9h2.7v2.7H23z" transform="translate(8.145 2.065)" style="stroke:#000;stroke-width:.5px"/>
    <path data-name="Path 25809" d="M15 9h2.7v2.7H15z" transform="translate(5.33 2.065)" style="stroke:#000;stroke-width:.5px"/>
</svg>
