<svg xmlns="http://www.w3.org/2000/svg" width="49.747" height="83.814" viewBox="0 0 49.747 83.814">
    <path data-name="Path 27148" d="M48.519 53.888a1.228 1.228 0 0 0 1.228-1.228V4.931A4.936 4.936 0 0 0 44.816 0H4.931A4.936 4.936 0 0 0 0 4.931v73.953a4.936 4.936 0 0 0 4.931 4.931h9.1a1.228 1.228 0 1 0 0-2.455h-9.1a2.478 2.478 0 0 1-2.475-2.475v-4.7h44.835v4.7a2.478 2.478 0 0 1-2.475 2.475H19.381a1.228 1.228 0 1 0 0 2.455h25.435a4.936 4.936 0 0 0 4.931-4.931V58.007a1.228 1.228 0 0 0-2.456 0v13.722H2.456V19.945h44.835V52.66a1.227 1.227 0 0 0 1.228 1.228zM4.931 2.456h39.885a2.479 2.479 0 0 1 2.475 2.475v4.813H2.456V4.931a2.479 2.479 0 0 1 2.475-2.475zM2.456 17.489V12.2h44.835v5.289zm0 0"/>
    <path data-name="Path 27149" d="M18.735 7.327h6.221a1.228 1.228 0 1 0 0-2.456h-6.221a1.228 1.228 0 1 0 0 2.456zm0 0"/>
    <path data-name="Path 27150" d="M30.194 7.327h.818a1.228 1.228 0 1 0 0-2.456h-.818a1.228 1.228 0 1 0 0 2.456zm0 0"/>
    <path data-name="Path 27151" d="m12.001 57.392 1.9 1.9a1.228 1.228 0 0 0 1.736-1.736l-1.9-1.9a1.228 1.228 0 0 0-1.736 1.736zm0 0"/>
    <path data-name="Path 27152" d="M43.627 32.767a1.228 1.228 0 0 0 1.228-1.228v-6.572a1.228 1.228 0 0 0-1.228-1.228H6.12a1.228 1.228 0 0 0-1.228 1.228v37.508a1.228 1.228 0 0 0 1.228 1.228h37.507a1.228 1.228 0 0 0 1.228-1.228V36.886a1.228 1.228 0 1 0-2.455 0v24.361h-1.647a7.376 7.376 0 0 0-7.288-8.527 7.328 7.328 0 0 0-5.449 2.4l-2.074-2.074a2.5 2.5 0 0 0-3.536 0l-3.248 3.247-5.238-5.237a2.5 2.5 0 0 0-3.536 0l-3.036 3.036V26.195H42.4v5.345a1.228 1.228 0 0 0 1.227 1.227zM33.465 55.173a4.929 4.929 0 0 1 4.789 6.074h-4.109l-4.389-4.389a4.891 4.891 0 0 1 3.709-1.685zM12.12 52.79a.041.041 0 0 1 .032-.013.039.039 0 0 1 .031.013l6.106 6.105a1.229 1.229 0 0 0 1.737 0l4.116-4.115a.045.045 0 0 1 .064 0l6.467 6.467H7.347v-3.686zm0 0"/>
    <path data-name="Path 27153" d="M26.785 34.855a1.228 1.228 0 1 0 0-2.456h-3.82a1.228 1.228 0 1 0 0 2.456zm0 0"/>
    <path data-name="Path 27154" d="M18.066 36.816a1.228 1.228 0 0 0 1.228 1.228h11.159a1.228 1.228 0 0 0 0-2.456H19.294a1.227 1.227 0 0 0-1.228 1.228zm0 0"/>
    <path data-name="Path 27155" d="M6.12 65.116a1.228 1.228 0 0 0 0 2.456h1.237a1.228 1.228 0 0 0 0-2.456zm0 0"/>
    <path data-name="Path 27156" d="M11.041 65.116a1.228 1.228 0 1 0 0 2.456h1.237a1.228 1.228 0 0 0 0-2.456zm0 0"/>
    <path data-name="Path 27157" d="M15.962 65.116a1.228 1.228 0 0 0 0 2.456h1.237a1.228 1.228 0 0 0 0-2.456zm0 0"/>
    <path data-name="Path 27158" d="M43.627 65.116h-4.512a1.228 1.228 0 0 0 0 2.456h4.512a1.228 1.228 0 0 0 0-2.456zm0 0"/>
    <path data-name="Path 27159" d="M10.226 13.618H6.12a1.228 1.228 0 1 0 0 2.455h4.107a1.228 1.228 0 1 0 0-2.455zm0 0"/>
</svg>
