<svg xmlns="http://www.w3.org/2000/svg" width="334" height="334" viewBox="0 0 334 334">
    <g data-name="Group 45807" transform="translate(-1104 -493)">
        <rect data-name="Rectangle 9852" width="334" height="334" rx="167" transform="translate(1104 493)" style="fill:#f8f8f8"/>
        <g data-name="lisna-deepakwadhwa 2453-revisi-04-01">
            <path data-name="Path 54343" d="M157.364 289.87h-5.3l-6.571 7.346v-7.346h-4.58v17.52h4.58v-4.272l2.246-2.5 4.554 6.774h5.47l-6.9-10.27z" transform="translate(1034.321 405.072)" style="fill:#47ba6f"/>
            <path data-name="Path 54344" d="m171.824 300.1-4.651-10.226h-5v17.52h4.078v-11.1l4.078 9.345h2.995l4.078-9.345.026 11.1h4.043V289.87h-4.994z" transform="translate(1031.787 405.072)" style="fill:#47ba6f"/>
            <path data-name="Path 54345" d="m201.02 293.517.018-3.647h-13.1v17.52h4.58v-6.324h7.848v-3.647h-7.846v-3.9z" transform="translate(1028.716 405.072)" style="fill:#47ba6f"/>
            <path data-name="Rectangle 9794" transform="translate(1239.337 694.942)" style="fill:#008da8" d="M0 0h4.571v17.528H0z"/>
            <path data-name="Path 54346" d="m234.71 300.413-7.945-10.543h-4.025v17.52h4.272v-10.5l7.954 10.5h4v-17.52h-4.256z" transform="translate(1024.568 405.072)" style="fill:#008da8"/>
            <path data-name="Path 54347" d="M245.05 307.39h4.571v-6.324h7.848v-3.647h-7.848v-3.9h8.5l.026-3.647h-13.1z" transform="translate(1021.909 405.072)" style="fill:#008da8"/>
            <path data-name="Path 54348" d="M270.469 289.72c-5.417 0-9.469 3.77-9.469 8.879s4.052 8.984 9.469 8.984 9.478-3.849 9.478-8.976-4.052-8.887-9.478-8.887zm.053 13.952a4.95 4.95 0 0 1-4.827-5.047 4.889 4.889 0 0 1 4.827-5 5.038 5.038 0 0 1 0 10.05z" transform="translate(1020.009 405.09)" style="fill:#008da8"/>
            <path data-name="Path 54349" d="M282.71 293.64h5.2v13.75h4.58v-13.75h5.25v-3.77h-15.03z" transform="translate(1017.421 405.072)" style="fill:#008da8"/>
            <path data-name="Path 54350" d="m306.441 300.44 8.35-.026v-3.62h-8.35v-3.277h9.249v-3.647h-13.82v17.52h14.075v-3.647h-9.5z" transform="translate(1015.138 405.072)" style="fill:#008da8"/>
            <path data-name="Path 54351" d="M329.2 303.5a4.95 4.95 0 0 1 0-9.9 5.972 5.972 0 0 1 4.342 2.3l2.642-3.171a10.05 10.05 0 0 0-7.047-3c-5.347 0-9.372 3.805-9.372 8.808a8.87 8.87 0 0 0 9.178 9.055 10.49 10.49 0 0 0 7.276-3.25l-2.642-2.871a6.519 6.519 0 0 1-4.377 2.029z" transform="translate(1013.005 405.09)" style="fill:#008da8"/>
            <path data-name="Path 54352" d="M352.314 289.87v7.143h-7.073v-7.143h-4.571v17.52h4.571v-6.721h7.073v6.721h4.571v-17.52z" transform="translate(1010.513 405.072)" style="fill:#008da8"/>
            <path data-name="Path 54353" d="m176.206 321.029-1.4-2.088-.7.775v1.312H172.7v-5.4h1.409v2.264l2.026-2.264h1.638l-2.008 2.237 2.132 3.162z" transform="translate(1030.532 402.002)" style="fill:#666"/>
            <path data-name="Path 54354" d="M185.681 315.629v1.127h-2.871v1h2.642v1.119h-2.642v1.025h2.924v1.119H181.4v-5.4z" transform="translate(1029.495 402.004)" style="fill:#666"/>
            <path data-name="Path 54355" d="M193.77 315.629v1.127h-2.854v1h2.546v1.119h-2.572v1.025h2.924v1.119h-4.334v-5.4z" transform="translate(1028.532 402.004)" style="fill:#666"/>
            <path data-name="Path 54356" d="M202.135 317.524a1.911 1.911 0 0 1-2.176 2.017H199v1.489h-1.41v-5.4h2.369c1.383 0 2.176.696 2.176 1.894zm-1.339.053a.773.773 0 0 0-.881-.819h-.881v1.656h.881a.782.782 0 0 0 .885-.837z" transform="translate(1027.566 402.002)" style="fill:#666"/>
            <path data-name="Path 54357" d="m212.067 315.63 1.436 3.153 1.427-3.153h1.541v5.4h-1.251v-3.418l-1.251 2.88h-.881l-1.26-2.88v3.418h-1.26v-5.4z" transform="translate(1026.019 402.002)" style="fill:#666"/>
            <path data-name="Path 54358" d="M226.08 318.32a2.924 2.924 0 1 1-2.916-2.731 2.775 2.775 0 0 1 2.916 2.731zm-4.4 0a1.515 1.515 0 0 0 1.48 1.559 1.55 1.55 0 1 0-1.48-1.559z" transform="translate(1024.867 402.008)" style="fill:#666"/>
            <path data-name="Path 54359" d="m230.664 315.63 1.348 3.911 1.356-3.911h1.445l-2.114 5.4h-1.462l-2.1-5.4z" transform="translate(1023.806 402.002)" style="fill:#666"/>
            <path data-name="Path 54360" d="M239.739 315.63v5.4h-1.409v-5.4z" transform="translate(1022.71 402.002)" style="fill:#666"/>
            <path data-name="Path 54361" d="m244.544 315.63 2.449 3.25v-3.25h1.33v5.4h-1.233l-2.449-3.233v3.233h-1.321v-5.4z" transform="translate(1022.116 402.002)" style="fill:#666"/>
            <path data-name="Path 54362" d="M255.884 318.267h1.216v2.133a4.325 4.325 0 0 1-2.246.687 2.757 2.757 0 0 1-2.854-2.759 2.792 2.792 0 0 1 2.986-2.739 3.47 3.47 0 0 1 2.211.8l-.8.987a2.167 2.167 0 0 0-1.418-.6 1.559 1.559 0 0 0 0 3.109 2.264 2.264 0 0 0 .934-.255z" transform="translate(1021.081 402.008)" style="fill:#666"/>
            <path data-name="Path 54363" d="M269.862 315.63v1.127h-2.642v1.2h2.422v1.127h-2.422v1.947h-1.41v-5.4z" transform="translate(1019.435 402.002)" style="fill:#666"/>
            <path data-name="Path 54364" d="M278.759 318.32a2.924 2.924 0 1 1-2.915-2.731 2.766 2.766 0 0 1 2.915 2.731zm-4.4 0a1.524 1.524 0 0 0 1.489 1.559 1.55 1.55 0 1 0 0-3.1 1.506 1.506 0 0 0-1.471 1.55z" transform="translate(1018.588 402.008)" style="fill:#666"/>
            <path data-name="Path 54365" d="m285.771 321.029-.784-1.489h-1.048v1.489h-1.409v-5.4h2.422c1.436 0 2.246.7 2.246 1.894a1.824 1.824 0 0 1-.96 1.762l1.127 1.762zm-1.832-2.642h1.022a.784.784 0 0 0 .881-.881.77.77 0 0 0-.881-.819h-1.022z" transform="translate(1017.443 402.002)" style="fill:#666"/>
            <path data-name="Path 54366" d="m291.883 315.63 1.031 3.911 1.013-3.911h1.4l1.022 3.911 1.013-3.911h1.453l-1.762 5.4h-1.462l-.969-3.638-1.057 3.638h-1.453l-1.762-5.4z" transform="translate(1016.511 402.002)" style="fill:#666"/>
            <path data-name="Path 54367" d="M305.687 320.078h-2.334l-.379.951h-1.444l2.317-5.4h1.445l2.264 5.4h-1.5zm-.414-1.083-.74-1.92-.758 1.92z" transform="translate(1015.178 402.002)" style="fill:#666"/>
            <path data-name="Path 54368" d="m314.341 321.029-.784-1.489h-1.048v1.489H311.1v-5.4h2.431c1.427 0 2.246.7 2.246 1.894a1.841 1.841 0 0 1-.96 1.762l1.119 1.762zm-1.832-2.642h1.031a.784.784 0 0 0 .881-.881.773.773 0 0 0-.881-.819h-1.031z" transform="translate(1014.038 402.002)" style="fill:#666"/>
            <path data-name="Path 54369" d="M324.807 318.324a2.642 2.642 0 0 1-2.924 2.7h-2.273v-5.4h2.325a2.643 2.643 0 0 1 2.871 2.7zm-1.436 0a1.445 1.445 0 0 0-1.462-1.559h-.881v3.109h.96a1.409 1.409 0 0 0 1.383-1.533z" transform="translate(1013.023 402.004)" style="fill:#666"/>
            <path data-name="Path 54370" d="m331.44 318.4 24.584.881-24.584.881z" transform="translate(1011.613 401.672)" style="fill:#666"/>
            <path data-name="Path 54371" d="m165.234 320.162-24.584-.881 24.584-.881z" transform="translate(1034.352 401.672)" style="fill:#666"/>
            <path data-name="Path 54372" d="m268.1 247.667-9.31-7.276-9.39 12.473-27.08-21.492 25.332-32.837 9.478 7.513 7.293-9.328-18.708-14.85.018.141-.185-.141-24.038 31.163v32.819l30 23.817z" transform="translate(1024.715 417.944)" style="fill:none"/>
            <path data-name="Path 54373" d="m165.27 242.184 24.108 22.065v-16.058l-7.822-7.161 7.822-9.795v-17.061l-.793-.634z" transform="translate(1031.418 414.17)" style="fill:#81c562"/>
            <path data-name="Path 54374" d="m209.6 227.869-16.96-13.609v17.062l.951-1.189 8.773 7.117-9.011 11.68-.713-.652v16.057l2.228 2.035 16.78-21.756 6.421 5.1v-32.82z" transform="translate(1028.156 414.084)" style="fill:#47ba6f"/>
            <path data-name="Path 54375" d="m269.36 213.947 8.65 6.862v-15.124l-1.356-1.075z" transform="translate(1019.012 415.234)" style="fill:#008da8"/>
            <path data-name="Path 54376" d="m269.53 239.212 8.5 6.641V227.92z" transform="translate(1018.992 412.456)" style="fill:#008da8"/>
            <path data-name="Path 54377" d="m281.224 222.574-2.044 2.713v17.933l.81.634 17.625-23.395-18.435-14.629v15.124z" transform="translate(1017.842 415.088)" style="fill:#0ba5cb"/>
            <path data-name="Path 54378" d="m251.61 222.082 5.813 4.615-5.734 7.628 5.065 3.964 9.6-12.737L255.583 217z" transform="translate(1021.128 413.757)" style="fill:#008da8"/>
            <path data-name="Path 54379" d="m274.79 192.456 3.823 3.039v-7.875z" transform="translate(1018.365 417.259)" style="fill:#008da8"/>
            <path data-name="Path 54380" d="m279.95 256.428 13.2 10.3 11.512-15.282V223.6z" transform="translate(1017.75 412.971)" style="fill:#0ba5cb"/>
            <path data-name="Path 54381" d="M279.13 186.494v7.875l25.438 20.18v-21.43l-18.832-14.949z" transform="translate(1017.848 418.385)" style="fill:#0ba5cb"/>
            <path data-name="Path 54382" d="m309.719 217.936-1.709 2.272v27.843l24.945-33.11-24.945-19.8v21.43z" transform="translate(1014.406 416.363)" style="fill:#26bfde"/>
            <path data-name="Path 54383" d="m251.095 198.667 9.478 7.513 7.293-9.328-17.476-13.872v16.6z" transform="translate(1021.273 417.812)" style="fill:#008da8"/>
            <path data-name="Path 54384" d="m271.538 255.586-9.31-7.276-9.389 12.472-2.449-1.947v15.124l4.563 3.629z" transform="translate(1021.273 410.026)" style="fill:#008da8"/>
            <path data-name="Path 54385" d="m222.32 231.372 24.628-31.921v-16.6l-1.233-.978.018.141-.185-.141-24.038 31.16v32.819l25.438 20.188v-15.123z" transform="translate(1024.715 417.944)" style="fill:#01a08e"/>
        </g>
    </g>
</svg>
