<svg data-name="Group 45363" xmlns="http://www.w3.org/2000/svg" width="77.178" height="77.148" viewBox="0 0 77.178 77.148">
    <defs>
        <clipPath id="yasneo84ja">
            <path data-name="Rectangle 9687" style="fill:none" d="M0 0h77.178v77.148H0z"/>
        </clipPath>
    </defs>
    <g data-name="Group 45362" style="clip-path:url(#yasneo84ja)">
        <path data-name="Path 54293" d="M76.849 58.894 70.8 46.745V1.608A1.607 1.607 0 0 0 69.191 0H7.939a1.607 1.607 0 0 0-1.607 1.608v45.138L.111 59.316a1.615 1.615 0 0 0-.1.488L0 64.353a6.27 6.27 0 0 0 6.156 6.364h32.01v1.609a4.827 4.827 0 0 0 4.822 4.822h19.287a4.827 4.827 0 0 0 4.825-4.822v-1.609h3.877a6.277 6.277 0 0 0 6.172-6.364l.032-4.484a1.6 1.6 0 0 0-.329-.975m-6.886-6.616 2.98 5.983h-2.98zM8.935 48.731h11.5l9.52 9.531H4.2zM6.156 67.5a3.054 3.054 0 0 1-2.941-3.15v-2.874h29.951l2.434 2.439a1.461 1.461 0 0 0 .143.127 8.563 8.563 0 0 1 2.132 3.458zm60.59-8.862a10.325 10.325 0 0 1-1.168 4.262 13.559 13.559 0 0 0-1.468 4.453l-.011.059a27.43 27.43 0 0 0-.216 4.911 1.609 1.609 0 0 1-1.608 1.608H42.987a1.608 1.608 0 0 1-1.607-1.608l-.032-3.63a.21.21 0 0 1 0-.021 11.141 11.141 0 0 0-3.465-7.181L22.04 45.653a2.5 2.5 0 0 1 .2-3.8c1.223-.868 2.414-.583 3.588.35l8.047 8.047a1.585 1.585 0 0 0 2.743-1.136V22.576a2.59 2.59 0 0 1 2.693-2.555h.008a2.828 2.828 0 0 1 2.419 2.791v19.051a1.607 1.607 0 1 0 3.214 0 2.561 2.561 0 0 1 5.121 0 1.607 1.607 0 1 0 3.214 0 2.561 2.561 0 0 1 5.121 0 1.607 1.607 0 1 0 3.214 0 2.59 2.59 0 0 1 2.694-2.555h.007a2.827 2.827 0 0 1 2.423 2.792zm-2.56-22.55a5.759 5.759 0 0 0-4.168 1.782 5.766 5.766 0 0 0-8.336 0 5.764 5.764 0 0 0-6.728-1.182V24.474l2.056-5.862h-2.105l-.568 1.627a5.876 5.876 0 0 0-4.85-3.428l-.307-.007a5.764 5.764 0 0 0-5.729 5.319l-1.227-3.51h-2.105l3.287 9.374v17.244l-5.3-5.3a6.081 6.081 0 0 0-7.9-.565 5.8 5.8 0 0 0-2.122 4.191 5.725 5.725 0 0 0 .271 1.963H9.547V3.214h58.036V37.3a5.436 5.436 0 0 0-3.4-1.21m9.745 28.265a3.061 3.061 0 0 1-2.957 3.15h-3.623a10.056 10.056 0 0 1 1.05-2.908 13.515 13.515 0 0 0 1.194-3.119h4.339z"/>
        <path data-name="Path 54294" d="m24.735 26.889-2.572-8.277h-1.751l-2.572 8.277-2.895-8.277h-2.088l4.019 11.505h1.929l2.427-7.892h.129l2.426 7.892h1.928l4.018-11.507h-2.088z"/>
        <path data-name="Path 54295" d="m59.29 26.889-2.572-8.277h-1.751l-2.572 8.277-2.893-8.277h-2.106l4.034 11.505h1.929l2.413-7.889h.128l2.426 7.889h1.929l4.034-11.507h-2.106z"/>
    </g>
</svg>
