<svg xmlns="http://www.w3.org/2000/svg" xmlns:xlink="http://www.w3.org/1999/xlink" width="255" height="255" viewBox="0 0 255 255">
  <defs>
    <linearGradient id="linear-gradient" x1="1.396" y1="-0.381" x2="-0.054" y2="1.049" gradientUnits="objectBoundingBox">
      <stop offset="0" stop-color="#e32a40"/>
      <stop offset="0.241" stop-color="#00c4ff"/>
      <stop offset="0.468" stop-color="#d5aaff"/>
      <stop offset="0.744" stop-color="#dd3448"/>
      <stop offset="1" stop-color="#ffe200"/>
    </linearGradient>
  </defs>
  <g id="Group_45522" data-name="Group 45522" transform="translate(-693.5 -1504.5)">
    <g id="Group_45322" data-name="Group 45322">
      <path id="Union_11" data-name="Union 11" d="M-1928-9229h216a19,19,0,0,1,19,19v216a19,19,0,0,1-19,19h-216a19,19,0,0,1-19-19v-216A19,19,0,0,1-1928-9229Z" transform="translate(2641 10734)" stroke="rgba(0,0,0,0)" stroke-width="1" fill="url(#linear-gradient)"/>
      <rect id="Rectangle_8905" data-name="Rectangle 8905" width="224" height="224" rx="10" transform="translate(709 1520)" fill="#fff" stroke="rgba(0,0,0,0)" stroke-width="1"/>
    </g>
    <text id="Mobile_Compatible" data-name="Mobile Compatible" transform="translate(821 1708)" font-size="18" font-family="Poppins-Bold, Poppins" font-weight="700"><tspan x="-87.516" y="0">Mobile Compatible</tspan></text>
    <g id="Expand" transform="translate(762 1547)">
      <rect id="Rectangle_8866" data-name="Rectangle 8866" width="4" height="5" transform="translate(57 99)"/>
      <path id="Path_25777" data-name="Path 25777" d="M23.038,29.231h8.154a2.038,2.038,0,0,0,2.038-2.038V19.038A2.038,2.038,0,0,0,31.192,17H23.038A2.038,2.038,0,0,0,21,19.038v8.154A2.038,2.038,0,0,0,23.038,29.231Zm2.038-8.154h4.077v4.077H25.077Z" transform="translate(15.577 11.423)"/>
      <path id="Path_25778" data-name="Path 25778" d="M31.038,29.231h8.154a2.038,2.038,0,0,0,2.038-2.038V19.038A2.038,2.038,0,0,0,39.192,17H31.038A2.038,2.038,0,0,0,29,19.038v8.154A2.038,2.038,0,0,0,31.038,29.231Zm2.038-8.154h4.077v4.077H33.077Z" transform="translate(23.885 11.423)"/>
      <path id="Path_25779" data-name="Path 25779" d="M33.231,35.192V27.038A2.038,2.038,0,0,0,31.192,25H23.038A2.038,2.038,0,0,0,21,27.038v8.154a2.038,2.038,0,0,0,2.038,2.038h8.154A2.038,2.038,0,0,0,33.231,35.192Zm-4.077-2.038H25.077V29.077h4.077Z" transform="translate(15.577 19.731)"/>
      <path id="Path_25780" data-name="Path 25780" d="M31.038,37.231h8.154a2.038,2.038,0,0,0,2.038-2.038V27.038A2.038,2.038,0,0,0,39.192,25H31.038A2.038,2.038,0,0,0,29,27.038v8.154A2.038,2.038,0,0,0,31.038,37.231Zm2.038-8.154h4.077v4.077H33.077Z" transform="translate(23.885 19.731)"/>
      <path id="Path_25781" data-name="Path 25781" d="M31.038,45.231h8.154a2.038,2.038,0,0,0,2.038-2.038V35.038A2.038,2.038,0,0,0,39.192,33H31.038A2.038,2.038,0,0,0,29,35.038v8.154A2.038,2.038,0,0,0,31.038,45.231Zm2.038-8.154h4.077v4.077H33.077Z" transform="translate(23.885 28.038)"/>
      <path id="Path_25782" data-name="Path 25782" d="M39.038,45.231h8.154a2.038,2.038,0,0,0,2.038-2.038V35.038A2.038,2.038,0,0,0,47.192,33H39.038A2.038,2.038,0,0,0,37,35.038v8.154A2.038,2.038,0,0,0,39.038,45.231Zm2.038-8.154h4.077v4.077H41.077Z" transform="translate(32.192 28.038)"/>
      <path id="Path_25783" data-name="Path 25783" d="M31.038,53.231h8.154a2.038,2.038,0,0,0,2.038-2.038V43.038A2.038,2.038,0,0,0,39.192,41H31.038A2.038,2.038,0,0,0,29,43.038v8.154A2.038,2.038,0,0,0,31.038,53.231Zm2.038-8.154h4.077v4.077H33.077Z" transform="translate(23.885 36.346)"/>
      <path id="Path_25784" data-name="Path 25784" d="M39.038,53.231h8.154a2.038,2.038,0,0,0,2.038-2.038V43.038A2.038,2.038,0,0,0,47.192,41H39.038A2.038,2.038,0,0,0,37,43.038v8.154A2.038,2.038,0,0,0,39.038,53.231Zm2.038-8.154h4.077v4.077H41.077Z" transform="translate(32.192 36.346)"/>
      <rect id="Rectangle_8867" data-name="Rectangle 8867" width="12" height="5" transform="translate(53 14)"/>
      <path id="Path_25785" data-name="Path 25785" d="M44.966,37.081a2.038,2.038,0,0,0,1.983.09l16.308-8.154a2.038,2.038,0,0,0,0-3.649L46.95,17.215A2.038,2.038,0,0,0,44,19.039V35.347A2.038,2.038,0,0,0,44.966,37.081Zm3.111-14.744,9.711,4.856-9.711,4.856Z" transform="translate(39.462 11.423)"/>
      <path id="Path_25786" data-name="Path 25786" d="M6,63.077V95.692a2.038,2.038,0,0,0,2.038,2.038H28.423v6.115A8.154,8.154,0,0,0,36.577,112H81.423a8.154,8.154,0,0,0,8.154-8.154V56.962h20.385A2.038,2.038,0,0,0,112,54.923V22.308a2.038,2.038,0,0,0-2.038-2.038H89.577V14.154A8.154,8.154,0,0,0,81.423,6H36.577a8.154,8.154,0,0,0-8.154,8.154V61.038H8.038A2.038,2.038,0,0,0,6,63.077ZM107.923,52.885H77.346V38.615a2.038,2.038,0,0,0-.6-1.441l-2.636-2.636L76.749,31.9a2.039,2.039,0,0,0,.6-1.441V24.346h30.577ZM32.5,14.154a4.077,4.077,0,0,1,4.077-4.077H81.423A4.077,4.077,0,0,1,85.5,14.154v6.115H75.308a2.038,2.038,0,0,0-2.038,2.038v7.31L69.79,33.1a2.038,2.038,0,0,0,0,2.882l3.48,3.48V54.923a2.038,2.038,0,0,0,2.038,2.038H85.5v46.885a4.077,4.077,0,0,1-4.077,4.077H36.577a4.077,4.077,0,0,1-4.077-4.077V97.731H42.692a2.038,2.038,0,0,0,2.038-2.038v-7.31l3.48-3.48a2.038,2.038,0,0,0,0-2.882l-3.48-3.48V63.077a2.038,2.038,0,0,0-2.038-2.038H32.5ZM10.077,65.115H40.654V79.385a2.038,2.038,0,0,0,.6,1.441l2.636,2.636L41.251,86.1a2.038,2.038,0,0,0-.6,1.441v6.115H10.077Z"/>
      <rect id="Rectangle_8868" data-name="Rectangle 8868" width="5" height="5" transform="translate(14 69)"/>
      <rect id="Rectangle_8869" data-name="Rectangle 8869" width="14" height="5" transform="translate(23 69)"/>
      <rect id="Rectangle_8870" data-name="Rectangle 8870" width="23" height="3" transform="translate(14 78)"/>
      <rect id="Rectangle_8871" data-name="Rectangle 8871" width="23" height="4" transform="translate(14 85)"/>
      <rect id="Rectangle_8872" data-name="Rectangle 8872" width="4" height="32" transform="translate(20 23)"/>
      <rect id="Rectangle_8873" data-name="Rectangle 8873" width="4" height="29" transform="translate(94 63)"/>
      <rect id="Rectangle_8874" data-name="Rectangle 8874" width="4" height="4" transform="translate(94 95)"/>
    </g>
  </g>
</svg>
