<?xml version="1.0" encoding="utf-8"?>
<!-- Generator: Adobe Illustrator 26.3.1, SVG Export Plug-In . SVG Version: 6.00 Build 0)  -->
<svg version="1.1" id="Layer_1" xmlns="http://www.w3.org/2000/svg" xmlns:xlink="http://www.w3.org/1999/xlink" x="0px" y="0px"
	 viewBox="0 0 244.7 1226.2" style="enable-background:new 0 0 244.7 1226.2;" xml:space="preserve">
<style type="text/css">
	.st0{fill:url(#SVGID_1_);}
	.st1{fill:#FFFFFF;}
	.st2{font-family:'Poppins-Bold';}
	.st3{font-size:15px;}
	.st4{font-family:'Poppins-Regular';}
</style>
<g transform="translate(-72.501 -2582.5)">
	
		<linearGradient id="SVGID_1_" gradientUnits="userSpaceOnUse" x1="-100.3863" y1="3614.1633" x2="-101.8363" y2="3615.5935" gradientTransform="matrix(243.7168 0 0 -1225.1777 24878.7285 4432269)">
		<stop  offset="0" style="stop-color:#E32A40"/>
		<stop  offset="0.241" style="stop-color:#00C4FF"/>
		<stop  offset="0.468" style="stop-color:#D5AAFF"/>
		<stop  offset="0.744" style="stop-color:#DD3448"/>
		<stop  offset="1" style="stop-color:#FFE200"/>
	</linearGradient>
	<path class="st0" d="M92,3808.2c-10.5,0-19-8.5-19-19v-174c0-10.5,8.5-19,19-19h72.9v-42H92c-10.5,0-19-8.5-19-19v-174
		c0-10.5,8.5-19,19-19h72.9v-42H92c-10.5,0-19-8.5-19-19v-174c0-10.5,8.5-19,19-19h72.9v-40.6H92c-10.5,0-19-8.5-19-19v-174
		c0-10.5,8.5-19,19-19h72.9V2795H92c-10.5,0-19-8.5-19-19v-174c0-10.5,8.5-19,19-19h205.7c10.5,0,19,8.5,19,19v174
		c0,10.5-8.5,19-19,19H179.3v40.6h118.4c10.5,0,19,8.5,19,19v174c0,10.5-8.5,19-19,19H179.3v40.6h118.4c10.5,0,19,8.5,19,19v174
		c0,10.5-8.5,19-19,19H179.3v42h118.4c10.5,0,19,8.5,19,19v174c0,10.5-8.5,19-19,19H179.3v42h118.4c10.5,0,19,8.5,19,19v174
		c0,10.5-8.5,19-19,19L92,3808.2z"/>
	<path class="st1" d="M304.3,2605.6v166.1c0,5.5-4.5,10-10,10H96c-5.5,0-10-4.5-10-10v-166.1c0-5.5,4.5-10,10-10h198.3
		C299.8,2595.6,304.3,2600,304.3,2605.6z"/>
	<path class="st1" d="M304.3,2859v166.1c0,5.5-4.5,10-10,10H96c-5.5,0-10-4.5-10-10V2859c0-5.5,4.5-10,10-10h198.3
		C299.8,2849,304.3,2853.5,304.3,2859z"/>
	<path class="st1" d="M304.3,3113v166.1c0,5.5-4.5,10-10,10H96c-5.5,0-10-4.5-10-10V3113c0-5.5,4.5-10,10-10h198.3
		C299.8,3103,304.3,3107.5,304.3,3113z"/>
	<path class="st1" d="M304.3,3367v166.1c0,5.5-4.5,10-10,10H96c-5.5,0-10-4.5-10-10V3367c0-5.5,4.5-10,10-10h198.3
		C299.8,3357,304.3,3361.5,304.3,3367z"/>
	<path class="st1" d="M304.3,3620v166.1c0,5.5-4.5,10-10,10H96c-5.5,0-10-4.5-10-10V3620c0-5.5,4.5-10,10-10h198.3
		C299.8,3610,304.3,3614.5,304.3,3620z"/>
	<rect x="179.3" y="2835.3" class="st1" width="37.4" height="89.8"/>
	<rect x="179.3" y="3087.3" class="st1" width="37.4" height="89.8"/>
	<rect x="179.3" y="3341.3" class="st1" width="37.4" height="89.8"/>
	<rect x="179.3" y="3595.9" class="st1" width="37.4" height="89.8"/>
	<g>
		<text transform="matrix(1 0 0 1 170.5462 2632)" class="st2 st3">Kotlin</text>
		<text transform="matrix(1 0 0 1 116.4332 2655)" class="st4 st3">We develop apps on </text>
		<text transform="matrix(1 0 0 1 111.5282 2678)" class="st4 st3">mobile with language </text>
		<text transform="matrix(1 0 0 1 114.5212 2701)" class="st4 st3">clarity, lucid  layout &amp; </text>
		<text transform="matrix(1 0 0 1 100.6302 2724)" class="st4 st3">power-packed functions </text>
		<text transform="matrix(1 0 0 1 163.3682 2747)" class="st4 st3">of Kotlin</text>
		<text transform="matrix(1 0 0 1 167.3427 2883)" class="st2 st3">Swift 4</text>
		<text transform="matrix(1 0 0 1 137.8297 2906)" class="st4 st3">Furnishing and </text>
		<text transform="matrix(1 0 0 1 117.4677 2929)" class="st4 st3">Delivering apps with  </text>
		<text transform="matrix(1 0 0 1 146.2677 2952)" class="st4 st3">source code </text>
		<text transform="matrix(1 0 0 1 102.1377 2975)" class="st4 st3">compatibility, sturdiness </text>
		<text transform="matrix(1 0 0 1 117.7227 2998)" class="st4 st3">and stability in apps</text>
		<text transform="matrix(1 0 0 1 159.1674 3155)" class="st2 st3">Xamarin</text>
		<text transform="matrix(1 0 0 1 112.2624 3178)" class="st4 st3">Single code base and </text>
		<text transform="matrix(1 0 0 1 99.1974 3201)" class="st4 st3">hybrid functions allowing </text>
		<text transform="matrix(1 0 0 1 114.2794 3224)" class="st4 st3">the building of native </text>
		<text transform="matrix(1 0 0 1 173.9654 3247)" class="st4 st3">apps</text>
		<text transform="matrix(1 0 0 1 143.9944 3409)" class="st2 st3">React Native</text>
		<text transform="matrix(1 0 0 1 100.7205 3432)" class="st4 st3">Integrating JavaScript to </text>
		<text transform="matrix(1 0 0 1 109.9374 3455)" class="st4 st3">create cross-platform </text>
		<text transform="matrix(1 0 0 1 101.1695 3478)" class="st4 st3">frames for native mobile </text>
		<text transform="matrix(1 0 0 1 173.9654 3501)" class="st4 st3">apps</text>
		<text transform="matrix(1 0 0 1 168.1677 3663)" class="st2 st3">Ionic 3</text>
		<text transform="matrix(1 0 0 1 106.5997 3686)" class="st4 st3">Utilizing cross-platform </text>
		<text transform="matrix(1 0 0 1 102.1297 3709)" class="st4 st3">capabilities and a single </text>
		<text transform="matrix(1 0 0 1 124.1357 3732)" class="st4 st3">code base for app </text>
		<text transform="matrix(1 0 0 1 142.6457 3755)" class="st4 st3">development</text>
	</g>
</g>
</svg>
