<svg xmlns="http://www.w3.org/2000/svg" width="83.814" height="83.814" viewBox="0 0 83.814 83.814">
    <path data-name="Rectangle 8866" d="M40.209 74h3v3h-3z"/>
    <path data-name="Path 25777" d="M25.789 27.401h6.447a1.612 1.612 0 0 0 1.612-1.612v-6.447a1.612 1.612 0 0 0-1.612-1.612h-6.447a1.612 1.612 0 0 0-1.612 1.612v6.447a1.612 1.612 0 0 0 1.612 1.612zm1.612-6.447h3.224v3.224h-3.224z"/>
    <path data-name="Path 25778" d="M38.684 27.401h6.447a1.612 1.612 0 0 0 1.612-1.612v-6.447a1.612 1.612 0 0 0-1.612-1.612h-6.447a1.612 1.612 0 0 0-1.612 1.612v6.447a1.612 1.612 0 0 0 1.612 1.612zm1.612-6.447h3.224v3.224h-3.224z"/>
    <path data-name="Path 25779" d="M33.848 38.683v-6.447a1.612 1.612 0 0 0-1.612-1.612h-6.447a1.612 1.612 0 0 0-1.612 1.612v6.447a1.612 1.612 0 0 0 1.612 1.612h6.447a1.612 1.612 0 0 0 1.612-1.612zm-3.224-1.612h-3.223v-3.223h3.224z"/>
    <path data-name="Path 25780" d="M38.684 40.295h6.447a1.612 1.612 0 0 0 1.612-1.612v-6.447a1.612 1.612 0 0 0-1.612-1.612h-6.447a1.612 1.612 0 0 0-1.612 1.612v6.447a1.612 1.612 0 0 0 1.612 1.612zm1.612-6.447h3.224v3.224h-3.224z"/>
    <path data-name="Path 25781" d="M38.684 53.19h6.447a1.612 1.612 0 0 0 1.612-1.612v-6.447a1.612 1.612 0 0 0-1.612-1.612h-6.447a1.612 1.612 0 0 0-1.612 1.612v6.447a1.612 1.612 0 0 0 1.612 1.612zm1.612-6.447h3.224v3.224h-3.224z"/>
    <path data-name="Path 25782" d="M51.578 53.19h6.447a1.612 1.612 0 0 0 1.612-1.612v-6.447a1.612 1.612 0 0 0-1.612-1.612h-6.447a1.612 1.612 0 0 0-1.612 1.612v6.447a1.612 1.612 0 0 0 1.612 1.612zm1.612-6.447h3.224v3.224H53.19z"/>
    <path data-name="Path 25783" d="M38.684 66.084h6.447a1.612 1.612 0 0 0 1.612-1.612v-6.447a1.612 1.612 0 0 0-1.612-1.612h-6.447a1.612 1.612 0 0 0-1.612 1.612v6.447a1.612 1.612 0 0 0 1.612 1.612zm1.612-6.447h3.224v3.224h-3.224z"/>
    <path data-name="Path 25784" d="M51.578 66.084h6.447a1.612 1.612 0 0 0 1.612-1.612v-6.447a1.612 1.612 0 0 0-1.612-1.612h-6.447a1.612 1.612 0 0 0-1.612 1.612v6.447a1.612 1.612 0 0 0 1.612 1.612zm1.612-6.447h3.224v3.224H53.19z"/>
    <path data-name="Rectangle 8867" d="M37.209 6h9v4h-9z"/>
    <path data-name="Path 25785" d="M62.013 33.608a1.612 1.612 0 0 0 1.568.071l12.895-6.449a1.612 1.612 0 0 0 0-2.885L63.581 17.9a1.612 1.612 0 0 0-2.332 1.442v12.895a1.612 1.612 0 0 0 .764 1.371zm2.46-11.658 7.676 3.839-7.676 3.841z"/>
    <path data-name="Path 25786" d="M0 45.131V70.92a1.612 1.612 0 0 0 1.612 1.612H17.73v4.835a6.447 6.447 0 0 0 6.447 6.447h35.46a6.447 6.447 0 0 0 6.447-6.447V40.3H82.2a1.612 1.612 0 0 0 1.612-1.612V12.894a1.612 1.612 0 0 0-1.612-1.611H66.084V6.447A6.447 6.447 0 0 0 59.637 0h-35.46a6.447 6.447 0 0 0-6.447 6.447v37.072H1.612A1.612 1.612 0 0 0 0 45.131zm80.59-8.059H56.413V25.789a1.612 1.612 0 0 0-.472-1.139l-2.084-2.084 2.084-2.084a1.612 1.612 0 0 0 .472-1.14v-4.836H80.59zM20.953 6.447a3.224 3.224 0 0 1 3.224-3.224h35.46a3.224 3.224 0 0 1 3.224 3.224v4.835H54.8a1.612 1.612 0 0 0-1.612 1.612v5.78l-2.751 2.751a1.612 1.612 0 0 0 0 2.279l2.751 2.751v12.228A1.612 1.612 0 0 0 54.8 40.3h8.06v37.067a3.224 3.224 0 0 1-3.224 3.224H24.177a3.224 3.224 0 0 1-3.224-3.224v-4.836h8.059a1.612 1.612 0 0 0 1.612-1.612V65.14l2.751-2.751a1.612 1.612 0 0 0 0-2.279l-2.751-2.751V45.131a1.612 1.612 0 0 0-1.612-1.612h-8.059zm-17.73 40.3H27.4v11.278a1.612 1.612 0 0 0 .472 1.139l2.084 2.084-2.084 2.084a1.612 1.612 0 0 0-.472 1.14v4.835H3.224z"/>
    <path data-name="Rectangle 8868" d="M6.209 50h4v4h-4z"/>
    <path data-name="Rectangle 8869" d="M13.209 50h11v4h-11z"/>
    <path data-name="Rectangle 8870" d="M6.209 57h18v2h-18z"/>
    <path data-name="Rectangle 8871" d="M6.209 62h18v4h-18z"/>
    <path data-name="Rectangle 8872" d="M11.209 13h3v26h-3z"/>
    <path data-name="Rectangle 8873" d="M69.209 45h4v23h-4z"/>
    <path data-name="Rectangle 8874" d="M69.209 70h4v4h-4z"/>
</svg>
