<svg xmlns="http://www.w3.org/2000/svg" width="73.111" height="73.111" viewBox="0 0 73.111 73.111">
    <g data-name="003---Mobile-Payment">
        <path d="M67.019 15.841H43.867V4.874A4.874 4.874 0 0 0 38.993 0H4.874A4.874 4.874 0 0 0 0 4.874v63.363a4.874 4.874 0 0 0 4.874 4.874h34.119a4.874 4.874 0 0 0 4.874-4.874V52.4h23.152a6.1 6.1 0 0 0 6.092-6.1V21.933a6.1 6.1 0 0 0-6.092-6.092zm3.656 6.093v14.622H36.556a1.219 1.219 0 0 0 0 2.437h34.118v4.874H21.933v-4.874h6.093a1.219 1.219 0 1 0 0-2.437h-6.093V21.933a3.656 3.656 0 0 1 3.656-3.656h41.43a3.656 3.656 0 0 1 3.655 3.656zM31.306 2.437 29.744 4.1a2.447 2.447 0 0 1-1.779.77H15.9a2.437 2.437 0 0 1-1.778-.77l-1.56-1.663zm7.686 68.237H4.874a2.437 2.437 0 0 1-2.437-2.437v-1.9a4.824 4.824 0 0 0 2.437.677h34.119a4.824 4.824 0 0 0 2.437-.677v1.9a2.437 2.437 0 0 1-2.437 2.437zm2.437-8.53a2.437 2.437 0 0 1-2.437 2.437H4.874a2.437 2.437 0 0 1-2.437-2.437V4.874a2.437 2.437 0 0 1 2.437-2.437h4.347l3.125 3.333A4.887 4.887 0 0 0 15.9 7.311h12.065a4.9 4.9 0 0 0 3.557-1.54l3.124-3.334h4.346a2.437 2.437 0 0 1 2.438 2.437v10.967H25.589a6.1 6.1 0 0 0-6.089 6.092v2.437h-3.659a1.219 1.219 0 1 0 0 2.437H19.5V32.9h-6.1a1.219 1.219 0 1 0 0 2.437h6.1v6.093h-3.659a1.219 1.219 0 1 0 0 2.437H19.5V46.3a6.1 6.1 0 0 0 6.089 6.1H41.43zm25.59-12.185h-41.43a3.656 3.656 0 0 1-3.656-3.659h48.741a3.656 3.656 0 0 1-3.655 3.659z"/>
        <path data-name="Shape" d="M9.749 26.807h1.218a1.219 1.219 0 1 0 0-2.437H9.749a1.219 1.219 0 1 0 0 2.437zM10.967 41.43H9.749a1.219 1.219 0 1 0 0 2.437h1.218a1.219 1.219 0 1 0 0-2.437zM9.748 34.119A1.219 1.219 0 0 0 8.53 32.9H6.093a1.219 1.219 0 1 0 0 2.437H8.53a1.219 1.219 0 0 0 1.218-1.218zM59.707 28.026a3.632 3.632 0 0 0 2.437-.95 3.656 3.656 0 1 0 0-5.41 3.656 3.656 0 1 0-2.437 6.361zm4.874-4.874a1.219 1.219 0 1 1-1.219 1.219 1.219 1.219 0 0 1 1.22-1.219zm-4.874 0a1.219 1.219 0 1 1-1.219 1.219 1.219 1.219 0 0 1 1.219-1.219zM26.808 28.026h1.219a1.219 1.219 0 1 0 0-2.437h-1.219a1.219 1.219 0 1 0 0 2.437zM32.9 28.026h3.656a1.219 1.219 0 1 0 0-2.437H32.9a1.219 1.219 0 1 0 0 2.437zM40.211 30.463h-13.4a1.219 1.219 0 0 0 0 2.437h13.4a1.219 1.219 0 0 0 0-2.437z"/>
    </g>
</svg>
