<svg xmlns="http://www.w3.org/2000/svg" width="79.928" height="79.83" viewBox="0 0 79.928 79.83">
    <g data-name="Group 45786">
        <path data-name="Path 54639" d="M16.06 86.2a6.227 6.227 0 1 0 6.227-6.2 6.211 6.211 0 0 0-6.227 6.2z" transform="translate(-10.825 -54.956)" style="fill:none;stroke:#1c1c1c;stroke-linecap:round;stroke-linejoin:round;stroke-width:3px"/>
        <path data-name="Path 54640" d="M21.529 134.778a3.708 3.708 0 0 0 2.4-3.473v-1.391c0-7.435-4.565-9.914-8.966-9.914h-1.996C8.565 120 4 122.478 4 129.914v1.386a3.708 3.708 0 0 0 2.4 3.473 21.434 21.434 0 0 0 7.566 1.331 21.433 21.433 0 0 0 7.563-1.326z" transform="translate(-2.5 -82.564)" style="fill:none;stroke:#1c1c1c;stroke-linecap:round;stroke-linejoin:round;stroke-width:3px"/>
        <path data-name="Path 54641" d="M108.379 166.2a6.227 6.227 0 1 0 6.227-6.2 6.211 6.211 0 0 0-6.227 6.2z" transform="translate(-74.543 -110.172)" style="fill:none;stroke:#1c1c1c;stroke-linecap:round;stroke-linejoin:round;stroke-width:3px"/>
        <path data-name="Path 54642" d="M113.848 214.778a3.708 3.708 0 0 0 2.4-3.473v-1.391c0-7.435-4.565-9.914-8.966-9.914h-1.993c-4.4 0-8.966 2.478-8.966 9.914v1.386a3.708 3.708 0 0 0 2.4 3.473 22.161 22.161 0 0 0 15.132 0z" transform="translate(-66.219 -137.78)" style="fill:none;stroke:#1c1c1c;stroke-linecap:round;stroke-linejoin:round;stroke-width:3px"/>
        <path data-name="Path 54643" d="M108.379 10.2a6.227 6.227 0 1 0 6.227-6.2 6.211 6.211 0 0 0-6.227 6.2z" transform="translate(-74.543 -2.5)" style="fill:none;stroke:#1c1c1c;stroke-linecap:round;stroke-linejoin:round;stroke-width:3px"/>
        <path data-name="Path 54644" d="M113.848 58.778a3.708 3.708 0 0 0 2.4-3.473v-1.391c0-7.435-4.565-9.914-8.966-9.914h-1.993c-4.4 0-8.966 2.478-8.966 9.914V55.3a3.708 3.708 0 0 0 2.4 3.473 22.161 22.161 0 0 0 15.132 0z" transform="translate(-66.219 -30.108)" style="fill:none;stroke:#1c1c1c;stroke-linecap:round;stroke-linejoin:round;stroke-width:3px"/>
        <path data-name="Path 54645" d="M200.06 86.2a6.227 6.227 0 1 0 6.227-6.2 6.211 6.211 0 0 0-6.227 6.2z" transform="translate(-137.821 -54.956)" style="fill:none;stroke:#1c1c1c;stroke-linecap:round;stroke-linejoin:round;stroke-width:3px"/>
        <path data-name="Path 54646" d="M205.529 134.778a3.708 3.708 0 0 0 2.4-3.473v-1.391c0-7.435-4.565-9.914-8.966-9.914h-1.993c-4.4 0-8.966 2.478-8.966 9.914v1.386a3.708 3.708 0 0 0 2.4 3.473 22.161 22.161 0 0 0 15.132 0z" transform="translate(-129.498 -82.564)" style="fill:none;stroke:#1c1c1c;stroke-linecap:round;stroke-linejoin:round;stroke-width:3px"/>
        <path data-name="Path 54647" d="M186.74 190.438a31.743 31.743 0 0 1-10.653 9.2" transform="translate(-121.275 -131.18)" style="fill:none;stroke:#1c1c1c;stroke-linecap:round;stroke-linejoin:round;stroke-width:3px"/>
        <path data-name="Path 54648" d="M49.334 44.619a31.671 31.671 0 0 1 12.766-9.36" transform="translate(-33.79 -24.076)" style="fill:none;stroke:#1c1c1c;stroke-linecap:round;stroke-linejoin:round;stroke-width:3px"/>
        <path data-name="Path 54649" d="M56.815 199.635a31.743 31.743 0 0 1-10.653-9.2" transform="translate(-31.601 -131.18)" style="fill:none;stroke:#1c1c1c;stroke-linecap:round;stroke-linejoin:round;stroke-width:3px"/>
        <path data-name="Path 54650" d="M166.1 35.259a31.668 31.668 0 0 1 12.764 9.36" transform="translate(-114.384 -24.076)" style="fill:none;stroke:#1c1c1c;stroke-linecap:round;stroke-linejoin:round;stroke-width:3px"/>
    </g>
</svg>
