<svg xmlns="http://www.w3.org/2000/svg" xmlns:xlink="http://www.w3.org/1999/xlink" width="255" height="255" viewBox="0 0 255 255">
  <defs>
    <linearGradient id="linear-gradient" x1="1.396" y1="-0.381" x2="-0.054" y2="1.049" gradientUnits="objectBoundingBox">
      <stop offset="0" stop-color="#e32a40"/>
      <stop offset="0.241" stop-color="#00c4ff"/>
      <stop offset="0.468" stop-color="#d5aaff"/>
      <stop offset="0.744" stop-color="#dd3448"/>
      <stop offset="1" stop-color="#ffe200"/>
    </linearGradient>
    <clipPath id="clip-path">
      <rect id="Rectangle_9687" data-name="Rectangle 9687" width="96.038" height="96" fill="none"/>
    </clipPath>
  </defs>
  <g id="Group_45544" data-name="Group 45544" transform="translate(-970.5 -1504.5)">
    <g id="Group_45335" data-name="Group 45335">
      <path id="Union_13" data-name="Union 13" d="M-1928-9229h216a19,19,0,0,1,19,19v216a19,19,0,0,1-19,19h-216a19,19,0,0,1-19-19v-216A19,19,0,0,1-1928-9229Z" transform="translate(2918 10734)" stroke="rgba(0,0,0,0)" stroke-width="1" fill="url(#linear-gradient)"/>
      <rect id="Rectangle_8909" data-name="Rectangle 8909" width="224" height="224" rx="10" transform="translate(986 1520)" fill="#fff" stroke="rgba(0,0,0,0)" stroke-width="1"/>
    </g>
    <text id="Personalize_Marketing" data-name="Personalize
Marketing" transform="translate(1098 1690)" font-size="18" font-family="Poppins-Bold, Poppins" font-weight="700"><tspan x="-53.172" y="0">Personalize</tspan><tspan x="-47.754" y="27">Marketing</tspan></text>
    <g id="Group_45363" data-name="Group 45363" transform="translate(1050 1549)">
      <g id="Group_45362" data-name="Group 45362" transform="translate(0 0)" clip-path="url(#clip-path)">
        <path id="Path_54293" data-name="Path 54293" d="M95.628,73.286,88.1,58.168V2a2,2,0,0,0-2-2H9.879a2,2,0,0,0-2,2V58.169L.138,73.811a2.01,2.01,0,0,0-.123.607L0,80.078A7.8,7.8,0,0,0,7.66,88H47.491v2a6.007,6.007,0,0,0,6,6h24a6.007,6.007,0,0,0,6-6V88h4.825A7.811,7.811,0,0,0,96,80.078l.04-5.58a1.986,1.986,0,0,0-.41-1.213m-8.569-8.233L90.767,72.5H87.059Zm-75.94-4.414H25.429L37.275,72.5H5.226ZM7.66,84A3.8,3.8,0,0,1,4,80.078V76.5H41.271L44.3,79.533a1.817,1.817,0,0,0,.178.158A10.655,10.655,0,0,1,47.131,84Zm75.4-11.027a12.849,12.849,0,0,1-1.453,5.3,16.872,16.872,0,0,0-1.827,5.541l-.014.074A34.133,34.133,0,0,0,79.493,90a2,2,0,0,1-2,2h-24a2,2,0,0,1-2-2l-.04-4.518a.262.262,0,0,1,0-.026,13.863,13.863,0,0,0-4.312-8.936L27.426,56.809a3.106,3.106,0,0,1,.25-4.732c1.522-1.08,3-.725,4.465.435L42.154,62.526a1.973,1.973,0,0,0,3.414-1.414V28.093a3.223,3.223,0,0,1,3.351-3.179h.01a3.519,3.519,0,0,1,3.011,3.473V52.093a2,2,0,1,0,4,0,3.186,3.186,0,0,1,6.373,0,2,2,0,1,0,4,0,3.186,3.186,0,0,1,6.373,0,2,2,0,1,0,4,0,3.223,3.223,0,0,1,3.352-3.179h.009a3.518,3.518,0,0,1,3.011,3.473ZM79.871,44.907a7.167,7.167,0,0,0-5.186,2.217,7.174,7.174,0,0,0-10.373,0,7.172,7.172,0,0,0-8.372-1.471v-15.2L58.5,23.159h-2.62l-.707,2.024a7.312,7.312,0,0,0-6.035-4.266l-.382-.009a7.172,7.172,0,0,0-7.129,6.619L40.1,23.159h-2.62l4.09,11.665v21.46l-6.6-6.6a7.567,7.567,0,0,0-9.825-.7A7.214,7.214,0,0,0,22.5,54.2a7.123,7.123,0,0,0,.337,2.443H11.879V4H84.1V46.413a6.765,6.765,0,0,0-4.227-1.506M92,80.078A3.809,3.809,0,0,1,88.318,84H83.806a12.513,12.513,0,0,1,1.306-3.619A16.817,16.817,0,0,0,86.6,76.5H92Z" transform="translate(0 0)"/>
        <path id="Path_54294" data-name="Path 54294" d="M32.393,35.794l-3.2-10.3H27.013l-3.2,10.3-3.6-10.3h-2.6l5,14.319h2.4l3.02-9.82h.161l3.02,9.82h2.4l5-14.319h-2.6Z" transform="translate(-1.613 -2.335)"/>
        <path id="Path_54295" data-name="Path 54295" d="M79.724,35.794l-3.2-10.3H74.345l-3.2,10.3-3.6-10.3h-2.62l5.02,14.319h2.4l3-9.82h.16l3.02,9.82h2.4l5.02-14.319h-2.62Z" transform="translate(-5.946 -2.335)"/>
      </g>
    </g>
  </g>
</svg>
