<svg data-name="Group 45375" xmlns="http://www.w3.org/2000/svg" width="74.017" height="91.754" viewBox="0 0 74.017 91.754">
    <defs>
        <clipPath id="j7odyh1mfa">
            <path data-name="Rectangle 9692" style="stroke:#707070;fill:none;stroke-width:3px" d="M0 0h74.017v91.754H0z"/>
        </clipPath>
    </defs>
    <g data-name="Group 45374" style="clip-path:url(#j7odyh1mfa)">
        <path data-name="Path 54308" d="m60.467 9.541-2.752 3.269m-17.923 60.3h6.564q3.526-.031 4.071-2.764a39.666 39.666 0 0 1 1.241-4.807 58.188 58.188 0 0 1 2.6-6.073q1.9-3.99 4.536-8.863l.219-.336q.119-.2.233-.412a23.688 23.688 0 0 0 2.65-7.018 26.959 26.959 0 0 0 .542-5.387v-.118a24.618 24.618 0 0 0-7.481-18.076 28.047 28.047 0 0 0-2.8-2.468A24.493 24.493 0 0 0 36.9 11.763a24.488 24.488 0 0 0-15.26 5.026 28.172 28.172 0 0 0-2.8 2.468 24.617 24.617 0 0 0-7.481 18.076v.118a26.958 26.958 0 0 0 .543 5.387 23.714 23.714 0 0 0 2.648 7.018q.115.208.233.412L15 50.6q2.635 4.874 4.535 8.863a57.96 57.96 0 0 1 2.6 6.073 39.847 39.847 0 0 1 1.242 4.807q.543 2.732 4.07 2.764H34m13.6-34.699a7.19 7.19 0 0 1 6.552 5.169 5.853 5.853 0 0 0 1.356-1.022 5.723 5.723 0 0 0 0-8.1 5.669 5.669 0 0 0-1.59-1.137 7.274 7.274 0 0 0 .492-2.688 7.144 7.144 0 0 0-7.146-7.144h-.078A5.2 5.2 0 0 0 36.9 24.518v2.7A6.951 6.951 0 0 0 39 32.1a6.832 6.832 0 0 0 4.354 2.056m6.216-.608a6.914 6.914 0 0 0-2.093-4.988 6.84 6.84 0 0 0-4.355-2.054m-.814 13.58a7.138 7.138 0 0 0 6.448 7.042m-8.3 2.469h-3.545v2.868a4.18 4.18 0 0 0 8.36 0v-.039a7.3 7.3 0 0 0 1.99.258 7.124 7.124 0 0 0 7.146-7.145 7.35 7.35 0 0 0-.258-1.963m18.8-12.392-4.213.735M68.608 55.8 64.9 53.656M26.818 78.98v5.776l5.932 5.931h8.308L47 84.755V78.98M36.975 1v4.265M36.9 24.518a5.189 5.189 0 0 0-8.865-3.606 5.042 5.042 0 0 0-1.421 2.572h-.078a7.142 7.142 0 0 0-7.145 7.144 7.273 7.273 0 0 0 .491 2.688 5.669 5.669 0 0 0-1.59 1.137 5.723 5.723 0 0 0 0 8.1 5.837 5.837 0 0 0 1.357 1.022 7.187 7.187 0 0 1 6.551-5.167M13.483 9.541l2.753 3.269M1 31.185l4.213.735m14.434 11.656a7.308 7.308 0 0 0-.258 1.963 7.123 7.123 0 0 0 7.145 7.145 7.3 7.3 0 0 0 1.99-.258v.039a4.175 4.175 0 0 0 7.133 2.945 4.012 4.012 0 0 0 1.228-2.945V49.6h-3.554m3.554 0 .015-22.383a6.946 6.946 0 0 1-2.109 4.883 6.83 6.83 0 0 1-4.354 2.056m-6.215-.608a6.906 6.906 0 0 1 2.093-4.988 6.837 6.837 0 0 1 4.354-2.054m.815 13.58a6.918 6.918 0 0 1-2.093 4.988 6.845 6.845 0 0 1-4.355 2.054M5.342 55.8l3.709-2.143M34.08 80.1l5.82-1.663m-5.82 6.577 5.82-1.667" transform="translate(.034 .034)" style="stroke:#231f20;stroke-linecap:round;stroke-linejoin:round;fill:none;stroke-width:3px"/>
    </g>
</svg>
