<svg xmlns="http://www.w3.org/2000/svg" xmlns:xlink="http://www.w3.org/1999/xlink" width="255" height="255" viewBox="0 0 255 255">
  <defs>
    <linearGradient id="linear-gradient" x1="1.396" y1="-0.381" x2="-0.054" y2="1.049" gradientUnits="objectBoundingBox">
      <stop offset="0" stop-color="#e32a40"/>
      <stop offset="0.241" stop-color="#00c4ff"/>
      <stop offset="0.468" stop-color="#d5aaff"/>
      <stop offset="0.744" stop-color="#dd3448"/>
      <stop offset="1" stop-color="#ffe200"/>
    </linearGradient>
    <clipPath id="clip-path">
      <rect id="Rectangle_9692" data-name="Rectangle 9692" width="82.087" height="101.758" fill="none" stroke="#707070" stroke-width="4"/>
    </clipPath>
  </defs>
  <g id="Group_45538" data-name="Group 45538" transform="translate(-554.5 -1474.5)">
    <g id="Group_45334" data-name="Group 45334" transform="translate(-139 -30)">
      <path id="Union_11" data-name="Union 11" d="M-1928-9229h216a19,19,0,0,1,19,19v216a19,19,0,0,1-19,19h-216a19,19,0,0,1-19-19v-216A19,19,0,0,1-1928-9229Z" transform="translate(2641 10734)" stroke="rgba(0,0,0,0)" stroke-width="1" fill="url(#linear-gradient)"/>
      <rect id="Rectangle_8905" data-name="Rectangle 8905" width="224" height="224" rx="10" transform="translate(709 1520)" fill="#fff" stroke="rgba(0,0,0,0)" stroke-width="1"/>
    </g>
    <text id="Predictive_Analysis" data-name="Predictive 
Analysis" transform="translate(682 1654)" font-size="18" font-family="Poppins-Bold, Poppins" font-weight="700"><tspan x="-48.654" y="0">Predictive </tspan><tspan x="-39.654" y="27">Analysis</tspan></text>
    <g id="Group_45375" data-name="Group 45375" transform="translate(640.957 1513.242)">
      <g id="Group_45374" data-name="Group 45374" transform="translate(0 0)" clip-path="url(#clip-path)">
        <path id="Path_54308" data-name="Path 54308" d="M66.95,10.472,63.9,14.1M44.021,80.975H51.3q3.911-.034,4.515-3.066a43.989,43.989,0,0,1,1.376-5.331,64.531,64.531,0,0,1,2.88-6.735q2.108-4.425,5.031-9.83l.243-.373q.132-.227.258-.457A26.271,26.271,0,0,0,68.542,47.4a29.9,29.9,0,0,0,.6-5.974v-.131a27.3,27.3,0,0,0-8.3-20.047,31.1,31.1,0,0,0-3.109-2.737,27.163,27.163,0,0,0-16.925-5.574,27.158,27.158,0,0,0-16.924,5.574,31.244,31.244,0,0,0-3.11,2.737,27.3,27.3,0,0,0-8.3,20.047v.131a29.9,29.9,0,0,0,.6,5.974,26.3,26.3,0,0,0,2.937,7.783q.127.23.258.457l.244.373q2.922,5.405,5.03,9.83a64.279,64.279,0,0,1,2.88,6.735,44.191,44.191,0,0,1,1.377,5.331q.6,3.03,4.514,3.066H37.6M52.677,42.486a7.974,7.974,0,0,1,7.266,5.732,6.492,6.492,0,0,0,1.5-1.134,6.347,6.347,0,0,0,0-8.984,6.287,6.287,0,0,0-1.763-1.261,8.067,8.067,0,0,0,.546-2.981A7.922,7.922,0,0,0,52.3,25.935h-.086a5.77,5.77,0,0,0-11.407,1.146v2.993a7.709,7.709,0,0,0,2.336,5.416,7.577,7.577,0,0,0,4.829,2.28M54.87,37.1a7.668,7.668,0,0,0-2.322-5.532,7.585,7.585,0,0,0-4.83-2.278m-.9,15.061a7.916,7.916,0,0,0,7.151,7.81m-9.2,2.738h-3.94v3.18a4.636,4.636,0,0,0,9.271,0v-.044a8.1,8.1,0,0,0,2.207.287A7.9,7.9,0,0,0,60.23,50.4a8.151,8.151,0,0,0-.287-2.177M80.794,34.476l-4.672.815m-.143,26.482L71.865,59.4M29.633,87.481v6.405l6.578,6.577h9.214l6.592-6.577V87.481M40.9,1V5.73m-.086,21.352a5.755,5.755,0,0,0-9.831-4A5.592,5.592,0,0,0,29.4,25.935h-.086a7.921,7.921,0,0,0-7.924,7.923,8.066,8.066,0,0,0,.545,2.981A6.287,6.287,0,0,0,20.175,38.1a6.347,6.347,0,0,0,0,8.984,6.473,6.473,0,0,0,1.505,1.134,7.97,7.97,0,0,1,7.265-5.732m-14.1-32.014L17.9,14.1M1,34.476l4.672.815M21.68,48.218a8.105,8.105,0,0,0-.287,2.177,7.9,7.9,0,0,0,7.924,7.924,8.093,8.093,0,0,0,2.207-.287v.044a4.631,4.631,0,0,0,7.911,3.266A4.45,4.45,0,0,0,40.8,58.077V54.9H36.856m3.942,0,.014-24.821a7.7,7.7,0,0,1-2.336,5.416,7.574,7.574,0,0,1-4.829,2.28M26.753,37.1a7.659,7.659,0,0,1,2.322-5.532A7.582,7.582,0,0,1,33.9,29.288m.9,15.061a7.672,7.672,0,0,1-2.322,5.532,7.591,7.591,0,0,1-4.83,2.278M5.815,61.773,9.929,59.4M37.687,88.729l6.449-1.849m-6.449,7.294,6.449-1.848" transform="translate(0.146 0.147)" fill="none" stroke="#231f20" stroke-linecap="round" stroke-linejoin="round" stroke-width="4"/>
      </g>
    </g>
  </g>
</svg>
