<svg xmlns="http://www.w3.org/2000/svg" width="334" height="334" viewBox="0 0 334 334">
    <g data-name="Group 45815" transform="translate(-738 -903)">
        <rect data-name="Rectangle 9852" width="334" height="334" rx="167" transform="translate(738 903)" style="fill:#1b3a8f"/>
        <g data-name="Group 260" transform="translate(777 1027.513)">
            <circle data-name="Ellipse 14" cx="42.487" cy="42.487" r="42.487" style="fill:#fff"/>
            <text transform="translate(100.336 56.141)" style="font-size:35px;font-family:STHeitiSC-Light,Heiti SC;font-weight:300;fill:#fff"><tspan x="0" y="0">Raplex.io</tspan></text>
            <g data-name="Group 259">
                <path data-name="Path 344" d="M326.7 235.668v-.174a11.33 11.33 0 0 0-11.318-11.318h-22.225v14.038l.891.891 24.928 24.928h5.824l.019-.018-17.031-17.031h7.59a11.33 11.33 0 0 0 11.322-11.316zm-29.4-7.344h18.074a7.179 7.179 0 0 1 7.171 7.171v.174a7.179 7.179 0 0 1-7.171 7.171h-11.728l-6.346-6.34z" transform="translate(-266.552 -202.153)" style="fill:#1b3a8f"/>
                <path data-name="Path 345" d="m293.157 265.729 15.308 15.308h5.865l-21.173-21.173z" transform="translate(-266.552 -219.155)" style="fill:#1b3a8f"/>
                <path data-name="Path 346" d="M293.157 280.253v10.5h10.5z" transform="translate(-266.552 -228.868)" style="fill:#1b3a8f"/>
            </g>
        </g>
    </g>
</svg>
