<svg xmlns="http://www.w3.org/2000/svg" width="95.443" height="94.984" viewBox="0 0 95.443 94.984">
    <g data-name="Group 45820">
        <path data-name="Path 54689" d="M113.619 106.151a13.388 13.388 0 0 1 0 19 13.55 13.55 0 0 1-19.095 0 13.388 13.388 0 0 1 0-19 13.531 13.531 0 0 1 12.985-3.48" transform="translate(-57.566 -66.949)" style="fill:none;stroke:#1c1c1c;stroke-linecap:round;stroke-linejoin:round;stroke-width:3px"/>
        <path data-name="Path 54690" d="M103.225 73.651a29.008 29.008 0 0 1 0 41.167 29.357 29.357 0 0 1-41.372 0 29.007 29.007 0 0 1 0-41.166 29.353 29.353 0 0 1 35.985-4.2" transform="translate(-36.033 -45.533)" style="fill:none;stroke:#1c1c1c;stroke-linecap:round;stroke-linejoin:round;stroke-width:3px"/>
        <path data-name="Path 54691" d="M80.137 32.243a45.188 45.188 0 0 0-50.955 8.878 44.626 44.626 0 0 0 0 63.333 45.166 45.166 0 0 0 63.648 0 44.623 44.623 0 0 0 5.431-56.788" transform="translate(-14.5 -24.087)" style="fill:none;stroke:#1c1c1c;stroke-linecap:round;stroke-linejoin:round;stroke-width:3px"/>
        <path data-name="Line 521" transform="translate(69.924 23.966)" style="fill:none;stroke:#1c1c1c;stroke-linecap:round;stroke-linejoin:round;stroke-width:3px" d="M0 1.434 1.441 0"/>
        <path data-name="Line 522" transform="translate(56.053 28.118)" style="fill:none;stroke:#1c1c1c;stroke-linecap:round;stroke-linejoin:round;stroke-width:3px" d="M11.139 0 0 11.083"/>
        <path data-name="Line 523" transform="translate(45.906 39.201)" style="fill:none;stroke:#1c1c1c;stroke-linecap:round;stroke-linejoin:round;stroke-width:3px" d="M10.148 0 0 10.097"/>
        <path data-name="Line 524" transform="translate(71.365 19.425)" style="fill:none;stroke:#1c1c1c;stroke-linecap:round;stroke-linejoin:round;stroke-width:3px" d="M0 4.541 4.564 0"/>
        <path data-name="Line 525" transform="translate(67.192 25.4)" style="fill:none;stroke:#1c1c1c;stroke-linecap:round;stroke-linejoin:round;stroke-width:3px" d="M0 2.718 2.732 0"/>
        <path data-name="Line 526" transform="translate(69.744 23.786)" style="fill:none;stroke:#1c1c1c;stroke-linecap:round;stroke-linejoin:round;stroke-width:3px" d="m0 0 .18 1.613"/>
        <path data-name="Line 527" transform="translate(81.933 11.06)" style="fill:none;stroke:#1c1c1c;stroke-linecap:round;stroke-linejoin:round;stroke-width:3px" d="M0 2.39V0"/>
        <path data-name="Path 54692" d="m189.327 29.447 7.205-7.17v9.56" transform="translate(-114.6 -20.777)" style="fill:none;stroke:#1c1c1c;stroke-linecap:round;stroke-linejoin:round;stroke-width:3px"/>
        <path data-name="Line 528" transform="translate(71.753 8.67)" style="fill:none;stroke:#1c1c1c;stroke-linecap:round;stroke-linejoin:round;stroke-width:3px" d="M0 2.96 2.975 0"/>
        <path data-name="Path 54693" d="m178.144 46.255-3.029 3.014 1.021 9.141" transform="translate(-106.392 -34.625)" style="fill:none;stroke:#1c1c1c;stroke-linecap:round;stroke-linejoin:round;stroke-width:3px"/>
        <path data-name="Path 54694" d="m177.957 76.359 10.808 1.195 3.029-3.014" transform="translate(-108.033 -50.959)" style="fill:none;stroke:#1c1c1c;stroke-linecap:round;stroke-linejoin:round;stroke-width:3px"/>
        <path data-name="Line 529" transform="translate(81.933 13.45)" style="fill:none;stroke:#1c1c1c;stroke-linecap:round;stroke-linejoin:round;stroke-width:3px" d="M2.402 0H0"/>
        <path data-name="Path 54695" d="m210.71 60.692 10.181-10.13h-9.608" transform="translate(-126.948 -37.112)" style="fill:none;stroke:#1c1c1c;stroke-linecap:round;stroke-linejoin:round;stroke-width:3px"/>
        <path data-name="Line 530" transform="translate(69.744 23.786)" style="fill:none;stroke:#1c1c1c;stroke-linecap:round;stroke-linejoin:round;stroke-width:3px" d="m0 0 1.621.179"/>
    </g>
</svg>
