<svg xmlns="http://www.w3.org/2000/svg" width="80.035" height="84.985" viewBox="0 0 80.035 84.985">
    <g data-name="Group 45784" transform="translate(-1633.826 -1686.854)">
        <path data-name="Path 54665" d="M106.337 24.9a10.145 10.145 0 0 0-10.4 9.867c-.066 2.862 1.121 4.936 2.712 7.069 1.4 1.871 2.417 2.063 2.988 4.861" transform="translate(1567.353 1670.334)" style="fill:none;stroke:#1c1c1c;stroke-linecap:round;stroke-linejoin:round;stroke-width:3px"/>
        <path data-name="Path 54666" d="M127.534 24.9a10.145 10.145 0 0 1 10.4 9.867c.066 2.862-1.121 4.936-2.712 7.069-1.4 1.871-2.625 2.063-3.2 4.86" transform="translate(1546.156 1670.334)" style="fill:none;stroke:#1c1c1c;stroke-linecap:round;stroke-linejoin:round;stroke-width:3px"/>
        <path data-name="Path 54667" d="M122.757 91.1h-9.05" transform="translate(1555.429 1625.939)" style="fill:none;stroke:#1c1c1c;stroke-linecap:round;stroke-linejoin:round;stroke-width:3px"/>
        <path data-name="Path 54668" d="M127.534 97.98h2.413l2.083-3.442V91.1" transform="translate(1546.156 1625.939)" style="fill:none;stroke:#1c1c1c;stroke-linecap:round;stroke-linejoin:round;stroke-width:3px"/>
        <path data-name="Path 54669" d="M137.26 41.372a5.444 5.444 0 0 1 2.72 3.651" transform="translate(1539.632 1659.289)" style="fill:none;stroke:#1c1c1c;stroke-linecap:round;stroke-linejoin:round;stroke-width:3px"/>
        <path data-name="Path 54670" d="M113.249 91.1v3.442l2.291 3.442h2.309" transform="translate(1555.737 1625.939)" style="fill:none;stroke:#1c1c1c;stroke-linecap:round;stroke-linejoin:round;stroke-width:3px"/>
        <path data-name="Line 495" transform="translate(1673.585 1688.354)" style="fill:none;stroke:#1c1c1c;stroke-linecap:round;stroke-linejoin:round;stroke-width:3px" d="M0 0v2.295"/>
        <path data-name="Line 496" transform="translate(1661.387 1693.395)" style="fill:none;stroke:#1c1c1c;stroke-linecap:round;stroke-linejoin:round;stroke-width:3px" d="m0 0 1.626 1.622"/>
        <path data-name="Line 497" transform="translate(1656.334 1705.563)" style="fill:none;stroke:#1c1c1c;stroke-linecap:round;stroke-linejoin:round;stroke-width:3px" d="M0 0h2.3"/>
        <path data-name="Line 498" transform="translate(1661.387 1716.109)" style="fill:none;stroke:#1c1c1c;stroke-linecap:round;stroke-linejoin:round;stroke-width:3px" d="M0 1.622 1.626 0"/>
        <path data-name="Line 499" transform="translate(1684.158 1716.109)" style="fill:none;stroke:#1c1c1c;stroke-linecap:round;stroke-linejoin:round;stroke-width:3px" d="M1.626 1.622 0 0"/>
        <path data-name="Line 500" transform="translate(1688.537 1705.563)" style="fill:none;stroke:#1c1c1c;stroke-linecap:round;stroke-linejoin:round;stroke-width:3px" d="M2.3 0H0"/>
        <path data-name="Line 501" transform="translate(1684.158 1693.395)" style="fill:none;stroke:#1c1c1c;stroke-linecap:round;stroke-linejoin:round;stroke-width:3px" d="M1.626 0 0 1.622"/>
        <circle data-name="Ellipse 774" cx="6.506" cy="6.506" r="6.506" transform="translate(1644.705 1732.108)" style="fill:none;stroke:#1c1c1c;stroke-linecap:round;stroke-linejoin:round;stroke-width:3px"/>
        <path data-name="Path 54671" d="m25.172 185.22 2.659 7.09a5.313 5.313 0 0 0 4.975 3.447h9.326a2.8 2.8 0 0 0 .347-5.575l-7.2-.9a1.306 1.306 0 0 1-1.106-.957 45.488 45.488 0 0 0-2.413-7.057c-1.319-2.634-2.636-5.268-7.247-5.268-5.927 0-7.245 3.952-8.562 9.22L12 201.027" transform="translate(1623.645 1568.994)" style="fill:none;stroke:#1c1c1c;stroke-linecap:round;stroke-linejoin:round;stroke-width:3px"/>
        <path data-name="Line 502" transform="translate(1650.14 1762.117)" style="fill:none;stroke:#1c1c1c;stroke-linecap:round;stroke-linejoin:round;stroke-width:3px" d="M1.311 0 0 7.903"/>
        <path data-name="Line 503" transform="translate(1695.935 1762.117)" style="fill:none;stroke:#1c1c1c;stroke-linecap:round;stroke-linejoin:round;stroke-width:3px" d="m0 0 1.618 7.903"/>
        <path data-name="Line 504" transform="translate(1660.971 1764.639)" style="fill:none;stroke:#1c1c1c;stroke-linecap:round;stroke-linejoin:round;stroke-width:3px" d="M0 0h13.013"/>
        <ellipse data-name="Ellipse 775" cx="7.048" cy="6.506" rx="7.048" ry="6.506" transform="translate(1689.164 1732.108)" style="fill:none;stroke:#1c1c1c;stroke-linecap:round;stroke-linejoin:round;stroke-width:3px"/>
        <ellipse data-name="Ellipse 776" cx="7.048" cy="6.506" rx="7.048" ry="6.506" transform="translate(1666.392 1732.108)" style="fill:none;stroke:#1c1c1c;stroke-linecap:round;stroke-linejoin:round;stroke-width:3px"/>
        <path data-name="Path 54672" d="m163.758 185.22-2.659 7.09a5.313 5.313 0 0 1-4.975 3.447H146.8a2.8 2.8 0 0 1-.347-5.575l7.2-.9a1.306 1.306 0 0 0 1.106-.957 45.49 45.49 0 0 1 2.413-7.057c1.317-2.634 2.634-5.269 7.245-5.269 5.927 0 7.245 3.952 8.562 9.22l3.952 15.806" transform="translate(1535.112 1568.994)" style="fill:none;stroke:#1c1c1c;stroke-linecap:round;stroke-linejoin:round;stroke-width:3px"/>
        <path data-name="Line 505" transform="translate(1673.983 1764.639)" style="fill:none;stroke:#1c1c1c;stroke-linecap:round;stroke-linejoin:round;stroke-width:3px" d="M13.013 0H0"/>
        <path data-name="Path 54673" d="M96 189.172v-3.952c0-5.092 4.718-9.22 10.538-9.22s10.538 4.128 10.538 9.22v3.952" transform="translate(1567.305 1568.994)" style="fill:none;stroke:#1c1c1c;stroke-linecap:round;stroke-linejoin:round;stroke-width:3px"/>
    </g>
</svg>
