<svg xmlns="http://www.w3.org/2000/svg" width="84.814" height="84.814" viewBox="0 0 84.814 84.814">
    <path data-name="Path 25768" d="M117.534 92.455h38.4a6.3 6.3 0 0 1 6.278 6.3v16.788a1.228 1.228 0 1 0 2.455 0V98.758A8.755 8.755 0 0 0 155.93 90h-38.4a1.228 1.228 0 1 0 0 2.455z" transform="translate(-96.767 -74.767)" style="stroke:#000"/>
    <path data-name="Path 25769" d="M50.151 130.361H27a1.228 1.228 0 0 0-.936.433l-6.957 8.188-6.957-8.189a1.228 1.228 0 0 0-.936-.433H8.733a6.3 6.3 0 0 1-6.278-6.3v-25.3a6.3 6.3 0 0 1 6.278-6.3h5.841a1.228 1.228 0 1 0 0-2.455H8.733A8.755 8.755 0 0 0 0 98.758v25.3a8.755 8.755 0 0 0 8.733 8.758h1.913l7.525 8.857a1.228 1.228 0 0 0 1.871 0l7.525-8.857h22.584a1.228 1.228 0 1 0 0-2.455z" transform="translate(.5 -74.767)" style="stroke:#000"/>
    <path data-name="Path 25770" d="M36.231 425.246H25.07a1.228 1.228 0 0 0 0 2.456h11.161a2.838 2.838 0 0 1 0 5.676H5.284a2.838 2.838 0 0 1 0-5.676H6.37a1.228 1.228 0 0 0 .995-.508l2.135-2.948 2.133 2.948a1.228 1.228 0 0 0 .995.508h6.766a1.228 1.228 0 0 0 0-2.456h-6.14l-2.76-3.815a1.228 1.228 0 0 0-1.989 0l-2.76 3.815h-.461a5.293 5.293 0 0 0 0 10.587h30.947a5.293 5.293 0 0 0 0-10.587z" transform="translate(.5 -351.519)" style="stroke:#000"/>
    <path data-name="Path 25771" d="M263.663 10.587h4.618a1.228 1.228 0 1 0 0-2.455h-4.618a2.838 2.838 0 0 1 0-5.676h30.947a2.838 2.838 0 0 1 0 5.676h-1.086a1.228 1.228 0 0 0-.995.508l-2.129 2.947-2.133-2.948a1.228 1.228 0 0 0-.995-.508h-13.313a1.228 1.228 0 1 0 0 2.455h12.682L289.4 14.4a1.228 1.228 0 0 0 1.989 0l2.76-3.815h.459A5.293 5.293 0 0 0 294.61 0h-30.947a5.293 5.293 0 0 0 0 10.587z" transform="translate(-215.582 .5)" style="stroke:#000"/>
    <path data-name="Path 25772" d="M103.583 187.032a1.228 1.228 0 0 0 0 2.456h6.548a1.228 1.228 0 0 0 1.228-1.228v-6.548a1.228 1.228 0 0 0-1.228-1.228h-5.32v-4.092h5.32a1.228 1.228 0 1 0 0-2.455h-6.548a1.228 1.228 0 0 0-1.228 1.228v6.548a1.228 1.228 0 0 0 1.228 1.228h5.32v4.092z" transform="translate(-85.1 -144.963)" style="stroke:#000"/>
    <path data-name="Path 25773" d="M185.129 176.391a1.228 1.228 0 1 0 0-2.455h-6.548a1.228 1.228 0 0 0-1.228 1.228v13.1a1.228 1.228 0 0 0 1.228 1.228h6.548a1.228 1.228 0 0 0 0-2.456h-5.32v-4.092h5.32a1.228 1.228 0 1 0 0-2.455h-5.32v-4.092z" transform="translate(-147.82 -144.963)" style="stroke:#000"/>
    <path data-name="Path 25774" d="M253.58 173.936a1.228 1.228 0 0 0-1.228 1.228v13.1a1.228 1.228 0 0 0 1.228 1.228h6.548a1.228 1.228 0 0 0 1.228-1.228v-13.1a1.228 1.228 0 0 0-1.228-1.228zm5.32 13.1h-4.092v-10.64h4.092z" transform="translate(-210.542 -144.963)" style="stroke:#000"/>
    <path data-name="Path 25775" d="M358.932 281.222a1.227 1.227 0 0 0-1.035-1.212l-1.694-.269-.809-1.951 1.007-1.39a1.228 1.228 0 0 0-.126-1.589l-3.467-3.467a1.227 1.227 0 0 0-1.59-.125l-1.387 1.008-1.95-.808-.27-1.695a1.228 1.228 0 0 0-1.212-1.035h-4.9a1.228 1.228 0 0 0-1.212 1.036l-.268 1.7-1.949.809-1.388-1.007a1.227 1.227 0 0 0-1.59.126l-3.465 3.47a1.228 1.228 0 0 0-.125 1.589l1.008 1.388-.808 1.953-1.693.27a1.228 1.228 0 0 0-1.035 1.213v4.905a1.228 1.228 0 0 0 1.036 1.212l1.694.269.809 1.951-1.007 1.39a1.228 1.228 0 0 0 .126 1.589l3.467 3.467a1.228 1.228 0 0 0 1.59.125l1.387-1.008 1.95.808.27 1.695a1.228 1.228 0 0 0 1.213 1.035h4.9a1.228 1.228 0 0 0 1.212-1.036l.268-1.7 1.949-.809 1.388 1.008a1.227 1.227 0 0 0 1.59-.126l3.465-3.47a1.228 1.228 0 0 0 .125-1.589l-1.008-1.388.808-1.953 1.693-.27a1.228 1.228 0 0 0 1.035-1.213zm-3.79 4.071a1.228 1.228 0 0 0-.941.743l-1.333 3.223a1.228 1.228 0 0 0 .141 1.19l.8 1.1-1.984 1.987-1.1-.8a1.228 1.228 0 0 0-1.192-.14l-3.218 1.335a1.228 1.228 0 0 0-.742.942l-.212 1.339h-2.806l-.213-1.338a1.228 1.228 0 0 0-.743-.941l-3.22-1.333a1.228 1.228 0 0 0-1.192.141l-1.095.8-1.985-1.985.8-1.1a1.228 1.228 0 0 0 .14-1.191l-1.334-3.221a1.228 1.228 0 0 0-.942-.743l-1.338-.212v-2.809l1.337-.213a1.227 1.227 0 0 0 .941-.743l1.333-3.223a1.227 1.227 0 0 0-.141-1.19l-.8-1.1 1.984-1.986 1.1.8a1.227 1.227 0 0 0 1.192.14l3.219-1.335a1.228 1.228 0 0 0 .742-.942l.212-1.339h2.805l.213 1.338a1.228 1.228 0 0 0 .743.941l3.22 1.334a1.228 1.228 0 0 0 1.192-.141l1.095-.8 1.985 1.985-.8 1.1a1.228 1.228 0 0 0-.14 1.191l1.335 3.221a1.228 1.228 0 0 0 .942.743l1.338.212v2.809z" transform="translate(-274.62 -224.206)" style="stroke:#000"/>
    <path data-name="Path 25776" d="M392.8 326.128a1.228 1.228 0 0 0-1.228 1.228 3.981 3.981 0 1 1-2.336-3.629 1.228 1.228 0 1 0 1.017-2.235 6.441 6.441 0 1 0 3.774 5.864 1.228 1.228 0 0 0-1.227-1.228z" transform="translate(-318.252 -267.881)" style="stroke:#000"/>
</svg>
