<svg xmlns="http://www.w3.org/2000/svg" xmlns:xlink="http://www.w3.org/1999/xlink" width="255" height="255" viewBox="0 0 255 255">
  <defs>
    <linearGradient id="linear-gradient" x1="1.396" y1="-0.381" x2="-0.054" y2="1.049" gradientUnits="objectBoundingBox">
      <stop offset="0" stop-color="#e32a40"/>
      <stop offset="0.241" stop-color="#00c4ff"/>
      <stop offset="0.468" stop-color="#d5aaff"/>
      <stop offset="0.744" stop-color="#dd3448"/>
      <stop offset="1" stop-color="#ffe200"/>
    </linearGradient>
  </defs>
  <g id="Group_45521" data-name="Group 45521" transform="translate(-411.5 -1504.5)">
    <g id="Group_45321" data-name="Group 45321">
      <path id="Union_10" data-name="Union 10" d="M-1928-9229h216a19,19,0,0,1,19,19v216a19,19,0,0,1-19,19h-216a19,19,0,0,1-19-19v-216A19,19,0,0,1-1928-9229Z" transform="translate(2359 10734)" stroke="rgba(0,0,0,0)" stroke-width="1" fill="url(#linear-gradient)"/>
      <rect id="Rectangle_8903" data-name="Rectangle 8903" width="224" height="224" rx="10" transform="translate(427 1520)" fill="#fff" stroke="rgba(0,0,0,0)" stroke-width="1"/>
    </g>
    <text id="SEO-Optimized" transform="translate(543 1715)" font-size="18" font-family="Poppins-Bold, Poppins" font-weight="700"><tspan x="-69.966" y="0">SEO-Optimized</tspan></text>
    <g id="seo" transform="translate(490 1560)">
      <path id="Path_25768" data-name="Path 25768" d="M117.859,93.105h48.559a7.964,7.964,0,0,1,7.939,7.971v21.232a1.553,1.553,0,1,0,3.105,0V101.076A11.073,11.073,0,0,0,166.418,90H117.859a1.553,1.553,0,0,0,0,3.105Z" transform="translate(-92.227 -71.367)" stroke="#000" stroke-width="1"/>
      <path id="Path_25769" data-name="Path 25769" d="M63.426,141.045H34.145a1.553,1.553,0,0,0-1.183.548l-8.8,10.356-8.8-10.356a1.553,1.553,0,0,0-1.183-.548H11.045a7.964,7.964,0,0,1-7.939-7.971v-32a7.964,7.964,0,0,1,7.939-7.971h7.387a1.553,1.553,0,1,0,0-3.105H11.045A11.073,11.073,0,0,0,0,101.076v32A11.073,11.073,0,0,0,11.045,144.15h2.419l9.516,11.2a1.552,1.552,0,0,0,2.367,0l9.516-11.2H63.426a1.553,1.553,0,1,0,0-3.105Z" transform="translate(0 -71.367)" stroke="#000" stroke-width="1"/>
      <path id="Path_25770" data-name="Path 25770" d="M45.822,426.391H31.706a1.553,1.553,0,0,0,0,3.105H45.822a3.589,3.589,0,0,1,0,7.178H6.683a3.589,3.589,0,0,1,0-7.178H8.057a1.553,1.553,0,0,0,1.258-.642l2.7-3.728,2.7,3.728a1.553,1.553,0,0,0,1.258.642h8.557a1.553,1.553,0,0,0,0-3.105H16.762l-3.491-4.824a1.553,1.553,0,0,0-2.516,0l-3.491,4.824H6.683a6.694,6.694,0,0,0,0,13.389H45.822a6.694,6.694,0,0,0,0-13.389Z" transform="translate(0 -333.779)" stroke="#000" stroke-width="1"/>
      <path id="Path_25771" data-name="Path 25771" d="M265.062,13.389H270.9a1.553,1.553,0,0,0,0-3.105h-5.841a3.589,3.589,0,0,1,0-7.178H304.2a3.589,3.589,0,0,1,0,7.178h-1.374a1.553,1.553,0,0,0-1.258.642l-2.7,3.728-2.7-3.729a1.553,1.553,0,0,0-1.258-.642H278.083a1.553,1.553,0,0,0,0,3.105h16.039l3.491,4.824a1.553,1.553,0,0,0,2.516,0l3.491-4.824h.581A6.694,6.694,0,0,0,304.2,0H265.062a6.694,6.694,0,0,0,0,13.389Z" transform="translate(-204.886)" stroke="#000" stroke-width="1"/>
      <path id="Path_25772" data-name="Path 25772" d="M103.908,190.5a1.553,1.553,0,0,0,0,3.105h8.281a1.553,1.553,0,0,0,1.553-1.553V183.77a1.553,1.553,0,0,0-1.553-1.553H105.46v-5.176h6.728a1.553,1.553,0,1,0,0-3.105h-8.281a1.553,1.553,0,0,0-1.553,1.553v8.281a1.553,1.553,0,0,0,1.553,1.553h6.728V190.5Z" transform="translate(-81.164 -137.926)" stroke="#000" stroke-width="1"/>
      <path id="Path_25773" data-name="Path 25773" d="M187.187,177.041a1.553,1.553,0,0,0,0-3.105h-8.281a1.553,1.553,0,0,0-1.553,1.553v16.563a1.553,1.553,0,0,0,1.553,1.553h8.281a1.553,1.553,0,0,0,0-3.105h-6.728v-5.176h6.728a1.553,1.553,0,0,0,0-3.105h-6.728v-5.176Z" transform="translate(-140.635 -137.926)" stroke="#000" stroke-width="1"/>
      <path id="Path_25774" data-name="Path 25774" d="M253.9,173.936a1.553,1.553,0,0,0-1.553,1.553v16.563A1.553,1.553,0,0,0,253.9,193.6h8.281a1.553,1.553,0,0,0,1.553-1.553V175.489a1.553,1.553,0,0,0-1.553-1.553Zm6.728,16.563h-5.176V177.041h5.176Z" transform="translate(-200.107 -137.926)" stroke="#000" stroke-width="1"/>
      <path id="Path_25775" data-name="Path 25775" d="M366.863,284.539a1.552,1.552,0,0,0-1.309-1.533l-2.142-.34-1.023-2.468,1.274-1.758a1.553,1.553,0,0,0-.159-2.009l-4.385-4.385a1.552,1.552,0,0,0-2.011-.158l-1.754,1.275-2.467-1.021L352.545,270a1.553,1.553,0,0,0-1.533-1.309h0l-6.2,0a1.553,1.553,0,0,0-1.533,1.31l-.339,2.144-2.464,1.023L338.72,271.9a1.552,1.552,0,0,0-2.011.159l-4.382,4.388a1.553,1.553,0,0,0-.158,2.009l1.275,1.756-1.021,2.47-2.141.341a1.553,1.553,0,0,0-1.308,1.534l0,6.2a1.553,1.553,0,0,0,1.31,1.533l2.142.34,1.023,2.468-1.274,1.757a1.553,1.553,0,0,0,.159,2.009l4.385,4.385a1.553,1.553,0,0,0,2.011.158l1.754-1.275,2.466,1.022.341,2.143a1.553,1.553,0,0,0,1.533,1.309h0l6.2,0a1.553,1.553,0,0,0,1.533-1.31l.34-2.144,2.465-1.023,1.755,1.274a1.552,1.552,0,0,0,2.011-.159l4.382-4.388a1.553,1.553,0,0,0,.158-2.009l-1.275-1.756,1.021-2.47,2.141-.341a1.553,1.553,0,0,0,1.308-1.534Zm-4.794,5.149a1.553,1.553,0,0,0-1.191.94l-1.685,4.076a1.553,1.553,0,0,0,.178,1.506l1.007,1.387-2.509,2.512-1.386-1.006a1.553,1.553,0,0,0-1.507-.178l-4.07,1.689a1.553,1.553,0,0,0-.938,1.191L349.7,303.5h-3.548l-.269-1.692a1.553,1.553,0,0,0-.94-1.191l-4.073-1.686a1.553,1.553,0,0,0-1.507.179l-1.384,1.006-2.51-2.51,1.006-1.388a1.553,1.553,0,0,0,.177-1.506l-1.687-4.073a1.553,1.553,0,0,0-1.191-.939l-1.692-.268v-3.553l1.69-.27a1.552,1.552,0,0,0,1.19-.94l1.685-4.076a1.552,1.552,0,0,0-.178-1.506l-1.007-1.387,2.509-2.512,1.386,1.006a1.552,1.552,0,0,0,1.507.178l4.07-1.689a1.553,1.553,0,0,0,.938-1.192l.268-1.693h3.548l.269,1.692a1.553,1.553,0,0,0,.94,1.191l4.073,1.686a1.553,1.553,0,0,0,1.507-.179l1.384-1.006,2.51,2.51-1.006,1.388a1.553,1.553,0,0,0-.177,1.506l1.688,4.073a1.553,1.553,0,0,0,1.191.939l1.692.268v3.553Z" transform="translate(-260.865 -213.063)" stroke="#000" stroke-width="1"/>
      <path id="Path_25776" data-name="Path 25776" d="M395.882,327.508a1.553,1.553,0,0,0-1.553,1.553,5.035,5.035,0,1,1-2.955-4.59,1.553,1.553,0,0,0,1.287-2.827,8.146,8.146,0,1,0,4.773,7.416A1.553,1.553,0,0,0,395.882,327.508Z" transform="translate(-302.236 -254.475)" stroke="#000" stroke-width="1"/>
    </g>
  </g>
</svg>
