<svg xmlns="http://www.w3.org/2000/svg" xmlns:xlink="http://www.w3.org/1999/xlink" width="255" height="255" viewBox="0 0 255 255">
  <defs>
    <linearGradient id="linear-gradient" x1="1.396" y1="-0.381" x2="-0.054" y2="1.049" gradientUnits="objectBoundingBox">
      <stop offset="0" stop-color="#e32a40"/>
      <stop offset="0.241" stop-color="#00c4ff"/>
      <stop offset="0.468" stop-color="#d5aaff"/>
      <stop offset="0.744" stop-color="#dd3448"/>
      <stop offset="1" stop-color="#ffe200"/>
    </linearGradient>
    <clipPath id="clip-path">
      <rect id="Rectangle_9686" data-name="Rectangle 9686" width="79.395" height="96.699" fill="none"/>
    </clipPath>
  </defs>
  <g id="Group_45542" data-name="Group 45542" transform="translate(-411.5 -1504.5)">
    <g id="Group_45333" data-name="Group 45333">
      <path id="Union_10" data-name="Union 10" d="M-1928-9229h216a19,19,0,0,1,19,19v216a19,19,0,0,1-19,19h-216a19,19,0,0,1-19-19v-216A19,19,0,0,1-1928-9229Z" transform="translate(2359 10734)" stroke="rgba(0,0,0,0)" stroke-width="1" fill="url(#linear-gradient)"/>
      <rect id="Rectangle_8903" data-name="Rectangle 8903" width="224" height="224" rx="10" transform="translate(427 1520)" fill="#fff" stroke="rgba(0,0,0,0)" stroke-width="1"/>
    </g>
    <text id="Setup_Automatic" data-name="Setup
Automatic" transform="translate(539 1690)" font-size="18" font-family="Poppins-Bold, Poppins" font-weight="700"><tspan x="-26.865" y="0">Setup</tspan><tspan x="-49.545" y="27">Automatic</tspan></text>
    <g id="Group_45361" data-name="Group 45361" transform="translate(499.303 1548.301)">
      <g id="Group_45360" data-name="Group 45360" transform="translate(0 0)" clip-path="url(#clip-path)">
        <path id="Path_54278" data-name="Path 54278" d="M45.635,82.606H40.254a2.014,2.014,0,1,0,0,4.028h5.381a2.014,2.014,0,1,0,0-4.028" transform="translate(-3.256 -7.034)"/>
        <path id="Path_54279" data-name="Path 54279" d="M36.14,11.482h5.382a2.014,2.014,0,1,0,0-4.028H36.14a2.014,2.014,0,1,0,0,4.028" transform="translate(-2.906 -0.635)"/>
        <path id="Path_54280" data-name="Path 54280" d="M48.288,11.482h1.794a2.014,2.014,0,0,0,0-4.028H48.288a2.014,2.014,0,1,0,0,4.028" transform="translate(-3.94 -0.635)"/>
        <path id="Path_54281" data-name="Path 54281" d="M72.239,101.24q-.812.049-1.677.017a2.014,2.014,0,0,0-.157,4.024c.278.012.553.016.825.016.423,0,.838-.015,1.244-.038a2.014,2.014,0,0,0-.235-4.021" transform="translate(-5.83 -8.62)"/>
        <path id="Path_54282" data-name="Path 54282" d="M62.846,99.865q-.837-.248-1.692-.543a2.013,2.013,0,1,0-1.32,3.8q.947.329,1.874.6a1.99,1.99,0,0,0,.571.082,2.014,2.014,0,0,0,.568-3.946" transform="translate(-4.979 -8.447)"/>
        <path id="Path_54283" data-name="Path 54283" d="M53.719,96.139q-.806-.4-1.618-.84a2.013,2.013,0,1,0-1.9,3.552c.57.3,1.139.6,1.7.886a2.015,2.015,0,0,0,1.811-3.6" transform="translate(-4.184 -8.094)"/>
        <path id="Path_54284" data-name="Path 54284" d="M69.864,56.989c10.309-15.6,12.645-29.313,6.025-35.96l0,0a10.779,10.779,0,0,0-.91-.816,2.013,2.013,0,1,0-2.522,3.139,7.081,7.081,0,0,1,.578.521h0c4.933,4.95,2.5,16.88-5.987,30.071V21.312a1.975,1.975,0,0,0,0-3.912V2.014A2.013,2.013,0,0,0,65.034,0H14.8a2.013,2.013,0,0,0-2.014,2.014V17.37a13.39,13.39,0,0,0-8.838,3.652,11.377,11.377,0,0,0-.809.9,2.014,2.014,0,1,0,3.132,2.534A7.534,7.534,0,0,1,6.8,23.87a9.22,9.22,0,0,1,5.99-2.448V53.67a1.982,1.982,0,0,0-.829.5,1.96,1.96,0,0,0-1.264.3,2.012,2.012,0,0,0-.568,2.79l.22.328a2.036,2.036,0,0,0,.658.984l.282.411a1.954,1.954,0,0,0,.943.694,1.963,1.963,0,0,0,.355,1.124l.2.271V84.538A2.013,2.013,0,0,0,14.8,86.552H32.842C21.307,93.035,11.249,94.544,6.8,90.109a7.667,7.667,0,0,1-.524-.583A2.014,2.014,0,0,0,3.14,92.059a11.39,11.39,0,0,0,.809.9h0C6.468,95.47,10,96.7,14.251,96.7c7,0,15.985-3.355,25.692-9.783a1.916,1.916,0,0,0,2.2-.365H65.034a2.013,2.013,0,0,0,2.015-2.014V61.044c.119-.161.228-.322.345-.483C75.622,73.543,77.92,85.224,73.035,90.11a6.833,6.833,0,0,1-.581.523,2.014,2.014,0,1,0,2.528,3.135,11.258,11.258,0,0,0,.9-.81c6.646-6.647,4.312-20.364-6.02-35.969M63.02,4.028V47.8c-1.026-1.226-2.082-2.41-3.148-3.573V14.573a2.014,2.014,0,0,0-2.015-2.015H21.978a2.014,2.014,0,0,0-2.015,2.015v3.4a30.463,30.463,0,0,0-3.148-.513V4.028ZM19.964,46.171a2,2,0,0,0-2.24.555c-.307.358-.607.717-.908,1.077V21.524a27.749,27.749,0,0,1,3.148.577ZM55.844,19.064c-.259.084-.513.158-.774.247a2.015,2.015,0,0,0,.653,3.92c.04,0,.081-.017.121-.019v16.83a106.907,106.907,0,0,0-13.106-11.06,1.935,1.935,0,0,0-2.762-1.917,67.6,67.6,0,0,0-15.984-8V16.586H55.844ZM23.992,44.33a1.778,1.778,0,0,0,1.9-.515l1.327-1.322a2.013,2.013,0,1,0-2.81-2.884l-.418.415V23.318a64.906,64.906,0,0,1,13.13,6.689,1.959,1.959,0,0,0,.327,1.158,1.946,1.946,0,0,0,2.4.7A102.874,102.874,0,0,1,53.517,43.388c.8.8,1.564,1.6,2.327,2.412V68.173H23.992ZM16.815,82.524V51.1a1.984,1.984,0,0,0,2.755-.313c.129-.156.263-.311.393-.467V70.187A2.014,2.014,0,0,0,21.978,72.2h35.88a2.014,2.014,0,0,0,2.015-2.015V50.32c1.08,1.289,2.125,2.616,3.148,3.961V82.524Z" transform="translate(-0.229 0)"/>
        <path id="Path_54285" data-name="Path 54285" d="M34.17,36.138q-.753.613-1.5,1.252a2.015,2.015,0,0,0,2.612,3.068c.479-.409.959-.808,1.44-1.2a2.014,2.014,0,1,0-2.547-3.12" transform="translate(-2.721 -3.038)"/>
        <path id="Path_54286" data-name="Path 54286" d="M4.048,90.97c-.014-.277-.02-.561-.02-.845s.007-.581.021-.877a2.014,2.014,0,1,0-4.024-.181c-.016.356-.025.71-.025,1.058s.008.705.026,1.049a2.014,2.014,0,0,0,2.009,1.912c.035,0,.07,0,.1,0A2.014,2.014,0,0,0,4.048,90.97" transform="translate(0 -7.419)"/>
        <path id="Path_54287" data-name="Path 54287" d="M7.588,73.131A2.013,2.013,0,0,0,9.38,72.04c.281-.545.573-1.093.876-1.649a2.014,2.014,0,1,0-3.532-1.935q-.479.873-.924,1.738a2.013,2.013,0,0,0,.866,2.713,1.984,1.984,0,0,0,.921.224" transform="translate(-0.475 -5.739)"/>
        <path id="Path_54288" data-name="Path 54288" d="M4.852,77.05a2.015,2.015,0,0,0-2.571,1.225c-.227.641-.438,1.277-.629,1.9a2.012,2.012,0,0,0,1.336,2.515,1.98,1.98,0,0,0,.591.089A2.014,2.014,0,0,0,5.5,81.36q.263-.859.574-1.739A2.013,2.013,0,0,0,4.852,77.05" transform="translate(-0.133 -6.551)"/>
        <path id="Path_54289" data-name="Path 54289" d="M2.031,36.676c.026,0,.051,0,.078,0a2.015,2.015,0,0,0,1.937-2.089c-.009-.231-.014-.458-.013-.693q0-.5.028-.99a2.015,2.015,0,0,0-4.023-.228c-.023.4-.034.8-.034,1.209,0,.282,0,.564.015.854a2.014,2.014,0,0,0,2.012,1.938" transform="translate(0 -2.621)"/>
        <path id="Path_54290" data-name="Path 54290" d="M9.935,53.055Q9.5,52.244,9.1,51.44a2.014,2.014,0,1,0-3.6,1.813c.285.564.581,1.137.889,1.71a2.014,2.014,0,0,0,3.548-1.908" transform="translate(-0.45 -4.286)"/>
        <path id="Path_54291" data-name="Path 54291" d="M5.394,42.3A2.015,2.015,0,0,0,1.53,43.444q.274.924.6,1.869a2.014,2.014,0,0,0,1.9,1.357,2.046,2.046,0,0,0,.658-.11A2.015,2.015,0,0,0,5.939,44q-.3-.858-.545-1.7" transform="translate(-0.123 -3.479)"/>
        <path id="Path_54292" data-name="Path 54292" d="M51.13,29.086a2,2,0,0,0,.951-.24c.542-.291,1.08-.568,1.614-.838a2.015,2.015,0,1,0-1.811-3.6q-.849.428-1.708.889a2.014,2.014,0,0,0,.955,3.788" transform="translate(-4.182 -2.06)"/>
      </g>
    </g>
  </g>
</svg>
