<svg xmlns="http://www.w3.org/2000/svg" width="335" height="335" viewBox="0 0 335 335">
    <g data-name="Group 45809">
        <g data-name="Group 45808" transform="translate(-708.5 -986.5)">
            <rect data-name="Rectangle 9850" width="334" height="334" rx="167" transform="translate(709 987)" style="fill:#d9efff;stroke:transparent"/>
            <g data-name="Group 262" transform="translate(756 1122.769)">
                <path data-name="Path 347" d="M147.322 222.278a26 26 0 0 0-29.611 11.343c-5.927 9.312-4.965 22.814 2.6 30.839 6.223 6.605 12.838 12.843 19.209 19.174 6.771-6.63 13.918-12.724 19.979-19.755 12.232-14.192 5.548-36.279-12.177-41.601z" transform="translate(-113.863 -221.171)" style="fill:#0c2e67"/>
                <path data-name="Path 348" d="m175.122 261.617 14.74 14.724a25.778 25.778 0 0 1-5.65 11.241c-3.174 3.681-7.839 8.236-11.4 11.615l-16.773-16.664" transform="translate(-138.581 -244.874)" style="fill:#0b1038"/>
                <circle data-name="Ellipse 15" cx="14.23" cy="14.23" r="14.23" transform="translate(11.703 11.996)" style="fill:#8e0b36"/>
                <g data-name="Group 261">
                    <path data-name="Path 349" d="M152.047 280.315a14.32 14.32 0 1 0 20.253-20.251z" transform="translate(-136.24 -243.964)" style="fill:#c1c1c0"/>
                    <path data-name="Path 350" d="M146.109 274.378a14.32 14.32 0 1 1 20.251-20.251z" transform="translate(-130.302 -238.026)" style="fill:#e5e4e4"/>
                    <path data-name="Path 351" d="M152.6 276.544a11.263 11.263 0 0 1 15.928-15.928z" transform="translate(-134.63 -242.354)" style="fill:#d9d9d8"/>
                    <path data-name="Path 352" d="M157.269 281.214a11.263 11.263 0 1 0 15.931-15.928z" transform="translate(-139.3 -247.024)" style="fill:#d9d9d8"/>
                    <path data-name="Path 353" d="m172.3 260.064-3.446 1.056-15.754 15.75-1.056 3.446 3.446-1.056 15.749-15.75z" transform="translate(-136.24 -243.964)" style="fill:#f0f0f0"/>
                    <path data-name="Path 354" d="m172.3 260.064-3.446 1.056-15.754 15.75-1.056 3.446z" transform="translate(-136.24 -243.964)" style="fill:#c9cacc"/>
                </g>
                <text transform="translate(62.083 41.994)" style="font-size:41px;font-family:Roboto-Bold,Roboto;font-weight:700;fill:#0c2e67"><tspan x="0" y="0">SHIPMED</tspan></text>
            </g>
        </g>
    </g>
</svg>
