<svg data-name="mobilephone 路 ecommerce 路 shopping 路 buy 路 cart" xmlns="http://www.w3.org/2000/svg" width="81.667" height="81.667" viewBox="0 0 81.667 81.667">
    <path data-name="Path 25967" d="M20.417 6.805h1.361a1.361 1.361 0 1 0 0-2.722h-1.361a1.361 1.361 0 1 0 0 2.722z"/>
    <path data-name="Path 25968" d="M27.222 6.805h1.361a1.361 1.361 0 1 0 0-2.722h-1.361a1.361 1.361 0 1 0 0 2.722z"/>
    <path data-name="Path 25969" d="M80.306 13.611H49V6.806A6.806 6.806 0 0 0 42.194 0H6.806A6.806 6.806 0 0 0 0 6.806v61.25a6.806 6.806 0 0 0 6.806 6.806h25.861v5.444a1.361 1.361 0 0 0 1.361 1.361H61.25a1.361 1.361 0 0 0 1.361-1.361v-8.167a1.361 1.361 0 0 0-1.361-1.361h-1.361v-.531a1.392 1.392 0 0 1 .231-.762l.885-1.334a9.528 9.528 0 0 0 1.606-5.295V49h17.695a1.361 1.361 0 0 0 1.361-1.361V14.972a1.361 1.361 0 0 0-1.361-1.361zM2.722 6.806a4.1 4.1 0 0 1 4.084-4.084h35.388a4.1 4.1 0 0 1 4.083 4.083v1.361H2.722zm0 4.083h43.556v2.722h-4.084a1.361 1.361 0 0 0-1.361 1.361V30.2a4.251 4.251 0 0 0-2.722 3.974v12.1H36.75a4.1 4.1 0 0 0-4.083 4.083V61.25H2.722zm29.944 61.25H6.806a4.1 4.1 0 0 1-4.083-4.083v-4.084h30.025a9.537 9.537 0 0 0 1.524 4.179l.885 1.334a1.392 1.392 0 0 1 .231.762v.531h-1.36a1.361 1.361 0 0 0-1.361 1.361zm27.222 6.806h-24.5V73.5h24.5zm0-16.088a6.827 6.827 0 0 1-1.143 3.784l-.9 1.334a4.083 4.083 0 0 0-.681 2.273v.531H38.111v-.531a4.083 4.083 0 0 0-.681-2.273l-.9-1.334a6.827 6.827 0 0 1-1.143-3.784V50.361A1.361 1.361 0 0 1 36.75 49h1.361v6.806a1.361 1.361 0 1 0 2.722 0V34.177a1.486 1.486 0 0 1 1.239-1.511 1.341 1.341 0 0 1 1.089.422 1.263 1.263 0 0 1 .395.939v16.334a1.361 1.361 0 1 0 2.722 0v-6.805a1.361 1.361 0 0 1 1.361-1.361 1.292 1.292 0 0 1 .966.422 1.263 1.263 0 0 1 .395.939v6.806a1.361 1.361 0 0 0 2.722 0v-5.445a1.361 1.361 0 0 1 1.361-1.361 1.292 1.292 0 0 1 .966.422 1.263 1.263 0 0 1 .395.939v5.444a1.361 1.361 0 0 0 2.722 0v-2.722a1.361 1.361 0 0 1 1.361-1.361 1.292 1.292 0 0 1 .966.422 1.263 1.263 0 0 1 .395.939zm19.056-16.579H62.366a4.045 4.045 0 0 0-.939-1.511 4.166 4.166 0 0 0-4.4-.926 4 4 0 0 0-1.048-1.8 4.2 4.2 0 0 0-4.9-.681 3.735 3.735 0 0 0-.544-.681 4.173 4.173 0 0 0-4.26-.98v-5.671a4.021 4.021 0 0 0-1.184-2.872 4.149 4.149 0 0 0-1.538-.966V16.333h35.391z"/>
    <path data-name="Path 25970" d="M10.889 42.194H9.528a1.361 1.361 0 1 0 0 2.722h1.361a1.361 1.361 0 1 0 0-2.722z"/>
    <path data-name="Path 25971" d="M29.944 42.194H16.333a1.361 1.361 0 1 0 0 2.722h13.611a1.361 1.361 0 1 0 0-2.722z"/>
    <path data-name="Path 25972" d="M10.889 47.639H9.528a1.361 1.361 0 1 0 0 2.722h1.361a1.361 1.361 0 1 0 0-2.722z"/>
    <path data-name="Path 25973" d="M27.222 47.639H16.333a1.361 1.361 0 1 0 0 2.722h10.889a1.361 1.361 0 1 0 0-2.722z"/>
    <path data-name="Path 25974" d="M10.889 53.083H9.528a1.361 1.361 0 1 0 0 2.722h1.361a1.361 1.361 0 1 0 0-2.722z"/>
    <path data-name="Path 25975" d="M27.222 53.083H16.333a1.361 1.361 0 1 0 0 2.722h10.889a1.361 1.361 0 1 0 0-2.722z"/>
    <ellipse data-name="Ellipse 275" cx="2.5" cy="3" rx="2.5" ry="3" transform="translate(55.777 34)"/>
    <ellipse data-name="Ellipse 276" cx="2.5" cy="3" rx="2.5" ry="3" transform="translate(62.777 34)"/>
    <path data-name="Path 25976" d="M53.083 23.139h1.52l.189 1.512v.039l1.018 8.145a1.361 1.361 0 0 0 1.356 1.192h9.528a1.361 1.361 0 0 0 1.292-.931l2.722-8.166a1.361 1.361 0 0 0-1.292-1.791H57.347l-.192-1.53a1.361 1.361 0 0 0-1.35-1.192h-2.722a1.361 1.361 0 1 0 0 2.722zm14.445 2.722-1.816 5.444h-7.35l-.681-5.444z"/>
    <path data-name="Path 25977" d="M27.223 66.694h-5.445a1.361 1.361 0 0 0 0 2.722h5.444a1.361 1.361 0 0 0 0-2.722z"/>
    <path data-name="Path 25978" d="m37.082 17.733-5.421-1.361a1.35 1.35 0 0 0-.331-.039h-2.747a1.361 1.361 0 0 0-1.361 1.361 2.722 2.722 0 1 1-5.444 0 1.361 1.361 0 0 0-1.361-1.361h-2.756a1.37 1.37 0 0 0-.332.041l-5.411 1.359a1.361 1.361 0 0 0-1.029 1.322v5.444a1.361 1.361 0 0 0 1.692 1.32l3.753-.938V36.75a1.361 1.361 0 0 0 1.361 1.361h13.611a1.361 1.361 0 0 0 1.361-1.361V24.882l3.753.938a1.361 1.361 0 0 0 1.692-1.32v-5.445a1.361 1.361 0 0 0-1.029-1.32zm-1.693 5.023-3.753-.938a1.362 1.362 0 0 0-1.692 1.32v12.25H19.056V23.139a1.361 1.361 0 0 0-1.692-1.32l-3.753.938v-2.64l4.219-1.062h1.4a5.444 5.444 0 0 0 10.546 0h1.388l4.225 1.062z"/>
</svg>
