<svg xmlns="http://www.w3.org/2000/svg" xmlns:xlink="http://www.w3.org/1999/xlink" width="255" height="255" viewBox="0 0 255 255">
  <defs>
    <linearGradient id="linear-gradient" x1="1.396" y1="-0.381" x2="-0.054" y2="1.049" gradientUnits="objectBoundingBox">
      <stop offset="0" stop-color="#e32a40"/>
      <stop offset="0.241" stop-color="#00c4ff"/>
      <stop offset="0.468" stop-color="#d5aaff"/>
      <stop offset="0.744" stop-color="#dd3448"/>
      <stop offset="1" stop-color="#ffe200"/>
    </linearGradient>
  </defs>
  <g id="Group_45528" data-name="Group 45528" transform="translate(-1252.5 -1504.5)">
    <g id="Group_45328" data-name="Group 45328">
      <path id="Union_12" data-name="Union 12" d="M-1928-9229h216a19,19,0,0,1,19,19v216a19,19,0,0,1-19,19h-216a19,19,0,0,1-19-19v-216A19,19,0,0,1-1928-9229Z" transform="translate(3200 10734)" stroke="rgba(0,0,0,0)" stroke-width="1" fill="url(#linear-gradient)"/>
      <rect id="Rectangle_8907" data-name="Rectangle 8907" width="224" height="224" rx="10" transform="translate(1268 1520)" fill="#fff" stroke="rgba(0,0,0,0)" stroke-width="1"/>
    </g>
    <text id="Shopping_Cart_Development" data-name="Shopping Cart
Development" transform="translate(1377 1695)" font-size="18" font-family="Poppins-Bold, Poppins" font-weight="700"><tspan x="-66.591" y="0">Shopping Cart</tspan><tspan x="-62.766" y="27">Development</tspan></text>
    <g id="mobilephone_·_ecommerce_·_shopping_·_buy_·_cart" data-name="mobilephone · ecommerce · shopping · buy · cart" transform="translate(1326 1547)">
      <path id="Path_25967" data-name="Path 25967" d="M17.75,8.5H19.5a1.75,1.75,0,0,0,0-3.5H17.75a1.75,1.75,0,1,0,0,3.5Z" transform="translate(10.5 2.25)"/>
      <path id="Path_25968" data-name="Path 25968" d="M22.75,8.5H24.5a1.75,1.75,0,0,0,0-3.5H22.75a1.75,1.75,0,1,0,0,3.5Z" transform="translate(14.25 2.25)"/>
      <path id="Path_25969" data-name="Path 25969" d="M105.25,19.5H65V10.75A8.75,8.75,0,0,0,56.25,2H10.75A8.75,8.75,0,0,0,2,10.75V89.5a8.75,8.75,0,0,0,8.75,8.75H44v7A1.75,1.75,0,0,0,45.75,107h35a1.75,1.75,0,0,0,1.75-1.75V94.75A1.75,1.75,0,0,0,80.75,93H79v-.683a1.79,1.79,0,0,1,.3-.98l1.137-1.715A12.25,12.25,0,0,0,82.5,82.815V65h22.75A1.75,1.75,0,0,0,107,63.25v-42A1.75,1.75,0,0,0,105.25,19.5ZM5.5,10.75A5.266,5.266,0,0,1,10.75,5.5h45.5a5.266,5.266,0,0,1,5.25,5.25V12.5H5.5ZM5.5,16h56v3.5H56.25a1.75,1.75,0,0,0-1.75,1.75V40.833a5.465,5.465,0,0,0-3.5,5.11V61.5H49.25A5.266,5.266,0,0,0,44,66.75v14H5.5ZM44,94.75H10.75A5.266,5.266,0,0,1,5.5,89.5V84.25H44.1a12.262,12.262,0,0,0,1.96,5.373L47.2,91.338a1.79,1.79,0,0,1,.3.98V93H45.75A1.75,1.75,0,0,0,44,94.75Zm35,8.75H47.5v-7H79Zm0-20.685a8.778,8.778,0,0,1-1.47,4.865L76.375,89.4a5.25,5.25,0,0,0-.875,2.922V93H51v-.683a5.25,5.25,0,0,0-.875-2.922L48.97,87.68a8.778,8.778,0,0,1-1.47-4.865V66.75A1.75,1.75,0,0,1,49.25,65H51v8.75a1.75,1.75,0,1,0,3.5,0V45.942A1.911,1.911,0,0,1,56.093,44a1.724,1.724,0,0,1,1.4.542A1.624,1.624,0,0,1,58,45.75v21a1.75,1.75,0,1,0,3.5,0V58a1.75,1.75,0,0,1,1.75-1.75,1.661,1.661,0,0,1,1.242.543A1.624,1.624,0,0,1,65,58v8.75a1.75,1.75,0,0,0,3.5,0v-7A1.75,1.75,0,0,1,70.25,58a1.661,1.661,0,0,1,1.243.542A1.624,1.624,0,0,1,72,59.75v7a1.75,1.75,0,0,0,3.5,0v-3.5a1.75,1.75,0,0,1,1.75-1.75,1.661,1.661,0,0,1,1.243.543A1.624,1.624,0,0,1,79,63.25ZM103.5,61.5H82.185a5.2,5.2,0,0,0-1.208-1.942,5.357,5.357,0,0,0-5.652-1.19,5.149,5.149,0,0,0-1.348-2.31,5.4,5.4,0,0,0-6.3-.875,4.8,4.8,0,0,0-.7-.875,5.365,5.365,0,0,0-5.478-1.26v-7.3a5.169,5.169,0,0,0-1.522-3.692A5.334,5.334,0,0,0,58,40.815V23h45.5Z" transform="translate(0 0)"/>
      <path id="Path_25970" data-name="Path 25970" d="M11.5,33H9.75a1.75,1.75,0,1,0,0,3.5H11.5a1.75,1.75,0,1,0,0-3.5Z" transform="translate(4.5 23.25)"/>
      <path id="Path_25971" data-name="Path 25971" d="M32.25,33H14.75a1.75,1.75,0,1,0,0,3.5h17.5a1.75,1.75,0,1,0,0-3.5Z" transform="translate(8.25 23.25)"/>
      <path id="Path_25972" data-name="Path 25972" d="M11.5,37H9.75a1.75,1.75,0,1,0,0,3.5H11.5a1.75,1.75,0,1,0,0-3.5Z" transform="translate(4.5 26.25)"/>
      <path id="Path_25973" data-name="Path 25973" d="M28.75,37h-14a1.75,1.75,0,1,0,0,3.5h14a1.75,1.75,0,0,0,0-3.5Z" transform="translate(8.25 26.25)"/>
      <path id="Path_25974" data-name="Path 25974" d="M11.5,41H9.75a1.75,1.75,0,1,0,0,3.5H11.5a1.75,1.75,0,1,0,0-3.5Z" transform="translate(4.5 29.25)"/>
      <path id="Path_25975" data-name="Path 25975" d="M28.75,41h-14a1.75,1.75,0,1,0,0,3.5h14a1.75,1.75,0,1,0,0-3.5Z" transform="translate(8.25 29.25)"/>
      <ellipse id="Ellipse_275" data-name="Ellipse 275" cx="3" cy="3.5" rx="3" ry="3.5" transform="translate(74 46)"/>
      <ellipse id="Ellipse_276" data-name="Ellipse 276" cx="3" cy="3.5" rx="3" ry="3.5" transform="translate(83 46)"/>
      <path id="Path_25976" data-name="Path 25976" d="M41.75,20.5H43.7l.243,1.944v.051l1.309,10.472A1.75,1.75,0,0,0,47,34.5H59.25a1.75,1.75,0,0,0,1.661-1.2l3.5-10.5a1.75,1.75,0,0,0-1.661-2.3H47.233l-.247-1.967A1.75,1.75,0,0,0,45.25,17h-3.5a1.75,1.75,0,1,0,0,3.5ZM60.323,24l-2.334,7h-9.45l-.875-7Z" transform="translate(28.5 11.25)"/>
      <path id="Path_25977" data-name="Path 25977" d="M25.75,51h-7a1.75,1.75,0,0,0,0,3.5h7a1.75,1.75,0,0,0,0-3.5Z" transform="translate(11.25 36.75)"/>
      <path id="Path_25978" data-name="Path 25978" d="M43.677,15.8l-6.97-1.75A1.736,1.736,0,0,0,36.282,14H32.75A1.75,1.75,0,0,0,31,15.75a3.5,3.5,0,1,1-7,0A1.75,1.75,0,0,0,22.25,14H18.706a1.761,1.761,0,0,0-.427.053L11.323,15.8A1.75,1.75,0,0,0,10,17.5v7a1.75,1.75,0,0,0,2.175,1.7L17,24.992V40.25A1.75,1.75,0,0,0,18.75,42h17.5A1.75,1.75,0,0,0,38,40.25V24.992L42.825,26.2A1.75,1.75,0,0,0,45,24.5v-7a1.75,1.75,0,0,0-1.323-1.7ZM41.5,22.258l-4.825-1.206a1.751,1.751,0,0,0-2.175,1.7V38.5h-14V22.75a1.75,1.75,0,0,0-2.175-1.7L13.5,22.258V18.865L18.925,17.5h1.8a7,7,0,0,0,13.559,0h1.785L41.5,18.865Z" transform="translate(6 9)"/>
    </g>
  </g>
</svg>
