<svg xmlns="http://www.w3.org/2000/svg" xmlns:xlink="http://www.w3.org/1999/xlink" preserveAspectRatio="xMidYMid meet" width="1920" height="1080" viewBox="0 0 1920 1080" style="width:100%;height:100%"><defs><animateTransform repeatCount="indefinite" dur="4.0373707s" begin="0s" xlink:href="#_R_G_L_17_G_N_21_T_0" fill="freeze" attributeName="transform" from="1 1" to="1 1" type="scale" additive="sum" keyTimes="0;0.1570248;0.1652892;0.1900826;0.1983471;1" values="1 1;1 1;1.67 1.67;1.67 1.67;1 1;1 1" keySplines="0.167 0.167 0.833 0.833;0.167 0.167 0.833 0.833;0.167 0.167 0.833 0.833;0.167 0.167 0.833 0.833;0 0 0 0" calcMode="spline"/><animate repeatCount="indefinite" dur="4.0373707s" begin="0s" xlink:href="#_R_G_L_17_G_N_21_T_0_M" fill="freeze" attributeName="opacity" from="1" to="0" keyTimes="0;0.4380165;0.4380165;1" values="1;1;0;0" keySplines="0 0 0 0;0 0 0 0;0 0 0 0" calcMode="spline"/><animateTransform repeatCount="indefinite" dur="4.0373707s" begin="0s" xlink:href="#_R_G_L_16_G_N_21_T_0" fill="freeze" attributeName="transform" from="1 1" to="1 1" type="scale" additive="sum" keyTimes="0;0.1570248;0.1652892;0.1900826;0.1983471;1" values="1 1;1 1;1.67 1.67;1.67 1.67;1 1;1 1" keySplines="0.167 0.167 0.833 0.833;0.167 0.167 0.833 0.833;0.167 0.167 0.833 0.833;0.167 0.167 0.833 0.833;0 0 0 0" calcMode="spline"/><animate repeatCount="indefinite" dur="4.0373707s" begin="0s" xlink:href="#_R_G_L_16_G_N_21_T_0_M" fill="freeze" attributeName="opacity" from="1" to="0" keyTimes="0;0.446281;0.446281;1" values="1;1;0;0" keySplines="0 0 0 0;0 0 0 0;0 0 0 0" calcMode="spline"/><animateTransform repeatCount="indefinite" dur="4.0373707s" begin="0s" xlink:href="#_R_G_L_15_G" fill="freeze" attributeName="transform" from="0" to="129" type="rotate" additive="sum" keyTimes="0;0.1570248;0.3057851;1" values="0;0;129;129" keySplines="0.333 0 0 1;0.333 0 0 1;0 0 0 0" calcMode="spline"/><animateTransform repeatCount="indefinite" dur="4.0373707s" begin="0s" xlink:href="#_R_G_L_15_G" fill="freeze" attributeName="transform" from="0 0" to="2.69 2.69" type="scale" additive="sum" keyTimes="0;0.0743802;1" values="0 0;2.69 2.69;2.69 2.69" keySplines="0.333 0 0 1;0 0 0 0" calcMode="spline"/><animateTransform repeatCount="indefinite" dur="4.0373707s" begin="0s" xlink:href="#_R_G_L_15_G_N_21_T_0" fill="freeze" attributeName="transform" from="1 1" to="1 1" type="scale" additive="sum" keyTimes="0;0.1570248;0.1652892;0.1900826;0.1983471;1" values="1 1;1 1;1.67 1.67;1.67 1.67;1 1;1 1" keySplines="0.167 0.167 0.833 0.833;0.167 0.167 0.833 0.833;0.167 0.167 0.833 0.833;0.167 0.167 0.833 0.833;0 0 0 0" calcMode="spline"/><animate repeatCount="indefinite" dur="4.0373707s" begin="0s" xlink:href="#_R_G_L_15_G_N_21_T_0_M" fill="freeze" attributeName="opacity" from="1" to="0" keyTimes="0;0.6198347;0.6198347;1" values="1;1;0;0" keySplines="0 0 0 0;0 0 0 0;0 0 0 0" calcMode="spline"/><animateTransform repeatCount="indefinite" dur="4.0373707s" begin="0s" xlink:href="#_R_G_L_14_G" fill="freeze" attributeName="transform" from="0 0" to="2.05 2.05" type="scale" additive="sum" keyTimes="0;0.0165289;0.0909091;1" values="0 0;0 0;2.05 2.05;2.05 2.05" keySplines="0.333 0 0 1;0.333 0 0 1;0 0 0 0" calcMode="spline"/><animateTransform repeatCount="indefinite" dur="4.0373707s" begin="0s" xlink:href="#_R_G_L_14_G_N_21_T_0" fill="freeze" attributeName="transform" from="1 1" to="1 1" type="scale" additive="sum" keyTimes="0;0.1570248;0.1652892;0.1900826;0.1983471;1" values="1 1;1 1;1.67 1.67;1.67 1.67;1 1;1 1" keySplines="0.167 0.167 0.833 0.833;0.167 0.167 0.833 0.833;0.167 0.167 0.833 0.833;0.167 0.167 0.833 0.833;0 0 0 0" calcMode="spline"/><animate repeatCount="indefinite" dur="4.0373707s" begin="0s" xlink:href="#_R_G_L_14_G_N_21_T_0_M" fill="freeze" attributeName="opacity" from="1" to="0" keyTimes="0;0.6115702;0.6115703;1" values="1;1;0;0" keySplines="0 0 0 0;0 0 0 0;0 0 0 0" calcMode="spline"/><animateTransform repeatCount="indefinite" dur="4.0373707s" begin="0s" xlink:href="#_R_G_L_13_G" fill="freeze" attributeName="transform" from="0 0" to="1.4540000000000002 1.4540000000000002" type="scale" additive="sum" keyTimes="0;0.0330578;0.107438;1" values="0 0;0 0;1.4540000000000002 1.4540000000000002;1.4540000000000002 1.4540000000000002" keySplines="0.333 0 0 1;0.333 0 0 1;0 0 0 0" calcMode="spline"/><animateTransform repeatCount="indefinite" dur="4.0373707s" begin="0s" xlink:href="#_R_G_L_13_G_N_21_T_0" fill="freeze" attributeName="transform" from="1 1" to="1 1" type="scale" additive="sum" keyTimes="0;0.1570248;0.1652892;0.1900826;0.1983471;1" values="1 1;1 1;1.67 1.67;1.67 1.67;1 1;1 1" keySplines="0.167 0.167 0.833 0.833;0.167 0.167 0.833 0.833;0.167 0.167 0.833 0.833;0.167 0.167 0.833 0.833;0 0 0 0" calcMode="spline"/><animate repeatCount="indefinite" dur="4.0373707s" begin="0s" xlink:href="#_R_G_L_13_G_N_21_T_0_M" fill="freeze" attributeName="opacity" from="1" to="0" keyTimes="0;0.6033058;0.6033058;1" values="1;1;0;0" keySplines="0 0 0 0;0 0 0 0;0 0 0 0" calcMode="spline"/><animateTransform repeatCount="indefinite" dur="4.0373707s" begin="0s" xlink:href="#_R_G_L_12_G" fill="freeze" attributeName="transform" from="0 0" to="2.05 2.05" type="scale" additive="sum" keyTimes="0;0.0330578;0.107438;1" values="0 0;0 0;2.05 2.05;2.05 2.05" keySplines="0.333 0 0 1;0.333 0 0 1;0 0 0 0" calcMode="spline"/><animateTransform repeatCount="indefinite" dur="4.0373707s" begin="0s" xlink:href="#_R_G_L_12_G_N_21_T_0" fill="freeze" attributeName="transform" from="1 1" to="1 1" type="scale" additive="sum" keyTimes="0;0.1570248;0.1652892;0.1900826;0.1983471;1" values="1 1;1 1;1.67 1.67;1.67 1.67;1 1;1 1" keySplines="0.167 0.167 0.833 0.833;0.167 0.167 0.833 0.833;0.167 0.167 0.833 0.833;0.167 0.167 0.833 0.833;0 0 0 0" calcMode="spline"/><animate repeatCount="indefinite" dur="4.0373707s" begin="0s" xlink:href="#_R_G_L_12_G_N_21_T_0_M" fill="freeze" attributeName="opacity" from="1" to="0" keyTimes="0;0.6033058;0.6033058;1" values="1;1;0;0" keySplines="0 0 0 0;0 0 0 0;0 0 0 0" calcMode="spline"/><animate repeatCount="indefinite" dur="4.0373707s" begin="0s" xlink:href="#_R_G_L_11_G_D_0_P_0" fill="freeze" attributeName="stroke-width" from="22" to="0" keyTimes="0;0.0165289;0.1157025;1" values="22;22;0;0" keySplines="0.333 0 0 1;0.333 0 0 1;0 0 0 0" calcMode="spline"/><animateTransform repeatCount="indefinite" dur="4.0373707s" begin="0s" xlink:href="#_R_G_L_11_G" fill="freeze" attributeName="transform" from="0 0" to="3.98 3.98" type="scale" additive="sum" keyTimes="0;0.0909091;1" values="0 0;3.98 3.98;3.98 3.98" keySplines="0.333 0 0 1;0 0 0 0" calcMode="spline"/><animateTransform repeatCount="indefinite" dur="4.0373707s" begin="0s" xlink:href="#_R_G_L_11_G_N_21_T_0" fill="freeze" attributeName="transform" from="1 1" to="1 1" type="scale" additive="sum" keyTimes="0;0.1570248;0.1652892;0.1900826;0.1983471;1" values="1 1;1 1;1.67 1.67;1.67 1.67;1 1;1 1" keySplines="0.167 0.167 0.833 0.833;0.167 0.167 0.833 0.833;0.167 0.167 0.833 0.833;0.167 0.167 0.833 0.833;0 0 0 0" calcMode="spline"/><animate repeatCount="indefinite" dur="4.0373707s" begin="0s" xlink:href="#_R_G_L_11_G_N_21_T_0_M" fill="freeze" attributeName="opacity" from="1" to="0" keyTimes="0;0.5950413;0.5950413;1" values="1;1;0;0" keySplines="0 0 0 0;0 0 0 0;0 0 0 0" calcMode="spline"/><animateTransform repeatCount="indefinite" dur="4.0373707s" begin="0s" xlink:href="#_R_G_L_10_G" fill="freeze" attributeName="transform" from="0" to="82" type="rotate" additive="sum" keyTimes="0;0.1157025;0.3140496;1" values="0;0;82;82" keySplines="0.333 0 0.667 1;0.333 0 0.667 1;0 0 0 0" calcMode="spline"/><animateTransform repeatCount="indefinite" dur="4.0373707s" begin="0s" xlink:href="#_R_G_L_10_G_N_21_T_0" fill="freeze" attributeName="transform" from="1 1" to="1 1" type="scale" additive="sum" keyTimes="0;0.1570248;0.1652892;0.1900826;0.1983471;1" values="1 1;1 1;1.67 1.67;1.67 1.67;1 1;1 1" keySplines="0.167 0.167 0.833 0.833;0.167 0.167 0.833 0.833;0.167 0.167 0.833 0.833;0.167 0.167 0.833 0.833;0 0 0 0" calcMode="spline"/><animate repeatCount="indefinite" dur="4.0373707s" begin="0s" xlink:href="#_R_G_L_10_G_N_21_T_0_M" fill="freeze" attributeName="opacity" from="1" to="0" keyTimes="0;0.6115702;0.6115703;1" values="1;1;0;0" keySplines="0 0 0 0;0 0 0 0;0 0 0 0" calcMode="spline"/><animateTransform repeatCount="indefinite" dur="4.0373707s" begin="0s" xlink:href="#_R_G_L_9_G" fill="freeze" attributeName="transform" from="0" to="-19" type="rotate" additive="sum" keyTimes="0;0.1157025;0.2396694;1" values="0;0;-19;-19" keySplines="0.333 0 0.667 1;0.333 0 0.667 1;0 0 0 0" calcMode="spline"/><animateTransform repeatCount="indefinite" dur="4.0373707s" begin="0s" xlink:href="#_R_G_L_9_G" fill="freeze" attributeName="transform" from="-1.00711 1" to="-1.00711 1" type="scale" additive="sum" keyTimes="0;0.6942149;1" values="-1.00711 1;-1.00711 1;-1.00711 1" keySplines="0 0 1 1;0 0 0 0" calcMode="spline"/><animateTransform repeatCount="indefinite" dur="4.0373707s" begin="0s" xlink:href="#_R_G_L_9_G_N_21_T_0" fill="freeze" attributeName="transform" from="1 1" to="1 1" type="scale" additive="sum" keyTimes="0;0.1570248;0.1652892;0.1900826;0.1983471;1" values="1 1;1 1;1.67 1.67;1.67 1.67;1 1;1 1" keySplines="0.167 0.167 0.833 0.833;0.167 0.167 0.833 0.833;0.167 0.167 0.833 0.833;0.167 0.167 0.833 0.833;0 0 0 0" calcMode="spline"/><animate repeatCount="indefinite" dur="4.0373707s" begin="0s" xlink:href="#_R_G_L_9_G_N_21_T_0_M" fill="freeze" attributeName="opacity" from="1" to="0" keyTimes="0;0.6115702;0.6115703;1" values="1;1;0;0" keySplines="0 0 0 0;0 0 0 0;0 0 0 0" calcMode="spline"/><animateMotion repeatCount="indefinite" dur="4.0373707s" begin="0s" xlink:href="#_R_G_L_8_G" fill="freeze" keyTimes="0;0.5454545;0.6115702;1" path="M961.8 543.07 C961.8,543.07 961.8,543.07 961.8,543.07 C926.46,503.74 785.13,346.41 749.8,307.07 C749.8,307.07 749.8,307.07 749.8,307.07 " keyPoints="0;0;1;1" keySplines="0.333 0 0.667 1;0.333 0 0.667 1;0 0 0 0" calcMode="spline"/><animateTransform repeatCount="indefinite" dur="4.0373707s" begin="0s" xlink:href="#_R_G_L_8_G" fill="freeze" attributeName="transform" from="-70.07 -70.07" to="-70.07 -70.07" type="translate" additive="sum" keyTimes="0;0.6942149;1" values="-70.07 -70.07;-70.07 -70.07;-70.07 -70.07" keySplines="0 0 1 1;0 0 0 0" calcMode="spline"/><animate repeatCount="indefinite" dur="4.0373707s" begin="0s" xlink:href="#_R_G_L_8_G_M" fill="freeze" attributeName="opacity" from="0" to="1" keyTimes="0;0.3140496;0.3140504;1" values="0;0;1;1" keySplines="0 0 0 0;0 0 0 0;0 0 0 0" calcMode="spline"/><animateMotion repeatCount="indefinite" dur="4.0373707s" begin="0s" xlink:href="#_R_G_L_7_G" fill="freeze" keyTimes="0;0.5123967;0.5785124;1" path="M961.33 544.64 C961.33,544.64 961.33,544.64 961.33,544.64 C911.33,540.64 711.33,524.64 661.33,520.64 C661.33,520.64 661.33,520.64 661.33,520.64 " keyPoints="0;0;1;1" keySplines="0.333 0 0.667 1;0.333 0 0.667 1;0 0 0 0" calcMode="spline"/><animateTransform repeatCount="indefinite" dur="4.0373707s" begin="0s" xlink:href="#_R_G_L_7_G" fill="freeze" attributeName="transform" from="-63.86 -63.86" to="-63.86 -63.86" type="translate" additive="sum" keyTimes="0;0.6942149;1" values="-63.86 -63.86;-63.86 -63.86;-63.86 -63.86" keySplines="0 0 1 1;0 0 0 0" calcMode="spline"/><animate repeatCount="indefinite" dur="4.0373707s" begin="0s" xlink:href="#_R_G_L_7_G_M" fill="freeze" attributeName="opacity" from="0" to="1" keyTimes="0;0.3140496;0.3140504;1" values="0;0;1;1" keySplines="0 0 0 0;0 0 0 0;0 0 0 0" calcMode="spline"/><animateMotion repeatCount="indefinite" dur="4.0373707s" begin="0s" xlink:href="#_R_G_L_6_G" fill="freeze" keyTimes="0;0.4793388;0.5454545;1" path="M961.8 542.2 C961.8,542.2 961.8,542.2 961.8,542.2 C926.46,574.2 785.13,702.2 749.8,734.2 C749.8,734.2 749.8,734.2 749.8,734.2 " keyPoints="0;0;1;1" keySplines="0.333 0 0.667 1;0.333 0 0.667 1;0 0 0 0" calcMode="spline"/><animateTransform repeatCount="indefinite" dur="4.0373707s" begin="0s" xlink:href="#_R_G_L_6_G" fill="freeze" attributeName="transform" from="-70.07 -70.071" to="-70.07 -70.071" type="translate" additive="sum" keyTimes="0;0.6942149;1" values="-70.07 -70.071;-70.07 -70.071;-70.07 -70.071" keySplines="0 0 1 1;0 0 0 0" calcMode="spline"/><animate repeatCount="indefinite" dur="4.0373707s" begin="0s" xlink:href="#_R_G_L_6_G_M" fill="freeze" attributeName="opacity" from="0" to="1" keyTimes="0;0.3140496;0.3140504;1" values="0;0;1;1" keySplines="0 0 0 0;0 0 0 0;0 0 0 0" calcMode="spline"/><animateMotion repeatCount="indefinite" dur="4.0373707s" begin="0s" xlink:href="#_R_G_L_5_G" fill="freeze" keyTimes="0;0.446281;0.5123967;1" path="M963.36 538.67 C963.36,538.67 963.36,538.67 963.36,538.67 C963.36,586 963.36,775.33 963.36,822.67 C963.36,822.67 963.36,822.67 963.36,822.67 " keyPoints="0;0;1;1" keySplines="0.333 0 0.667 1;0.333 0 0.667 1;0 0 0 0" calcMode="spline"/><animateTransform repeatCount="indefinite" dur="4.0373707s" begin="0s" xlink:href="#_R_G_L_5_G" fill="freeze" attributeName="transform" from="-63.859 -63.86" to="-63.859 -63.86" type="translate" additive="sum" keyTimes="0;0.6942149;1" values="-63.859 -63.86;-63.859 -63.86;-63.859 -63.86" keySplines="0 0 1 1;0 0 0 0" calcMode="spline"/><animate repeatCount="indefinite" dur="4.0373707s" begin="0s" xlink:href="#_R_G_L_5_G_M" fill="freeze" attributeName="opacity" from="0" to="1" keyTimes="0;0.3140496;0.3140504;1" values="0;0;1;1" keySplines="0 0 0 0;0 0 0 0;0 0 0 0" calcMode="spline"/><animateMotion repeatCount="indefinite" dur="4.0373707s" begin="0s" xlink:href="#_R_G_L_4_G" fill="freeze" keyTimes="0;0.4132231;0.4793388;1" path="M964.93 542.2 C964.93,542.2 964.93,542.2 964.93,542.2 C1000.26,574.2 1141.6,702.2 1176.93,734.2 C1176.93,734.2 1176.93,734.2 1176.93,734.2 " keyPoints="0;0;1;1" keySplines="0.333 0 0.667 1;0.333 0 0.667 1;0 0 0 0" calcMode="spline"/><animateTransform repeatCount="indefinite" dur="4.0373707s" begin="0s" xlink:href="#_R_G_L_4_G" fill="freeze" attributeName="transform" from="-70.07 -70.07" to="-70.07 -70.07" type="translate" additive="sum" keyTimes="0;0.6942149;1" values="-70.07 -70.07;-70.07 -70.07;-70.07 -70.07" keySplines="0 0 1 1;0 0 0 0" calcMode="spline"/><animate repeatCount="indefinite" dur="4.0373707s" begin="0s" xlink:href="#_R_G_L_4_G_M" fill="freeze" attributeName="opacity" from="0" to="1" keyTimes="0;0.3140496;0.3140504;1" values="0;0;1;1" keySplines="0 0 0 0;0 0 0 0;0 0 0 0" calcMode="spline"/><animateMotion repeatCount="indefinite" dur="4.0373707s" begin="0s" xlink:href="#_R_G_L_3_G" fill="freeze" keyTimes="0;0.3801653;0.446281;1" path="M965.39 520.64 C965.39,520.64 965.39,520.64 965.39,520.64 C1015.39,520.64 1215.39,520.64 1265.39,520.64 C1265.39,520.64 1265.39,520.64 1265.39,520.64 " keyPoints="0;0;1;1" keySplines="0.333 0 0.667 1;0.333 0 0.667 1;0 0 0 0" calcMode="spline"/><animateTransform repeatCount="indefinite" dur="4.0373707s" begin="0s" xlink:href="#_R_G_L_3_G" fill="freeze" attributeName="transform" from="-63.86 -63.86" to="-63.86 -63.86" type="translate" additive="sum" keyTimes="0;0.6942149;1" values="-63.86 -63.86;-63.86 -63.86;-63.86 -63.86" keySplines="0 0 1 1;0 0 0 0" calcMode="spline"/><animate repeatCount="indefinite" dur="4.0373707s" begin="0s" xlink:href="#_R_G_L_3_G_M" fill="freeze" attributeName="opacity" from="0" to="1" keyTimes="0;0.3140496;0.3140504;1" values="0;0;1;1" keySplines="0 0 0 0;0 0 0 0;0 0 0 0" calcMode="spline"/><animateMotion repeatCount="indefinite" dur="4.0373707s" begin="0s" xlink:href="#_R_G_L_2_G" fill="freeze" keyTimes="0;0.3471074;0.4132231;1" path="M964.93 543.07 C964.93,543.07 964.93,543.07 964.93,543.07 C1000.26,503.74 1141.6,346.41 1176.93,307.07 C1176.93,307.07 1176.93,307.07 1176.93,307.07 " keyPoints="0;0;1;1" keySplines="0.333 0 0.667 1;0.333 0 0.667 1;0 0 0 0" calcMode="spline"/><animateTransform repeatCount="indefinite" dur="4.0373707s" begin="0s" xlink:href="#_R_G_L_2_G" fill="freeze" attributeName="transform" from="-70.07 -70.07" to="-70.07 -70.07" type="translate" additive="sum" keyTimes="0;0.6942149;1" values="-70.07 -70.07;-70.07 -70.07;-70.07 -70.07" keySplines="0 0 1 1;0 0 0 0" calcMode="spline"/><animate repeatCount="indefinite" dur="4.0373707s" begin="0s" xlink:href="#_R_G_L_2_G_M" fill="freeze" attributeName="opacity" from="0" to="1" keyTimes="0;0.3140496;0.3140504;1" values="0;0;1;1" keySplines="0 0 0 0;0 0 0 0;0 0 0 0" calcMode="spline"/><animateMotion repeatCount="indefinite" dur="4.0373707s" begin="0s" xlink:href="#_R_G_L_1_G" fill="freeze" keyTimes="0;0.3140496;0.3801653;1" path="M963.36 538.61 C963.36,538.61 963.36,538.61 963.36,538.61 C963.36,485.28 963.36,271.94 963.36,218.61 C963.36,218.61 963.36,218.61 963.36,218.61 " keyPoints="0;0;1;1" keySplines="0.333 0 0.667 1;0.333 0 0.667 1;0 0 0 0" calcMode="spline"/><animateTransform repeatCount="indefinite" dur="4.0373707s" begin="0s" xlink:href="#_R_G_L_1_G" fill="freeze" attributeName="transform" from="-63.859 -63.86" to="-63.859 -63.86" type="translate" additive="sum" keyTimes="0;0.6942149;1" values="-63.859 -63.86;-63.859 -63.86;-63.859 -63.86" keySplines="0 0 1 1;0 0 0 0" calcMode="spline"/><animate repeatCount="indefinite" dur="4.0373707s" begin="0s" xlink:href="#_R_G_L_1_G_M" fill="freeze" attributeName="opacity" from="0" to="1" keyTimes="0;0.3140496;0.3140504;1" values="0;0;1;1" keySplines="0 0 0 0;0 0 0 0;0 0 0 0" calcMode="spline"/><animateMotion repeatCount="indefinite" dur="4.0373707s" begin="0s" xlink:href="#_R_G_L_0_G" fill="freeze" keyTimes="0;0.3305785;0.3636363;0.4380165;1" path="M960 540 C960,540 960,540 960,540 C960,530.67 960,484 960,484 C960,484 960,530.67 960,540 C960,540 960,540 960,540 " keyPoints="0;0;0.5;1;1" keySplines="0.333 0 0.667 1;0.333 0 0.667 1;0.333 0 0.667 1;0 0 0 0" calcMode="spline"/><animateTransform repeatCount="indefinite" dur="4.0373707s" begin="0s" xlink:href="#_R_G_L_0_G" fill="freeze" attributeName="transform" from="-51" to="0" type="rotate" additive="sum" keyTimes="0;0.1652892;0.3140496;1" values="-51;-51;0;0" keySplines="0.333 0 0 1;0.333 0 0 1;0 0 0 0" calcMode="spline"/><animateTransform repeatCount="indefinite" dur="4.0373707s" begin="0s" xlink:href="#_R_G_L_0_G" fill="freeze" attributeName="transform" from="0 0" to="1 1" type="scale" additive="sum" keyTimes="0;0.1652892;0.3140496;1" values="0 0;0 0;1 1;1 1" keySplines="0.333 0 0 1;0.333 0 0 1;0 0 0 0" calcMode="spline"/><animateTransform repeatCount="indefinite" dur="4.0373707s" begin="0s" xlink:href="#_R_G_L_0_G" fill="freeze" attributeName="transform" from="-136.967 -136.967" to="-136.967 -136.967" type="translate" additive="sum" keyTimes="0;0.6942149;1" values="-136.967 -136.967;-136.967 -136.967;-136.967 -136.967" keySplines="0 0 1 1;0 0 0 0" calcMode="spline"/><animate repeatCount="indefinite" dur="4.0373707s" begin="0s" xlink:href="#_R_G_L_0_G_M" fill="freeze" attributeName="opacity" from="0" to="1" keyTimes="0;0.0909091;0.0909099;1" values="0;0;1;1" keySplines="0 0 0 0;0 0 0 0;0 0 0 0" calcMode="spline"/><animate attributeType="XML" attributeName="opacity" dur="3s" from="0" to="1" xlink:href="#time_group"/></defs><g id="_R_G"><g id="_R_G_L_17_G_N_21_T_0_M"><g id="_R_G_L_17_G_N_21_T_0" transform=" translate(960, 540)"><g id="_R_G_L_17_G" transform=" scale(0.59, 0.59)"><path id="_R_G_L_17_G_D_0_P_0" stroke="#f0114b" stroke-linecap="round" stroke-linejoin="round" fill="none" stroke-width="6" stroke-opacity="1" d=" M0 -460 C0,-460 0,-240 0,-240 "/></g></g></g><g id="_R_G_L_16_G_N_21_T_0_M"><g id="_R_G_L_16_G_N_21_T_0" transform=" translate(960, 540)"><g id="_R_G_L_16_G" transform=" scale(0.38, 0.38)"><path id="_R_G_L_16_G_D_0_P_0" stroke="#f0114b" stroke-linecap="round" stroke-linejoin="round" fill="none" stroke-width="14" stroke-opacity="1" d=" M0 -460 C0,-460 0,-240 0,-240 "/></g></g></g><g id="_R_G_L_15_G_N_21_T_0_M"><g id="_R_G_L_15_G_N_21_T_0" transform=" translate(960, 540)"><g id="_R_G_L_15_G" transform=" translate(0, 0)"><path id="_R_G_L_15_G_D_0_P_0" fill="#40c7ee" fill-opacity="1" fill-rule="nonzero" d=" M0 -50 C27.6,-50 50,-27.59 50,0 C50,27.6 27.6,50 0,50 C-27.59,50 -50,27.6 -50,0 C-50,-27.59 -27.59,-50 0,-50z "/></g></g></g><g id="_R_G_L_14_G_N_21_T_0_M"><g id="_R_G_L_14_G_N_21_T_0" transform=" translate(960, 540)"><g id="_R_G_L_14_G" transform=" translate(0, 0)"><path id="_R_G_L_14_G_D_0_P_0" fill="#f1124c" fill-opacity="1" fill-rule="nonzero" d=" M0 -50 C27.6,-50 50,-27.59 50,0 C50,27.6 27.6,50 0,50 C-27.59,50 -50,27.6 -50,0 C-50,-27.59 -27.59,-50 0,-50z "/></g></g></g><g id="_R_G_L_13_G_N_21_T_0_M"><g id="_R_G_L_13_G_N_21_T_0" transform=" translate(960, 540)"><g id="_R_G_L_13_G" transform=" translate(0, 0)"><path id="_R_G_L_13_G_D_0_P_0" fill="#40c7ee" fill-opacity="1" fill-rule="nonzero" d=" M0 -50 C27.6,-50 50,-27.59 50,0 C50,27.6 27.6,50 0,50 C-27.59,50 -50,27.6 -50,0 C-50,-27.59 -27.59,-50 0,-50z "/></g></g></g><g id="_R_G_L_12_G_N_21_T_0_M"><g id="_R_G_L_12_G_N_21_T_0" transform=" translate(960, 540)"><g id="_R_G_L_12_G" transform=" translate(0, 0)"><path id="_R_G_L_12_G_D_0_P_0" fill="#f1124c" fill-opacity="1" fill-rule="nonzero" d=" M0 -28 C15.45,-28 28,-15.45 28,0 C28,15.45 15.45,28 0,28 C-15.45,28 -28,15.45 -28,0 C-28,-15.45 -15.45,-28 0,-28z "/></g></g></g><g id="_R_G_L_11_G_N_21_T_0_M"><g id="_R_G_L_11_G_N_21_T_0" transform=" translate(960, 540)"><g id="_R_G_L_11_G" transform=" translate(0, 0)"><path id="_R_G_L_11_G_D_0_P_0" stroke="#40c7ee" stroke-linecap="round" stroke-linejoin="round" fill="none" stroke-width="22" stroke-opacity="1" d=" M0 -50 C27.6,-50 50,-27.59 50,0 C50,27.6 27.6,50 0,50 C-27.59,50 -50,27.6 -50,0 C-50,-27.59 -27.59,-50 0,-50z "/></g></g></g><g id="_R_G_L_10_G_N_21_T_0_M"><g id="_R_G_L_10_G_N_21_T_0" transform=" translate(960, 540)"><g id="_R_G_L_10_G" transform=" translate(0, 0)"><path id="_R_G_L_10_G_D_0_P_0" stroke="#f1124c" stroke-linecap="round" stroke-linejoin="round" fill="none" stroke-width="6" stroke-opacity="1" d=" M0 -170 C93.82,-170 170,-93.82 170,0 C170,93.82 93.82,170 0,170 C-93.82,170 -170,93.82 -170,0 C-170,-93.82 -93.82,-170 0,-170z "/></g></g></g><g id="_R_G_L_9_G_N_21_T_0_M"><g id="_R_G_L_9_G_N_21_T_0" transform=" translate(960, 540)"><g id="_R_G_L_9_G" transform=" translate(0, 0)"><path id="_R_G_L_9_G_D_0_P_0" stroke="#f1124c" stroke-linecap="round" stroke-linejoin="round" fill="none" stroke-width="6" stroke-opacity="1" d=" M0 -192.5 C106.24,-192.5 192.5,-106.24 192.5,0 C192.5,106.24 106.24,192.5 0,192.5 C-106.24,192.5 -192.5,106.24 -192.5,0 C-192.5,-106.24 -106.24,-192.5 0,-192.5z "/></g></g></g><g id="_R_G_L_8_G_M"><g id="_R_G_L_8_G"><path id="_R_G_L_8_G_D_0_P_0" fill="#dc4867" fill-opacity="1" fill-rule="nonzero" d=" M25.09 25.09 C49.93,0.25 90.21,0.25 115.05,25.09 C139.89,49.93 139.89,90.21 115.05,115.05 C90.21,139.89 49.93,139.89 25.09,115.05 C0.25,90.21 0.25,49.93 25.09,25.09z "/><path id="_R_G_L_8_G_D_1_P_0" fill="#ffffff" fill-opacity="1" fill-rule="nonzero" d=" M94.97 54.85 C94.97,54.85 92.49,54.85 92.49,54.85 C92.49,54.85 92.49,52.22 92.49,52.22 C92.49,52.22 86.85,51.35 86.85,51.35 C86.85,51.35 86.7,50.46 86.7,50.46 C86.5,49.23 86.18,48.02 85.74,46.86 C85.74,46.86 85.42,46.02 85.42,46.02 C85.42,46.02 89.87,42.45 89.87,42.45 C89.87,42.45 88.58,40.21 88.58,40.21 C88.58,40.21 83.26,42.28 83.26,42.28 C83.26,42.28 82.69,41.58 82.69,41.58 C81.9,40.61 81.01,39.73 80.05,38.95 C80.05,38.95 79.36,38.38 79.36,38.38 C79.36,38.38 81.43,33.06 81.43,33.06 C81.43,33.06 79.18,31.76 79.18,31.76 C79.18,31.76 75.61,36.21 75.61,36.21 C75.61,36.21 74.77,35.89 74.77,35.89 C73.61,35.45 72.4,35.13 71.17,34.93 C71.17,34.93 70.28,34.78 70.28,34.78 C70.28,34.78 69.42,29.14 69.42,29.14 C69.42,29.14 66.82,29.14 66.82,29.14 C66.82,29.14 65.96,34.78 65.96,34.78 C65.96,34.78 65.07,34.93 65.07,34.93 C63.83,35.13 62.62,35.45 61.47,35.89 C61.47,35.89 60.62,36.21 60.62,36.21 C60.62,36.21 57.05,31.76 57.05,31.76 C57.05,31.76 54.81,33.06 54.81,33.06 C54.81,33.06 56.88,38.38 56.88,38.38 C56.88,38.38 56.18,38.95 56.18,38.95 C55.23,39.73 54.34,40.61 53.55,41.58 C53.55,41.58 52.98,42.28 52.98,42.28 C52.98,42.28 47.66,40.21 47.66,40.21 C47.66,40.21 46.36,42.45 46.36,42.45 C46.36,42.45 50.81,46.02 50.81,46.02 C50.81,46.02 50.49,46.86 50.49,46.86 C50.06,48.02 49.73,49.23 49.53,50.46 C49.53,50.46 49.39,51.35 49.39,51.35 C49.39,51.35 43.75,52.22 43.75,52.22 C43.75,52.22 43.75,54.85 43.75,54.85 C43.75,54.85 41.26,54.85 41.26,54.85 C41.26,54.85 41.26,50.09 41.26,50.09 C41.26,50.09 47.25,49.17 47.25,49.17 C47.41,48.38 47.62,47.6 47.87,46.84 C47.87,46.84 43.15,43.06 43.15,43.06 C43.15,43.06 46.57,37.12 46.57,37.12 C46.57,37.12 52.22,39.32 52.22,39.32 C52.75,38.72 53.33,38.15 53.92,37.61 C53.92,37.61 51.72,31.97 51.72,31.97 C51.72,31.97 57.66,28.55 57.66,28.55 C57.66,28.55 61.45,33.27 61.45,33.27 C62.21,33.02 62.98,32.81 63.77,32.64 C63.77,32.64 64.69,26.66 64.69,26.66 C64.69,26.66 71.55,26.66 71.55,26.66 C71.55,26.66 72.46,32.64 72.46,32.64 C73.25,32.81 74.03,33.02 74.79,33.27 C74.79,33.27 78.58,28.55 78.58,28.55 C78.58,28.55 84.51,31.97 84.51,31.97 C84.51,31.97 82.32,37.61 82.32,37.61 C82.91,38.15 83.48,38.72 84.02,39.32 C84.02,39.32 89.66,37.12 89.66,37.12 C89.66,37.12 93.09,43.06 93.09,43.06 C93.09,43.06 88.37,46.84 88.37,46.84 C88.62,47.6 88.82,48.38 88.99,49.17 C88.99,49.17 94.97,50.09 94.97,50.09 C94.97,50.09 94.97,54.85 94.97,54.85z "/><path id="_R_G_L_8_G_D_2_P_0" fill="#ffffff" fill-opacity="1" fill-rule="nonzero" d=" M83.96 54.85 C83.96,54.85 81.48,54.85 81.48,54.85 C81.48,54.85 81.48,53.52 81.48,53.52 C81.48,46.15 75.48,40.16 68.12,40.16 C60.75,40.16 54.76,46.15 54.76,53.52 C54.76,53.52 54.76,54.85 54.76,54.85 C54.76,54.85 52.28,54.85 52.28,54.85 C52.28,54.85 52.28,53.52 52.28,53.52 C52.28,44.78 59.38,37.67 68.12,37.67 C76.85,37.67 83.96,44.78 83.96,53.52 C83.96,53.52 83.96,54.85 83.96,54.85z "/><path id="_R_G_L_8_G_D_3_P_0" fill="#ffffff" fill-opacity="1" fill-rule="nonzero" d=" M63.21 54.85 C63.21,54.85 60.73,54.85 60.73,54.85 C60.73,54.85 60.73,53.52 60.73,53.52 C60.73,49.44 64.05,46.13 68.12,46.13 C72.19,46.13 75.51,49.44 75.51,53.52 C75.51,53.52 75.51,54.85 75.51,54.85 C75.51,54.85 73.02,54.85 73.02,54.85 C73.02,54.85 73.02,53.52 73.02,53.52 C73.02,50.81 70.82,48.61 68.12,48.61 C65.41,48.61 63.21,50.81 63.21,53.52 C63.21,53.52 63.21,54.85 63.21,54.85z "/><path id="_R_G_L_8_G_D_4_P_0" fill="#ffffff" fill-opacity="1" fill-rule="nonzero" d=" M101.46 95.83 C101.46,95.83 98.97,95.83 98.97,95.83 C98.97,95.83 98.97,56.99 98.97,56.99 C98.97,56.75 98.88,56.52 98.71,56.35 C98.54,56.18 98.31,56.09 98.07,56.09 C98.07,56.09 38.16,56.09 38.16,56.09 C37.92,56.09 37.7,56.18 37.53,56.35 C37.36,56.52 37.26,56.75 37.26,56.99 C37.26,56.99 37.26,95.83 37.26,95.83 C37.26,95.83 34.78,95.83 34.78,95.83 C34.78,95.83 34.78,56.99 34.78,56.99 C34.78,56.09 35.13,55.24 35.77,54.6 C36.41,53.96 37.26,53.61 38.16,53.61 C38.16,53.61 98.07,53.61 98.07,53.61 C98.97,53.61 99.82,53.96 100.46,54.6 C101.1,55.24 101.46,56.09 101.46,56.99 C101.46,56.99 101.46,95.83 101.46,95.83z "/><path id="_R_G_L_8_G_D_5_P_0" fill="#ffffff" fill-opacity="1" fill-rule="nonzero" d=" M96.31 95.83 C96.31,95.83 93.82,95.83 93.82,95.83 C93.82,95.83 93.82,61.24 93.82,61.24 C93.82,61.24 42.41,61.24 42.41,61.24 C42.41,61.24 42.41,95.83 42.41,95.83 C42.41,95.83 39.93,95.83 39.93,95.83 C39.93,95.83 39.93,58.75 39.93,58.75 C39.93,58.75 96.31,58.75 96.31,58.75 C96.31,58.75 96.31,95.83 96.31,95.83z "/><path id="_R_G_L_8_G_D_6_P_0" fill="#ffffff" fill-opacity="1" fill-rule="nonzero" d=" M103.54 103.46 C103.54,103.46 32.7,103.46 32.7,103.46 C31.51,103.46 30.4,103 29.56,102.17 C28.72,101.33 28.26,100.22 28.26,99.03 C28.26,99.03 28.26,94.59 28.26,94.59 C28.26,94.59 107.98,94.59 107.98,94.59 C107.98,94.59 107.98,99.03 107.98,99.03 C107.98,100.21 107.52,101.33 106.68,102.17 C105.84,103 104.73,103.46 103.54,103.46z  M30.74 97.07 C30.74,97.07 30.74,99.03 30.74,99.03 C30.74,99.55 30.94,100.04 31.31,100.41 C31.68,100.78 32.17,100.98 32.7,100.98 C32.7,100.98 103.54,100.98 103.54,100.98 C104.06,100.98 104.56,100.78 104.92,100.41 C105.29,100.04 105.5,99.55 105.5,99.03 C105.5,99.03 105.5,97.07 105.5,97.07 C105.5,97.07 30.74,97.07 30.74,97.07z "/><path id="_R_G_L_8_G_D_7_P_0" fill="#ffffff" fill-opacity="1" fill-rule="nonzero" d=" M67.74 84.61 C67.74,84.61 65.25,84.61 65.25,84.61 C65.25,84.61 65.25,69.88 65.25,69.88 C65.25,69.88 71.6,69.88 71.6,69.88 C72.75,69.88 73.83,70.33 74.64,71.14 C75.46,71.96 75.9,73.04 75.9,74.18 C75.9,75.33 75.46,76.41 74.64,77.23 C73.83,78.04 72.75,78.49 71.6,78.49 C71.6,78.49 67.74,78.49 67.74,78.49 C67.74,78.49 67.74,84.61 67.74,84.61z  M67.74 76.01 C67.74,76.01 71.6,76.01 71.6,76.01 C72.09,76.01 72.54,75.82 72.89,75.47 C73.23,75.13 73.42,74.67 73.42,74.18 C73.42,73.7 73.23,73.24 72.89,72.9 C72.54,72.55 72.09,72.36 71.6,72.36 C71.6,72.36 67.74,72.36 67.74,72.36 C67.74,72.36 67.74,76.01 67.74,76.01z "/><path id="_R_G_L_8_G_D_8_P_0" fill="#ffffff" fill-opacity="1" fill-rule="nonzero" d=" M62.02 84.61 C62.02,84.61 59.54,84.61 59.54,84.61 C59.54,84.61 59.54,74.18 59.54,74.18 C59.54,73.7 59.35,73.24 59,72.9 C58.66,72.55 58.2,72.36 57.71,72.36 C57.71,72.36 55.67,72.36 55.67,72.36 C55.18,72.36 54.73,72.55 54.39,72.9 C54.04,73.24 53.85,73.7 53.85,74.18 C53.85,74.18 53.85,84.61 53.85,84.61 C53.85,84.61 51.37,84.61 51.37,84.61 C51.37,84.61 51.37,74.18 51.37,74.18 C51.37,73.04 51.82,71.95 52.63,71.14 C53.44,70.33 54.52,69.88 55.67,69.88 C55.67,69.88 57.71,69.88 57.71,69.88 C58.86,69.88 59.94,70.33 60.76,71.14 C61.57,71.96 62.02,73.04 62.02,74.18 C62.02,74.18 62.02,84.61 62.02,84.61z "/><path id="_R_G_L_8_G_D_9_P_0" fill="#ffffff" fill-opacity="1" fill-rule="nonzero" d=" M62.02 78.49 C62.02,78.49 51.37,78.49 51.37,78.49 C51.37,78.49 51.37,76.01 51.37,76.01 C51.37,76.01 62.02,76.01 62.02,76.01 C62.02,76.01 62.02,78.49 62.02,78.49z "/><path id="_R_G_L_8_G_D_10_P_0" fill="#ffffff" fill-opacity="1" fill-rule="nonzero" d=" M83.24 83.37 C83.24,83.37 80.76,83.37 80.76,83.37 C80.76,83.37 80.76,71.12 80.76,71.12 C80.76,71.12 83.24,71.12 83.24,71.12 C83.24,71.12 83.24,83.37 83.24,83.37z "/><path id="_R_G_L_8_G_D_11_P_0" fill="#ffffff" fill-opacity="1" fill-rule="nonzero" d=" M84.87 72.36 C84.87,72.36 79.12,72.36 79.12,72.36 C79.12,72.36 79.12,69.88 79.12,69.88 C79.12,69.88 84.87,69.88 84.87,69.88 C84.87,69.88 84.87,72.36 84.87,72.36z "/><path id="_R_G_L_8_G_D_12_P_0" fill="#ffffff" fill-opacity="1" fill-rule="nonzero" d=" M84.87 84.61 C84.87,84.61 79.12,84.61 79.12,84.61 C79.12,84.61 79.12,82.13 79.12,82.13 C79.12,82.13 84.87,82.13 84.87,82.13 C84.87,82.13 84.87,84.61 84.87,84.61z "/><path id="_R_G_L_8_G_D_13_P_0" fill="#ffffff" fill-opacity="1" fill-rule="nonzero" d=" M90.7 78.49 C90.7,78.49 88.22,78.49 88.22,78.49 C88.22,78.49 88.22,76.01 88.22,76.01 C88.22,76.01 90.7,76.01 90.7,76.01 C90.7,76.01 90.7,78.49 90.7,78.49z "/><path id="_R_G_L_8_G_D_14_P_0" fill="#ffffff" fill-opacity="1" fill-rule="nonzero" d=" M48.02 78.49 C48.02,78.49 45.54,78.49 45.54,78.49 C45.54,78.49 45.54,76.01 45.54,76.01 C45.54,76.01 48.02,76.01 48.02,76.01 C48.02,76.01 48.02,78.49 48.02,78.49z "/></g></g><g id="_R_G_L_7_G_M"><g id="_R_G_L_7_G"><path id="_R_G_L_7_G_D_0_P_0" fill="#dc4867" fill-opacity="1" fill-rule="nonzero" d=" M127.47 63.86 C127.47,98.99 98.99,127.47 63.86,127.47 C28.73,127.47 0.25,98.99 0.25,63.86 C0.25,28.73 28.73,0.25 63.86,0.25 C98.99,0.25 127.47,28.73 127.47,63.86z "/><path id="_R_G_L_7_G_D_1_P_0" fill="#ffffff" fill-opacity="1" fill-rule="nonzero" d=" M80.4 77.92 C74.82,77.92 69.68,75.37 66.29,70.92 C66.29,70.92 68.27,69.42 68.27,69.42 C71.18,73.24 75.6,75.44 80.4,75.44 C88.81,75.44 95.65,68.6 95.65,60.19 C95.65,51.78 88.81,44.94 80.4,44.94 C75.6,44.94 71.18,47.13 68.26,50.96 C68.26,50.96 66.29,49.45 66.29,49.45 C69.68,45 74.82,42.45 80.4,42.45 C90.18,42.45 98.14,50.41 98.14,60.19 C98.14,69.97 90.18,77.92 80.4,77.92z "/><path id="_R_G_L_7_G_D_2_P_0" fill="#ffffff" fill-opacity="1" fill-rule="nonzero" d=" M81.48 67.89 C81.48,67.89 79.32,67.89 79.32,67.89 C78.13,67.89 77.01,67.42 76.17,66.58 C75.32,65.73 74.86,64.61 74.86,63.42 C74.86,63.42 77.34,63.42 77.34,63.42 C77.34,63.95 77.54,64.45 77.92,64.83 C78.29,65.2 78.79,65.41 79.32,65.41 C79.32,65.41 81.48,65.41 81.48,65.41 C82.01,65.41 82.51,65.2 82.89,64.82 C83.26,64.45 83.47,63.95 83.47,63.42 C83.47,62.88 83.26,62.39 82.88,62.01 C82.51,61.63 82.01,61.43 81.48,61.43 C81.48,61.43 79.32,61.43 79.32,61.43 C78.13,61.43 77.01,60.96 76.16,60.12 C75.32,59.27 74.86,58.15 74.86,56.96 C74.86,55.76 75.32,54.64 76.16,53.8 C77.01,52.95 78.13,52.48 79.32,52.48 C79.32,52.48 81.48,52.48 81.48,52.48 C82.67,52.48 83.79,52.95 84.64,53.79 C85.48,54.64 85.95,55.76 85.95,56.96 C85.95,56.96 83.47,56.96 83.47,56.96 C83.47,56.43 83.26,55.93 82.88,55.55 C82.51,55.17 82.01,54.97 81.48,54.97 C81.48,54.97 79.32,54.97 79.32,54.97 C78.8,54.97 78.3,55.17 77.92,55.55 C77.55,55.93 77.34,56.43 77.34,56.96 C77.34,57.49 77.55,57.99 77.92,58.36 C78.29,58.74 78.79,58.95 79.32,58.95 C79.32,58.95 81.48,58.95 81.48,58.95 C82.68,58.95 83.8,59.41 84.64,60.26 C85.48,61.1 85.95,62.22 85.95,63.42 C85.95,64.61 85.49,65.73 84.64,66.58 C83.79,67.42 82.67,67.89 81.48,67.89z "/><path id="_R_G_L_7_G_D_3_P_0" fill="#ffffff" fill-opacity="1" fill-rule="nonzero" d=" M81.65 53.73 C81.65,53.73 79.16,53.73 79.16,53.73 C79.16,53.73 79.16,51.14 79.16,51.14 C79.16,51.14 81.65,51.14 81.65,51.14 C81.65,51.14 81.65,53.73 81.65,53.73z "/><path id="_R_G_L_7_G_D_4_P_0" fill="#ffffff" fill-opacity="1" fill-rule="nonzero" d=" M81.65 69.23 C81.65,69.23 79.16,69.23 79.16,69.23 C79.16,69.23 79.16,66.65 79.16,66.65 C79.16,66.65 81.65,66.65 81.65,66.65 C81.65,66.65 81.65,69.23 81.65,69.23z "/><path id="_R_G_L_7_G_D_5_P_0" fill="#ffffff" fill-opacity="1" fill-rule="nonzero" d=" M80.4 82.71 C73.94,82.71 67.79,79.93 63.51,75.08 C63.51,75.08 65.38,73.44 65.38,73.44 C69.18,77.76 74.65,80.23 80.4,80.23 C91.45,80.23 100.44,71.24 100.44,60.18 C100.44,49.13 91.45,40.14 80.4,40.14 C74.65,40.14 69.18,42.62 65.38,46.93 C65.38,46.93 63.51,45.29 63.51,45.29 C67.79,40.44 73.94,37.66 80.4,37.66 C92.82,37.66 102.92,47.77 102.92,60.18 C102.92,72.61 92.82,82.71 80.4,82.71z "/><path id="_R_G_L_7_G_D_6_P_0" fill="#ffffff" fill-opacity="1" fill-rule="nonzero" d=" M48.48 82.71 C36.06,82.71 25.96,72.6 25.96,60.19 C25.96,47.77 36.06,37.67 48.48,37.67 C60.9,37.67 71,47.77 71,60.19 C71,72.6 60.9,82.71 48.48,82.71z  M48.48 40.15 C37.43,40.15 28.44,49.14 28.44,60.19 C28.44,71.24 37.43,80.23 48.48,80.23 C59.53,80.23 68.52,71.24 68.52,60.19 C68.52,49.14 59.53,40.15 48.48,40.15z "/><path id="_R_G_L_7_G_D_7_P_0" fill="#ffffff" fill-opacity="1" fill-rule="nonzero" d=" M48.48 82.71 C41.82,82.71 36.6,72.82 36.6,60.19 C36.6,47.56 41.82,37.67 48.48,37.67 C48.48,37.67 48.48,40.15 48.48,40.15 C43.39,40.15 39.08,49.33 39.08,60.19 C39.08,71.05 43.39,80.23 48.48,80.23 C48.48,80.23 48.48,82.71 48.48,82.71z "/><path id="_R_G_L_7_G_D_8_P_0" fill="#ffffff" fill-opacity="1" fill-rule="nonzero" d=" M48.48 82.71 C48.48,82.71 48.48,80.23 48.48,80.23 C53.58,80.23 57.88,71.05 57.88,60.19 C57.88,49.33 53.58,40.15 48.48,40.15 C48.48,40.15 48.48,37.67 48.48,37.67 C55.14,37.67 60.36,47.56 60.36,60.19 C60.36,72.82 55.14,82.71 48.48,82.71z "/><path id="_R_G_L_7_G_D_9_P_0" fill="#ffffff" fill-opacity="1" fill-rule="nonzero" d=" M49.72 81.47 C49.72,81.47 47.24,81.47 47.24,81.47 C47.24,81.47 47.24,38.91 47.24,38.91 C47.24,38.91 49.72,38.91 49.72,38.91 C49.72,38.91 49.72,81.47 49.72,81.47z "/><path id="_R_G_L_7_G_D_10_P_0" fill="#ffffff" fill-opacity="1" fill-rule="nonzero" d=" M69.76 61.43 C69.76,61.43 27.2,61.43 27.2,61.43 C27.2,61.43 27.2,58.95 27.2,58.95 C27.2,58.95 69.76,58.95 69.76,58.95 C69.76,58.95 69.76,61.43 69.76,61.43z "/><path id="_R_G_L_7_G_D_11_P_0" fill="#ffffff" fill-opacity="1" fill-rule="nonzero" d=" M48.48 50.79 C42.69,50.79 36.97,49.88 31.49,48.08 C31.49,48.08 32.26,45.72 32.26,45.72 C37.49,47.44 42.95,48.31 48.48,48.31 C54.02,48.31 59.48,47.44 64.71,45.72 C64.71,45.72 65.48,48.08 65.48,48.08 C60,49.88 54.28,50.79 48.48,50.79z "/><path id="_R_G_L_7_G_D_12_P_0" fill="#ffffff" fill-opacity="1" fill-rule="nonzero" d=" M32.26 74.66 C32.26,74.66 31.49,72.3 31.49,72.3 C36.97,70.5 42.69,69.58 48.48,69.58 C54.28,69.58 60,70.5 65.48,72.3 C65.48,72.3 64.71,74.66 64.71,74.66 C59.48,72.94 54.02,72.07 48.48,72.07 C42.95,72.07 37.5,72.94 32.26,74.66z "/><path id="_R_G_L_7_G_D_13_P_0" fill="#ffffff" fill-opacity="1" fill-rule="nonzero" d=" M75.37 104.41 C75.37,104.41 70.64,99.69 70.64,99.69 C70.64,99.69 72.4,97.93 72.4,97.93 C72.4,97.93 77.12,102.66 77.12,102.66 C77.12,102.66 75.37,104.41 75.37,104.41z "/><path id="_R_G_L_7_G_D_14_P_0" fill="#ffffff" fill-opacity="1" fill-rule="nonzero" d=" M67.7 104.38 C67.7,104.38 62.38,89.67 62.38,89.67 C62.38,89.67 77.08,95 77.08,95 C77.08,95 67.7,104.38 67.7,104.38z  M66.52 93.81 C66.52,93.81 68.71,99.86 68.71,99.86 C68.71,99.86 72.57,96 72.57,96 C72.57,96 66.52,93.81 66.52,93.81z "/><path id="_R_G_L_7_G_D_15_P_0" fill="#ffffff" fill-opacity="1" fill-rule="nonzero" d=" M59.24 88.29 C59.24,88.29 56.23,85.28 56.23,85.28 C56.23,85.28 57.99,83.52 57.99,83.52 C57.99,83.52 61,86.53 61,86.53 C61,86.53 59.24,88.29 59.24,88.29z "/><path id="_R_G_L_7_G_D_16_P_0" fill="#ffffff" fill-opacity="1" fill-rule="nonzero" d=" M63.21 85.62 C63.21,85.62 63.21,81.36 63.21,81.36 C63.21,81.36 65.69,81.36 65.69,81.36 C65.69,81.36 65.69,85.62 65.69,85.62 C65.69,85.62 63.21,85.62 63.21,85.62z "/><path id="_R_G_L_7_G_D_17_P_0" fill="#ffffff" fill-opacity="1" fill-rule="nonzero" d=" M69.65 88.29 C69.65,88.29 67.89,86.53 67.89,86.53 C67.89,86.53 70.9,83.52 70.9,83.52 C70.9,83.52 72.66,85.28 72.66,85.28 C72.66,85.28 69.65,88.29 69.65,88.29z "/><path id="_R_G_L_7_G_D_18_P_0" fill="#ffffff" fill-opacity="1" fill-rule="nonzero" d=" M58.33 92.98 C58.33,92.98 54.07,92.98 54.07,92.98 C54.07,92.98 54.07,90.5 54.07,90.5 C54.07,90.5 58.33,90.5 58.33,90.5 C58.33,90.5 58.33,92.98 58.33,92.98z "/><path id="_R_G_L_7_G_D_19_P_0" fill="#ffffff" fill-opacity="1" fill-rule="nonzero" d=" M57.99 99.95 C57.99,99.95 56.23,98.2 56.23,98.2 C56.23,98.2 59.24,95.18 59.24,95.18 C59.24,95.18 61,96.94 61,96.94 C61,96.94 57.99,99.95 57.99,99.95z "/></g></g><g id="_R_G_L_6_G_M"><g id="_R_G_L_6_G"><path id="_R_G_L_6_G_D_0_P_0" fill="#dc4867" fill-opacity="1" fill-rule="nonzero" d=" M25.09 115.05 C0.25,90.21 0.25,49.93 25.09,25.09 C49.93,0.25 90.21,0.25 115.05,25.09 C139.89,49.93 139.89,90.21 115.05,115.05 C90.21,139.89 49.93,139.89 25.09,115.05z "/><path id="_R_G_L_6_G_D_1_P_0" fill="#ffffff" fill-opacity="1" fill-rule="nonzero" d=" M104.3 99.57 C104.3,99.57 33.4,99.57 33.4,99.57 C33.4,99.57 33.4,47.43 33.4,47.43 C33.4,47.43 104.3,47.43 104.3,47.43 C104.3,47.43 104.3,99.57 104.3,99.57z  M35.89 97.08 C35.89,97.08 101.82,97.08 101.82,97.08 C101.82,97.08 101.82,49.91 101.82,49.91 C101.82,49.91 35.89,49.91 35.89,49.91 C35.89,49.91 35.89,97.08 35.89,97.08z "/><path id="_R_G_L_6_G_D_2_P_0" fill="#ffffff" fill-opacity="1" fill-rule="nonzero" d=" M104.3 49.91 C104.3,49.91 33.4,49.91 33.4,49.91 C33.4,49.91 33.4,38.81 33.4,38.81 C33.4,38.81 104.3,38.81 104.3,38.81 C104.3,38.81 104.3,49.91 104.3,49.91z  M35.89 47.43 C35.89,47.43 101.82,47.43 101.82,47.43 C101.82,47.43 101.82,41.29 101.82,41.29 C101.82,41.29 35.89,41.29 35.89,41.29 C35.89,41.29 35.89,47.43 35.89,47.43z "/><path id="_R_G_L_6_G_D_3_P_0" fill="#ffffff" fill-opacity="1" fill-rule="nonzero" d=" M57.95 98.32 C57.95,98.32 55.47,98.32 55.47,98.32 C55.47,98.32 55.47,48.67 55.47,48.67 C55.47,48.67 57.95,48.67 57.95,48.67 C57.95,48.67 57.95,98.32 57.95,98.32z "/><path id="_R_G_L_6_G_D_4_P_0" fill="#ffffff" fill-opacity="1" fill-rule="nonzero" d=" M52.58 45.6 C52.58,45.6 49.82,45.6 49.82,45.6 C49.82,45.6 49.82,43.12 49.82,43.12 C49.82,43.12 52.58,43.12 52.58,43.12 C52.58,43.12 52.58,45.6 52.58,45.6z "/><path id="_R_G_L_6_G_D_5_P_0" fill="#ffffff" fill-opacity="1" fill-rule="nonzero" d=" M47.06 45.6 C47.06,45.6 44.3,45.6 44.3,45.6 C44.3,45.6 44.3,43.12 44.3,43.12 C44.3,43.12 47.06,43.12 47.06,43.12 C47.06,43.12 47.06,45.6 47.06,45.6z "/><path id="_R_G_L_6_G_D_6_P_0" fill="#ffffff" fill-opacity="1" fill-rule="nonzero" d=" M41.54 45.6 C41.54,45.6 38.78,45.6 38.78,45.6 C38.78,45.6 38.78,43.12 38.78,43.12 C38.78,43.12 41.54,43.12 41.54,43.12 C41.54,43.12 41.54,45.6 41.54,45.6z "/><path id="_R_G_L_6_G_D_7_P_0" fill="#ffffff" fill-opacity="1" fill-rule="nonzero" d=" M76.71 60.95 C76.71,60.95 68.71,60.95 68.71,60.95 C68.71,60.95 68.71,52.95 68.71,52.95 C68.71,52.95 76.71,52.95 76.71,52.95 C76.71,52.95 76.71,60.95 76.71,60.95z  M71.19 58.46 C71.19,58.46 74.23,58.46 74.23,58.46 C74.23,58.46 74.23,55.43 74.23,55.43 C74.23,55.43 71.19,55.43 71.19,55.43 C71.19,55.43 71.19,58.46 71.19,58.46z "/><path id="_R_G_L_6_G_D_8_P_0" fill="#ffffff" fill-opacity="1" fill-rule="nonzero" d=" M87.75 60.95 C87.75,60.95 79.75,60.95 79.75,60.95 C79.75,60.95 79.75,52.95 79.75,52.95 C79.75,52.95 87.75,52.95 87.75,52.95 C87.75,52.95 87.75,60.95 87.75,60.95z  M82.23 58.46 C82.23,58.46 85.26,58.46 85.26,58.46 C85.26,58.46 85.26,55.43 85.26,55.43 C85.26,55.43 82.23,55.43 82.23,55.43 C82.23,55.43 82.23,58.46 82.23,58.46z "/><path id="_R_G_L_6_G_D_9_P_0" fill="#ffffff" fill-opacity="1" fill-rule="nonzero" d=" M98.78 60.95 C98.78,60.95 90.78,60.95 90.78,60.95 C90.78,60.95 90.78,52.95 90.78,52.95 C90.78,52.95 98.78,52.95 98.78,52.95 C98.78,52.95 98.78,60.95 98.78,60.95z  M93.26 58.46 C93.26,58.46 96.3,58.46 96.3,58.46 C96.3,58.46 96.3,55.43 96.3,55.43 C96.3,55.43 93.26,55.43 93.26,55.43 C93.26,55.43 93.26,58.46 93.26,58.46z "/><path id="_R_G_L_6_G_D_10_P_0" fill="#ffffff" fill-opacity="1" fill-rule="nonzero" d=" M98.78 71.98 C98.78,71.98 68.71,71.98 68.71,71.98 C68.71,71.98 68.71,63.98 68.71,63.98 C68.71,63.98 98.78,63.98 98.78,63.98 C98.78,63.98 98.78,71.98 98.78,71.98z  M71.19 69.5 C71.19,69.5 96.3,69.5 96.3,69.5 C96.3,69.5 96.3,66.46 96.3,66.46 C96.3,66.46 71.19,66.46 71.19,66.46 C71.19,66.46 71.19,69.5 71.19,69.5z "/><path id="_R_G_L_6_G_D_11_P_0" fill="#ffffff" fill-opacity="1" fill-rule="nonzero" d=" M98.78 83.01 C98.78,83.01 68.71,83.01 68.71,83.01 C68.71,83.01 68.71,75.02 68.71,75.02 C68.71,75.02 98.78,75.02 98.78,75.02 C98.78,75.02 98.78,83.01 98.78,83.01z  M71.19 80.53 C71.19,80.53 96.3,80.53 96.3,80.53 C96.3,80.53 96.3,77.5 96.3,77.5 C96.3,77.5 71.19,77.5 71.19,77.5 C71.19,77.5 71.19,80.53 71.19,80.53z "/><path id="_R_G_L_6_G_D_12_P_0" fill="#ffffff" fill-opacity="1" fill-rule="nonzero" d=" M82.23 94.05 C82.23,94.05 68.71,94.05 68.71,94.05 C68.71,94.05 68.71,86.05 68.71,86.05 C68.71,86.05 82.23,86.05 82.23,86.05 C82.23,86.05 82.23,94.05 82.23,94.05z  M71.2 91.57 C71.2,91.57 79.75,91.57 79.75,91.57 C79.75,91.57 79.75,88.53 79.75,88.53 C79.75,88.53 71.2,88.53 71.2,88.53 C71.2,88.53 71.2,91.57 71.2,91.57z "/><path id="_R_G_L_6_G_D_13_P_0" fill="#ffffff" fill-opacity="1" fill-rule="nonzero" d=" M66.09 91.29 C66.09,91.29 60.99,91.29 60.99,91.29 C60.99,91.29 60.99,55.71 60.99,55.71 C60.99,55.71 66.09,55.71 66.09,55.71 C66.09,55.71 66.09,58.19 66.09,58.19 C66.09,58.19 63.47,58.19 63.47,58.19 C63.47,58.19 63.47,88.81 63.47,88.81 C63.47,88.81 66.09,88.81 66.09,88.81 C66.09,88.81 66.09,91.29 66.09,91.29z "/><path id="_R_G_L_6_G_D_14_P_0" fill="#ffffff" fill-opacity="1" fill-rule="nonzero" d=" M66.09 69.22 C66.09,69.22 62.23,69.22 62.23,69.22 C62.23,69.22 62.23,66.74 62.23,66.74 C62.23,66.74 66.09,66.74 66.09,66.74 C66.09,66.74 66.09,69.22 66.09,69.22z "/><path id="_R_G_L_6_G_D_15_P_0" fill="#ffffff" fill-opacity="1" fill-rule="nonzero" d=" M66.09 80.26 C66.09,80.26 62.23,80.26 62.23,80.26 C62.23,80.26 62.23,77.78 62.23,77.78 C62.23,77.78 66.09,77.78 66.09,77.78 C66.09,77.78 66.09,80.26 66.09,80.26z "/><path id="_R_G_L_6_G_D_16_P_0" fill="#ffffff" fill-opacity="1" fill-rule="nonzero" d=" M98.92 91.29 C98.92,91.29 96.16,91.29 96.16,91.29 C96.16,91.29 96.16,88.81 96.16,88.81 C96.16,88.81 98.92,88.81 98.92,88.81 C98.92,88.81 98.92,91.29 98.92,91.29z "/><path id="_R_G_L_6_G_D_17_P_0" fill="#ffffff" fill-opacity="1" fill-rule="nonzero" d=" M93.4 91.29 C93.4,91.29 90.64,91.29 90.64,91.29 C90.64,91.29 90.64,88.81 90.64,88.81 C90.64,88.81 93.4,88.81 93.4,88.81 C93.4,88.81 93.4,91.29 93.4,91.29z "/><path id="_R_G_L_6_G_D_18_P_0" fill="#ffffff" fill-opacity="1" fill-rule="nonzero" d=" M87.88 91.29 C87.88,91.29 85.13,91.29 85.13,91.29 C85.13,91.29 85.13,88.81 85.13,88.81 C85.13,88.81 87.88,88.81 87.88,88.81 C87.88,88.81 87.88,91.29 87.88,91.29z "/><path id="_R_G_L_6_G_D_19_P_0" fill="#ffffff" fill-opacity="1" fill-rule="nonzero" d=" M52.58 71.98 C52.58,71.98 38.78,71.98 38.78,71.98 C38.78,71.98 38.78,69.5 38.78,69.5 C38.78,69.5 52.58,69.5 52.58,69.5 C52.58,69.5 52.58,71.98 52.58,71.98z "/><path id="_R_G_L_6_G_D_20_P_0" fill="#ffffff" fill-opacity="1" fill-rule="nonzero" d=" M52.58 77.5 C52.58,77.5 38.78,77.5 38.78,77.5 C38.78,77.5 38.78,75.02 38.78,75.02 C38.78,75.02 52.58,75.02 52.58,75.02 C52.58,75.02 52.58,77.5 52.58,77.5z "/><path id="_R_G_L_6_G_D_21_P_0" fill="#ffffff" fill-opacity="1" fill-rule="nonzero" d=" M52.58 83.01 C52.58,83.01 38.78,83.01 38.78,83.01 C38.78,83.01 38.78,80.53 38.78,80.53 C38.78,80.53 52.58,80.53 52.58,80.53 C52.58,80.53 52.58,83.01 52.58,83.01z "/><path id="_R_G_L_6_G_D_22_P_0" fill="#ffffff" fill-opacity="1" fill-rule="nonzero" d=" M52.58 88.53 C52.58,88.53 38.78,88.53 38.78,88.53 C38.78,88.53 38.78,86.05 38.78,86.05 C38.78,86.05 52.58,86.05 52.58,86.05 C52.58,86.05 52.58,88.53 52.58,88.53z "/><path id="_R_G_L_6_G_D_23_P_0" fill="#ffffff" fill-opacity="1" fill-rule="nonzero" d=" M52.58 94.05 C52.58,94.05 38.78,94.05 38.78,94.05 C38.78,94.05 38.78,91.57 38.78,91.57 C38.78,91.57 52.58,91.57 52.58,91.57 C52.58,91.57 52.58,94.05 52.58,94.05z "/><path id="_R_G_L_6_G_D_24_P_0" fill="#ffffff" fill-opacity="1" fill-rule="nonzero" d=" M52.44 66.46 C52.44,66.46 38.92,66.46 38.92,66.46 C38.92,66.46 38.92,52.95 38.92,52.95 C38.92,52.95 52.44,52.95 52.44,52.95 C52.44,52.95 52.44,66.46 52.44,66.46z  M41.4 63.98 C41.4,63.98 49.95,63.98 49.95,63.98 C49.95,63.98 49.95,55.43 49.95,55.43 C49.95,55.43 41.4,55.43 41.4,55.43 C41.4,55.43 41.4,63.98 41.4,63.98z "/></g></g><g id="_R_G_L_5_G_M"><g id="_R_G_L_5_G"><path id="_R_G_L_5_G_D_0_P_0" fill="#dc4867" fill-opacity="1" fill-rule="nonzero" d=" M63.86 127.47 C28.73,127.47 0.25,98.99 0.25,63.86 C0.25,28.73 28.73,0.25 63.86,0.25 C98.99,0.25 127.47,28.73 127.47,63.86 C127.47,98.99 98.99,127.47 63.86,127.47z "/><path id="_R_G_L_5_G_D_1_P_0" fill="#ffffff" fill-opacity="1" fill-rule="nonzero" d=" M101.64 95.52 C101.64,95.52 68.95,95.52 68.95,95.52 C68.95,95.52 68.95,93.04 68.95,93.04 C68.95,93.04 99.16,93.04 99.16,93.04 C99.16,93.04 99.16,43.8 99.16,43.8 C99.16,43.8 32.68,43.8 32.68,43.8 C32.68,43.8 32.68,93.04 32.68,93.04 C32.68,93.04 62.89,93.04 62.89,93.04 C62.89,93.04 62.89,95.52 62.89,95.52 C62.89,95.52 30.2,95.52 30.2,95.52 C30.2,95.52 30.2,41.32 30.2,41.32 C30.2,41.32 101.64,41.32 101.64,41.32 C101.64,41.32 101.64,95.52 101.64,95.52z "/><path id="_R_G_L_5_G_D_2_P_0" fill="#ffffff" fill-opacity="1" fill-rule="nonzero" d=" M101.64 43.8 C101.64,43.8 30.2,43.8 30.2,43.8 C30.2,43.8 30.2,32.7 30.2,32.7 C30.2,32.7 101.64,32.7 101.64,32.7 C101.64,32.7 101.64,43.8 101.64,43.8z  M32.68 41.32 C32.68,41.32 99.16,41.32 99.16,41.32 C99.16,41.32 99.16,35.18 99.16,35.18 C99.16,35.18 32.68,35.18 32.68,35.18 C32.68,35.18 32.68,41.32 32.68,41.32z "/><path id="_R_G_L_5_G_D_3_P_0" fill="#ffffff" fill-opacity="1" fill-rule="nonzero" d=" M49.14 39.49 C49.14,39.49 46.66,39.49 46.66,39.49 C46.66,39.49 46.66,37.01 46.66,37.01 C46.66,37.01 49.14,37.01 49.14,37.01 C49.14,37.01 49.14,39.49 49.14,39.49z "/><path id="_R_G_L_5_G_D_4_P_0" fill="#ffffff" fill-opacity="1" fill-rule="nonzero" d=" M44.17 39.49 C44.17,39.49 41.69,39.49 41.69,39.49 C41.69,39.49 41.69,37.01 41.69,37.01 C41.69,37.01 44.17,37.01 44.17,37.01 C44.17,37.01 44.17,39.49 44.17,39.49z "/><path id="_R_G_L_5_G_D_5_P_0" fill="#ffffff" fill-opacity="1" fill-rule="nonzero" d=" M39.21 39.49 C39.21,39.49 36.73,39.49 36.73,39.49 C36.73,39.49 36.73,37.01 36.73,37.01 C36.73,37.01 39.21,37.01 39.21,37.01 C39.21,37.01 39.21,39.49 39.21,39.49z "/><path id="_R_G_L_5_G_D_6_P_0" fill="#ffffff" fill-opacity="1" fill-rule="nonzero" d=" M65.92 86.21 C56.11,86.21 48.13,78.23 48.13,68.42 C48.13,58.61 56.11,50.63 65.92,50.63 C75.73,50.63 83.71,58.61 83.71,68.42 C83.71,78.23 75.73,86.21 65.92,86.21z  M65.92 53.11 C57.48,53.11 50.61,59.98 50.61,68.42 C50.61,76.86 57.48,83.73 65.92,83.73 C74.36,83.73 81.23,76.86 81.23,68.42 C81.23,59.98 74.36,53.11 65.92,53.11z "/><path id="_R_G_L_5_G_D_7_P_0" fill="#ffffff" fill-opacity="1" fill-rule="nonzero" d=" M73.23 90.92 C73.23,90.92 58.61,90.92 58.61,90.92 C58.61,90.92 58.61,83.82 58.61,83.82 C58.61,83.82 61.09,83.82 61.09,83.82 C61.09,83.82 61.09,88.44 61.09,88.44 C61.09,88.44 70.75,88.44 70.75,88.44 C70.75,88.44 70.75,83.82 70.75,83.82 C70.75,83.82 73.23,83.82 73.23,83.82 C73.23,83.82 73.23,90.92 73.23,90.92z "/><path id="_R_G_L_5_G_D_8_P_0" fill="#ffffff" fill-opacity="1" fill-rule="nonzero" d=" M70.19 103.99 C70.19,103.99 67.71,103.99 67.71,103.99 C67.71,103.99 67.71,89.68 67.71,89.68 C67.71,89.68 70.19,89.68 70.19,89.68 C70.19,89.68 70.19,103.99 70.19,103.99z "/><path id="_R_G_L_5_G_D_9_P_0" fill="#ffffff" fill-opacity="1" fill-rule="nonzero" d=" M64.13 103.99 C64.13,103.99 61.65,103.99 61.65,103.99 C61.65,103.99 61.65,89.68 61.65,89.68 C61.65,89.68 64.13,89.68 64.13,89.68 C64.13,89.68 64.13,103.99 64.13,103.99z "/><path id="_R_G_L_5_G_D_10_P_0" fill="#ffffff" fill-opacity="1" fill-rule="nonzero" d=" M60.43 74.06 C60.43,74.06 54.79,68.42 54.79,68.42 C54.79,68.42 60.43,62.78 60.43,62.78 C60.43,62.78 62.18,64.54 62.18,64.54 C62.18,64.54 58.3,68.42 58.3,68.42 C58.3,68.42 62.18,72.31 62.18,72.31 C62.18,72.31 60.43,74.06 60.43,74.06z "/><path id="_R_G_L_5_G_D_11_P_0" fill="#ffffff" fill-opacity="1" fill-rule="nonzero" d=" M71.42 74.06 C71.42,74.06 69.66,72.3 69.66,72.3 C69.66,72.3 73.54,68.42 73.54,68.42 C73.54,68.42 69.66,64.54 69.66,64.54 C69.66,64.54 71.42,62.78 71.42,62.78 C71.42,62.78 77.05,68.42 77.05,68.42 C77.05,68.42 71.42,74.06 71.42,74.06z "/><path id="_R_G_L_5_G_D_12_P_0" fill="#ffffff" fill-opacity="1" fill-rule="nonzero" d=" M65.71 76.73 C65.71,76.73 63.27,76.3 63.27,76.3 C63.27,76.3 66.13,60.11 66.13,60.11 C66.13,60.11 68.57,60.54 68.57,60.54 C68.57,60.54 65.71,76.73 65.71,76.73z "/><path id="_R_G_L_5_G_D_13_P_0" fill="#ffffff" fill-opacity="1" fill-rule="nonzero" d=" M41.64 64.7 C41.64,64.7 39.16,64.7 39.16,64.7 C39.16,64.7 39.16,62.21 39.16,62.21 C39.16,62.21 41.64,62.21 41.64,62.21 C41.64,62.21 41.64,64.7 41.64,64.7z "/><path id="_R_G_L_5_G_D_14_P_0" fill="#ffffff" fill-opacity="1" fill-rule="nonzero" d=" M41.64 69.66 C41.64,69.66 39.16,69.66 39.16,69.66 C39.16,69.66 39.16,67.18 39.16,67.18 C39.16,67.18 41.64,67.18 41.64,67.18 C41.64,67.18 41.64,69.66 41.64,69.66z "/><path id="_R_G_L_5_G_D_15_P_0" fill="#ffffff" fill-opacity="1" fill-rule="nonzero" d=" M41.64 74.63 C41.64,74.63 39.16,74.63 39.16,74.63 C39.16,74.63 39.16,72.15 39.16,72.15 C39.16,72.15 41.64,72.15 41.64,72.15 C41.64,72.15 41.64,74.63 41.64,74.63z "/><path id="_R_G_L_5_G_D_16_P_0" fill="#ffffff" fill-opacity="1" fill-rule="nonzero" d=" M92.68 64.7 C92.68,64.7 90.2,64.7 90.2,64.7 C90.2,64.7 90.2,62.21 90.2,62.21 C90.2,62.21 92.68,62.21 92.68,62.21 C92.68,62.21 92.68,64.7 92.68,64.7z "/><path id="_R_G_L_5_G_D_17_P_0" fill="#ffffff" fill-opacity="1" fill-rule="nonzero" d=" M92.68 69.66 C92.68,69.66 90.2,69.66 90.2,69.66 C90.2,69.66 90.2,67.18 90.2,67.18 C90.2,67.18 92.68,67.18 92.68,67.18 C92.68,67.18 92.68,69.66 92.68,69.66z "/><path id="_R_G_L_5_G_D_18_P_0" fill="#ffffff" fill-opacity="1" fill-rule="nonzero" d=" M92.68 74.63 C92.68,74.63 90.2,74.63 90.2,74.63 C90.2,74.63 90.2,72.15 90.2,72.15 C90.2,72.15 92.68,72.15 92.68,72.15 C92.68,72.15 92.68,74.63 92.68,74.63z "/></g></g><g id="_R_G_L_4_G_M"><g id="_R_G_L_4_G"><path id="_R_G_L_4_G_D_0_P_0" fill="#dc4867" fill-opacity="1" fill-rule="nonzero" d=" M25.09 25.09 C49.93,0.25 90.21,0.25 115.05,25.09 C139.89,49.93 139.89,90.21 115.05,115.05 C90.21,139.89 49.93,139.89 25.09,115.05 C0.25,90.21 0.25,49.93 25.09,25.09z "/><path id="_R_G_L_4_G_D_1_P_0" fill="#ffffff" fill-opacity="1" fill-rule="nonzero" d=" M86.59 94.05 C86.59,94.05 49.91,94.05 49.91,94.05 C49.91,94.05 49.91,91.57 49.91,91.57 C49.91,91.57 86.59,91.57 86.59,91.57 C87.99,91.57 89.31,91.02 90.29,90.03 C91.28,89.05 91.82,87.73 91.82,86.33 C91.82,84.94 91.28,83.62 90.29,82.63 C89.31,81.64 87.99,81.1 86.59,81.1 C86.59,81.1 49.91,81.1 49.91,81.1 C49.91,81.1 49.91,78.62 49.91,78.62 C49.91,78.62 86.59,78.62 86.59,78.62 C88.66,78.62 90.59,79.42 92.05,80.88 C93.51,82.34 94.31,84.27 94.31,86.33 C94.31,88.4 93.51,90.33 92.05,91.79 C90.59,93.24 88.66,94.05 86.59,94.05z "/><path id="_R_G_L_4_G_D_2_P_0" fill="#ffffff" fill-opacity="1" fill-rule="nonzero" d=" M87.56 81.1 C87.56,81.1 48.95,81.1 48.95,81.1 C48.95,81.1 42.23,55.02 42.23,55.02 C42.23,55.02 44.63,54.4 44.63,54.4 C44.63,54.4 50.87,78.62 50.87,78.62 C50.87,78.62 85.63,78.62 85.63,78.62 C85.63,78.62 95.9,38.74 95.9,38.74 C95.9,38.74 105.88,38.74 105.88,38.74 C105.88,38.74 105.88,41.22 105.88,41.22 C105.88,41.22 97.82,41.22 97.82,41.22 C97.82,41.22 87.56,81.1 87.56,81.1z "/><path id="_R_G_L_4_G_D_3_P_0" fill="#ffffff" fill-opacity="1" fill-rule="nonzero" d=" M53.43 107.43 C50.8,107.43 48.67,105.29 48.67,102.66 C48.67,100.04 50.8,97.9 53.43,97.9 C56.05,97.9 58.19,100.04 58.19,102.66 C58.19,105.29 56.05,107.43 53.43,107.43z  M53.43 100.39 C52.17,100.39 51.15,101.41 51.15,102.66 C51.15,103.92 52.17,104.95 53.43,104.95 C54.68,104.95 55.71,103.92 55.71,102.66 C55.71,101.41 54.68,100.39 53.43,100.39z "/><path id="_R_G_L_4_G_D_4_P_0" fill="#ffffff" fill-opacity="1" fill-rule="nonzero" d=" M89.55 107.43 C86.92,107.43 84.79,105.29 84.79,102.66 C84.79,100.04 86.92,97.9 89.55,97.9 C92.17,97.9 94.31,100.04 94.31,102.66 C94.31,105.29 92.17,107.43 89.55,107.43z  M89.55 100.39 C88.29,100.39 87.27,101.41 87.27,102.66 C87.27,103.92 88.29,104.95 89.55,104.95 C90.8,104.95 91.83,103.92 91.83,102.66 C91.83,101.41 90.8,100.39 89.55,100.39z "/><path id="_R_G_L_4_G_D_5_P_0" fill="#ffffff" fill-opacity="1" fill-rule="nonzero" d=" M68.25 72.58 C60.47,72.58 54.14,66.24 54.14,58.46 C54.14,50.68 60.47,44.34 68.25,44.34 C76.03,44.34 82.37,50.68 82.37,58.46 C82.37,59.15 81.81,59.7 81.12,59.7 C80.44,59.7 79.88,59.15 79.88,58.46 C79.88,52.05 74.66,46.83 68.25,46.83 C61.84,46.83 56.62,52.05 56.62,58.46 C56.62,64.88 61.84,70.09 68.25,70.09 C70.3,70.09 72.32,69.56 74.07,68.54 C74.66,68.2 75.42,68.4 75.77,68.99 C76.11,69.58 75.91,70.34 75.32,70.69 C73.18,71.92 70.74,72.58 68.25,72.58z "/><path id="_R_G_L_4_G_D_6_P_0" fill="#ffffff" fill-opacity="1" fill-rule="nonzero" d=" M68.25 66.14 C64.02,66.14 60.58,62.7 60.58,58.46 C60.58,54.23 64.02,50.78 68.25,50.78 C72.49,50.78 75.93,54.23 75.93,58.46 C75.93,62.7 72.49,66.14 68.25,66.14z  M68.25 53.27 C65.39,53.27 63.06,55.6 63.06,58.46 C63.06,61.33 65.39,63.66 68.25,63.66 C71.12,63.66 73.45,61.33 73.45,58.46 C73.45,55.6 71.12,53.27 68.25,53.27z "/><path id="_R_G_L_4_G_D_7_P_0" fill="#ffffff" fill-opacity="1" fill-rule="nonzero" d=" M77.91 66.14 C76.72,66.14 75.6,65.68 74.76,64.84 C73.92,64.01 73.45,62.89 73.45,61.68 C73.45,61.68 73.45,58.46 73.45,58.46 C73.45,57.78 74.01,57.22 74.69,57.22 C75.38,57.22 75.93,57.78 75.93,58.46 C75.93,58.46 75.93,61.68 75.93,61.68 C75.93,62.22 76.14,62.71 76.51,63.08 C77.27,63.84 78.57,63.82 79.32,63.08 C79.68,62.71 79.88,62.22 79.88,61.68 C79.88,61.68 79.88,58.46 79.88,58.46 C79.88,57.78 80.44,57.22 81.12,57.22 C81.81,57.22 82.37,57.78 82.37,58.46 C82.37,58.46 82.37,61.68 82.37,61.68 C82.37,62.87 81.91,63.99 81.07,64.83 C80.22,65.68 79.1,66.14 77.91,66.14z "/></g></g><g id="_R_G_L_3_G_M"><g id="_R_G_L_3_G"><path id="_R_G_L_3_G_D_0_P_0" fill="#dc4867" fill-opacity="1" fill-rule="nonzero" d=" M127.47 63.86 C127.47,98.99 98.99,127.47 63.86,127.47 C28.73,127.47 0.25,98.99 0.25,63.86 C0.25,28.73 28.73,0.25 63.86,0.25 C98.99,0.25 127.47,28.73 127.47,63.86z "/><path id="_R_G_L_3_G_D_1_P_0" fill="#ffffff" fill-opacity="1" fill-rule="nonzero" d=" M80.55 98 C80.55,98 59.37,98 59.37,98 C59.37,98 59.37,90.97 59.37,90.97 C59.37,90.97 61.86,90.97 61.86,90.97 C61.86,90.97 61.86,95.52 61.86,95.52 C61.86,95.52 78.07,95.52 78.07,95.52 C78.07,95.52 78.07,90.97 78.07,90.97 C78.07,90.97 80.55,90.97 80.55,90.97 C80.55,90.97 80.55,98 80.55,98z "/><path id="_R_G_L_3_G_D_2_P_0" fill="#ffffff" fill-opacity="1" fill-rule="nonzero" d=" M84.65 98 C84.65,98 55.28,98 55.28,98 C55.28,98 55.28,95.52 55.28,95.52 C55.28,95.52 84.65,95.52 84.65,95.52 C84.65,95.52 84.65,98 84.65,98z "/><path id="_R_G_L_3_G_D_3_P_0" fill="#ffffff" fill-opacity="1" fill-rule="nonzero" d=" M102.99 81.02 C102.99,81.02 45.1,81.02 45.1,81.02 C45.1,81.02 45.1,69.72 45.1,69.72 C45.1,69.26 44.72,68.88 44.26,68.88 C44.26,68.88 36.94,68.88 36.94,68.88 C36.94,68.88 36.94,38.96 36.94,38.96 C36.94,38.04 37.3,37.16 37.96,36.5 C38.62,35.84 39.5,35.48 40.42,35.48 C40.42,35.48 71.85,35.48 71.85,35.48 C71.85,35.48 71.85,37.96 71.85,37.96 C71.85,37.96 40.42,37.96 40.42,37.96 C40.16,37.96 39.9,38.07 39.71,38.26 C39.53,38.45 39.42,38.7 39.42,38.96 C39.42,38.96 39.42,66.4 39.42,66.4 C39.42,66.4 44.26,66.4 44.26,66.4 C46.09,66.4 47.58,67.89 47.58,69.72 C47.58,69.72 47.58,78.54 47.58,78.54 C47.58,78.54 100.5,78.54 100.5,78.54 C100.5,78.54 100.5,38.96 100.5,38.96 C100.5,38.7 100.4,38.45 100.21,38.25 C100.02,38.07 99.77,37.96 99.5,37.96 C99.5,37.96 96.45,37.96 96.45,37.96 C96.45,37.96 96.45,35.48 96.45,35.48 C96.45,35.48 99.5,35.48 99.5,35.48 C100.44,35.48 101.31,35.84 101.97,36.5 C102.62,37.16 102.99,38.04 102.99,38.96 C102.99,38.96 102.99,81.02 102.99,81.02z "/><path id="_R_G_L_3_G_D_4_P_0" fill="#ffffff" fill-opacity="1" fill-rule="nonzero" d=" M99.5 88.5 C99.5,88.5 45.1,88.5 45.1,88.5 C45.1,88.5 45.1,78.54 45.1,78.54 C45.1,78.54 102.99,78.54 102.99,78.54 C102.99,78.54 102.99,85.01 102.99,85.01 C102.99,85.95 102.62,86.83 101.96,87.48 C101.31,88.14 100.44,88.5 99.5,88.5z  M47.58 86.01 C47.58,86.01 99.5,86.01 99.5,86.01 C99.77,86.01 100.02,85.91 100.21,85.73 C100.4,85.53 100.5,85.28 100.5,85.01 C100.5,85.01 100.5,81.02 100.5,81.02 C100.5,81.02 47.58,81.02 47.58,81.02 C47.58,81.02 47.58,86.01 47.58,86.01z "/><path id="_R_G_L_3_G_D_5_P_0" fill="#ffffff" fill-opacity="1" fill-rule="nonzero" d=" M97.69 75.72 C97.69,75.72 46.34,75.72 46.34,75.72 C46.34,75.72 46.34,73.24 46.34,73.24 C46.34,73.24 95.21,73.24 95.21,73.24 C95.21,73.24 95.21,61.86 95.21,61.86 C95.21,61.86 97.69,61.86 97.69,61.86 C97.69,61.86 97.69,75.72 97.69,75.72z "/><path id="_R_G_L_3_G_D_6_P_0" fill="#ffffff" fill-opacity="1" fill-rule="nonzero" d=" M44.72 67.64 C44.72,67.64 42.24,67.64 42.24,67.64 C42.24,67.64 42.24,40.78 42.24,40.78 C42.24,40.78 71.85,40.78 71.85,40.78 C71.85,40.78 71.85,43.26 71.85,43.26 C71.85,43.26 44.72,43.26 44.72,43.26 C44.72,43.26 44.72,67.64 44.72,67.64z "/><path id="_R_G_L_3_G_D_7_P_0" fill="#ffffff" fill-opacity="1" fill-rule="nonzero" d=" M39.51 73.12 C39.51,73.12 36.86,73.12 36.86,73.12 C36.86,73.12 36.86,70.64 36.86,70.64 C36.86,70.64 39.51,70.64 39.51,70.64 C39.51,70.64 39.51,73.12 39.51,73.12z "/><path id="_R_G_L_3_G_D_8_P_0" fill="#ffffff" fill-opacity="1" fill-rule="nonzero" d=" M41.1 93.76 C41.1,93.76 35.27,93.76 35.27,93.76 C35.27,93.76 35.27,91.28 35.27,91.28 C35.27,91.28 41.1,91.28 41.1,91.28 C41.1,91.28 41.1,93.76 41.1,93.76z "/><path id="_R_G_L_3_G_D_9_P_0" fill="#ffffff" fill-opacity="1" fill-rule="nonzero" d=" M44.26 98 C44.26,98 32.1,98 32.1,98 C30.27,98 28.78,96.51 28.78,94.68 C28.78,94.68 28.78,69.72 28.78,69.72 C28.78,67.89 30.27,66.4 32.1,66.4 C32.1,66.4 44.26,66.4 44.26,66.4 C46.09,66.4 47.58,67.89 47.58,69.72 C47.58,69.72 47.58,94.68 47.58,94.68 C47.58,96.51 46.09,98 44.26,98z  M32.1 68.88 C31.65,68.88 31.27,69.26 31.27,69.72 C31.27,69.72 31.27,94.68 31.27,94.68 C31.27,95.14 31.64,95.51 32.1,95.51 C32.1,95.51 44.26,95.51 44.26,95.51 C44.72,95.51 45.1,95.14 45.1,94.68 C45.1,94.68 45.1,69.72 45.1,69.72 C45.1,69.26 44.72,68.88 44.26,68.88 C44.26,68.88 32.1,68.88 32.1,68.88z "/><path id="_R_G_L_3_G_D_10_P_0" fill="#ffffff" fill-opacity="1" fill-rule="nonzero" d=" M85.47 37.96 C85.47,37.96 82.83,37.96 82.83,37.96 C82.83,37.96 82.83,35.48 82.83,35.48 C82.83,35.48 85.47,35.48 85.47,35.48 C85.47,35.48 85.47,37.96 85.47,37.96z "/><path id="_R_G_L_3_G_D_11_P_0" fill="#ffffff" fill-opacity="1" fill-rule="nonzero" d=" M88.12 60.93 C88.12,60.93 80.18,60.93 80.18,60.93 C80.18,60.93 80.18,58.45 80.18,58.45 C80.18,58.45 88.12,58.45 88.12,58.45 C88.12,58.45 88.12,60.93 88.12,60.93z "/><path id="_R_G_L_3_G_D_12_P_0" fill="#ffffff" fill-opacity="1" fill-rule="nonzero" d=" M93.32 66.23 C93.32,66.23 74.98,66.23 74.98,66.23 C72.57,66.23 70.61,64.27 70.61,61.86 C70.61,61.86 70.61,34.56 70.61,34.56 C70.61,32.15 72.57,30.18 74.98,30.18 C74.98,30.18 93.32,30.18 93.32,30.18 C95.73,30.18 97.69,32.15 97.69,34.56 C97.69,34.56 97.69,61.86 97.69,61.86 C97.69,64.27 95.73,66.23 93.32,66.23z  M74.98 32.67 C73.94,32.67 73.09,33.52 73.09,34.56 C73.09,34.56 73.09,61.86 73.09,61.86 C73.09,62.9 73.94,63.75 74.98,63.75 C74.98,63.75 93.32,63.75 93.32,63.75 C94.36,63.75 95.21,62.9 95.21,61.86 C95.21,61.86 95.21,34.56 95.21,34.56 C95.21,33.52 94.36,32.67 93.32,32.67 C93.32,32.67 74.98,32.67 74.98,32.67z "/></g></g><g id="_R_G_L_2_G_M"><g id="_R_G_L_2_G"><path id="_R_G_L_2_G_D_0_P_0" fill="#dc4867" fill-opacity="1" fill-rule="nonzero" d=" M25.09 115.05 C0.25,90.21 0.25,49.93 25.09,25.09 C49.93,0.25 90.21,0.25 115.05,25.09 C139.89,49.93 139.89,90.21 115.05,115.05 C90.21,139.89 49.93,139.89 25.09,115.05z "/><path id="_R_G_L_2_G_D_1_P_0" fill="#ffffff" fill-opacity="1" fill-rule="nonzero" d=" M69.99 73.55 C67.1,73.55 64.75,71.2 64.75,68.31 C64.75,65.42 67.1,63.07 69.99,63.07 C72.88,63.07 75.23,65.42 75.23,68.31 C75.23,71.2 72.88,73.55 69.99,73.55z  M69.99 65.55 C68.47,65.55 67.23,66.79 67.23,68.31 C67.23,69.83 68.47,71.07 69.99,71.07 C71.51,71.07 72.75,69.83 72.75,68.31 C72.75,66.79 71.51,65.55 69.99,65.55z "/><path id="_R_G_L_2_G_D_2_P_0" fill="#ffffff" fill-opacity="1" fill-rule="nonzero" d=" M75 80.5 C74.22,78.43 72.21,77.04 69.99,77.04 C67.78,77.04 65.76,78.43 64.99,80.5 C64.99,80.5 62.66,79.62 62.66,79.62 C63.8,76.59 66.75,74.55 69.99,74.55 C73.24,74.55 76.18,76.59 77.32,79.62 C77.32,79.62 75,80.5 75,80.5z "/><path id="_R_G_L_2_G_D_3_P_0" fill="#ffffff" fill-opacity="1" fill-rule="nonzero" d=" M87.85 95.11 C87.85,95.11 52.13,95.11 52.13,95.11 C52.13,95.11 52.13,45.4 52.13,45.4 C52.13,45.4 87.85,45.4 87.85,45.4 C87.85,45.4 87.85,95.11 87.85,95.11z  M54.61 92.63 C54.61,92.63 85.37,92.63 85.37,92.63 C85.37,92.63 85.37,47.88 85.37,47.88 C85.37,47.88 54.61,47.88 54.61,47.88 C54.61,47.88 54.61,92.63 54.61,92.63z "/><path id="_R_G_L_2_G_D_4_P_0" fill="#ffffff" fill-opacity="1" fill-rule="nonzero" d=" M69.99 83.08 C62.92,83.08 57.16,77.33 57.16,70.26 C57.16,63.18 62.92,57.43 69.99,57.43 C77.06,57.43 82.82,63.18 82.82,70.26 C82.82,77.33 77.06,83.08 69.99,83.08z  M69.99 59.91 C64.29,59.91 59.65,64.55 59.65,70.26 C59.65,75.96 64.29,80.6 69.99,80.6 C75.69,80.6 80.33,75.96 80.33,70.26 C80.33,64.55 75.69,59.91 69.99,59.91z "/><path id="_R_G_L_2_G_D_5_P_0" fill="#ffffff" fill-opacity="1" fill-rule="nonzero" d=" M71.42 42.47 C71.42,42.47 68.55,42.47 68.55,42.47 C68.55,42.47 68.55,39.99 68.55,39.99 C68.55,39.99 71.42,39.99 71.42,39.99 C71.42,39.99 71.42,42.47 71.42,42.47z "/><path id="_R_G_L_2_G_D_6_P_0" fill="#ffffff" fill-opacity="1" fill-rule="nonzero" d=" M76.11 100.51 C76.11,100.51 63.87,100.51 63.87,100.51 C63.87,100.51 63.87,98.03 63.87,98.03 C63.87,98.03 76.11,98.03 76.11,98.03 C76.11,98.03 76.11,100.51 76.11,100.51z "/><path id="_R_G_L_2_G_D_7_P_0" fill="#ffffff" fill-opacity="1" fill-rule="nonzero" d=" M86.69 107.35 C86.69,107.35 53.29,107.35 53.29,107.35 C49.78,107.35 46.93,104.5 46.93,101 C46.93,101 46.93,96.69 46.93,96.69 C46.93,96.69 49.41,96.69 49.41,96.69 C49.41,96.69 49.41,101 49.41,101 C49.41,103.13 51.15,104.87 53.29,104.87 C53.29,104.87 86.69,104.87 86.69,104.87 C88.83,104.87 90.57,103.13 90.57,101 C90.57,101 90.57,39.51 90.57,39.51 C90.57,37.37 88.83,35.63 86.69,35.63 C86.69,35.63 53.29,35.63 53.29,35.63 C51.15,35.63 49.41,37.37 49.41,39.51 C49.41,39.51 49.41,82.34 49.41,82.34 C49.41,82.34 46.93,82.34 46.93,82.34 C46.93,82.34 46.93,39.51 46.93,39.51 C46.93,36 49.78,33.15 53.29,33.15 C53.29,33.15 86.69,33.15 86.69,33.15 C90.2,33.15 93.05,36 93.05,39.51 C93.05,39.51 93.05,101 93.05,101 C93.05,104.5 90.2,107.35 86.69,107.35z "/><path id="_R_G_L_2_G_D_8_P_0" fill="#ffffff" fill-opacity="1" fill-rule="nonzero" d=" M54.61 97.93 C54.61,97.93 32.05,97.93 32.05,97.93 C32.05,97.93 32.05,81.1 32.05,81.1 C32.05,81.1 54.61,81.1 54.61,81.1 C54.61,81.1 54.61,97.93 54.61,97.93z  M34.53 95.45 C34.53,95.45 52.13,95.45 52.13,95.45 C52.13,95.45 52.13,83.58 52.13,83.58 C52.13,83.58 34.53,83.58 34.53,83.58 C34.53,83.58 34.53,95.45 34.53,95.45z "/><path id="_R_G_L_2_G_D_9_P_0" fill="#ffffff" fill-opacity="1" fill-rule="nonzero" d=" M43.33 93.15 C43.33,93.15 38.51,93.15 38.51,93.15 C38.51,93.15 38.51,90.66 38.51,90.66 C38.51,90.66 43.33,90.66 43.33,90.66 C43.33,90.66 43.33,93.15 43.33,93.15z "/><path id="_R_G_L_2_G_D_10_P_0" fill="#ffffff" fill-opacity="1" fill-rule="nonzero" d=" M48.15 88.36 C48.15,88.36 38.51,88.36 38.51,88.36 C38.51,88.36 38.51,85.88 38.51,85.88 C38.51,85.88 48.15,85.88 48.15,85.88 C48.15,85.88 48.15,88.36 48.15,88.36z "/><path id="_R_G_L_2_G_D_11_P_0" fill="#ffffff" fill-opacity="1" fill-rule="nonzero" d=" M107.97 83.58 C107.97,83.58 105.48,83.58 105.48,83.58 C105.48,83.58 105.48,81.1 105.48,81.1 C105.48,81.1 107.97,81.1 107.97,81.1 C107.97,81.1 107.97,83.58 107.97,83.58z "/><path id="_R_G_L_2_G_D_12_P_0" fill="#ffffff" fill-opacity="1" fill-rule="nonzero" d=" M103 83.58 C103,83.58 100.52,83.58 100.52,83.58 C100.52,83.58 100.52,81.1 100.52,81.1 C100.52,81.1 103,81.1 103,81.1 C103,81.1 103,83.58 103,83.58z  M98.04 83.58 C98.04,83.58 95.55,83.58 95.55,83.58 C95.55,83.58 95.55,81.1 95.55,81.1 C95.55,81.1 98.04,81.1 98.04,81.1 C98.04,81.1 98.04,83.58 98.04,83.58z "/><path id="_R_G_L_2_G_D_13_P_0" fill="#ffffff" fill-opacity="1" fill-rule="nonzero" d=" M103 47.88 C103,47.88 100.52,47.88 100.52,47.88 C100.52,47.88 100.52,45.4 100.52,45.4 C100.52,45.4 103,45.4 103,45.4 C103,45.4 103,47.88 103,47.88z  M98.04 47.88 C98.04,47.88 95.55,47.88 95.55,47.88 C95.55,47.88 95.55,45.4 95.55,45.4 C95.55,45.4 98.04,45.4 98.04,45.4 C98.04,45.4 98.04,47.88 98.04,47.88z "/><path id="_R_G_L_2_G_D_14_P_0" fill="#ffffff" fill-opacity="1" fill-rule="nonzero" d=" M107.97 47.88 C107.97,47.88 105.48,47.88 105.48,47.88 C105.48,47.88 105.48,45.4 105.48,45.4 C105.48,45.4 107.97,45.4 107.97,45.4 C107.97,45.4 107.97,47.88 107.97,47.88z "/><path id="_R_G_L_2_G_D_15_P_0" fill="#ffffff" fill-opacity="1" fill-rule="nonzero" d=" M107.97 78.55 C107.97,78.55 105.48,78.55 105.48,78.55 C105.48,78.55 105.48,75.99 105.48,75.99 C105.48,75.99 107.97,75.99 107.97,75.99 C107.97,75.99 107.97,78.55 107.97,78.55z  M107.97 73.44 C107.97,73.44 105.48,73.44 105.48,73.44 C105.48,73.44 105.48,70.88 105.48,70.88 C105.48,70.88 107.97,70.88 107.97,70.88 C107.97,70.88 107.97,73.44 107.97,73.44z  M107.97 68.32 C107.97,68.32 105.48,68.32 105.48,68.32 C105.48,68.32 105.48,65.77 105.48,65.77 C105.48,65.77 107.97,65.77 107.97,65.77 C107.97,65.77 107.97,68.32 107.97,68.32z  M107.97 63.22 C107.97,63.22 105.48,63.22 105.48,63.22 C105.48,63.22 105.48,60.66 105.48,60.66 C105.48,60.66 107.97,60.66 107.97,60.66 C107.97,60.66 107.97,63.22 107.97,63.22z  M107.97 58.1 C107.97,58.1 105.48,58.1 105.48,58.1 C105.48,58.1 105.48,55.55 105.48,55.55 C105.48,55.55 107.97,55.55 107.97,55.55 C107.97,55.55 107.97,58.1 107.97,58.1z  M107.97 52.99 C107.97,52.99 105.48,52.99 105.48,52.99 C105.48,52.99 105.48,50.44 105.48,50.44 C105.48,50.44 107.97,50.44 107.97,50.44 C107.97,50.44 107.97,52.99 107.97,52.99z "/></g></g><g id="_R_G_L_1_G_M"><g id="_R_G_L_1_G"><path id="_R_G_L_1_G_D_0_P_0" fill="#dc4867" fill-opacity="1" fill-rule="nonzero" d=" M63.86 127.47 C28.73,127.47 0.25,98.99 0.25,63.86 C0.25,28.73 28.73,0.25 63.86,0.25 C98.99,0.25 127.47,28.73 127.47,63.86 C127.47,98.99 98.99,127.47 63.86,127.47z "/><path id="_R_G_L_1_G_D_1_P_0" fill="#ffffff" fill-opacity="1" fill-rule="nonzero" d=" M63.94 88.62 C48.23,88.62 33.41,80.94 24.31,68.08 C24.31,68.08 23.8,67.36 23.8,67.36 C23.8,67.36 24.31,66.65 24.31,66.65 C33.41,53.79 48.23,46.11 63.94,46.11 C79.66,46.11 94.47,53.79 103.57,66.65 C103.57,66.65 104.08,67.36 104.08,67.36 C104.08,67.36 103.57,68.08 103.57,68.08 C94.47,80.94 79.66,88.62 63.94,88.62z  M26.85 67.36 C35.53,79.13 49.32,86.13 63.94,86.13 C78.56,86.13 92.36,79.13 101.03,67.36 C92.35,55.6 78.56,48.6 63.94,48.6 C49.33,48.6 35.53,55.6 26.85,67.36z "/><path id="_R_G_L_1_G_D_2_P_0" fill="#ffffff" fill-opacity="1" fill-rule="nonzero" d=" M63.94 88.62 C52.22,88.62 42.69,79.08 42.69,67.36 C42.69,55.65 52.22,46.11 63.94,46.11 C75.66,46.11 85.19,55.65 85.19,67.36 C85.19,79.08 75.66,88.62 63.94,88.62z  M63.94 48.6 C53.59,48.6 45.17,57.02 45.17,67.36 C45.17,77.71 53.59,86.13 63.94,86.13 C74.29,86.13 82.71,77.71 82.71,67.36 C82.71,57.02 74.29,48.6 63.94,48.6z "/><path id="_R_G_L_1_G_D_3_P_0" fill="#ffffff" fill-opacity="1" fill-rule="nonzero" d=" M63.94 75.4 C59.51,75.4 55.9,71.8 55.9,67.36 C55.9,62.93 59.51,59.33 63.94,59.33 C68.37,59.33 71.98,62.93 71.98,67.36 C71.98,71.8 68.37,75.4 63.94,75.4z  M63.94 61.81 C60.88,61.81 58.39,64.3 58.39,67.36 C58.39,70.43 60.88,72.92 63.94,72.92 C67,72.92 69.49,70.43 69.49,67.36 C69.49,64.3 67,61.81 63.94,61.81z "/><path id="_R_G_L_1_G_D_4_P_0" fill="#ffffff" fill-opacity="1" fill-rule="nonzero" d=" M60.5 55.52 C60.5,55.52 59.81,53.14 59.81,53.14 C61.15,52.75 62.54,52.55 63.94,52.55 C63.94,52.55 63.94,55.03 63.94,55.03 C62.78,55.03 61.62,55.2 60.5,55.52z "/><path id="_R_G_L_1_G_D_5_P_0" fill="#ffffff" fill-opacity="1" fill-rule="nonzero" d=" M51.61 67.37 C51.61,67.37 49.12,67.37 49.12,67.37 C49.12,61.86 52.16,56.84 57.03,54.27 C57.03,54.27 58.19,56.46 58.19,56.46 C54.13,58.6 51.61,62.78 51.61,67.37z "/></g></g><g id="_R_G_L_0_G_M"><g id="_R_G_L_0_G"><path id="_R_G_L_0_G_D_0_P_0" fill="#020202" fill-opacity="1" fill-rule="nonzero" d=" M244.59 136.97 C244.59,196.41 196.41,244.59 136.97,244.59 C77.53,244.59 29.35,196.41 29.35,136.97 C29.35,77.53 77.53,29.35 136.97,29.35 C196.41,29.35 244.59,77.53 244.59,136.97z "/><path id="_R_G_L_0_G_D_1_P_0" stroke="#dc4867" stroke-linecap="round" stroke-linejoin="round" fill="none" stroke-width="5" stroke-opacity="1" d=" M261.43 136.97 C261.43,205.71 205.71,261.43 136.97,261.43 C68.23,261.43 12.5,205.71 12.5,136.97 C12.5,68.23 68.23,12.5 136.97,12.5 C205.71,12.5 261.43,68.23 261.43,136.97z "/><path id="_R_G_L_0_G_D_2_P_0" fill="#ffffff" fill-opacity="1" fill-rule="nonzero" d=" M181.45 122.72 C181.45,122.72 134.37,126.89 134.37,126.89 C134.37,126.89 134.37,111.52 134.37,111.52 C134.37,111.52 181.45,113.41 181.45,113.41 C181.45,113.41 181.45,122.72 181.45,122.72z "/><path id="_R_G_L_0_G_D_3_P_0" fill="#ffffff" fill-opacity="1" fill-rule="nonzero" d=" M181.45 145.81 C181.45,145.81 134.37,166.37 134.37,166.37 C134.37,166.37 134.37,151 134.37,151 C134.37,151 181.45,136.52 181.45,136.52 C181.45,136.52 181.45,145.81 181.45,145.81z "/><path id="_R_G_L_0_G_D_4_P_0" fill="#ffffff" fill-opacity="1" fill-rule="nonzero" d=" M157.91 178.83 C157.91,178.83 147.62,185.93 147.62,185.93 C147.62,185.93 147.62,87.33 147.62,87.33 C147.62,87.33 157.91,90.06 157.91,90.06 C157.91,90.06 157.91,178.83 157.91,178.83z "/><path id="_R_G_L_0_G_D_5_P_0" fill="#ffffff" fill-opacity="1" fill-rule="nonzero" d=" M173.86 168.85 C173.86,168.85 165.25,174.79 165.25,174.79 C165.25,174.79 165.25,92.25 165.25,92.25 C165.25,92.25 173.86,94.54 173.86,94.54 C173.86,94.54 173.86,168.85 173.86,168.85z "/><path id="_R_G_L_0_G_D_6_P_0" fill="#ffffff" fill-opacity="1" fill-rule="nonzero" d=" M106.83 166.44 C106.83,166.44 99.04,163.3 99.04,163.3 C99.04,163.3 99.04,105.93 99.04,105.93 C99.04,105.93 106.83,103.77 106.83,103.77 C106.83,103.77 106.83,95.82 106.83,95.82 C106.83,95.82 92.48,100.25 92.48,100.25 C92.48,100.25 92.48,167.75 92.48,167.75 C92.48,167.75 106.83,174.17 106.83,174.17 C106.83,174.17 106.83,166.44 106.83,166.44z "/><path id="_R_G_L_0_G_D_7_P_0" fill="#ffffff" fill-opacity="1" fill-rule="nonzero" d=" M117.7 92.81 C117.7,92.81 117.7,101.31 117.7,101.31 C117.7,101.31 129.22,98.17 129.22,98.17 C129.22,98.17 129.22,173.33 129.22,173.33 C129.22,173.33 117.7,169.71 117.7,169.71 C117.7,169.71 117.7,178.53 117.7,178.53 C117.7,178.53 138.46,186.88 138.46,186.88 C138.46,186.88 138.46,87.06 138.46,87.06 C138.46,87.06 117.7,92.81 117.7,92.81z "/></g></g></g><g id="time_group"/></svg>