<svg xmlns="http://www.w3.org/2000/svg" xmlns:xlink="http://www.w3.org/1999/xlink" width="255" height="255" viewBox="0 0 255 255">
  <defs>
    <linearGradient id="linear-gradient" x1="1.396" y1="-0.381" x2="-0.054" y2="1.049" gradientUnits="objectBoundingBox">
      <stop offset="0" stop-color="#e32a40"/>
      <stop offset="0.241" stop-color="#00c4ff"/>
      <stop offset="0.468" stop-color="#d5aaff"/>
      <stop offset="0.744" stop-color="#dd3448"/>
      <stop offset="1" stop-color="#ffe200"/>
    </linearGradient>
    <clipPath id="clip-path">
      <rect id="Rectangle_9689" data-name="Rectangle 9689" width="96.074" height="96" fill="none"/>
    </clipPath>
  </defs>
  <g id="Group_45545" data-name="Group 45545" transform="translate(-1252.5 -1504.5)">
    <g id="Group_45336" data-name="Group 45336">
      <path id="Union_12" data-name="Union 12" d="M-1928-9229h216a19,19,0,0,1,19,19v216a19,19,0,0,1-19,19h-216a19,19,0,0,1-19-19v-216A19,19,0,0,1-1928-9229Z" transform="translate(3200 10734)" stroke="rgba(0,0,0,0)" stroke-width="1" fill="url(#linear-gradient)"/>
      <rect id="Rectangle_8907" data-name="Rectangle 8907" width="224" height="224" rx="10" transform="translate(1268 1520)" fill="#fff" stroke="rgba(0,0,0,0)" stroke-width="1"/>
    </g>
    <text id="Tailored_Offerings" data-name="Tailored
Offerings" transform="translate(1380 1693)" font-size="18" font-family="Poppins-Bold, Poppins" font-weight="700"><tspan x="-37.863" y="0">Tailored</tspan><tspan x="-42.993" y="27">Offerings</tspan></text>
    <g id="Group_45367" data-name="Group 45367" transform="translate(1332 1549)">
      <g id="Group_45366" data-name="Group 45366" transform="translate(0 0)" clip-path="url(#clip-path)">
        <path id="Path_54305" data-name="Path 54305" d="M94.073,79.988H88.066V31.947a2,2,0,0,0-2-2H61.333a9.123,9.123,0,0,0-1.246-7.2L68.13,14.7a7.863,7.863,0,0,0,9.606-1.216,7.949,7.949,0,0,0,0-11.232,8.128,8.128,0,0,0-11.231,0A7.935,7.935,0,0,0,65.3,11.873L57.26,19.908a9.3,9.3,0,0,0-10.172,0l-8.041-8.04a7.931,7.931,0,0,0-1.214-9.611,8.127,8.127,0,0,0-11.23,0A7.921,7.921,0,0,0,36.218,14.7l8.04,8.037a9.351,9.351,0,0,0-1.289,3.081H31.607a7.925,7.925,0,0,0-15.6,2.006,7.836,7.836,0,0,0,.326,2.126H10.005a2,2,0,0,0-2,2V79.988H2a2,2,0,0,0-2,2v6A8.014,8.014,0,0,0,8.006,96H88.068a8.014,8.014,0,0,0,8.006-8.006v-6a2,2,0,0,0-2-2M69.336,5.083c1.886-1.657,3.737-1.391,5.569,0a3.944,3.944,0,0,1,0,5.57,4.037,4.037,0,0,1-5.569,0,3.944,3.944,0,0,1,0-5.57M35,10.653a4.037,4.037,0,0,1-5.569,0,3.938,3.938,0,1,1,5.569,0M52.169,22.4a5.424,5.424,0,0,1,.013,10.847l-.014,0-.012,0A5.424,5.424,0,0,1,52.169,22.4m3.939,33.639A3.939,3.939,0,1,1,52.169,52.1a3.944,3.944,0,0,1,3.939,3.938M23.954,23.881a3.938,3.938,0,1,1-3.939,3.938,3.943,3.943,0,0,1,3.939-3.938M12.007,33.948h6.4a1.926,1.926,0,0,0,.446-.09,7.862,7.862,0,0,0,12.752-4.042H42.966a9.443,9.443,0,0,0,7.2,7.2V48.379a7.943,7.943,0,1,0,4,0V37.022a9.332,9.332,0,0,0,3.086-1.291l8.039,8.039a7.928,7.928,0,1,0,12.442-1.616,8.141,8.141,0,0,0-9.594-1.2l-7.009-7.009h22.93V79.984H12.007ZM69.336,44.985a3.938,3.938,0,0,1,5.569,5.57,4.028,4.028,0,0,1-5.569,0,3.944,3.944,0,0,1,0-5.57m22.735,43.01a4.008,4.008,0,0,1-4,4H8.006a4.008,4.008,0,0,1-4-4v-4H92.071Z" transform="translate(0 0)"/>
      </g>
    </g>
  </g>
</svg>
