<svg data-name="Group 45367" xmlns="http://www.w3.org/2000/svg" width="77.207" height="77.148" viewBox="0 0 77.207 77.148">
    <defs>
        <clipPath id="iap7kuewla">
            <path data-name="Rectangle 9689" style="fill:none" d="M0 0h77.207v77.148H0z"/>
        </clipPath>
    </defs>
    <g data-name="Group 45366" style="clip-path:url(#iap7kuewla)">
        <path data-name="Path 54305" d="M75.6 64.281h-4.828V25.674a1.608 1.608 0 0 0-1.609-1.609H49.288a7.332 7.332 0 0 0-1-5.789l6.463-6.463a6.319 6.319 0 0 0 7.72-.977 6.388 6.388 0 0 0 0-9.026 6.532 6.532 0 0 0-9.025 0 6.377 6.377 0 0 0-.972 7.731L46.015 16a7.476 7.476 0 0 0-8.174 0l-6.462-6.466A6.374 6.374 0 0 0 30.4 1.81a6.531 6.531 0 0 0-9.024 0 6.365 6.365 0 0 0 7.726 10l6.461 6.459a7.515 7.515 0 0 0-1.036 2.476H25.4a6.368 6.368 0 0 0-12.533 1.612 6.3 6.3 0 0 0 .262 1.709H8.04a1.608 1.608 0 0 0-1.608 1.609v38.606H1.608A1.607 1.607 0 0 0 0 65.889v4.826a6.44 6.44 0 0 0 6.434 6.434h64.34a6.44 6.44 0 0 0 6.434-6.434v-4.826a1.608 1.608 0 0 0-1.608-1.608M55.72 4.085c1.515-1.332 3-1.118 4.476 0a3.169 3.169 0 0 1 0 4.476 3.244 3.244 0 0 1-4.476 0 3.169 3.169 0 0 1 0-4.476M28.129 8.561a3.244 3.244 0 0 1-4.476 0 3.165 3.165 0 1 1 4.476 0M41.924 18a4.359 4.359 0 0 1 .01 8.717H41.914a4.359 4.359 0 0 1 .01-8.717m3.166 27.031a3.165 3.165 0 1 1-3.166-3.165 3.169 3.169 0 0 1 3.166 3.165m-25.84-25.84a3.165 3.165 0 1 1-3.166 3.165 3.169 3.169 0 0 1 3.166-3.165m-9.6 8.091h5.15a1.548 1.548 0 0 0 .359-.072A6.318 6.318 0 0 0 25.4 23.961h9.127a7.588 7.588 0 0 0 5.786 5.79v9.128a6.383 6.383 0 1 0 3.217 0v-9.127a7.5 7.5 0 0 0 2.48-1.037l6.46 6.46a6.371 6.371 0 1 0 10-1.3 6.543 6.543 0 0 0-7.71-.962l-5.632-5.632h18.426v37H9.649zm46.07 8.869a3.166 3.166 0 1 1 4.48 4.476 3.237 3.237 0 0 1-4.476 0 3.169 3.169 0 0 1 0-4.476M73.99 70.714a3.221 3.221 0 0 1-3.217 3.217H6.434a3.221 3.221 0 0 1-3.217-3.217V67.5H73.99z"/>
    </g>
</svg>
