<svg data-name="Group 45365" xmlns="http://www.w3.org/2000/svg" width="77.799" height="77.71" viewBox="0 0 77.799 77.71">
    <defs>
        <clipPath id="5vkx6ad7ca">
            <path data-name="Rectangle 9688" style="fill:none" d="M0 0h77.799v77.71H0z"/>
        </clipPath>
    </defs>
    <g data-name="Group 45364" style="clip-path:url(#5vkx6ad7ca)">
        <path data-name="Path 54296" d="M76.18 0H1.619A1.618 1.618 0 0 0 0 1.619V76.09a1.619 1.619 0 0 0 1.619 1.62h74.472a1.618 1.618 0 0 0 1.619-1.62l.09-74.471A1.618 1.618 0 0 0 76.18 0M3.238 3.238h25.528v9.714H3.238zm71.234 71.234H3.238V16.189h71.234zm0-61.521H32V3.237h42.472z"/>
        <path data-name="Path 54297" d="M9.904 6.476H7.677a1.619 1.619 0 1 0 0 3.238h2.227a1.619 1.619 0 1 0 0-3.238"/>
        <path data-name="Path 54298" d="M17.116 6.476h-2.228a1.619 1.619 0 1 0 0 3.238h2.227a1.619 1.619 0 1 0 0-3.238"/>
        <path data-name="Path 54299" d="M24.33 6.476H22.1a1.619 1.619 0 1 0 0 3.238h2.23a1.619 1.619 0 1 0 0-3.238"/>
        <path data-name="Path 54300" d="M37.094 9.714h32.38a1.619 1.619 0 0 0 0-3.238h-32.38a1.619 1.619 0 0 0 0 3.238"/>
        <path data-name="Path 54301" d="M69.616 19.681H8.095A1.619 1.619 0 0 0 6.476 21.3v9.717a1.619 1.619 0 0 0 1.619 1.619h61.521a1.619 1.619 0 0 0 1.618-1.619V21.3a1.619 1.619 0 0 0-1.619-1.619m-1.619 9.714H9.714v-6.478h58.283z"/>
        <path data-name="Path 54302" d="M69.615 38.083H41.168a1.619 1.619 0 0 0-1.619 1.619v9.713a1.619 1.619 0 0 0 1.619 1.62h28.447a1.619 1.619 0 0 0 1.619-1.619v-9.714a1.619 1.619 0 0 0-1.619-1.619m-1.619 9.712h-25.21v-6.474h25.21z"/>
        <path data-name="Path 54303" d="M69.615 57.511H41.168a1.619 1.619 0 0 0-1.619 1.619v9.714a1.619 1.619 0 0 0 1.619 1.619h28.447a1.619 1.619 0 0 0 1.619-1.619V59.13a1.619 1.619 0 0 0-1.619-1.619m-1.619 9.713h-25.21v-6.475h25.21z"/>
        <path data-name="Path 54304" d="M30.761 38.083H8.095a1.619 1.619 0 0 0-1.619 1.619v29.141a1.619 1.619 0 0 0 1.619 1.619h22.666a1.618 1.618 0 0 0 1.619-1.619V39.702a1.618 1.618 0 0 0-1.619-1.619m-1.62 29.141H9.714v-25.9h19.427z"/>
    </g>
</svg>
