<svg xmlns="http://www.w3.org/2000/svg" xmlns:xlink="http://www.w3.org/1999/xlink" width="255" height="255" viewBox="0 0 255 255">
  <defs>
    <linearGradient id="linear-gradient" x1="1.396" y1="-0.381" x2="-0.054" y2="1.049" gradientUnits="objectBoundingBox">
      <stop offset="0" stop-color="#e32a40"/>
      <stop offset="0.241" stop-color="#00c4ff"/>
      <stop offset="0.468" stop-color="#d5aaff"/>
      <stop offset="0.744" stop-color="#dd3448"/>
      <stop offset="1" stop-color="#ffe200"/>
    </linearGradient>
    <clipPath id="clip-path">
      <rect id="Rectangle_9688" data-name="Rectangle 9688" width="96.811" height="96.699" fill="none"/>
    </clipPath>
  </defs>
  <g id="Group_45543" data-name="Group 45543" transform="translate(-693.5 -1504.5)">
    <g id="Group_45334" data-name="Group 45334">
      <path id="Union_11" data-name="Union 11" d="M-1928-9229h216a19,19,0,0,1,19,19v216a19,19,0,0,1-19,19h-216a19,19,0,0,1-19-19v-216A19,19,0,0,1-1928-9229Z" transform="translate(2641 10734)" stroke="rgba(0,0,0,0)" stroke-width="1" fill="url(#linear-gradient)"/>
      <rect id="Rectangle_8905" data-name="Rectangle 8905" width="224" height="224" rx="10" transform="translate(709 1520)" fill="#fff" stroke="rgba(0,0,0,0)" stroke-width="1"/>
    </g>
    <text id="Track_Customer_In_your_sales_pipeline" data-name="Track Customer
In your sales pipeline" transform="translate(821 1691)" font-size="18" font-family="Poppins-Bold, Poppins" font-weight="700"><tspan x="-74.349" y="0">Track Customer</tspan><tspan x="-97.011" y="27">In your sales pipeline</tspan></text>
    <g id="Group_45365" data-name="Group 45365" transform="translate(773 1548.301)">
      <g id="Group_45364" data-name="Group 45364" clip-path="url(#clip-path)">
        <path id="Path_54296" data-name="Path 54296" d="M94.8,0H2.015A2.014,2.014,0,0,0,0,2.014v92.67A2.015,2.015,0,0,0,2.015,96.7h92.67A2.014,2.014,0,0,0,96.7,94.684l.112-92.67A2.014,2.014,0,0,0,94.8,0M4.029,4.029H35.8V16.117H4.029ZM92.67,92.67H4.029V20.145H92.67Zm0-76.554H39.824V4.028H92.67Z"/>
        <path id="Path_54297" data-name="Path 54297" d="M13.024,8.806H10.253a2.015,2.015,0,1,0,0,4.029h2.771a2.015,2.015,0,1,0,0-4.029" transform="translate(-0.7 -0.748)"/>
        <path id="Path_54298" data-name="Path 54298" d="M22.831,8.806H20.059a2.015,2.015,0,1,0,0,4.029h2.772a2.015,2.015,0,1,0,0-4.029" transform="translate(-1.533 -0.748)"/>
        <path id="Path_54299" data-name="Path 54299" d="M32.638,8.806H29.866a2.015,2.015,0,1,0,0,4.029h2.772a2.015,2.015,0,1,0,0-4.029" transform="translate(-2.366 -0.748)"/>
        <path id="Path_54300" data-name="Path 54300" d="M50.255,12.835H90.547a2.015,2.015,0,0,0,0-4.029H50.255a2.015,2.015,0,0,0,0,4.029" transform="translate(-4.097 -0.748)"/>
        <path id="Path_54301" data-name="Path 54301" d="M87.375,26.764H10.821a2.015,2.015,0,0,0-2.015,2.015V40.867a2.014,2.014,0,0,0,2.015,2.014H87.375a2.014,2.014,0,0,0,2.014-2.014V28.779a2.014,2.014,0,0,0-2.014-2.015M85.36,38.852H12.835V30.794H85.36Z" transform="translate(-0.748 -2.273)"/>
        <path id="Path_54302" data-name="Path 54302" d="M91.195,51.788h-35.4A2.015,2.015,0,0,0,53.779,53.8V65.89A2.015,2.015,0,0,0,55.794,67.9h35.4a2.014,2.014,0,0,0,2.014-2.015V53.8a2.014,2.014,0,0,0-2.014-2.015M89.18,63.875H57.809V55.817H89.18Z" transform="translate(-4.568 -4.399)"/>
        <path id="Path_54303" data-name="Path 54303" d="M91.195,78.207h-35.4a2.015,2.015,0,0,0-2.015,2.015V92.309a2.015,2.015,0,0,0,2.015,2.015h35.4a2.014,2.014,0,0,0,2.014-2.015V80.222a2.014,2.014,0,0,0-2.014-2.015M89.18,90.294H57.809V82.236H89.18Z" transform="translate(-4.568 -6.643)"/>
        <path id="Path_54304" data-name="Path 54304" d="M39.025,51.788h-28.2A2.015,2.015,0,0,0,8.806,53.8V90.065a2.015,2.015,0,0,0,2.015,2.015h28.2a2.014,2.014,0,0,0,2.014-2.015V53.8a2.014,2.014,0,0,0-2.014-2.015M37.01,88.05H12.835V55.817H37.01Z" transform="translate(-0.748 -4.399)"/>
      </g>
    </g>
  </g>
</svg>
