<svg data-name="magnifying-glass (1)" xmlns="http://www.w3.org/2000/svg" width="80.651" height="80.651" viewBox="0 0 80.651 80.651">
    <g data-name="Group 22542">
        <g data-name="Group 22540">
            <path data-name="Path 25787" d="M68.888 16.8a8.4 8.4 0 1 1 8.4-8.4 8.409 8.409 0 0 1-8.4 8.4zm0-13.442A5.041 5.041 0 1 0 73.93 8.4a5.047 5.047 0 0 0-5.042-5.04z"/>
        </g>
        <g data-name="Group 22541">
            <path data-name="Path 25788" d="M78.971 20.163a1.688 1.688 0 0 1-1.19-.491l-5.041-5.041a1.68 1.68 0 0 1 2.376-2.376l5.041 5.041a1.679 1.679 0 0 1-1.186 2.867z"/>
        </g>
    </g>
    <g data-name="Group 22543">
        <path data-name="Path 25789" d="M48.727 20.163H5.041A5.047 5.047 0 0 1 0 15.122V5.041A5.047 5.047 0 0 1 5.041 0h43.686a5.047 5.047 0 0 1 5.041 5.041v10.081a5.047 5.047 0 0 1-5.041 5.041zM5.041 3.36a1.685 1.685 0 0 0-1.68 1.68v10.082a1.685 1.685 0 0 0 1.68 1.68h43.686a1.685 1.685 0 0 0 1.68-1.68V5.041a1.685 1.685 0 0 0-1.68-1.68z"/>
    </g>
    <g data-name="Group 22544">
        <path data-name="Path 25790" d="M10.081 80.651a10.081 10.081 0 1 1 10.082-10.082 10.094 10.094 0 0 1-10.082 10.082zm0-16.8a6.721 6.721 0 1 0 6.719 6.718 6.728 6.728 0 0 0-6.719-6.721z"/>
    </g>
    <g data-name="Group 22545">
        <path data-name="Path 25791" d="M18.483 43.686H1.68a1.68 1.68 0 1 1 0-3.36h16.8a1.68 1.68 0 1 1 0 3.36z"/>
    </g>
    <g data-name="Group 22546">
        <path data-name="Path 25792" d="M18.483 53.767H1.68a1.68 1.68 0 0 1 0-3.36h16.8a1.68 1.68 0 0 1 0 3.36z"/>
    </g>
    <g data-name="Group 22547">
        <path data-name="Path 25793" d="M18.483 33.604H1.68a1.68 1.68 0 0 1 0-3.36h16.8a1.68 1.68 0 0 1 0 3.36z"/>
    </g>
    <g data-name="Group 22548">
        <path data-name="Path 25794" d="M75.611 80.651H31.925a5.047 5.047 0 0 1-5.041-5.04V31.925a5.047 5.047 0 0 1 5.041-5.041h43.686a5.047 5.047 0 0 1 5.041 5.041v43.686a5.047 5.047 0 0 1-5.041 5.04zM31.925 30.244a1.685 1.685 0 0 0-1.68 1.68v43.687a1.685 1.685 0 0 0 1.68 1.68h43.686a1.685 1.685 0 0 0 1.68-1.68V31.925a1.685 1.685 0 0 0-1.68-1.68z"/>
    </g>
    <g data-name="Group 22551">
        <g data-name="Group 22549">
            <path data-name="Path 25795" d="M53.768 50.407a5.041 5.041 0 1 1 5.041-5.041 5.047 5.047 0 0 1-5.041 5.041zm0-6.721a1.68 1.68 0 1 0 1.68 1.68 1.685 1.685 0 0 0-1.68-1.68z"/>
        </g>
        <g data-name="Group 22550">
            <path data-name="Path 25796" d="M62.169 63.849a1.681 1.681 0 0 1-1.683-1.681v-1.68a3.362 3.362 0 0 0-3.36-3.36h-6.719a3.362 3.362 0 0 0-3.36 3.36v1.68a1.68 1.68 0 1 1-3.36 0v-1.68a6.728 6.728 0 0 1 6.72-6.72h6.721a6.728 6.728 0 0 1 6.721 6.721v1.679a1.681 1.681 0 0 1-1.68 1.681z"/>
        </g>
    </g>
</svg>
