<svg xmlns="http://www.w3.org/2000/svg" xmlns:xlink="http://www.w3.org/1999/xlink" width="255" height="255" viewBox="0 0 255 255">
  <defs>
    <linearGradient id="linear-gradient" x1="1.396" y1="-0.381" x2="-0.054" y2="1.049" gradientUnits="objectBoundingBox">
      <stop offset="0" stop-color="#e32a40"/>
      <stop offset="0.241" stop-color="#00c4ff"/>
      <stop offset="0.468" stop-color="#d5aaff"/>
      <stop offset="0.744" stop-color="#dd3448"/>
      <stop offset="1" stop-color="#ffe200"/>
    </linearGradient>
  </defs>
  <g id="Group_45524" data-name="Group 45524" transform="translate(-1252.5 -1504.5)">
    <g id="Group_45324" data-name="Group 45324">
      <path id="Union_12" data-name="Union 12" d="M-1928-9229h216a19,19,0,0,1,19,19v216a19,19,0,0,1-19,19h-216a19,19,0,0,1-19-19v-216A19,19,0,0,1-1928-9229Z" transform="translate(3200 10734)" stroke="rgba(0,0,0,0)" stroke-width="1" fill="url(#linear-gradient)"/>
      <rect id="Rectangle_8907" data-name="Rectangle 8907" width="224" height="224" rx="10" transform="translate(1268 1520)" fill="#fff" stroke="rgba(0,0,0,0)" stroke-width="1"/>
    </g>
    <text id="User-friendly_" data-name="User-friendly " transform="translate(1377 1708)" font-size="18" font-family="Poppins-Bold, Poppins" font-weight="700"><tspan x="-63.333" y="0">User-friendly </tspan></text>
    <g id="magnifying-glass_1_" data-name="magnifying-glass (1)" transform="translate(1326 1558)">
      <g id="Group_22542" data-name="Group 22542" transform="translate(76.5)">
        <g id="Group_22540" data-name="Group 22540">
          <path id="Path_25787" data-name="Path 25787" d="M28.625,21.25A10.625,10.625,0,1,1,39.25,10.625,10.634,10.634,0,0,1,28.625,21.25Zm0-17A6.375,6.375,0,1,0,35,10.625,6.383,6.383,0,0,0,28.625,4.25Z" transform="translate(-18)"/>
        </g>
        <g id="Group_22541" data-name="Group 22541" transform="translate(14.874 14.878)">
          <path id="Path_25788" data-name="Path 25788" d="M30,14.123a2.134,2.134,0,0,1-1.5-.62L22.121,7.127a2.125,2.125,0,0,1,3-3L31.5,10.5A2.123,2.123,0,0,1,30,14.123Z" transform="translate(-21.5 -3.501)"/>
        </g>
      </g>
      <g id="Group_22543" data-name="Group 22543">
        <path id="Path_25789" data-name="Path 25789" d="M61.625,25.5H6.375A6.383,6.383,0,0,1,0,19.125V6.375A6.383,6.383,0,0,1,6.375,0h55.25A6.383,6.383,0,0,1,68,6.375v12.75A6.383,6.383,0,0,1,61.625,25.5ZM6.375,4.25A2.131,2.131,0,0,0,4.25,6.375v12.75A2.131,2.131,0,0,0,6.375,21.25h55.25a2.131,2.131,0,0,0,2.125-2.125V6.375A2.131,2.131,0,0,0,61.625,4.25Z"/>
      </g>
      <g id="Group_22544" data-name="Group 22544" transform="translate(0 76.5)">
        <path id="Path_25790" data-name="Path 25790" d="M12.75,43.5A12.75,12.75,0,1,1,25.5,30.75,12.766,12.766,0,0,1,12.75,43.5Zm0-21.25a8.5,8.5,0,1,0,8.5,8.5A8.509,8.509,0,0,0,12.75,22.25Z" transform="translate(0 -18)"/>
      </g>
      <g id="Group_22545" data-name="Group 22545" transform="translate(0 51)">
        <path id="Path_25791" data-name="Path 25791" d="M23.375,16.25H2.125a2.125,2.125,0,0,1,0-4.25h21.25a2.125,2.125,0,0,1,0,4.25Z" transform="translate(0 -12)"/>
      </g>
      <g id="Group_22546" data-name="Group 22546" transform="translate(0 63.75)">
        <path id="Path_25792" data-name="Path 25792" d="M23.375,19.25H2.125a2.125,2.125,0,0,1,0-4.25h21.25a2.125,2.125,0,0,1,0,4.25Z" transform="translate(0 -15)"/>
      </g>
      <g id="Group_22547" data-name="Group 22547" transform="translate(0 38.25)">
        <path id="Path_25793" data-name="Path 25793" d="M23.375,13.25H2.125a2.125,2.125,0,0,1,0-4.25h21.25a2.125,2.125,0,0,1,0,4.25Z" transform="translate(0 -9)"/>
      </g>
      <g id="Group_22548" data-name="Group 22548" transform="translate(34 34)">
        <path id="Path_25794" data-name="Path 25794" d="M69.625,76H14.375A6.383,6.383,0,0,1,8,69.625V14.375A6.383,6.383,0,0,1,14.375,8h55.25A6.383,6.383,0,0,1,76,14.375v55.25A6.383,6.383,0,0,1,69.625,76ZM14.375,12.25a2.131,2.131,0,0,0-2.125,2.125v55.25a2.131,2.131,0,0,0,2.125,2.125h55.25a2.131,2.131,0,0,0,2.125-2.125V14.375a2.131,2.131,0,0,0-2.125-2.125Z" transform="translate(-8 -8)"/>
      </g>
      <g id="Group_22551" data-name="Group 22551" transform="translate(55.25 51)">
        <g id="Group_22549" data-name="Group 22549" transform="translate(6.375)">
          <path id="Path_25795" data-name="Path 25795" d="M20.875,24.75a6.375,6.375,0,1,1,6.375-6.375A6.383,6.383,0,0,1,20.875,24.75Zm0-8.5A2.125,2.125,0,1,0,23,18.375,2.131,2.131,0,0,0,20.875,16.25Z" transform="translate(-14.5 -12)"/>
        </g>
        <g id="Group_22550" data-name="Group 22550" transform="translate(0 17)">
          <path id="Path_25796" data-name="Path 25796" d="M36.375,28.75a2.126,2.126,0,0,1-2.125-2.125V24.5A4.252,4.252,0,0,0,30,20.25H21.5a4.252,4.252,0,0,0-4.25,4.25v2.125a2.125,2.125,0,1,1-4.25,0V24.5A8.509,8.509,0,0,1,21.5,16H30a8.509,8.509,0,0,1,8.5,8.5v2.125A2.126,2.126,0,0,1,36.375,28.75Z" transform="translate(-13 -16)"/>
        </g>
      </g>
    </g>
  </g>
</svg>
