<?xml version="1.0" standalone="no"?>
<!DOCTYPE svg PUBLIC "-//W3C//DTD SVG 20010904//EN"
 "http://www.w3.org/TR/2001/REC-SVG-20010904/DTD/svg10.dtd">
<svg version="1.0" xmlns="http://www.w3.org/2000/svg"
 width="1152.000000pt" height="1783.000000pt" viewBox="0 0 1152.000000 1783.000000"
 preserveAspectRatio="xMidYMid meet">
<metadata>
Created by potrace 1.16, written by Peter Selinger 2001-2019
</metadata>
<g transform="translate(0.000000,1783.000000) scale(0.100000,-0.100000)"
fill="#000000" stroke="none">
<path d="M3171 13488 l-3001 -4291 0 -1319 0 -1318 3190 0 3190 0 0 -1235 0
-1235 1630 0 1630 0 0 1235 0 1235 780 0 780 0 0 1410 0 1410 -780 0 -780 0 0
4200 0 4200 -1819 0 -1819 0 -3001 -4292z m3606 -4105 c-2 -2 -717 -2 -1588
-1 l-1585 3 1586 2397 1585 2396 3 -2396 c1 -1317 1 -2397 -1 -2399z"/>
<path d="M4388 5324 c-167 -40 -264 -148 -276 -305 -7 -96 17 -168 76 -232 54
-58 127 -95 301 -152 137 -45 191 -85 191 -142 0 -45 -14 -69 -50 -88 -38 -20
-115 -19 -150 1 -32 19 -60 63 -60 93 0 20 -4 21 -156 21 l-157 0 6 -53 c13
-134 109 -239 259 -285 192 -60 389 -28 506 82 106 99 137 244 80 378 -37 87
-119 142 -318 213 -131 47 -196 79 -210 104 -19 37 -12 90 16 116 39 36 83 41
139 16 37 -16 50 -28 62 -61 l16 -40 155 0 155 0 -7 47 c-19 141 -122 246
-283 288 -71 18 -218 18 -295 -1z"/>
<path d="M42 5316 c2 -7 68 -271 148 -585 l145 -571 174 2 175 3 92 365 c50
201 94 358 97 350 4 -8 40 -157 82 -330 42 -173 80 -332 86 -352 l10 -38 173
0 172 0 148 568 c81 312 149 575 152 585 5 16 -5 17 -152 15 l-158 -3 -81
-405 c-46 -227 -84 -396 -88 -385 -3 11 -44 187 -92 390 -47 204 -88 378 -91
388 -5 15 -21 17 -163 17 l-157 0 -99 -406 c-72 -293 -101 -399 -107 -382 -4
12 -39 187 -78 388 -39 201 -73 373 -76 383 -5 15 -21 17 -160 17 -127 0 -155
-3 -152 -14z"/>
<path d="M2162 5303 c-15 -45 -400 -1106 -407 -1125 -7 -17 4 -18 147 -18
l154 0 34 105 34 105 211 0 211 0 34 -105 34 -105 153 0 c116 0 153 3 152 13
0 6 -93 269 -207 582 l-207 570 -166 3 -167 2 -10 -27z m239 -500 c34 -104 64
-194 67 -200 3 -10 -27 -13 -131 -13 l-135 0 66 200 c37 110 68 200 69 200 1
0 29 -84 64 -187z"/>
<path d="M2950 5321 c0 -5 90 -182 200 -395 l200 -386 0 -190 0 -190 145 0
145 0 0 195 0 196 200 386 c110 213 200 388 200 390 0 2 -73 3 -163 3 l-164 0
-109 -239 -109 -238 -110 238 -110 239 -162 0 c-90 0 -163 -4 -163 -9z"/>
<path d="M555 3329 c-79 -12 -117 -25 -195 -65 -88 -46 -150 -102 -203 -182
-70 -106 -89 -168 -95 -306 -5 -140 5 -201 55 -306 27 -57 55 -93 112 -150
129 -128 259 -176 456 -167 134 6 206 29 310 99 161 107 248 278 249 488 0
114 -14 181 -60 276 -67 137 -189 242 -334 288 -88 28 -210 39 -295 25z m230
-286 c166 -87 217 -330 106 -506 -104 -162 -370 -164 -478 -3 -44 64 -57 115
-57 211 0 104 23 170 80 234 62 69 123 92 229 88 57 -3 92 -10 120 -24z"/>
<path d="M4815 3329 c-246 -38 -439 -219 -485 -457 -19 -96 -8 -261 23 -346
65 -177 225 -317 409 -361 82 -19 228 -19 303 0 81 21 190 76 246 124 209 181
258 523 112 770 -72 121 -216 227 -353 259 -69 16 -188 22 -255 11z m231 -287
c58 -30 103 -78 133 -142 23 -48 26 -68 26 -160 0 -86 -4 -113 -21 -151 -53
-114 -146 -173 -274 -173 -92 1 -151 24 -209 84 -123 127 -113 390 20 503 60
52 109 67 204 64 57 -3 92 -10 121 -25z"/>
<path d="M9967 3315 c-315 -80 -493 -403 -407 -739 50 -198 189 -344 380 -400
85 -26 231 -31 320 -12 170 36 317 146 393 295 l37 73 0 144 0 144 -310 0
-310 0 0 -110 0 -110 175 0 c96 0 175 -4 175 -8 0 -19 -61 -101 -92 -125 -102
-78 -274 -75 -379 6 -107 82 -146 274 -86 419 41 99 147 168 257 168 91 0 131
-14 188 -65 l50 -45 156 0 156 0 -6 28 c-22 91 -108 207 -195 262 -96 62 -169
82 -314 86 -92 3 -147 -1 -188 -11z"/>
<path d="M1390 2740 l0 -580 145 0 145 0 0 230 0 230 175 0 175 0 0 115 0 115
-175 0 -175 0 0 120 0 120 235 0 235 0 0 115 0 115 -380 0 -380 0 0 -580z"/>
<path d="M2580 3309 c0 -9 273 -1091 286 -1131 5 -16 22 -18 179 -18 l174 0
10 38 c6 20 47 186 92 367 l83 330 37 -150 c20 -82 61 -248 90 -368 l52 -217
176 2 175 3 148 565 c81 311 148 571 148 578 0 9 -37 12 -154 12 -151 0 -154
0 -159 -22 -3 -13 -38 -185 -77 -383 -39 -198 -74 -368 -78 -378 -5 -12 -42
128 -101 383 l-95 400 -159 -2 -160 -3 -96 -392 c-53 -215 -98 -394 -101 -397
-3 -2 -41 175 -84 395 l-78 399 -154 0 c-101 0 -154 -4 -154 -11z"/>
<path d="M5650 2740 l0 -580 145 0 145 0 0 215 0 215 33 0 c31 0 34 -4 150
-215 l118 -215 165 0 c154 0 164 1 155 18 -5 9 -64 111 -130 226 -67 115 -120
210 -119 211 2 1 28 14 60 28 67 33 121 89 156 166 23 47 27 70 27 146 0 78
-4 99 -29 152 -31 68 -89 129 -155 162 -84 43 -149 51 -443 51 l-278 0 0 -580z
m537 321 c50 -23 73 -62 73 -124 0 -56 -33 -108 -80 -124 -19 -7 -81 -12 -137
-12 l-103 -1 0 140 0 140 103 0 c78 0 112 -5 144 -19z"/>
<path d="M6720 2740 l0 -580 145 0 145 0 2 247 3 247 188 -247 188 -247 175 0
c96 0 174 3 174 8 0 4 -101 135 -225 292 -124 157 -225 288 -225 291 0 3 99
131 221 285 l221 279 -163 3 c-90 1 -169 0 -175 -2 -7 -3 -95 -114 -196 -247
l-183 -242 -3 247 -2 246 -145 0 -145 0 0 -580z"/>
<path d="M7870 2740 l0 -580 145 0 145 0 0 580 0 580 -145 0 -145 0 0 -580z"/>
<path d="M8350 2740 l0 -580 145 0 145 0 2 345 3 346 227 -343 227 -343 145
-3 146 -3 0 581 0 580 -145 0 -145 0 -2 -344 -3 -345 -225 344 -225 344 -147
1 -148 0 0 -580z"/>
<path d="M6230 1312 c-84 -22 -148 -60 -199 -118 -49 -56 -71 -122 -71 -214 0
-91 23 -151 79 -209 53 -54 119 -88 264 -135 202 -66 255 -115 215 -201 -16
-36 -57 -55 -115 -55 -77 0 -109 27 -137 113 -5 15 -22 17 -160 17 l-155 0 6
-38 c15 -109 55 -181 130 -236 101 -75 260 -109 405 -88 142 21 243 85 304
194 27 49 29 61 29 158 0 119 -9 144 -75 210 -49 49 -98 74 -278 140 -166 61
-202 87 -202 147 0 74 60 115 139 93 43 -11 91 -59 91 -91 0 -18 9 -19 160
-19 184 0 174 -8 140 103 -36 116 -133 199 -271 232 -84 19 -218 18 -299 -3z"/>
<path d="M43 1298 c2 -7 69 -268 148 -581 l144 -567 174 2 175 3 92 365 c50
201 94 358 97 350 3 -8 40 -157 82 -330 42 -173 80 -332 86 -352 l10 -38 173
0 173 0 93 357 c51 197 119 458 150 581 l58 222 -157 0 -156 0 -80 -399 c-44
-220 -81 -398 -83 -396 -2 1 -45 180 -96 396 l-92 394 -161 3 -161 2 -97 -397
c-53 -219 -98 -402 -99 -408 -2 -5 -38 172 -82 395 l-80 405 -158 3 c-125 2
-157 0 -153 -10z"/>
<path d="M1830 730 l0 -580 145 0 145 0 0 580 0 580 -145 0 -145 0 0 -580z"/>
<path d="M2250 1195 l0 -115 155 0 155 0 0 -465 0 -465 145 0 145 0 0 465 0
465 150 0 150 0 0 115 0 115 -450 0 -450 0 0 -115z"/>
<path d="M3280 730 l0 -580 145 0 145 0 0 240 0 240 215 0 215 0 0 -240 0
-240 145 0 145 0 0 580 0 580 -145 0 -145 0 0 -225 0 -225 -215 0 -215 0 0
225 0 225 -145 0 -145 0 0 -580z"/>
<path d="M4830 917 c0 -427 3 -460 57 -559 112 -205 424 -279 670 -158 125 62
206 170 233 309 6 30 10 215 10 427 l0 374 -145 0 -144 0 -3 -382 -3 -383 -27
-46 c-74 -125 -280 -116 -339 15 -17 38 -19 73 -19 419 l0 377 -145 0 -145 0
0 -393z"/>
</g>
</svg>
