<svg xmlns="http://www.w3.org/2000/svg" width="42.389" height="29.625" viewBox="0 0 42.389 29.625">
  <path id="Icon_simple-youtube" data-name="Icon simple-youtube" d="M41.512,10a5.313,5.313,0,0,0-3.689-3.689c-3.3-.885-16.6-.885-16.6-.885s-13.264-.018-16.6.885A5.313,5.313,0,0,0,.93,10,55.21,55.21,0,0,0,.008,20.255,55.21,55.21,0,0,0,.93,30.473a5.313,5.313,0,0,0,3.689,3.689c3.3.887,16.6.887,16.6.887s13.262,0,16.6-.887a5.313,5.313,0,0,0,3.689-3.689A55.21,55.21,0,0,0,42.4,20.255,55.21,55.21,0,0,0,41.512,10ZM16.977,26.6V13.891l11.068,6.364Z" transform="translate(-0.008 -5.424)" fill="#fff"/>
</svg>
